<!-- Generated by IcoMoon.io -->
<svg version="1.1" xmlns="http://www.w3.org/2000/svg" width="32" height="32" viewBox="0 0 32 32">
<title>add</title>
<path d="M4.661 3.333h6.673v8c0 0.736 0.597 1.333 1.333 1.333h2.341c-2.993 1.728-5.008 4.962-5.008 8.667 0 1.168 0.2 2.29 0.569 3.332-3.19-0-5.902 0.001-5.902 0.001l-0.006-21.333zM20.667 10h-6.666v-6.666l6.666 6.666zM21.333 18.004v1.996h1.996c0.739 0 1.337 0.592 1.337 1.333 0 0.736-0.598 1.333-1.337 1.333h-1.996v1.996c0 0.739-0.592 1.337-1.333 1.337-0.736 0-1.333-0.598-1.333-1.337v-1.996h-1.996c-0.739 0-1.337-0.592-1.337-1.333 0-0.736 0.598-1.333 1.337-1.333h1.996v-1.996c0-0.739 0.592-1.337 1.333-1.337 0.736 0 1.333 0.598 1.333 1.337zM23.333 9.599c0-0.362-0.209-0.875-0.468-1.134l-7.328-7.33c-0.255-0.255-0.766-0.468-1.134-0.468h-9.743c-1.466 0-2.661 1.194-2.661 2.667v21.333c0 1.469 1.195 2.667 2.669 2.667h7.33c1.824 2.429 4.729 4 8.001 4 5.523 0 10-4.477 10-10 0-4.354-2.783-8.058-6.667-9.431v-2.303zM27.333 21.333c0 4.050-3.283 7.333-7.333 7.333s-7.333-3.283-7.333-7.333c0-4.050 3.283-7.333 7.333-7.333s7.333 3.283 7.333 7.333z"></path>
</svg>
