<!-- Generated by IcoMoon.io -->
<svg version="1.1" xmlns="http://www.w3.org/2000/svg" width="1500" height="1500" viewBox="0 0 1500 1500">
<title>add</title>
<path d="M195.357 130.436h326.402v391.304c0 36.019 29.2 65.218 65.218 65.218h114.491c-146.411 84.519-244.945 242.71-244.945 423.913 0 57.149 9.801 112.009 27.814 162.99-156.053-0.007-288.683 0.051-288.683 0.051l-0.294-1043.477zM978.261 456.521h-326.067v-326.067l326.067 326.067zM1010.87 848.017v97.635h97.635c36.125 0 65.408 28.947 65.408 65.218 0 36.019-29.251 65.218-65.408 65.218h-97.635v97.635c0 36.125-28.947 65.408-65.218 65.408-36.019 0-65.218-29.251-65.218-65.408v-97.635h-97.635c-36.125 0-65.408-28.947-65.408-65.218 0-36.019 29.251-65.218 65.408-65.218h97.635v-97.635c0-36.125 28.947-65.408 65.218-65.408 36.019 0 65.218 29.251 65.218 65.408zM1108.696 436.907c0-17.692-10.247-42.816-22.89-55.462l-358.415-358.55c-12.491-12.495-37.477-22.897-55.471-22.897h-476.563c-71.713 0-130.14 58.397-130.14 130.436v1043.477c0 71.856 58.46 130.436 130.573 130.436h358.521c89.237 118.805 231.315 195.652 391.339 195.652 270.139 0 489.13-218.991 489.13-489.13 0-212.971-136.11-394.15-326.086-461.297v-112.664zM1304.348 1010.87c0 198.103-160.594 358.696-358.696 358.696s-358.696-160.594-358.696-358.696c0-198.103 160.594-358.696 358.696-358.696s358.696 160.594 358.696 358.696z"></path>
</svg>
