<svg xmlns="http://www.w3.org/2000/svg" width="1000" height="1000" viewBox="0 0 1000 1000"><path d="M130.238 86.957H347.84v260.869c0 24.013 19.467 43.479 43.479 43.479h76.327c-97.607 56.346-163.297 161.807-163.297 282.608 0 38.1 6.534 74.673 18.543 108.66-104.035-.005-192.455.034-192.455.034l-.196-695.651zm521.936 217.391H434.796V86.97l217.378 217.378zm21.739 260.997v65.09h65.09c24.083 0 43.605 19.298 43.605 43.479 0 24.013-19.501 43.479-43.605 43.479h-65.09v65.09c0 24.083-19.298 43.605-43.479 43.605-24.013 0-43.479-19.501-43.479-43.605v-65.09h-65.09c-24.083 0-43.605-19.298-43.605-43.479 0-24.013 19.501-43.479 43.605-43.479h65.09v-65.09c0-24.083 19.298-43.605 43.479-43.605 24.013 0 43.479 19.501 43.479 43.605zm65.218-274.074c0-11.795-6.831-28.544-15.26-36.975L484.928 15.263c-8.327-8.33-24.984-15.265-36.98-15.265H130.239c-47.809 0-86.76 38.932-86.76 86.957v695.651c0 47.904 38.974 86.957 87.049 86.957h239.014c59.491 79.203 154.21 130.435 260.893 130.435 180.093 0 326.087-145.994 326.087-326.087 0-141.98-90.74-262.767-217.391-307.531v-75.109zm130.434 382.642c0 132.068-107.063 239.131-239.131 239.131S391.303 805.981 391.303 673.913c0-132.068 107.063-239.131 239.131-239.131s239.131 107.062 239.131 239.131z"/></svg>