<!-- Generated by IcoMoon.io -->
<svg version="1.1" xmlns="http://www.w3.org/2000/svg" width="32" height="32" viewBox="0 0 32 32">
<title>calendar</title>
<path d="M13.333 26.667h5.333v-5.333h-5.333v5.333zM18.667 18.667v-5.333h-5.333v5.333h5.333zM21.333 21.333v5.333h4.007c0.732 0 1.327-0.596 1.327-1.333v-4h-5.333zM26.667 13.333h-5.333v5.333h5.333v-5.333zM5.333 21.333v4c0 0.737 0.595 1.333 1.327 1.333h4.007v-5.333h-5.333zM10.667 18.667v-5.333h-5.333v5.333h5.333zM26.667 8c0-0.737-0.595-1.333-1.327-1.333-0.007 0.737-0.598 1.333-1.34 1.333-0.736 0-1.333-0.592-1.333-1.333l-2.667-0c0 0.737-0.592 1.333-1.333 1.333-0.736 0-1.333-0.592-1.333-1.333l-2.667-0c0 0.737-0.592 1.333-1.333 1.333-0.736 0-1.333-0.592-1.333-1.333l-2.667-0c0 0.737-0.592 1.333-1.333 1.333-0.736 0-1.333-0.592-1.333-1.333-0.739-0-1.333 0.596-1.333 1.333v2.667h21.333v-2.667zM29.333 8v17.333c0 2.209-1.787 4-3.993 4h-18.68c-2.206 0-3.993-1.792-3.993-4v-17.333c0-2.209 1.787-4 3.993-4l0.007-1.334c0-0.736 0.592-1.333 1.333-1.333 0.736 0 1.333 0.592 1.333 1.333v1.334h2.667v-1.334c0-0.736 0.592-1.333 1.333-1.333 0.736 0 1.333 0.592 1.333 1.333v1.334h2.667v-1.334c0-0.736 0.592-1.333 1.333-1.333 0.736 0 1.333 0.592 1.333 1.333v1.334h2.667v-1.334c0-0.736 0.592-1.333 1.333-1.333 0.736 0 1.333 0.592 1.333 1.333v1.334c2.213 0 4 1.792 4 4z"></path>
</svg>
