<!-- Generated by IcoMoon.io -->
<svg version="1.1" xmlns="http://www.w3.org/2000/svg" width="1500" height="1500" viewBox="0 0 1500 1500">
<title>calendar</title>
<path d="M607.14 1357.14h285.715v-285.715h-285.715v285.715zM892.853 928.569v-285.715h-285.715v285.715h285.715zM1035.71 1071.426v285.715h214.638c39.239 0 71.077-31.925 71.077-71.436v-214.277h-285.715zM1321.424 642.855h-285.715v285.715h285.715v-285.715zM178.569 1071.426v214.277c0 39.47 31.878 71.436 71.077 71.436h214.638v-285.715h-285.715zM464.282 928.569v-285.715h-285.715v285.715h285.715zM1321.424 357.149c0-39.47-31.878-71.436-71.077-71.436-0.352 39.456-32.055 71.429-71.779 71.429-39.448 0-71.429-31.695-71.429-71.414l-142.856-0.013c0 39.456-31.704 71.429-71.429 71.429-39.448 0-71.429-31.695-71.429-71.414l-142.856-0.013c0 39.456-31.704 71.429-71.429 71.429-39.448 0-71.429-31.695-71.429-71.414l-142.856-0.013c0 39.456-31.704 71.429-71.429 71.429-39.448 0-71.429-31.695-71.429-71.414-39.59-0.013-71.429 31.91-71.429 71.423v142.85h1142.856v-142.85zM1464.283 357.149v928.556c0 118.323-95.71 214.293-213.935 214.293h-1000.699c-118.184 0-213.935-96.010-213.935-214.293v-928.556c0-118.323 95.71-214.293 213.935-214.293l0.352-71.442c0-39.442 31.704-71.414 71.429-71.414 39.448 0 71.429 31.695 71.429 71.414v71.442h142.856v-71.442c0-39.442 31.704-71.414 71.429-71.414 39.448 0 71.429 31.695 71.429 71.414v71.442h142.856v-71.442c0-39.442 31.704-71.414 71.429-71.414 39.448 0 71.429 31.695 71.429 71.414v71.442h142.856v-71.442c0-39.442 31.704-71.414 71.429-71.414 39.448 0 71.429 31.695 71.429 71.414v71.442c118.534 0 214.286 96.010 214.286 214.293z"></path>
</svg>
