<!-- Generated by IcoMoon.io -->
<svg version="1.1" xmlns="http://www.w3.org/2000/svg" width="32" height="32" viewBox="0 0 32 32">
<title>call</title>
<path d="M18.182 0c7.632 0 13.818 6.187 13.818 13.818 0 2.125-0.48 4.139-1.337 5.937l1.265 5.622c0.352 1.564-0.634 2.545-2.201 2.191l-5.612-1.267c-1.364 0.649-2.851 1.082-4.416 1.253-1.986 2.696-5.183 4.446-8.789 4.446-6.025 0-10.909-4.884-10.909-10.909 0-3.606 1.749-6.803 4.446-8.789 0.755-6.918 6.617-12.302 13.736-12.302zM23.773 23.242l4.948 1.136-1.117-4.966 0.433-0.908c0.691-1.45 1.054-3.039 1.054-4.686 0-6.025-4.884-10.909-10.909-10.909-4.923 0-9.084 3.261-10.442 7.74 1.003-0.304 2.067-0.467 3.169-0.467 6.025 0 10.909 4.884 10.909 10.909 0 1.102-0.164 2.167-0.468 3.17 0.518-0.157 2.423-1.019 2.423-1.019zM10.909 29.091c4.418 0 8-3.582 8-8s-3.582-8-8-8c-4.418 0-8 3.582-8 8s3.582 8 8 8z"></path>
<path d="M10.153 18.942l-0.542 0.542c-0.3 0.3-0.299 0.787 0.002 1.088l1.807 1.807c0.303 0.303 0.788 0.302 1.088 0.002l0.542-0.542c0.2-0.2 0.525-0.201 0.726-0l1.991 1.991c0.3 0.3 0.302 0.786-0.001 1.088l-1.086 1.086c-0.699 0.699-1.969 0.883-2.818 0.375 0 0-1.36-0.572-3.505-2.717s-2.738-3.53-2.738-3.53c-0.495-0.857-0.327-2.121 0.371-2.818l1.086-1.086c0.301-0.301 0.786-0.303 1.088-0.001l1.991 1.991c0.2 0.2 0.201 0.524-0.001 0.726z"></path>
</svg>
