<svg xmlns="http://www.w3.org/2000/svg" width="1000" height="1000" viewBox="0 0 1000 1000"><path d="M568.182 0C806.668 0 1000 193.332 1000 431.818c0 66.416-14.994 129.329-41.781 185.541l39.521 175.682c10.994 48.871-19.818 79.521-68.766 68.472L753.59 821.919c-42.619 20.292-89.089 33.806-138.015 39.146C553.508 945.329 453.594 1000 340.911 1000 152.632 1000 .002 847.37.002 659.091c0-112.684 54.671-212.598 138.935-274.664C162.537 168.238 345.713 0 568.184 0zm174.734 726.313l154.616 35.499-34.907-155.178 13.526-28.385c21.59-45.304 32.939-94.971 32.939-146.432 0-188.279-152.63-340.909-340.909-340.909-153.837 0-283.875 101.896-326.303 241.879 31.34-9.499 64.589-14.606 99.03-14.606 188.279 0 340.909 152.63 340.909 340.909 0 34.452-5.11 67.711-14.615 99.06 16.2-4.907 75.713-31.838 75.713-31.838zM340.909 909.091c138.071 0 250-111.929 250-250s-111.929-250-250-250-250 111.929-250 250 111.929 250 250 250z"/><path d="M317.29 591.925l-16.947 16.947c-9.363 9.363-9.347 24.592.057 33.996l56.468 56.468c9.464 9.464 24.624 9.429 33.996.057l16.947-16.947c6.265-6.265 16.398-6.29 22.673-.016l62.205 62.205c9.382 9.382 9.426 24.55-.039 34.014l-33.923 33.923c-21.855 21.855-61.53 27.603-88.062 11.726 0 0-42.498-17.881-109.521-84.904s-85.562-110.312-85.562-110.312c-15.458-26.786-10.213-66.276 11.583-88.072l33.923-33.923c9.403-9.403 24.573-9.479 34.014-.039l62.205 62.205c6.257 6.257 6.271 16.387-.016 22.673z"/></svg>