<!-- Generated by IcoMoon.io -->
<svg version="1.1" xmlns="http://www.w3.org/2000/svg" width="1500" height="1500" viewBox="0 0 1500 1500">
<title>call</title>
<path d="M852.272 0c357.729 0 647.728 289.998 647.728 647.728 0 99.624-22.491 193.994-62.672 278.312l59.281 263.522c16.491 73.307-29.728 119.282-103.148 102.708l-263.076-59.391c-63.929 30.438-133.633 50.708-207.022 58.72-93.101 126.396-242.972 208.402-411.996 208.402-282.419 0-511.364-228.945-511.364-511.364 0-169.025 82.006-318.896 208.402-411.996 35.399-324.284 310.165-576.64 643.871-576.64zM1114.374 1089.469l231.924 53.249-52.361-232.767 20.29-42.577c32.385-67.956 49.409-142.456 49.409-219.647 0-282.419-228.945-511.364-511.364-511.364-230.755 0-425.813 152.845-489.454 362.818 47.010-14.249 96.883-21.91 148.545-21.91 282.419 0 511.364 228.945 511.364 511.364 0 51.678-7.666 101.566-21.923 148.589 24.3-7.361 113.569-47.757 113.569-47.757zM511.364 1363.636c207.107 0 375-167.893 375-375s-167.893-375-375-375c-207.107 0-375 167.893-375 375s167.893 375 375 375z"></path>
<path d="M475.935 887.887l-25.421 25.421c-14.045 14.045-14.020 36.888 0.085 50.994l84.702 84.702c14.196 14.196 36.936 14.143 50.994 0.085l25.421-25.421c9.397-9.397 24.598-9.435 34.009-0.023l93.308 93.308c14.073 14.073 14.139 36.825-0.059 51.021l-50.884 50.884c-32.783 32.783-92.295 41.404-132.092 17.588 0 0-63.747-26.821-164.282-127.356s-128.344-165.467-128.344-165.467c-23.187-40.179-15.319-99.415 17.375-132.108l50.884-50.884c14.105-14.105 36.86-14.219 51.021-0.059l93.308 93.308c9.385 9.385 9.406 24.58-0.023 34.009z"></path>
</svg>
