<?xml version="1.0" encoding="UTF-8"?>
<svg width="1000px" height="1000px" viewBox="0 0 1000 1000" version="1.1" xmlns="http://www.w3.org/2000/svg" xmlns:xlink="http://www.w3.org/1999/xlink">
    <!-- Generator: Sketch 52 (66869) - http://www.bohemiancoding.com/sketch -->
    <title>Artboard</title>
    <desc>Created with Sketch.</desc>
    <g id="Artboard" stroke="none" stroke-width="1" fill="none" fill-rule="evenodd">
        <path d="M500,785.785124 C361.327542,785.785124 248.704663,672.014299 248.704663,531.404959 C248.704663,390.795619 361.327542,277.024793 500,277.024793 C638.672458,277.024793 751.295337,390.795619 751.295337,531.404959 C751.295337,672.014299 638.672458,785.785124 500,785.785124 Z M500,716.694215 C601.700179,716.694215 683.937824,633.618335 683.937824,531.404959 C683.937824,429.191582 601.700179,346.115702 500,346.115702 C398.299821,346.115702 316.062176,429.191582 316.062176,531.404959 C316.062176,633.618335 398.299821,716.694215 500,716.694215 Z M841.968912,456.033058 C814.898035,456.033058 792.746114,433.655346 792.746114,405.785124 C792.746114,377.914902 814.898035,355.53719 841.968912,355.53719 C869.039789,355.53719 891.19171,377.914902 891.19171,405.785124 C891.19171,433.655346 869.039789,456.033058 841.968912,456.033058 Z M841.968912,386.942149 C832.067509,386.942149 823.834197,395.259382 823.834197,405.785124 C823.834197,416.310866 832.067509,424.628099 841.968912,424.628099 C851.870315,424.628099 860.103627,416.310866 860.103627,405.785124 C860.103627,395.259382 851.870315,386.942149 841.968912,386.942149 Z M500,660.165289 C430.005438,660.165289 373.056995,602.63638 373.056995,531.404959 C373.056995,460.173538 430.005438,402.644628 500,402.644628 C569.994562,402.644628 626.943005,460.173538 626.943005,531.404959 C626.943005,602.63638 569.994562,660.165289 500,660.165289 Z M500,591.07438 C533.022283,591.07438 559.585492,564.240416 559.585492,531.404959 C559.585492,498.569501 533.022283,471.735537 500,471.735537 C466.977717,471.735537 440.414508,498.569501 440.414508,531.404959 C440.414508,564.240416 466.977717,591.07438 500,591.07438 Z M742.664613,245.619835 L919.689119,245.619835 C963.92947,245.619835 1000,282.058026 1000,327.272727 L1000,798.347107 C1000,843.561809 963.92947,880 919.689119,880 L80.3108808,880 C36.07053,880 1.15049018e-14,843.561809 0,798.347107 L0,327.272727 C1.15049018e-14,282.058026 36.07053,245.619835 80.3108808,245.619835 L257.335387,245.619835 L349.830362,132.361942 C356.229388,124.526487 365.682734,120 375.647668,120 L624.352332,120 C634.317266,120 643.770612,124.526487 650.169638,132.361942 L742.664613,245.619835 Z M391.369276,189.090909 L298.874301,302.348802 C292.475275,310.184257 283.02193,314.710744 273.056995,314.710744 L80.3108808,314.710744 C73.0428094,314.710744 67.357513,320.45399 67.357513,327.272727 L67.357513,798.347107 C67.357513,805.165845 73.0428094,810.909091 80.3108808,810.909091 L919.689119,810.909091 C926.957191,810.909091 932.642487,805.165845 932.642487,798.347107 L932.642487,327.272727 C932.642487,320.45399 926.957191,314.710744 919.689119,314.710744 L726.943005,314.710744 C716.97807,314.710744 707.524725,310.184257 701.125699,302.348802 L608.630724,189.090909 L391.369276,189.090909 Z" id="Path" fill="#000000" fill-rule="nonzero"></path>
    </g>
</svg>