<svg width="1000" height="1000" viewBox="0 0 1000 1000" xmlns="http://www.w3.org/2000/svg"><path d="M500 785.785c-138.672 0-251.295-113.77-251.295-254.38S361.328 277.025 500 277.025c138.672 0 251.295 113.77 251.295 254.38S638.672 785.785 500 785.785zm0-69.09c101.7 0 183.938-83.077 183.938-185.29S601.7 346.115 500 346.115c-101.7 0-183.938 83.077-183.938 185.29S398.3 716.695 500 716.695zm341.969-260.662c-27.071 0-49.223-22.378-49.223-50.248 0-27.87 22.152-50.248 49.223-50.248 27.07 0 49.223 22.378 49.223 50.248 0 27.87-22.152 50.248-49.223 50.248zm0-69.09c-9.901 0-18.135 8.316-18.135 18.842 0 10.526 8.234 18.843 18.135 18.843 9.901 0 18.135-8.317 18.135-18.843s-8.234-18.843-18.135-18.843zM500 660.164c-69.995 0-126.943-57.529-126.943-128.76S430.005 402.645 500 402.645s126.943 57.529 126.943 128.76S569.995 660.165 500 660.165zm0-69.09c33.022 0 59.585-26.835 59.585-59.67s-26.563-59.67-59.585-59.67c-33.022 0-59.585 26.835-59.585 59.67s26.563 59.67 59.585 59.67zM742.665 245.62h177.024c44.24 0 80.311 36.438 80.311 81.653v471.074c0 45.215-36.07 81.653-80.31 81.653H80.31C36.07 880 0 843.562 0 798.347V327.273c0-45.215 36.07-81.653 80.31-81.653h177.025l92.495-113.258c6.4-7.836 15.853-12.362 25.818-12.362h248.704c9.965 0 19.419 4.526 25.818 12.362l92.495 113.258zm-351.296-56.53l-92.495 113.26c-6.399 7.835-15.852 12.362-25.817 12.362H80.311c-7.268 0-12.953 5.743-12.953 12.562v471.074c0 6.819 5.685 12.562 12.953 12.562h839.378c7.268 0 12.953-5.743 12.953-12.562V327.273c0-6.819-5.685-12.562-12.953-12.562H726.943c-9.965 0-19.418-4.527-25.817-12.362L608.63 189.09H391.369z"/></svg>