<svg xmlns="http://www.w3.org/2000/svg" width="1500" height="1500" viewBox="0 0 1500 1500"><path d="M477.274 613.639V409.141c-12.998-.012-24.595-.025-34.244-.048-135.749-.303-245.336 68.37-287.732 204.545h321.977zM136.375 954.548h45.719c28.08-79.444 103.847-136.362 192.907-136.362s164.827 56.918 192.907 136.362h364.187c28.08-79.444 103.847-136.362 192.907-136.362s164.827 56.918 192.907 136.362h45.729v-68.183c0-61.011-31.975-104.839-105.362-136.362H136.368c.028 18.148.019 129.82.01 204.545zm791.312-409.535l-7.909-12.318C858.433 437.303 824.38 409.094 750 409.094c-30.309 0-82.229.032-136.362.051v204.494h361.917c-15.253-19.453-30.867-42.166-47.867-68.626zM1500 886.365v136.362c0 37.655-30.229 68.183-68.117 68.183h-113.977c-28.08 79.444-103.847 136.362-192.907 136.362s-164.827-56.918-192.907-136.362H567.905c-28.08 79.444-103.847 136.362-192.907 136.362s-164.827-56.918-192.907-136.362H68.381c-37.767 0-68.383-30.264-68.383-68.183 0 0 .028-254.839 0-272.625C-.46 443.557 196.36 272.176 443.329 272.728c69.394.154 240.026 0 306.668 0 133.386 0 200.455 55.56 284.473 186.207l7.942 12.369c49.154 76.513 73.928 101.188 115.178 109.005 220.557 41.789 342.407 136.337 342.407 306.054zm-306.817 136.364c0-37.655-30.527-68.183-68.183-68.183s-68.183 30.527-68.183 68.183c0 37.655 30.527 68.183 68.183 68.183s68.183-30.527 68.183-68.183zm-750 0c0-37.655-30.527-68.183-68.183-68.183s-68.183 30.527-68.183 68.183c0 37.655 30.527 68.183 68.183 68.183s68.183-30.527 68.183-68.183z"/></svg>