<!-- Generated by IcoMoon.io -->
<svg version="1.1" xmlns="http://www.w3.org/2000/svg" width="1500" height="1500" viewBox="0 0 1500 1500">
<title>car</title>
<path d="M477.274 613.639v-204.498c-12.998-0.012-24.595-0.025-34.244-0.048-135.749-0.303-245.336 68.37-287.732 204.545h321.977zM136.375 954.548h45.719c28.080-79.444 103.847-136.362 192.907-136.362s164.827 56.918 192.907 136.362h364.187c28.080-79.444 103.847-136.362 192.907-136.362s164.827 56.918 192.907 136.362h45.729v-68.183c0-61.011-31.975-104.839-105.362-136.362h-1121.908c0.028 18.148 0.019 129.82 0.010 204.545zM927.687 545.013c-3.987-6.211-3.987-6.211-7.909-12.318-61.345-95.392-95.398-123.601-169.778-123.601-30.309 0-82.229 0.032-136.362 0.051v204.494h361.917c-15.253-19.453-30.867-42.166-47.867-68.626zM1500 886.365v136.362c0 37.655-30.229 68.183-68.117 68.183h-113.977c-28.080 79.444-103.847 136.362-192.907 136.362s-164.827-56.918-192.907-136.362h-364.187c-28.080 79.444-103.847 136.362-192.907 136.362s-164.827-56.918-192.907-136.362h-113.71c-37.767 0-68.383-30.264-68.383-68.183 0 0 0.028-254.839 0-272.625-0.458-306.545 196.362-477.926 443.331-477.374 69.394 0.154 240.026 0 306.668 0 133.386 0 200.455 55.56 284.473 186.207 4.012 6.248 4.012 6.248 7.942 12.369 49.154 76.513 73.928 101.188 115.178 109.005 220.557 41.789 342.407 136.337 342.407 306.054zM1193.183 1022.729c0-37.655-30.527-68.183-68.183-68.183s-68.183 30.527-68.183 68.183c0 37.655 30.527 68.183 68.183 68.183s68.183-30.527 68.183-68.183zM443.183 1022.729c0-37.655-30.527-68.183-68.183-68.183s-68.183 30.527-68.183 68.183c0 37.655 30.527 68.183 68.183 68.183s68.183-30.527 68.183-68.183z"></path>
</svg>
