<!-- Generated by IcoMoon.io -->
<svg version="1.1" xmlns="http://www.w3.org/2000/svg" width="32" height="32" viewBox="0 0 32 32">
<title>car</title>
<path d="M10.182 16v-4.363c-0.277-0-0.525-0.001-0.731-0.001-2.896-0.006-5.234 1.459-6.138 4.364h6.869zM2.909 23.273h0.975c0.599-1.695 2.215-2.909 4.115-2.909s3.516 1.214 4.115 2.909h7.769c0.599-1.695 2.215-2.909 4.115-2.909s3.516 1.214 4.115 2.909h0.976v-1.455c0-1.302-0.682-2.237-2.248-2.909h-23.934c0.001 0.387 0 2.77 0 4.364zM19.791 14.536c-0.085-0.133-0.085-0.133-0.169-0.263-1.309-2.035-2.035-2.637-3.622-2.637-0.647 0-1.754 0.001-2.909 0.001v4.363h7.721c-0.325-0.415-0.659-0.9-1.021-1.464zM32 21.818v2.909c0 0.803-0.645 1.455-1.453 1.455h-2.431c-0.599 1.695-2.215 2.909-4.115 2.909s-3.516-1.214-4.115-2.909h-7.769c-0.599 1.695-2.215 2.909-4.115 2.909s-3.516-1.214-4.115-2.909h-2.426c-0.806 0-1.459-0.646-1.459-1.455 0 0 0.001-5.437 0-5.816-0.010-6.54 4.189-10.196 9.458-10.184 1.48 0.003 5.121 0 6.542 0 2.846 0 4.276 1.185 6.069 3.972 0.086 0.133 0.086 0.133 0.169 0.264 1.049 1.632 1.577 2.159 2.457 2.325 4.705 0.891 7.305 2.909 7.305 6.529zM25.455 24.727c0-0.803-0.651-1.455-1.455-1.455s-1.455 0.651-1.455 1.455c0 0.803 0.651 1.455 1.455 1.455s1.455-0.651 1.455-1.455zM9.455 24.727c0-0.803-0.651-1.455-1.455-1.455s-1.455 0.651-1.455 1.455c0 0.803 0.651 1.455 1.455 1.455s1.455-0.651 1.455-1.455z"></path>
</svg>
