<svg width="1500" height="1500" viewBox="0 0 1500 1500" xmlns="http://www.w3.org/2000/svg"><path d="M667.522 1082.462h166.88l93.888 249.845 372.092.024-93.886-333.127-330.408.06-41.685 83.198h-166.88l-41.664-83.152-333.565.061-92.677 332.89 374.026.024 93.88-249.823zm-250.32-582.864c0 183.947 149.43 333.065 333.76 333.065 184.331 0 333.761-149.118 333.761-333.065 0-28.752-3.65-56.653-10.515-83.267H427.716c-6.864 26.614-10.515 54.515-10.515 83.267zm-166.881 0C250.32 223.678 474.466 0 750.962 0c276.497 0 500.642 223.678 500.642 499.598 0 127.956-48.204 244.677-127.48 333.065h126.337c45.881 0 93.07 35.815 105.5 80.352l141.053 505.436c12.385 44.378-14.85 80.383-61.4 80.421L64.491 1500c-46.295.038-73.893-35.814-61.544-80.436l140.146-506.396c12.304-44.462 59.823-80.505 105.354-80.505H377.8c-79.275-88.388-127.48-205.11-127.48-333.065z" fill="#47C1BF"/></svg>