<svg xmlns="http://www.w3.org/2000/svg" width="1000" height="1000" viewBox="0 0 1000 1000"><path d="M445.015 721.642h111.254l62.592 166.563 248.062.016-62.591-222.085-220.272.04-27.79 55.465H445.016l-27.775-55.435-222.377.041-61.785 221.927 249.351.016 62.586-166.549zM278.134 333.065c0 122.631 99.62 222.043 222.508 222.043S723.15 455.696 723.15 333.065c0-19.168-2.434-37.769-7.01-55.511H285.145c-4.576 17.742-7.01 36.343-7.01 55.511zm-111.253 0C166.881 149.118 316.311 0 500.642 0s333.761 149.118 333.761 333.065c0 85.304-32.136 163.118-84.986 222.043h84.224c30.587 0 62.047 23.876 70.333 53.568l94.036 336.958c8.256 29.585-9.9 53.589-40.933 53.614L42.995 1000c-30.863.025-49.262-23.876-41.029-53.624l93.431-337.598c8.203-29.641 39.883-53.67 70.236-53.67h86.235c-52.85-58.926-84.986-136.739-84.986-222.043z"/></svg>