<!-- Generated by IcoMoon.io -->
<svg version="1.1" xmlns="http://www.w3.org/2000/svg" width="1500" height="1500" viewBox="0 0 1500 1500">
<title>checkbox-unfilled</title>
<path d="M0 1350.012v-1200.022c0-82.875 66.989-149.988 149.988-149.988h1200.022c82.875 0 149.988 66.989 149.988 149.988v1200.022c0 82.875-66.989 149.988-149.988 149.988h-1200.022c-82.875 0-149.988-66.989-149.988-149.988zM1350.013 150l-1200.012-0.010-0.010 1200.012 1200.012 0.010 0.010-1200.012zM584.468 1028.033l-225-225c-29.288-29.288-29.288-76.775 0-106.066s76.775-29.288 106.066 0l171.967 173.023 359.467-360.524c29.288-29.288 76.775-29.288 106.066 0s29.288 76.775 0 106.066l-412.5 412.5c-29.288 29.288-76.775 29.288-106.066 0z"></path>
</svg>
