<svg xmlns="http://www.w3.org/2000/svg" width="1000" height="1000" viewBox="0 0 1000 1000"><path d="M150 0h700c82.843 0 150 67.157 150 150v700c0 82.843-67.157 150-150 150H150C67.157 1000 0 932.843 0 850V150C0 67.157 67.157 0 150 0zm283.333 561.445l-86.675-86.675c-15.249-15.249-39.972-15.249-55.221 0-15.25 15.25-15.25 39.973 0 55.222l114.285 114.286c15.25 15.249 39.973 15.249 55.222 0l247.62-247.62c15.248-15.249 15.248-39.972 0-55.221-15.25-15.25-39.973-15.25-55.222 0L433.333 561.445zm-.673 54.548l.673-.673.674.673a.952.952 0 0 0-1.347 0z"/></svg>