<svg xmlns="http://www.w3.org/2000/svg" width="1500" height="1500" viewBox="0 0 1500 1500"><path d="M0 1350.012V149.99C0 67.115 66.989.002 149.988.002H1350.01c82.875 0 149.988 66.989 149.988 149.988v1200.022c0 82.875-66.989 149.988-149.988 149.988H149.988C67.113 1500 0 1433.011 0 1350.012zM1350.013 150l-1200.012-.01-.01 1200.012 1200.012.01.01-1200.012zm-765.545 878.033l-225-225c-29.288-29.288-29.288-76.775 0-106.066s76.775-29.288 106.066 0L637.501 869.99l359.467-360.524c29.288-29.288 76.775-29.288 106.066 0s29.288 76.775 0 106.066l-412.5 412.5c-29.288 29.288-76.775 29.288-106.066 0z"/></svg>