<svg xmlns="http://www.w3.org/2000/svg" width="1000" height="1000" viewBox="0 0 1000 1000"><path d="M0 900.008V99.993C0 44.743 44.659.001 99.992.001h800.015c55.25 0 99.992 44.659 99.992 99.992v800.015c0 55.25-44.659 99.992-99.992 99.992H99.992C44.742 1000 0 955.341 0 900.008zM900.009 100l-800.008-.007-.007 800.008 800.008.007.007-800.008zM389.646 685.355l-150-150c-19.525-19.525-19.525-51.184 0-70.711s51.184-19.525 70.711 0l114.645 115.349 239.645-240.35c19.525-19.525 51.184-19.525 70.711 0s19.525 51.184 0 70.711l-275 275c-19.525 19.525-51.184 19.525-70.711 0z"/></svg>