<!-- Generated by IcoMoon.io -->
<svg version="1.1" xmlns="http://www.w3.org/2000/svg" width="32" height="32" viewBox="0 0 32 32">
<title>checkbox-unfilled</title>
<path d="M2.667 26.667v-21.334c0-1.473 1.191-2.666 2.666-2.666h21.334c1.473 0 2.666 1.191 2.666 2.666v21.334c0 1.473-1.191 2.666-2.666 2.666h-21.334c-1.473 0-2.666-1.191-2.666-2.666zM26.667 5.333l-21.334-0-0 21.334 21.334 0 0-21.334zM13.057 20.943l-4-4c-0.521-0.521-0.521-1.365 0-1.886s1.365-0.521 1.886 0l3.057 3.076 6.391-6.409c0.521-0.521 1.365-0.521 1.886 0s0.521 1.365 0 1.886l-7.333 7.333c-0.521 0.521-1.365 0.521-1.886 0z"></path>
</svg>
