<!-- Generated by IcoMoon.io -->
<svg version="1.1" xmlns="http://www.w3.org/2000/svg" width="1500" height="1500" viewBox="0 0 1500 1500">
<title>clock</title>
<path d="M750 1500c-414.214 0-750-335.786-750-750s335.786-750 750-750v0c414.214 0 750 335.786 750 750s-335.786 750-750 750v0zM750 1350c331.371 0 600-268.629 600-600s-268.629-600-600-600v0c-331.371 0-600 268.629-600 600s268.629 600 600 600v0z"></path>
<path d="M798 479.2c0-0.060 0-0.13 0-0.201 0-43.63-35.37-79-79-79-0.105 0-0.211 0-0.316 0h0.016c-0.060 0-0.13 0-0.201 0-43.63 0-79 35.37-79 79 0 0.070 0 0.141 0 0.211v-0.012 316.6c0 0.060 0 0.13 0 0.201 0 43.63 35.37 79 79 79 0 0 0 0 0 0h277.5c0.029 0 0.064 0 0.1 0 43.63 0 79-35.37 79-79 0-0.070 0-0.141 0-0.211v0.010c0-0.029 0-0.064 0-0.1 0-43.63-35.37-79-79-79 0 0 0 0 0 0h-198.1v-237.5z"></path>
</svg>
