<!-- Generated by IcoMoon.io -->
<svg version="1.1" xmlns="http://www.w3.org/2000/svg" width="32" height="32" viewBox="0 0 32 32">
<title>clock</title>
<path d="M16 32c-8.837 0-16-7.163-16-16s7.163-16 16-16v0c8.837 0 16 7.163 16 16s-7.163 16-16 16v0zM16 28.8c7.069 0 12.8-5.731 12.8-12.8s-5.731-12.8-12.8-12.8v0c-7.069 0-12.8 5.731-12.8 12.8s5.731 12.8 12.8 12.8v0z"></path>
<path d="M17.024 10.223c0-0.001 0-0.003 0-0.004 0-0.931-0.755-1.685-1.685-1.685-0.002 0-0.005 0-0.007 0h0c-0.001 0-0.003 0-0.004 0-0.931 0-1.685 0.755-1.685 1.685 0 0.002 0 0.003 0 0.005v-0 6.754c0 0.001 0 0.003 0 0.004 0 0.931 0.755 1.685 1.685 1.685 0 0 0 0 0 0h5.92c0.001 0 0.001 0 0.002 0 0.931 0 1.685-0.755 1.685-1.685 0-0.002 0-0.003 0-0.005v0c0-0.001 0-0.001 0-0.002 0-0.931-0.755-1.685-1.685-1.685 0 0 0 0 0 0h-4.226v-5.067z"></path>
</svg>
