<svg xmlns="http://www.w3.org/2000/svg" width="1500" height="1500" viewBox="0 0 1500 1500"><path d="M750 1500C335.786 1500 0 1164.214 0 750S335.786 0 750 0s750 335.786 750 750-335.786 750-750 750zm252.889-956.486c12.814-12.814 12.814-33.589.001-46.403s-33.589-12.814-46.403-.001L750.001 703.589 543.515 497.11c-12.814-12.814-33.59-12.813-46.403.001s-12.813 33.59.001 46.403l206.484 206.477-206.484 206.477c-12.814 12.814-12.814 33.589-.001 46.403s33.589 12.814 46.403.001l206.486-206.479 206.486 206.479c12.814 12.814 33.59 12.813 46.403-.001s12.813-33.59-.001-46.403L796.405 749.991l206.484-206.477z"/></svg>