<!-- Generated by IcoMoon.io -->
<svg version="1.1" xmlns="http://www.w3.org/2000/svg" width="32" height="32" viewBox="0 0 32 32">
<title>close-circle</title>
<path d="M16 13.737l3.965-3.965c0.623-0.623 1.633-0.62 2.258 0.005 0.629 0.629 0.627 1.636 0.005 2.258l-3.965 3.965 3.965 3.965c0.622 0.622 0.624 1.629-0.005 2.258-0.625 0.625-1.635 0.628-2.258 0.005l-3.965-3.965-3.965 3.965c-0.623 0.623-1.633 0.62-2.258-0.005-0.629-0.629-0.627-1.636-0.005-2.258l3.965-3.965-3.965-3.965c-0.622-0.622-0.624-1.629 0.005-2.258 0.625-0.625 1.635-0.628 2.258-0.005l3.965 3.965zM16 32c-8.837 0-16-7.163-16-16s7.163-16 16-16c8.837 0 16 7.163 16 16s-7.163 16-16 16zM16 28.8c7.069 0 12.8-5.731 12.8-12.8s-5.731-12.8-12.8-12.8c-7.069 0-12.8 5.731-12.8 12.8s5.731 12.8 12.8 12.8z"></path>
</svg>
