<!-- Generated by IcoMoon.io -->
<svg version="1.1" xmlns="http://www.w3.org/2000/svg" width="32" height="32" viewBox="0 0 32 32">
<title>close-circle-filled</title>
<path d="M16 32c-8.837 0-16-7.163-16-16s7.163-16 16-16c8.837 0 16 7.163 16 16s-7.163 16-16 16zM21.395 11.595c0.273-0.273 0.273-0.717 0-0.99s-0.717-0.273-0.99-0l-4.405 4.405-4.405-4.405c-0.273-0.273-0.717-0.273-0.99 0s-0.273 0.717 0 0.99l4.405 4.405-4.405 4.405c-0.273 0.273-0.273 0.717-0 0.99s0.717 0.273 0.99 0l4.405-4.405 4.405 4.405c0.273 0.273 0.717 0.273 0.99-0s0.273-0.717-0-0.99l-4.405-4.405 4.405-4.405z"></path>
</svg>
