<svg xmlns="http://www.w3.org/2000/svg" width="1000" height="1000" viewBox="0 0 1000 1000"><path d="M500 429.289l123.9-123.9c19.472-19.472 51.028-19.37 70.554.156 19.663 19.663 19.596 51.115.156 70.554l-123.9 123.9 123.9 123.9c19.44 19.44 19.506 50.893-.156 70.554-19.525 19.525-51.083 19.628-70.554.156L500 570.709l-123.9 123.9c-19.472 19.472-51.028 19.37-70.554-.156-19.663-19.663-19.596-51.115-.156-70.554l123.9-123.9-123.9-123.9c-19.44-19.44-19.506-50.893.156-70.554 19.525-19.525 51.083-19.628 70.554-.156l123.9 123.9zM500 1000C223.858 1000 0 776.143 0 500S223.857 0 500 0c276.142 0 500 223.857 500 500s-223.857 500-500 500zm0-100.001c220.913 0 399.999-179.086 399.999-399.999S720.913 100.001 500 100.001 100.001 279.087 100.001 500 279.087 899.999 500 899.999z"/></svg>