<svg xmlns="http://www.w3.org/2000/svg" width="1000" height="1000" viewBox="0 0 1000 1000"><path d="M981.693 106.695c24.408-24.407 24.408-63.979.001-88.389s-63.979-24.408-88.389-.001L499.999 411.598 106.693 18.305c-24.408-24.407-63.981-24.407-88.389.001s-24.407 63.981.001 88.389l393.303 393.29-393.303 393.29c-24.408 24.407-24.408 63.979-.001 88.389s63.979 24.408 88.389.001l393.306-393.293 393.306 393.293c24.408 24.407 63.981 24.407 88.389-.001s24.407-63.981-.001-88.389L588.39 499.985l393.303-393.29z"/></svg>