<svg xmlns="http://www.w3.org/2000/svg" width="1500" height="1500" viewBox="0 0 1500 1500"><path d="M1472.54 160.043c36.612-36.611 36.612-95.969.001-132.583s-95.969-36.612-132.583-.001L750 617.398 160.042 27.459C123.43-9.152 64.07-9.152 27.459 27.46s-36.611 95.972.001 132.583l589.954 589.935L27.46 1339.913c-36.612 36.611-36.612 95.969-.001 132.583s95.969 36.612 132.583.001L750 882.558l589.958 589.939c36.612 36.611 95.972 36.611 132.583-.001s36.611-95.972-.001-132.583L882.586 749.978l589.954-589.935z"/></svg>