<!-- Generated by IcoMoon.io -->
<svg version="1.1" xmlns="http://www.w3.org/2000/svg" width="1500" height="1500" viewBox="0 0 1500 1500">
<title>close-circle-filled</title>
<path d="M750 1500c-414.214 0-750-335.786-750-750s335.786-750 750-750c414.214 0 750 335.786 750 750s-335.786 750-750 750zM1002.889 543.514c12.814-12.814 12.814-33.589 0.001-46.403s-33.589-12.814-46.403-0.001l-206.486 206.479-206.486-206.479c-12.814-12.814-33.59-12.813-46.403 0.001s-12.813 33.59 0.001 46.403l206.484 206.477-206.484 206.477c-12.814 12.814-12.814 33.589-0.001 46.403s33.589 12.814 46.403 0.001l206.486-206.479 206.486 206.479c12.814 12.814 33.59 12.813 46.403-0.001s12.813-33.59-0.001-46.403l-206.484-206.477 206.484-206.477z"></path>
</svg>
