<svg xmlns="http://www.w3.org/2000/svg" width="1500" height="1500" viewBox="0 0 1500 1500"><path d="M750 643.934l185.851-185.851c29.208-29.208 76.542-29.055 105.831.234 29.495 29.495 29.394 76.673.234 105.831L856.065 749.999l185.851 185.851c29.161 29.161 29.259 76.339-.234 105.831-29.288 29.288-76.625 29.442-105.831.234L750 856.064l-185.851 185.851c-29.208 29.208-76.542 29.055-105.831-.234-29.495-29.495-29.394-76.673-.234-105.831l185.851-185.851-185.851-185.851c-29.161-29.161-29.259-76.339.234-105.831 29.288-29.288 76.625-29.442 105.831-.234L750 643.934zM750 1500C335.788 1500 0 1164.214 0 750S335.786 0 750 0c414.212 0 750 335.786 750 750s-335.786 750-750 750zm0-150.001c331.37 0 599.999-268.629 599.999-599.999S1081.37 150.001 750 150.001 150.001 418.63 150.001 750 418.63 1349.999 750 1349.999z"/></svg>