<!-- Generated by IcoMoon.io -->
<svg version="1.1" xmlns="http://www.w3.org/2000/svg" width="1500" height="1500" viewBox="0 0 1500 1500">
<title>close</title>
<path d="M1472.54 160.043c36.612-36.611 36.612-95.969 0.001-132.583s-95.969-36.612-132.583-0.001l-589.958 589.939-589.958-589.939c-36.612-36.611-95.972-36.611-132.583 0.001s-36.611 95.972 0.001 132.583l589.954 589.935-589.954 589.935c-36.612 36.611-36.612 95.969-0.001 132.583s95.969 36.612 132.583 0.001l589.958-589.939 589.958 589.939c36.612 36.611 95.972 36.611 132.583-0.001s36.611-95.972-0.001-132.583l-589.954-589.935 589.954-589.935z"></path>
</svg>
