<!-- Generated by IcoMoon.io -->
<svg version="1.1" xmlns="http://www.w3.org/2000/svg" width="32" height="32" viewBox="0 0 32 32">
<title>copy</title>
<path d="M16.667 4h-4.667v18.665l13.333 0.002v-10h-5.998c-1.471 0-2.669-1.19-2.669-2.661v-6.005zM19.336 10h5.522l-5.524-5.608c0 2.152 0.002 5.608 0.002 5.608zM22.667 29.311c0 0.734-0.6 1.33-1.328 1.331l-16.012 0.023c-0.733 0.001-1.327-0.591-1.327-1.331v-21.334c0-0.736 0.593-1.333 1.337-1.333h3.996v-4c0-0.736 0.592-1.333 1.336-1.333h8.712c0.37 0 0.883 0.214 1.144 0.476l7.002 7.047c0.261 0.263 0.473 0.781 0.473 1.143v13.973c0 0.737-0.6 1.335-1.328 1.336l-4.006 0.006v3.996zM10.661 25.331c-0.733 0.001-1.328-0.591-1.328-1.331v-14.667h-2.653l-0.012 18.667h13.332v-2.682l-9.339 0.013z"></path>
</svg>
