<?xml version="1.0" encoding="UTF-8"?>
<svg width="19px" height="20px" viewBox="0 0 19 20" version="1.1" xmlns="http://www.w3.org/2000/svg" xmlns:xlink="http://www.w3.org/1999/xlink">
    <!-- Generator: Sketch 53 (72520) - https://sketchapp.com -->
    <title>Orion_call-contact</title>
    <desc>Created with Sketch.</desc>
    <g id="Page-1" stroke="none" stroke-width="1" fill="none" fill-rule="evenodd">
        <g id="01-Interested-Copy-3" transform="translate(-307.000000, -455.000000)" fill="#6665FF">
            <g id="Group-2" transform="translate(0.000000, 296.000000)">
                <g id="Orion_call-contact" transform="translate(316.500000, 169.000000) scale(-1, 1) translate(-316.500000, -169.000000) translate(307.000000, 159.000000)">
                    <path d="M17.1079431,8.58052229 C16.5781672,8.50464536 16.3511203,8.92196846 16.1619147,9.14959925 L14.875316,11.1223994 C14.5993058,11.5322885 14.7001065,12.0881179 15.1023628,12.3743687 C15.6321387,12.8296303 16.1997558,13.2090149 14.1184932,15.2956304 C12.0372306,17.382246 11.8480249,16.6234767 11.3939313,16.0923382 C11.1084148,15.6890473 10.5540114,15.5879874 10.1451737,15.8647074 L8.17743455,17.1546152 C7.91254658,17.306369 7.5341352,17.5719383 7.60981748,18.1030768 C7.96919685,19.2259789 9.00678412,19.990873 10.1830149,20 C11.8858661,20 13.9671287,18.6721538 15.7835033,16.813169 C17.5998779,14.9541843 19,12.8675687 19,11.1603378 C18.9908964,9.98108188 18.2279646,8.94082597 17.1079431,8.58052229 L17.1079431,8.58052229 Z" id="Path"></path>
                    <path d="M8.9775,14.5199063 L9.34392857,14.2701015 C9.66382584,14.0640534 10.0346171,13.9557195 10.4126786,13.9578454 C10.8857066,13.9574798 11.3422847,14.1353439 11.6951786,14.4574551 L12.0005357,14.3325527 L12.3364286,13.989071 C12.575166,13.7535822 12.7995179,13.5033052 13.0082143,13.2396565 C12.8145585,13.0242802 12.6687272,12.7686356 12.5807143,12.490242 L11.9394643,12.3028884 L10.5958929,11.9594067 C9.28285714,11.459797 9.37446429,10.8040593 9.37446429,10.4605777 L9.37446429,9.9921936 C9.99651085,9.40311839 10.4414036,8.64487818 10.6569643,7.80640125 C11.4203571,7.80640125 11.5730357,6.21389539 11.5730357,5.99531616 C11.5730357,5.77673692 11.6035714,4.80874317 10.8401786,4.80874317 C12.3975,0.780640125 8.06142857,-1.34270101 4.82464286,0.967993755 C3.48107143,0.967993755 3.38946429,2.81030445 3.87803571,4.80874317 C3.11464286,4.80874317 3.14517857,5.74551132 3.14517857,5.99531616 C3.14517857,6.245121 3.32839286,7.80640125 4.06125,7.80640125 C4.27681073,8.64487818 4.72170344,9.40311839 5.34375,9.9921936 L5.34375,10.4918033 C5.34375,10.991413 5.34375,11.7408275 2.87035714,12.2404372 C0.396964286,12.7400468 0,14.9882904 0,14.9882904 L8.27517857,14.9882904 L8.9775,14.5199063 Z" id="Path"></path>
                </g>
            </g>
        </g>
    </g>
</svg>