<svg xmlns="http://www.w3.org/2000/svg" width="1000" height="1000" viewBox="0 0 1000 1000"><path d="M93.317 635.895v45.325h815.854v-45.325H93.317zm0-90.651h815.854V137.317H93.317v407.927zm317.277 275.224c30.731-2.136 61.032-3.271 90.65-3.271s59.919 1.137 90.65 3.271V771.87H410.593v48.598zm-90.651 8.938v-57.535H70.853c-37.542 0-68.187-30.14-68.187-67.909V114.577c0-37.632 30.599-67.909 68.187-67.909h860.782c37.542 0 68.187 30.14 68.187 67.909v589.385c0 37.632-30.599 67.909-68.187 67.909h-249.09v57.535c25.069 3.159 50.259 6.872 75.439 11.069 30.459 5.076 58.757 10.519 84.197 15.97A1364.629 1364.629 0 0 1 866 861.759c4.22.984 7.194 1.704 8.838 2.115 24.285 6.071 39.05 30.68 32.979 54.965s-30.68 39.05-54.965 32.979a566.182 566.182 0 0 0-7.45-1.78 1268.082 1268.082 0 0 0-22.215-4.955c-24.134-5.172-51.076-10.353-80.106-15.191-82.711-13.785-165.318-22.046-241.838-22.046s-159.126 8.261-241.838 22.046c-29.03 4.838-55.973 10.02-80.106 15.191a1272.179 1272.179 0 0 0-22.215 4.955 530.372 530.372 0 0 0-7.45 1.78c-24.285 6.071-48.894-8.694-54.965-32.979s8.694-48.894 32.979-54.965a623.926 623.926 0 0 1 8.838-2.115 1360.53 1360.53 0 0 1 23.819-5.314c25.44-5.451 53.738-10.894 84.197-15.97 25.181-4.196 50.37-7.91 75.439-11.069z"/></svg>