<svg width="1500" height="1500" viewBox="0 0 1500 1500" xmlns="http://www.w3.org/2000/svg"><path d="M139.976 953.842v67.988h1223.781v-67.988H139.976zm0-135.975h1223.781V205.976H139.976v611.89zm475.915 412.835c46.097-3.204 91.548-4.908 135.976-4.908 44.427 0 89.878 1.704 135.975 4.908v-72.896H615.891v72.896zm-135.976 13.407v-86.303H106.28c-56.313 0-102.28-45.21-102.28-101.864V171.864C4 115.416 49.898 70 106.28 70h1291.173c56.313 0 102.28 45.21 102.28 101.864v884.078c0 56.447-45.898 101.864-102.28 101.864h-373.635v86.303c37.604 4.739 75.388 10.309 113.159 16.604 45.689 7.615 88.135 15.777 126.296 23.955a2032.518 2032.518 0 0 1 35.729 7.97c6.329 1.477 10.792 2.557 13.257 3.174 36.427 9.106 58.575 46.02 49.468 82.447s-46.02 58.575-82.447 49.468c-1.784-.446-5.554-1.358-11.176-2.67a1897.57 1897.57 0 0 0-33.322-7.432c-36.2-7.757-76.614-15.53-120.16-22.787-124.066-20.678-247.977-33.069-362.755-33.069-114.78 0-238.69 12.391-362.757 33.07-43.545 7.257-83.959 15.029-120.16 22.786-12.603 2.7-23.755 5.2-33.321 7.432-5.622 1.312-9.392 2.224-11.176 2.67-36.427 9.107-73.34-13.04-82.447-49.468-9.107-36.428 13.04-73.34 49.468-82.447 2.465-.617 6.928-1.697 13.257-3.173a2032.542 2032.542 0 0 1 35.729-7.971c38.161-8.178 80.607-16.34 126.296-23.955 37.771-6.295 75.555-11.865 113.16-16.604z" fill="#9A6EBE"/></svg>