<svg width="1500" height="1500" viewBox="0 0 1500 1500" xmlns="http://www.w3.org/2000/svg"><path d="M845.505 914.98c-34.627 14.835-74.728-1.2-89.568-35.815-14.84-34.616 1.2-74.704 35.828-89.539l203.114-87.02a132774.17 132774.17 0 0 0-24.288-55.529l-227.405 97.427c-34.627 14.835-74.728-1.2-89.568-35.815-14.84-34.616 1.2-74.704 35.827-89.539l226.41-97.001c-29.075-66.31-51.22-116.74-51.22-116.74s-156.963 65.802-193.294 72.738c-48.53 9.264-94.16 5.65-136.721-14.537-108.23-51.334-137.87-116.46-153.094-251.547 0 0-189.55 190.27-225.078 233.31-33.397 40.46-25.394 117.086 27.314 180.356 27.874 33.46 635.425 672.986 636.71 674.325 13.336 13.906 47.398 30.146 66.597 30.146h409.637c42.703 0 82.164-59.114 61.448-109.458-6.615-16.075-214.41-228.622-216.698-230.604-21.577-19.082-45.16-51.957-56.464-78.54a81753.26 81753.26 0 0 0-35.737-83.91l-203.75 87.292zM79.293 714.184C-12.634 603.836-28.27 454.133 51.584 357.394c38.7-46.88 262.897-270.924 291.826-291.42 20.07-14.218 37.495-23.819 55.411-28.664 41.014-11.093 85.5 5.467 99.647 53.295 5.539 18.727 15.96 82.399 18.612 105.933 10.41 92.378 21.62 117.01 75.618 142.62 14.213 6.742 31.114 8.08 53.26 3.853 22.925-4.377 168.212-68.155 198.425-73.997 58.1-11.235 109.568 8.735 137.83 65.43 21.197 44.533 226.373 518.728 228.195 523.025 3.29 7.734 14.798 23.78 20.401 28.74 2.069 1.787 228.848 255.779 246.334 288.064C1550.676 1310.036 1435.117 1466 1296.53 1466H886.893c-56.196 0-125.473-29.649-164.473-70.316-1.273-1.325-612.307-644.503-643.127-681.5zM.078 1397.81c0-37.661 30.51-68.19 68.01-68.19h409.684c37.561 0 68.01 30.266 68.01 68.19 0 37.66-30.508 68.19-68.01 68.19H68.09c-37.561 0-68.01-30.267-68.01-68.19zm0-272.762c0-37.66 30.243-68.19 68.149-68.19h136.555c37.638 0 68.149 30.266 68.149 68.19 0 37.66-30.243 68.19-68.149 68.19H68.227c-37.638 0-68.149-30.267-68.149-68.19z" fill="#FF638D"/></svg>