<!-- Generated by IcoMoon.io -->
<svg version="1.1" xmlns="http://www.w3.org/2000/svg" width="32" height="32" viewBox="0 0 32 32">
<title>document-uploaded</title>
<path d="M14.667 5.333h-6.673l0.006 21.333 15.997 0c0 0 0.003-7.771 0.003-12h-8c-0.736 0-1.333-0.597-1.333-1.333v-8zM17.333 12h6.667l-6.667-6.667v6.667zM7.994 2.667h9.743c0.368 0 0.879 0.213 1.134 0.468l7.328 7.33c0.258 0.259 0.468 0.772 0.468 1.134v15.069c0 1.472-1.193 2.666-2.669 2.666h-15.994c-1.474 0-2.67-1.198-2.67-2.667v-21.333c0-1.473 1.194-2.667 2.661-2.667zM9.333 22.667c0-0.736 0.599-1.333 1.327-1.333h10.679c0.733 0 1.327 0.592 1.327 1.333 0 0.736-0.599 1.333-1.327 1.333h-10.679c-0.733 0-1.327-0.592-1.327-1.333zM9.333 18.667c0-0.736 0.601-1.333 1.339-1.333h5.322c0.74 0 1.339 0.592 1.339 1.333 0 0.736-0.601 1.333-1.339 1.333h-5.322c-0.74 0-1.339-0.592-1.339-1.333z"></path>
</svg>
