<svg xmlns="http://www.w3.org/2000/svg" width="1000" height="1000" viewBox="0 0 1000 1000"><path d="M500 450c-27.614 0-50-22.387-50-50V100H199.772l.203 400h149.878c27.695 0 50.146 22.549 50.146 50.214v199.574c0 27.732-22.426 50.214-50.146 50.214H199.999l.001 100 599.894.001.109-450H500zm300-100L550 100v250h250zM100 800c-27.628-.08-50-22.598-50-50.213V550.213c0-27.684 22.348-50.134 50-50.213V100C100 44.771 144.794-.001 199.773-.001h365.366c13.795 0 32.951 7.975 42.527 17.555l274.785 274.888c9.691 9.695 17.549 28.956 17.549 42.521v565.074c0 55.208-44.726 99.963-100.106 99.963H200.107c-55.287 0-100.106-44.911-100.106-100.001v-100z"/></svg>