<!-- Generated by IcoMoon.io -->
<svg version="1.1" xmlns="http://www.w3.org/2000/svg" width="32" height="32" viewBox="0 0 32 32">
<title>document</title>
<path d="M16 14.667c-0.736 0-1.333-0.597-1.333-1.333v-8h-6.673l0.005 10.667h3.997c0.739 0 1.337 0.601 1.337 1.339v5.322c0 0.74-0.598 1.339-1.337 1.339h-3.996l0 2.667 15.997 0 0.003-12h-8zM24 12l-6.667-6.667v6.667h6.667zM5.333 24c-0.737-0.002-1.333-0.603-1.333-1.339v-5.322c0-0.738 0.596-1.337 1.333-1.339v-10.667c0-1.473 1.194-2.667 2.661-2.667h9.743c0.368 0 0.879 0.213 1.134 0.468l7.328 7.33c0.258 0.259 0.468 0.772 0.468 1.134v15.069c0 1.472-1.193 2.666-2.669 2.666h-15.994c-1.474 0-2.67-1.198-2.67-2.667v-2.667z"></path>
</svg>
