<!-- Generated by IcoMoon.io -->
<svg version="1.1" xmlns="http://www.w3.org/2000/svg" width="32" height="32" viewBox="0 0 32 32">
<title>download</title>
<path d="M13.181 17.944l1.491 1.492v-15.434c0-0.737 0.592-1.334 1.333-1.334 0.736 0 1.333 0.597 1.333 1.334v15.434l1.491-1.492c0.523-0.523 1.365-0.529 1.89-0.004 0.521 0.521 0.518 1.369-0.004 1.89l-3.763 3.765c-0.264 0.264-0.605 0.393-0.946 0.393-0.342 0.002-0.682-0.127-0.944-0.389-0.003-0.003-3.767-3.769-3.767-3.769-0.523-0.523-0.528-1.366-0.004-1.89 0.521-0.521 1.368-0.518 1.89 0.004zM24 26.666v-4.002c0-0.737 0.597-1.334 1.333-1.334s1.333 0.597 1.333 1.334v4.002c0 1.471-1.195 2.667-2.661 2.667h-16.012c-1.472 0-2.661-1.191-2.661-2.667v-4.002c0-0.737 0.597-1.334 1.333-1.334s1.333 0.597 1.333 1.334l-0.006 4.002 16.006 0z"></path>
</svg>
