<svg xmlns="http://www.w3.org/2000/svg" width="1500" height="1500" viewBox="0 0 1500 1500"><path d="M591.416 859.324l83.873 83.906V75.055c0-41.451 33.29-75.053 75-75.053 41.421 0 75 33.592 75 75.053V943.23l83.873-83.906c29.414-29.426 76.799-29.732 106.292-.227 29.288 29.301 29.117 76.98-.227 106.333l-211.679 211.761c-14.833 14.839-34.011 22.121-53.203 22.107-19.22.132-38.38-7.169-53.087-21.883L485.352 965.429c-29.414-29.426-29.719-76.828-.227-106.333 29.288-29.301 76.95-29.127 106.292.227zM1200 1349.958v-225.1c0-41.438 33.58-75.029 75-75.029s75 33.592 75 75.029v225.1c0 82.737-67.194 150.044-149.672 150.044H299.67c-82.787 0-149.672-67.009-149.672-150.044v-225.1c0-41.438 33.58-75.029 75-75.029s75 33.592 75 75.029l-.328 225.086 900.33.015z"/></svg>