<svg xmlns="http://www.w3.org/2000/svg" width="1000" height="1000" viewBox="0 0 1000 1000"><path d="M100.003 757.548l.074 46.882c26.234-8.993 56.462-3.025 77.394 17.907 21.022 21.022 26.952 51.423 17.789 77.736l46.399.118 77.526-77.526L177.1 680.58l-77.098 76.969zm558.368-557.374S413.269 444.812 247.853 609.946l142.025 142.025 410.213-410.213L658.37 200.172zM829.039 29.506L970.693 171.16c39.042 39.042 39.089 102.296.066 141.319L301.05 982.188c-9.731 9.731-28.73 17.619-42.772 17.619H50.019c-27.625 0-50.02-22.238-50.02-50.013V741.561c0-13.889 8.003-33.146 17.629-42.762L687.682 29.405c39.025-38.987 102.307-38.948 141.355.1z"/></svg>