<svg xmlns="http://www.w3.org/2000/svg" width="1000" height="1000" viewBox="0 0 1000 1000"><path d="M802.031 895.635v-352.18c0-27.801 22.538-50.339 50.339-50.339s50.339 22.538 50.339 50.339v352.18c0 55.696-44.929 100.831-100.722 100.831H97.334c-55.66 0-100.722-44.953-100.722-100.722V191.091c0-55.695 45.133-100.722 100.925-100.722h352.872c27.801 0 50.339 22.538 50.339 50.339s-22.538 50.339-50.339 50.339l-353.12.044.044 704.696 704.696-.154zm165.145-798.32c39.276 39.276 39.274 102.955-.149 142.381L468.776 737.947l-187.391 47.021c-53.97 13.542-86.698-19.403-73.199-73.199l47.021-187.391L753.458 26.127c39.358-39.358 103.238-39.292 142.381-.149l71.339 71.339zM416.853 647.489l34.125-34.125-71.163-71.163-33.691 33.686-23.626 94.768 94.355-23.166zm372.2-372.199l-71.188-71.34-266.856 267.065 71.159 71.159 266.885-266.885z"/></svg>