<svg xmlns="http://www.w3.org/2000/svg" width="1500" height="1500" viewBox="0 0 1500 1500"><path d="M1203.047 1343.452v-528.27c0-41.701 33.807-75.508 75.508-75.508s75.508 33.807 75.508 75.508v528.27c0 83.544-67.393 151.247-151.083 151.247H146c-83.49 0-151.083-67.43-151.083-151.083V286.636c0-83.543 67.699-151.083 151.387-151.083h529.308c41.701 0 75.508 33.807 75.508 75.508s-33.807 75.508-75.508 75.508l-529.68.066.066 1057.044 1057.044-.231zm247.717-1197.479c58.915 58.915 58.912 154.433-.224 213.571L703.164 1106.92l-281.086 70.532c-80.955 20.313-130.047-29.105-109.799-109.799l70.532-281.086 747.376-747.376c59.038-59.038 154.857-58.938 213.571-.224l107.008 107.008zM625.279 971.234l51.188-51.188-106.745-106.745-50.537 50.528-35.439 142.151 141.533-34.749zm558.3-558.299l-106.783-107.01-400.285 400.598L783.25 813.262l400.327-400.327z"/></svg>