<svg xmlns="http://www.w3.org/2000/svg" width="1500" height="1500" viewBox="0 0 1500 1500"><path d="M150.004 1136.322l.111 70.323c39.352-13.49 84.693-4.538 116.09 26.861 31.534 31.534 40.428 77.134 26.684 116.604l69.599.177 116.29-116.29-213.127-213.127c-69.992 69.873-115.646 115.453-115.646 115.453zm837.553-836.061S619.905 667.218 371.781 914.92l213.038 213.038 615.319-615.319L987.557 300.26zm256.002-256.002L1456.04 256.74c58.563 58.563 58.633 153.444.1 211.979L451.577 1473.282c-14.597 14.597-43.096 26.429-64.159 26.429H75.03c-41.438 0-75.029-33.357-75.029-75.019v-312.35c0-20.833 12.004-49.718 26.443-64.143L1031.525 44.109c58.538-58.481 153.46-58.422 212.033.149z"/></svg>