<!-- Generated by IcoMoon.io -->
<svg version="1.1" xmlns="http://www.w3.org/2000/svg" width="32" height="32" viewBox="0 0 32 32">
<title>edit</title>
<path d="M24 26.479v-9.328c0-0.736 0.597-1.333 1.333-1.333s1.333 0.597 1.333 1.333v9.328c0 1.475-1.19 2.671-2.668 2.671h-18.664c-1.474 0-2.668-1.191-2.668-2.668v-18.664c0-1.475 1.195-2.668 2.673-2.668h9.347c0.736 0 1.333 0.597 1.333 1.333s-0.597 1.333-1.333 1.333l-9.353 0.001 0.001 18.666 18.666-0.004zM28.374 5.334c1.040 1.040 1.040 2.727-0.004 3.771l-13.197 13.197-4.963 1.245c-1.43 0.359-2.296-0.514-1.939-1.939l1.245-4.963 13.197-13.197c1.043-1.042 2.735-1.041 3.771-0.004l1.89 1.89zM13.798 19.907l0.904-0.904-1.885-1.885-0.892 0.892-0.626 2.51 2.499-0.614zM23.656 10.048l-1.886-1.89-7.068 7.074 1.885 1.885 7.069-7.069z"></path>
</svg>
