<!-- Generated by IcoMoon.io -->
<svg version="1.1" xmlns="http://www.w3.org/2000/svg" width="32" height="32" viewBox="0 0 32 32">
<title>edit-2</title>
<path d="M3.2 24.242l0.002 1.5c0.839-0.288 1.807-0.097 2.477 0.573 0.673 0.673 0.862 1.646 0.569 2.488l1.485 0.004 2.481-2.481-4.547-4.547c-1.493 1.491-2.467 2.463-2.467 2.463zM21.068 6.406c0 0-7.843 7.828-13.137 13.113l4.545 4.545 13.127-13.127-4.535-4.531zM26.529 0.944l4.533 4.533c1.249 1.249 1.251 3.273 0.002 4.522l-21.431 21.431c-0.311 0.311-0.919 0.564-1.369 0.564h-6.664c-0.884 0-1.601-0.712-1.601-1.6v-6.663c0-0.444 0.256-1.061 0.564-1.368l21.442-21.421c1.249-1.248 3.274-1.246 4.523 0.003z"></path>
</svg>
