<?xml version="1.0" encoding="UTF-8"?>
<svg width="1000px" height="1000px" viewBox="0 0 1000 1000" version="1.1" xmlns="http://www.w3.org/2000/svg" xmlns:xlink="http://www.w3.org/1999/xlink">
    <!-- Generator: Sketch 52.2 (67145) - http://www.bohemiancoding.com/sketch -->
    <title>face-to-face-2</title>
    <desc>Created with Sketch.</desc>
    <g id="face-to-face-2" stroke="none" stroke-width="1" fill="none" fill-rule="evenodd">
        <path d="M473.784688,626.448911 C455.380138,629.136744 438.278688,616.414255 435.587531,598.032437 C432.896373,579.650619 445.634596,562.570292 464.039146,559.882459 C493.814119,555.53407 523.170267,548.692762 550.913658,539.730315 C563.72574,535.189708 570.594441,530.677343 573.51702,526.882078 C574.887683,525.102134 575.154647,523.800911 575.132563,516.949392 C575.130355,516.274205 575.130355,516.274205 575.129534,515.541475 L575.129534,484.49179 C575.129534,465.914501 590.208027,450.854633 608.80829,450.854633 C627.408554,450.854633 642.487047,465.914501 642.487047,484.49179 L642.487047,515.541475 C642.487653,516.088937 642.487653,516.088937 642.489727,516.732824 C642.555791,537.229372 639.661695,551.335654 626.909361,567.895848 C615.322793,582.942178 597.65415,594.549522 572.555001,603.43097 C540.335737,613.855101 507.295902,621.554874 473.784688,626.448911 Z M913.321227,654.328188 C898.294085,635.643153 877.667916,622.490595 849.353602,616.834727 C800.48287,607.072653 768.522732,592.367629 749.831234,571.124264 C734.201115,553.360235 730.539112,537.723245 730.569168,514.85706 L730.569948,513.98899 L730.569948,484.49179 C730.569948,474.646158 734.888886,465.294811 742.387727,458.903983 C774.103525,431.874444 792.483508,392.40629 792.746114,350.978149 L792.746114,260.934065 C792.746114,197.142592 746.762939,161.057581 685.860729,161.050968 C661.055895,160.559659 636.882861,168.884893 617.653243,184.54174 C603.23647,196.279946 582.021903,194.122974 570.269181,179.724008 C558.516459,165.325043 560.676099,144.136679 575.092871,132.398474 C606.697987,106.665437 646.427923,92.9823802 686.528497,93.7832651 C780.886613,93.7832651 860.103627,155.948326 860.103627,260.934065 L860.102955,351.190556 C859.750086,407.001199 837.247624,460.155859 797.927461,499.205127 L797.927461,513.98899 L797.926623,514.94538 C797.916148,522.914355 798.218221,524.204225 800.427833,526.715506 C807.614763,534.883635 826.846502,543.732257 862.563497,550.866833 C906.92972,559.729118 941.225704,581.59842 965.835488,612.198695 C985.670047,636.861363 995.635944,661.526465 999.322267,679.60061 L1000,686.314737 L1000,748.414106 C1000,766.991395 984.921507,782.051263 966.321244,782.051263 L810.880829,782.051263 C792.280565,782.051263 777.202073,766.991395 777.202073,748.414106 C777.202073,729.836816 792.280565,714.776948 810.880829,714.776948 L932.642487,714.776948 L932.642487,690.198809 C930.267277,681.44799 924.227348,667.889067 913.321227,654.328188 Z M502.590674,605.585559 L502.590135,606.472957 C502.581575,615.90889 503.138944,618.916814 505.465884,622.27382 C513.284595,633.553634 538.001847,644.710184 588.388934,651.420164 L588.971612,651.50294 C651.068654,660.878108 695.307201,687.677344 722.630038,726.707087 C744.140651,757.434266 751.295337,788.094942 751.295337,810.513474 L751.295337,872.612842 C751.295337,891.190131 736.216844,906.25 717.61658,906.25 L33.6787565,906.25 C15.0784929,906.25 0,891.190131 0,872.612842 L0.397064547,805.363524 C3.60348072,784.693128 13.3599089,756.067811 33.8960732,727.235171 C62.8139726,686.634631 105.607701,659.050554 162.906403,651.420164 C216.786288,644.245053 240.973505,633.206461 246.974351,623.121683 C248.322653,620.855781 248.712635,618.341811 248.7052,609.633498 L248.704663,608.690527 L248.704663,585.584416 C207.641269,541.950637 186.528497,475.795915 186.528497,400.657643 L186.528497,291.983749 C186.528497,166.95585 267.872061,93.7832651 375.647668,93.7832651 C483.423276,93.7832651 564.766839,166.95585 564.766839,291.983749 L564.766839,400.657643 C564.766839,475.471635 543.751255,540.517197 502.590674,584.058465 L502.590674,605.585559 Z M450.08495,660.566869 C437.90185,642.990682 435.212631,628.477923 435.23265,606.411999 L435.233161,605.585559 L435.233161,569.878422 C435.233161,560.270378 439.346947,551.120934 446.536969,544.737697 C479.069835,515.855312 497.409326,464.360802 497.409326,400.657643 L497.409326,291.983749 C497.409326,205.770982 447.702905,161.057581 375.647668,161.057581 C303.592432,161.057581 253.88601,205.770982 253.88601,291.983749 L253.88601,400.657643 C253.88601,464.781926 272.450331,517.607398 304.758368,546.290181 C311.94839,552.673418 316.062176,561.822862 316.062176,571.430906 L316.062176,608.690527 L316.062688,609.576131 C316.079806,629.62563 314.182861,641.85404 304.877916,657.491554 C285.888577,689.404269 244.095026,708.47806 171.808623,718.104342 C133.807069,723.164958 107.277071,740.265723 88.7826136,766.231819 C75.2481166,785.234164 68.7008449,804.44383 67.357513,810.513474 L67.357513,838.975684 L683.937824,838.975684 L683.937824,810.513474 C683.937824,800.666111 679.798613,782.927946 667.427537,765.256284 C650.857625,741.586729 623.10918,724.748495 579.18059,718.063486 C512.006151,709.07817 470.796084,690.446187 450.08495,660.566869 Z" id="Shape" fill="#101010" fill-rule="nonzero"></path>
    </g>
</svg>