<?xml version="1.0" encoding="UTF-8"?>
<svg width="1000px" height="1000px" viewBox="0 0 1000 1000" version="1.1" xmlns="http://www.w3.org/2000/svg" xmlns:xlink="http://www.w3.org/1999/xlink">
    <!-- Generator: Sketch 52 (66869) - http://www.bohemiancoding.com/sketch -->
    <title>Artboard Copy</title>
    <desc>Created with Sketch.</desc>
    <g id="Artboard-Copy" stroke="none" stroke-width="1" fill="none" fill-rule="evenodd">
        <path d="M111,33.6787565 C111,15.0784929 126.828317,0 146.353535,0 L596.307622,0 C605.777513,0 614.851527,3.61924136 621.496442,10.0467578 L878.613063,258.751421 C885.12674,265.051993 888.777778,273.54031 888.777778,282.38342 L888.777778,966.321244 C888.777778,984.921507 872.949461,1000 853.424242,1000 L146.353535,1000 C126.828317,1000 111,984.921507 111,966.321244 L111,33.6787565 Z M181.707071,67.357513 L181.707071,932.642487 L818.070707,932.642487 L818.070707,296.183258 L581.505371,67.357513 L181.707071,67.357513 Z M631.661157,248.704663 L853.424242,248.704663 C872.949461,248.704663 888.777778,263.783156 888.777778,282.38342 C888.777778,300.983683 872.949461,316.062176 853.424242,316.062176 L596.307622,316.062176 C576.782403,316.062176 560.954086,300.983683 560.954086,282.38342 L560.954086,33.6787565 C560.954086,15.0784929 576.782403,0 596.307622,0 C615.83284,0 631.661157,15.0784929 631.661157,33.6787565 L631.661157,248.704663 Z" id="Shape" fill="#000000" fill-rule="nonzero"></path>
    </g>
</svg>