<svg xmlns="http://www.w3.org/2000/svg" width="1500" height="1500" viewBox="0 0 1500 1500"><path d="M975 1050c0 97.966-62.61 181.31-150 212.197v87.813c0 41.416-33.29 74.988-75 74.988-41.421 0-75-33.371-75-74.988v-87.813c-87.39-30.888-150-114.231-150-212.197s62.61-181.31 150-212.197V149.989c0-41.416 33.29-74.988 75-74.988 41.421 0 75 33.371 75 74.988v687.814C912.39 868.691 975 952.034 975 1050zm525-450c0 97.966-62.61 181.31-150 212.197v537.813c0 41.416-33.29 74.988-75 74.988-41.421 0-75-33.371-75-74.988V812.197c-87.39-30.888-150-114.231-150-212.197s62.61-181.31 150-212.197V149.989c0-41.416 33.29-74.988 75-74.988 41.421 0 75 33.371 75 74.988v237.814c87.39 30.888 150 114.231 150 212.197zM450 450c0 97.966-62.61 181.31-150 212.197v687.814c0 41.416-33.29 74.988-75 74.988-41.421 0-75-33.371-75-74.988V662.197C62.61 631.309 0 547.966 0 450s62.61-181.31 150-212.197V149.99c0-41.416 33.29-74.988 75-74.988 41.421 0 75 33.371 75 74.988v87.813C387.39 268.691 450 352.034 450 450zm-225 75c41.421 0 75-33.58 75-75s-33.58-75-75-75c-41.421 0-75 33.58-75 75s33.58 75 75 75zm525 599.999c41.421 0 75-33.58 75-75s-33.58-75-75-75c-41.421 0-75 33.58-75 75s33.58 75 75 75zM1275 675c41.421 0 75-33.58 75-75s-33.58-75-75-75c-41.421 0-75 33.58-75 75s33.58 75 75 75z"/></svg>