<!-- Generated by IcoMoon.io -->
<svg version="1.1" xmlns="http://www.w3.org/2000/svg" width="32" height="32" viewBox="0 0 32 32">
<title>filter</title>
<path d="M20 21.333c0 1.742-1.113 3.223-2.667 3.772v1.561c0 0.736-0.592 1.333-1.333 1.333-0.736 0-1.333-0.593-1.333-1.333v-1.561c-1.554-0.549-2.667-2.031-2.667-3.772s1.113-3.223 2.667-3.772v-12.228c0-0.736 0.592-1.333 1.333-1.333 0.736 0 1.333 0.593 1.333 1.333v12.228c1.554 0.549 2.667 2.031 2.667 3.772zM29.333 13.333c0 1.742-1.113 3.223-2.667 3.772v9.561c0 0.736-0.592 1.333-1.333 1.333-0.736 0-1.333-0.593-1.333-1.333v-9.561c-1.554-0.549-2.667-2.031-2.667-3.772s1.113-3.223 2.667-3.772v-4.228c0-0.736 0.592-1.333 1.333-1.333 0.736 0 1.333 0.593 1.333 1.333v4.228c1.554 0.549 2.667 2.031 2.667 3.772zM10.667 10.667c0 1.742-1.113 3.223-2.667 3.772v12.228c0 0.736-0.592 1.333-1.333 1.333-0.736 0-1.333-0.593-1.333-1.333v-12.228c-1.554-0.549-2.667-2.031-2.667-3.772s1.113-3.223 2.667-3.772v-1.561c0-0.736 0.592-1.333 1.333-1.333 0.736 0 1.333 0.593 1.333 1.333v1.561c1.554 0.549 2.667 2.031 2.667 3.772zM6.667 12c0.736 0 1.333-0.597 1.333-1.333s-0.597-1.333-1.333-1.333c-0.736 0-1.333 0.597-1.333 1.333s0.597 1.333 1.333 1.333zM16 22.667c0.736 0 1.333-0.597 1.333-1.333s-0.597-1.333-1.333-1.333c-0.736 0-1.333 0.597-1.333 1.333s0.597 1.333 1.333 1.333zM25.333 14.667c0.736 0 1.333-0.597 1.333-1.333s-0.597-1.333-1.333-1.333c-0.736 0-1.333 0.597-1.333 1.333s0.597 1.333 1.333 1.333z"></path>
</svg>
