<!-- Generated by IcoMoon.io -->
<svg version="1.1" xmlns="http://www.w3.org/2000/svg" width="1500" height="1500" viewBox="0 0 1500 1500">
<title>filter</title>
<path d="M975 1050c0 97.966-62.61 181.31-150 212.197v87.813c0 41.416-33.29 74.988-75 74.988-41.421 0-75-33.371-75-74.988v-87.813c-87.39-30.888-150-114.231-150-212.197s62.61-181.31 150-212.197v-687.814c0-41.416 33.29-74.988 75-74.988 41.421 0 75 33.371 75 74.988v687.814c87.39 30.888 150 114.231 150 212.197zM1500 600c0 97.966-62.61 181.31-150 212.197v537.813c0 41.416-33.29 74.988-75 74.988-41.421 0-75-33.371-75-74.988v-537.813c-87.39-30.888-150-114.231-150-212.197s62.61-181.31 150-212.197v-237.814c0-41.416 33.29-74.988 75-74.988 41.421 0 75 33.371 75 74.988v237.814c87.39 30.888 150 114.231 150 212.197zM450 450c0 97.966-62.61 181.31-150 212.197v687.814c0 41.416-33.29 74.988-75 74.988-41.421 0-75-33.371-75-74.988v-687.814c-87.39-30.888-150-114.231-150-212.197s62.61-181.31 150-212.197v-87.813c0-41.416 33.29-74.988 75-74.988 41.421 0 75 33.371 75 74.988v87.813c87.39 30.888 150 114.231 150 212.197zM225 525c41.421 0 75-33.58 75-75s-33.58-75-75-75c-41.421 0-75 33.58-75 75s33.58 75 75 75zM750 1124.999c41.421 0 75-33.58 75-75s-33.58-75-75-75c-41.421 0-75 33.58-75 75s33.58 75 75 75zM1275 675c41.421 0 75-33.58 75-75s-33.58-75-75-75c-41.421 0-75 33.58-75 75s33.58 75 75 75z"></path>
</svg>
