<svg xmlns="http://www.w3.org/2000/svg" width="1000" height="1000" viewBox="0 0 1000 1000"><path d="M650 700c0 65.311-41.74 120.873-100 141.465v58.542c0 27.61-22.193 49.992-50 49.992-27.614 0-50-22.247-50-49.992v-58.542C391.74 820.873 350 765.311 350 700s41.74-120.873 100-141.465V99.992C450 72.382 472.193 50 500 50c27.614 0 50 22.247 50 49.992v458.543C608.26 579.127 650 634.689 650 700zm350-300c0 65.311-41.74 120.873-100 141.465v358.542c0 27.61-22.193 49.992-50 49.992-27.614 0-50-22.247-50-49.992V541.465C741.74 520.873 700 465.311 700 400s41.74-120.873 100-141.465V99.992C800 72.382 822.193 50 850 50c27.614 0 50 22.247 50 49.992v158.543c58.26 20.592 100 76.154 100 141.465zM300 300c0 65.311-41.74 120.873-100 141.465v458.543c0 27.61-22.193 49.992-50 49.992-27.614 0-50-22.247-50-49.992V441.465C41.74 420.873 0 365.311 0 300s41.74-120.873 100-141.465V99.993c0-27.61 22.193-49.992 50-49.992 27.614 0 50 22.247 50 49.992v58.542C258.26 179.127 300 234.689 300 300zm-150 50c27.614 0 50-22.387 50-50s-22.387-50-50-50c-27.614 0-50 22.387-50 50s22.387 50 50 50zm350 399.999c27.614 0 50-22.387 50-50s-22.387-50-50-50c-27.614 0-50 22.387-50 50s22.387 50 50 50zM850 450c27.614 0 50-22.387 50-50s-22.387-50-50-50c-27.614 0-50 22.387-50 50s22.387 50 50 50z"/></svg>