<!-- Generated by IcoMoon.io -->
<svg version="1.1" xmlns="http://www.w3.org/2000/svg" width="32" height="32" viewBox="0 0 32 32">
<title>fire</title>
<path d="M17.424 32c-2.965 0-4.895-0.727-4.895-0.727-0.887-0.256-2.275-0.784-3.082-1.241 0 0-6.37-2.425-6.37-10.631 0-7.128 6.182-10.228 7.846-12.58s2.694-6.002 2.694-6.002c0.273-0.854 1.106-1.081 1.791-0.487 0 0 6.551 4.223 5.55 14.227 2.374-1.721 3.969-5.433 3.969-5.433 0.404-0.824 1.161-0.877 1.655-0.098 0 0 8.979 11.7-1.54 20.295-1.463 1.102-4.654 2.677-7.62 2.677z"></path>
</svg>
