<svg xmlns="http://www.w3.org/2000/svg" width="1500" height="1500" viewBox="0 0 1500 1500"><path d="M816.735 1499.999c-138.998 0-229.444-34.058-229.444-34.058-41.574-12-106.635-36.757-144.454-58.166 0 0-298.604-113.659-298.604-498.334 0-334.102 289.799-479.451 367.781-589.708L638.317 38.392c12.813-40.028 51.825-50.669 83.946-22.816 0 0 307.094 197.938 260.171 666.892 111.3-80.654 186.044-254.659 186.044-254.659 18.958-38.622 54.419-41.102 77.6-4.611 0 0 420.894 548.452-72.173 951.331-68.587 51.668-218.172 125.467-357.17 125.467z"/></svg>