<svg width="1000" height="1000" viewBox="0 0 1000 1000" xmlns="http://www.w3.org/2000/svg"><g fill-rule="evenodd"><path d="M780.645 795.161L638.71 701.613c-29.959-19.45-69.947-11.594-90.323 17.742-32.258 40.322-72.58 106.451-222.58-45.161-150-151.613-85.484-190.323-45.162-222.581 28.38-20.266 36.143-59.087 17.742-88.71L204.84 220.968c-12.904-17.742-29.033-46.774-67.742-41.936C98.387 183.871 0 240.322 0 362.903c0 122.58 96.774 274.194 229.032 406.452C361.29 901.613 512.903 1000 637.097 1000c124.193 0 180.645-109.677 185.484-137.097 4.838-27.42-24.194-56.451-41.936-67.742zM451.613 0c-17.816 0-32.258 14.442-32.258 32.258 0 17.816 14.442 32.258 32.258 32.258 267.234 0 483.87 216.637 483.87 483.871 0 17.816 14.443 32.258 32.259 32.258 17.816 0 32.258-14.442 32.258-32.258C1000 245.521 754.479 0 451.613 0z"/><path d="M451.613 161.29c-17.816 0-32.258 14.443-32.258 32.258 0 17.816 14.442 32.258 32.258 32.258 178.156 0 322.58 144.425 322.58 322.581 0 17.816 14.443 32.258 32.259 32.258 17.815 0 32.258-14.442 32.258-32.258 0-213.788-173.31-387.097-387.097-387.097z"/><path d="M596.774 548.387c0 17.816 14.443 32.258 32.258 32.258 17.816 0 32.258-14.442 32.258-32.258 0-115.802-93.875-209.677-209.677-209.677-17.816 0-32.258 14.442-32.258 32.258 0 17.815 14.442 32.258 32.258 32.258 80.17 0 145.161 64.99 145.161 145.161z"/></g></svg>