<svg xmlns="http://www.w3.org/2000/svg" width="1000" height="1000" viewBox="0 0 1000 1000"><path d="M568.484.701C806.803.701 1000 193.897 1000 432.217c0 66.369-14.983 129.238-41.752 185.41l39.492 175.559c10.986 48.837-19.805 79.466-68.718 68.424L753.76 822.044c-42.59 20.278-89.026 33.782-137.918 39.119C553.819 945.368 453.974 1000 341.37 1000 153.224 1000 .7 847.477.7 659.33c0-112.604 54.633-212.448 138.837-274.472C163.12 168.82 346.169.701 568.483.701zm174.613 725.803l154.508 35.475-34.883-155.068 13.518-28.364c21.574-45.271 32.916-94.904 32.916-146.329 0-188.146-152.523-340.67-340.67-340.67-153.729 0-283.676 101.825-326.074 241.709 31.317-9.492 64.543-14.596 98.961-14.596 188.146 0 340.67 152.523 340.67 340.67 0 34.429-5.107 67.664-14.605 98.99 16.188-4.904 75.66-31.815 75.66-31.815zm-401.726 182.65c137.975 0 249.824-111.851 249.824-249.824S479.344 409.506 341.371 409.506c-137.975 0-249.824 111.851-249.824 249.824s111.851 249.824 249.824 249.824z"/><path d="M317.769 592.211l-16.936 16.936c-9.357 9.357-9.34 24.575.057 33.972l56.429 56.429c9.458 9.458 24.606 9.422 33.972.057l16.936-16.936c6.261-6.261 16.387-6.285 22.656-.016l62.161 62.161c9.375 9.375 9.419 24.532-.039 33.99l-33.898 33.898c-21.84 21.84-61.486 27.583-88 11.718 0 0-42.468-17.868-109.444-84.845s-85.502-110.234-85.502-110.234c-15.447-26.768-10.206-66.23 11.575-88.011l33.898-33.898c9.396-9.396 24.556-9.473 33.99-.039l62.161 62.161c6.252 6.252 6.267 16.375-.016 22.656z"/></svg>