<!-- Generated by IcoMoon.io -->
<svg version="1.1" xmlns="http://www.w3.org/2000/svg" width="32" height="32" viewBox="0 0 32 32">
<title>history</title>
<path d="M8.881 12.444c0.982 0 1.778-0.796 1.778-1.778s-0.796-1.778-1.778-1.778v0h-2.987c2.711-3.614 5.956-5.333 10.106-5.333 6.872 0.001 12.442 5.572 12.442 12.444s-5.571 12.444-12.444 12.444c-6.323 0-11.544-4.716-12.339-10.822l-0.007-0.063c-0.113-0.883-0.86-1.558-1.764-1.558-0.982 0-1.778 0.796-1.778 1.778 0 0.077 0.005 0.154 0.015 0.229l-0.001-0.009c1.026 7.938 7.743 14.007 15.877 14.007 8.838 0 16.002-7.164 16.002-16.002s-7.164-16.002-16.002-16.002c-0 0-0.001 0-0.001 0h0c-5.086 0-9.165 2.065-12.444 6.11v-2.547c0-0.982-0.796-1.778-1.778-1.778s-1.778 0.796-1.778 1.778v0 7.104c0 0.493 0.198 0.937 0.523 1.257 0.321 0.322 0.764 0.521 1.254 0.521 0.003 0 0.006 0 0.009-0h7.095z"></path>
<path d="M17.109 12.090c0-0.001 0-0.003 0-0.004 0-0.784-0.635-1.419-1.419-1.419 0 0 0 0 0 0v0c-0.001 0-0.003 0-0.004 0-0.784 0-1.419 0.635-1.419 1.419 0 0.002 0 0.003 0 0.005v-0 5.687c0 0.787 0.631 1.423 1.423 1.423h4.979c0.001 0 0.001 0 0.002 0 0.784 0 1.419-0.635 1.419-1.419 0-0.002 0-0.003 0-0.005v0c0-0.001 0-0.001 0-0.002 0-0.784-0.635-1.419-1.419-1.419-0.001 0-0.002 0-0.002 0h-3.558v-4.267z"></path>
</svg>
