<!-- Generated by IcoMoon.io -->
<svg version="1.1" xmlns="http://www.w3.org/2000/svg" width="1500" height="1500" viewBox="0 0 1500 1500">
<title>history</title>
<path d="M416.3 583.299c46.033 0 83.35-37.317 83.35-83.35s-37.317-83.35-83.35-83.35v0h-140c127.1-169.4 279.201-250 473.7-250 322.106 0.056 583.201 261.188 583.201 583.299 0 322.147-261.152 583.299-583.299 583.299-296.379 0-541.129-221.043-578.389-507.265l-0.312-2.934c-5.301-41.382-40.304-73.039-82.701-73.039-46.027 0-83.339 37.313-83.339 83.339 0 3.631 0.231 7.207 0.683 10.715l-0.044-0.416c48.085 372.081 362.941 656.6 744.25 656.6 414.268 0 750.1-335.832 750.1-750.1s-335.832-750.1-750.1-750.1c-0.018 0-0.035 0-0.053 0h0.003c-238.4 0-429.601 96.8-583.299 286.4v-119.399c0-46.033-37.317-83.35-83.35-83.35s-83.35 37.317-83.35 83.35v0 333c0 23.101 9.3 43.9 24.5 58.9 15.029 15.075 35.815 24.401 58.781 24.401 0.148 0 0.294 0 0.442-0.001h332.577z"></path>
<path d="M802 566.7c0-0.060 0-0.13 0-0.201 0-36.727-29.773-66.5-66.5-66.5 0 0 0 0 0 0v0c-0.060 0-0.13 0-0.201 0-36.727 0-66.5 29.773-66.5 66.5 0 0.070 0 0.141 0 0.211v-0.010 266.6c0 36.899 29.6 66.7 66.7 66.7h233.399c0.029 0 0.064 0 0.1 0 36.727 0 66.5-29.773 66.5-66.5 0-0.070 0-0.141 0-0.211v0.010c0-0.029 0-0.064 0-0.1 0-36.727-29.773-66.5-66.5-66.5-0.035 0-0.070 0-0.105 0h-166.794v-200z"></path>
</svg>
