<svg xmlns="http://www.w3.org/2000/svg" width="1500" height="1500" viewBox="0 0 1500 1500"><path d="M416.3 583.299c46.033 0 83.35-37.317 83.35-83.35s-37.317-83.35-83.35-83.35h-140c127.1-169.4 279.201-250 473.7-250 322.106.056 583.201 261.188 583.201 583.299 0 322.147-261.152 583.299-583.299 583.299-296.379 0-541.129-221.043-578.389-507.265l-.312-2.934c-5.301-41.382-40.304-73.039-82.701-73.039-46.027 0-83.339 37.313-83.339 83.339 0 3.631.231 7.207.683 10.715l-.044-.416c48.085 372.081 362.941 656.6 744.25 656.6 414.268 0 750.1-335.832 750.1-750.1S1164.318-.003 750.05-.003h-.053.003c-238.4 0-429.601 96.8-583.299 286.4V166.998c0-46.033-37.317-83.35-83.35-83.35S.001 120.965.001 166.998v333c0 23.101 9.3 43.9 24.5 58.9 15.029 15.075 35.815 24.401 58.781 24.401l.442-.001h332.577zM802 566.7v-.201c0-36.727-29.773-66.5-66.5-66.5h-.201c-36.727 0-66.5 29.773-66.5 66.5V833.31v-.01c0 36.899 29.6 66.7 66.7 66.7h233.499c36.727 0 66.5-29.773 66.5-66.5v-.311.01c0-36.727-29.773-66.5-66.5-66.5H802.099v-200z"/></svg>