<svg width="1000" height="1000" viewBox="0 0 1000 1000" xmlns="http://www.w3.org/2000/svg"><path d="M522.422 40.033C516.54 34.259 508.45 31 500 31c-8.45 0-16.54 3.259-22.422 9.033L.351 508.373c-2.78 2.555 11.742 14.858 15.614 14.858h109.298v430.91c0 8.206 6.99 14.859 15.614 14.859h218.597c8.623 0 15.614-6.653 15.614-14.859V701.539c0-8.207 6.99-14.86 15.614-14.86h218.596c8.624 0 15.614 6.653 15.614 14.86V954.14c0 8.206 6.99 14.859 15.614 14.859h218.597c8.623 0 15.614-6.653 15.614-14.859V523.23h109.298c3.872 0 18.393-12.303 15.614-14.859L522.422 40.033z"/></svg>