<svg xmlns="http://www.w3.org/2000/svg" width="1500" height="1500" viewBox="0 0 1500 1500"><path d="M272.788 1329.543l204.486.04V920.285c0-37.563 30.495-68.014 67.979-68.014h409.496c37.544 0 67.979 30.431 67.979 68.014v409.437l204.545.122V676.105L750.001 199.251 272.726 676.109c-.015 128.959.063 653.436.063 653.436zM116.394 832.302c-26.626 26.626-69.797 26.626-96.423 0s-26.626-69.797 0-96.423L701.79 54.06c26.626-26.626 69.797-26.626 96.423 0l681.819 681.819c26.626 26.626 26.626 69.797 0 96.423s-69.797 26.626-96.423 0l-19.97-19.953v517.497c0 75.271-60.967 136.062-136.424 136.062H272.789c-75.275 0-136.424-60.787-136.424-136.062V812.349l-19.97 19.953zm769.968 497.381V988.53l-272.728.105v340.979l272.728.069z"/></svg>