<!-- Generated by IcoMoon.io -->
<svg version="1.1" xmlns="http://www.w3.org/2000/svg" width="32" height="32" viewBox="0 0 32 32">
<title>home</title>
<path d="M6.668 26.667l3.999 0.001v-8.004c0-0.735 0.596-1.33 1.329-1.33h8.008c0.734 0 1.329 0.595 1.329 1.33v8.007l4 0.002v-12.784l-9.333-9.325-9.333 9.325c-0 2.522 0.001 12.778 0.001 12.778zM3.609 16.943c-0.521 0.521-1.365 0.521-1.886 0s-0.521-1.365 0-1.886l13.333-13.333c0.521-0.521 1.365-0.521 1.886 0l13.333 13.333c0.521 0.521 0.521 1.365 0 1.886s-1.365 0.521-1.886 0l-0.391-0.39v10.12c0 1.472-1.192 2.661-2.668 2.661h-18.664c-1.472 0-2.668-1.189-2.668-2.661v-10.12l-0.391 0.39zM18.667 26.669v-6.671l-5.333 0.002v6.668l5.333 0.001z"></path>
</svg>
