<svg width="1000" height="1000" viewBox="0 0 1000 1000" xmlns="http://www.w3.org/2000/svg"><g fill-rule="evenodd"><path d="M917.58 757.788L749.867 647.985c-34.93-22.162-81.089-12.918-104.82 20.992-38.703 46.828-85.469 124.335-261.244-51.672-175.775-176.007-99.982-224.45-53.216-263.203 33.865-23.763 43.096-69.982 20.964-104.959L241.893 81.209c-14.514-20.991-33.865-54.901-79.019-48.442C117.721 39.226 0 105.431 0 250.757c0 145.328 114.496 322.95 270.92 479.58C427.344 886.967 604.732 1000 748.255 1000c143.523 0 214.478-129.18 219.316-161.475 4.838-32.295-29.027-66.204-49.991-80.737z"/><path d="M898.81 458.544c17.961 0 32.521-14.56 32.521-32.52 0-17.961-14.56-32.521-32.52-32.521H651.653L986.617 58.539a32.52 32.52 0 1 0-45.53-45.53L606.125 347.975V100.816c0-17.961-14.56-32.521-32.521-32.521-17.96 0-32.52 14.56-32.52 32.52v357.73H898.81z"/></g></svg>