<svg width="1500" height="1500" viewBox="0 0 1500 1500" xmlns="http://www.w3.org/2000/svg"><g fill="#8FC96B" fill-opacity=".944"><path d="M563.92 577.697l-63.46 63.463c-35.063 35.065-34.999 92.093.213 127.306l211.454 211.462c35.44 35.442 92.207 35.309 127.301.213l63.46-63.463c23.461-23.461 61.406-23.554 84.9-.058l232.936 232.944c35.132 35.133 35.295 91.933-.145 127.374l-127.028 127.033c-81.84 81.842-230.407 103.366-329.76 43.91 0 0-159.14-66.96-410.117-317.948-250.978-250.987-320.4-413.093-320.4-413.093-57.886-100.308-38.246-248.19 43.372-329.813l127.028-127.032c35.212-35.214 92.016-35.5 127.369-.146l232.935 232.944c23.428 23.43 23.481 61.364-.058 84.904zM161.39 471.772c-43.352 43.354-50.688 130.113-24.317 185.165 0 0 42.33 76.82 61.49 105.09 56.63 83.561 135.387 178.69 239.854 283.16 104.45 104.456 198.987 182.725 281.56 238.557 27.876 18.85 105.354 61.297 105.354 61.297 50.164 26.254 139.351 18.314 183.48-25.816l106.042-106.047-169.484-169.49-21.198 21.198c-81.991 81.995-214.639 81.937-296.785-.213L415.93 853.212c-81.946-81.95-82.146-214.861-.213-296.797l21.198-21.199-169.484-169.49-106.043 106.046z"/><path d="M831.531 587.858l346.86-331.222c19.337-19.336 51.468-18.555 72.086 2.063 20.476 20.476 21.495 52.655 2.064 72.086L905.68 662.007l170.02-.003c28.957-.001 52.431 23.473 52.43 52.431 0 28.958-23.475 52.433-52.433 52.434l-296.602.005c-28.958 0-52.432-23.474-52.432-52.431l.006-296.603c0-28.958 23.476-52.433 52.433-52.433 28.958-.001 52.432 23.473 52.432 52.431l-.004 170.02z"/></g></svg>