<svg xmlns="http://www.w3.org/2000/svg" width="1500" height="1500" viewBox="0 0 1500 1500"><path d="M825 1012.499h37.515c41.414 0 74.985 33.29 74.985 75 0 41.421-33.278 75-74.985 75H637.487c-41.414 0-74.985-33.29-74.985-75 0-41.421 33.278-75 74.985-75h37.515v-225h-37.277c-41.544 0-75.223-33.29-75.223-75 0-41.421 33.246-75 75.223-75H749.78c20.897 0 39.615 8.379 53.183 21.946 13.649 13.516 22.04 32.237 22.04 53.054v300zM750 1500C335.788 1500 0 1164.214 0 750S335.786 0 750 0c414.212 0 750 335.786 750 750s-335.786 750-750 750zm0-150.001c331.37 0 599.999-268.629 599.999-599.999S1081.37 150.001 750 150.001 150.001 418.63 150.001 750 418.63 1349.999 750 1349.999zm0-787.499c-62.131 0-112.5-50.369-112.5-112.5S687.869 337.5 750 337.5 862.5 387.869 862.5 450 812.131 562.5 750 562.5z"/></svg>