<svg xmlns="http://www.w3.org/2000/svg" width="1000" height="1000" viewBox="0 0 1000 1000"><path d="M550 674.999h25.01c27.609 0 49.99 22.193 49.99 50 0 27.614-22.186 50-49.99 50H424.991c-27.609 0-49.99-22.193-49.99-50 0-27.614 22.186-50 49.99-50h25.01v-150h-24.852c-27.696 0-50.148-22.193-50.148-50 0-27.614 22.164-50 50.148-50h74.703c13.932 0 26.41 5.586 35.455 14.631 9.1 9.011 14.693 21.491 14.693 35.369v200zM500 1000C223.858 1000 0 776.143 0 500S223.857 0 500 0c276.142 0 500 223.857 500 500s-223.857 500-500 500zm0-100.001c220.913 0 399.999-179.086 399.999-399.999S720.913 100.001 500 100.001 100.001 279.087 100.001 500 279.087 899.999 500 899.999zM500 375c-41.421 0-75-33.579-75-75s33.579-75 75-75 75 33.579 75 75-33.579 75-75 75z"/></svg>