<!-- Generated by IcoMoon.io -->
<svg version="1.1" xmlns="http://www.w3.org/2000/svg" width="32" height="32" viewBox="0 0 32 32">
<title>info</title>
<path d="M17.333 20.667h0.667c0.736 0 1.333 0.592 1.333 1.333 0 0.736-0.592 1.333-1.333 1.333h-4c-0.736 0-1.333-0.592-1.333-1.333 0-0.736 0.592-1.333 1.333-1.333h0.667v-4h-0.663c-0.739 0-1.337-0.592-1.337-1.333 0-0.736 0.591-1.333 1.337-1.333h1.992c0.371 0 0.704 0.149 0.945 0.39 0.243 0.24 0.392 0.573 0.392 0.943v5.333zM16 29.333c-7.364 0-13.333-5.97-13.333-13.333s5.97-13.333 13.333-13.333c7.364 0 13.333 5.97 13.333 13.333s-5.97 13.333-13.333 13.333zM16 26.667c5.891 0 10.667-4.776 10.667-10.667s-4.776-10.667-10.667-10.667c-5.891 0-10.667 4.776-10.667 10.667s4.776 10.667 10.667 10.667zM16 12.667c-1.105 0-2-0.895-2-2s0.895-2 2-2c1.105 0 2 0.895 2 2s-0.895 2-2 2z"></path>
</svg>
