<!-- Generated by IcoMoon.io -->
<svg version="1.1" xmlns="http://www.w3.org/2000/svg" width="1500" height="1500" viewBox="0 0 1500 1500">
<title>invoice</title>
<path d="M75.044 1424.956v-1274.93c0-82.898 66.987-149.979 150.057-149.979h1049.801c82.896 0 150.057 66.967 150.057 149.979v1274.93c0 55.75-58.67 92.010-108.535 67.077l-115.603-57.8-117.302 57.8c-21.113 10.557-45.964 10.557-67.077 0l-116.254-58.126-116.65 58.126c-21.113 10.557-45.964 10.557-67.077 0l-116.219-58.109-116.575 58.1c-21.11 10.562-45.962 10.567-67.077 0.016l-116.345-58.138-116.663 58.129c-49.865 24.933-108.535-11.328-108.535-67.077zM1274.9 150.040l-1049.867-0.010v1153.478l41.457-20.624c21.108-10.553 45.952-10.557 67.062-0.009l117.22 58.5 115.685-58.482c21.117-10.564 45.974-10.567 67.094-0.009l116.451 58.373 116.451-58.373c21.113-10.557 45.964-10.557 67.077 0l117.577 58.723 115.326-58.723c21.113-10.557 45.964-10.557 67.077 0l41.832 20.919-0.441-1153.764zM750 974.985c0-41.418 33.277-74.996 74.979-74.996h225.013c41.411 0 74.979 33.287 74.979 74.996 0 41.418-33.277 74.996-74.979 74.996h-225.013c-41.411 0-74.979-33.287-74.979-74.996zM375.025 675.004c0-41.418 33.681-74.996 74.65-74.996h600.652c41.228 0 74.65 33.287 74.65 74.996 0 41.418-33.681 74.996-74.65 74.996h-600.652c-41.228 0-74.65-33.287-74.65-74.996zM375.025 375.025c0-41.418 33.681-74.996 74.65-74.996h600.652c41.228 0 74.65 33.287 74.65 74.996 0 41.418-33.681 74.996-74.65 74.996h-600.652c-41.228 0-74.65-33.287-74.65-74.996z"></path>
</svg>
