<svg xmlns="http://www.w3.org/2000/svg" width="1500" height="1500" viewBox="0 0 1500 1500"><path d="M75.044 1424.956V150.026C75.044 67.128 142.031.047 225.101.047h1049.801c82.896 0 150.057 66.967 150.057 149.979v1274.93c0 55.75-58.67 92.01-108.535 67.077l-115.603-57.8-117.302 57.8a74.991 74.991 0 0 1-67.077 0l-116.254-58.126-116.65 58.126a74.991 74.991 0 0 1-67.077 0l-116.219-58.109-116.575 58.1a74.994 74.994 0 0 1-67.077.016l-116.345-58.138-116.663 58.129c-49.865 24.933-108.535-11.328-108.535-67.077zM1274.9 150.04l-1049.867-.01v1153.478l41.457-20.624a75 75 0 0 1 67.062-.009l117.22 58.5 115.685-58.482a75.002 75.002 0 0 1 67.094-.009l116.451 58.373 116.451-58.373a74.991 74.991 0 0 1 67.077 0l117.577 58.723 115.326-58.723a74.991 74.991 0 0 1 67.077 0l41.832 20.919-.441-1153.764zM750 974.985c0-41.418 33.277-74.996 74.979-74.996h225.013c41.411 0 74.979 33.287 74.979 74.996 0 41.418-33.277 74.996-74.979 74.996H824.979c-41.411 0-74.979-33.287-74.979-74.996zM375.025 675.004c0-41.418 33.681-74.996 74.65-74.996h600.652c41.228 0 74.65 33.287 74.65 74.996 0 41.418-33.681 74.996-74.65 74.996H449.675c-41.228 0-74.65-33.287-74.65-74.996zm0-299.979c0-41.418 33.681-74.996 74.65-74.996h600.652c41.228 0 74.65 33.287 74.65 74.996 0 41.418-33.681 74.996-74.65 74.996H449.675c-41.228 0-74.65-33.287-74.65-74.996z"/></svg>