<!-- Generated by IcoMoon.io -->
<svg version="1.1" xmlns="http://www.w3.org/2000/svg" width="32" height="32" viewBox="0 0 32 32">
<title>invoice</title>
<path d="M4 28v-22.667c0-1.474 1.191-2.666 2.668-2.666h18.664c1.474 0 2.668 1.191 2.668 2.666v22.667c0 0.991-1.043 1.636-1.93 1.193l-2.055-1.028-2.085 1.028c-0.375 0.188-0.817 0.188-1.193 0l-2.067-1.033-2.074 1.033c-0.375 0.188-0.817 0.188-1.193 0l-2.066-1.033-2.073 1.033c-0.375 0.188-0.817 0.188-1.193 0l-2.069-1.034-2.074 1.033c-0.887 0.443-1.93-0.201-1.93-1.193zM25.332 5.333l-18.666-0v20.508l0.737-0.367c0.375-0.188 0.817-0.188 1.192-0l2.084 1.040 2.057-1.040c0.375-0.188 0.817-0.188 1.193-0l2.070 1.038 2.070-1.038c0.375-0.188 0.817-0.188 1.193 0l2.090 1.044 2.050-1.044c0.375-0.188 0.817-0.188 1.193 0l0.744 0.372-0.008-20.513zM16 20c0-0.736 0.592-1.333 1.333-1.333h4c0.736 0 1.333 0.592 1.333 1.333 0 0.736-0.592 1.333-1.333 1.333h-4c-0.736 0-1.333-0.592-1.333-1.333zM9.333 14.667c0-0.736 0.599-1.333 1.327-1.333h10.679c0.733 0 1.327 0.592 1.327 1.333 0 0.736-0.599 1.333-1.327 1.333h-10.679c-0.733 0-1.327-0.592-1.327-1.333zM9.333 9.333c0-0.736 0.599-1.333 1.327-1.333h10.679c0.733 0 1.327 0.592 1.327 1.333 0 0.736-0.599 1.333-1.327 1.333h-10.679c-0.733 0-1.327-0.592-1.327-1.333z"></path>
</svg>
