<svg xmlns="http://www.w3.org/2000/svg" width="1000" height="1000" viewBox="0 0 1000 1000"><path d="M50.029 949.971V100.018C50.029 44.752 94.687.032 150.067.032h699.867c55.264 0 100.038 44.645 100.038 99.986v849.953c0 37.167-39.113 61.34-72.356 44.718l-77.068-38.533-78.201 38.533a49.994 49.994 0 0 1-44.718 0l-77.503-38.751-77.767 38.751a49.994 49.994 0 0 1-44.718 0l-77.479-38.739-77.717 38.733a49.997 49.997 0 0 1-44.718.011l-77.563-38.759-77.775 38.753c-33.243 16.622-72.356-7.552-72.356-44.718zm799.905-849.945l-699.911-.007v768.985l27.638-13.749a50.001 50.001 0 0 1 44.708-.006l78.146 39 77.123-38.988a49.998 49.998 0 0 1 44.729-.006l77.634 38.915 77.634-38.915a49.994 49.994 0 0 1 44.718 0l78.385 39.148 76.884-39.148a49.994 49.994 0 0 1 44.718 0l27.888 13.946-.294-769.176zM500 649.99c0-27.612 22.185-49.997 49.986-49.997h150.009c27.607 0 49.986 22.191 49.986 49.997 0 27.612-22.185 49.997-49.986 49.997H549.986c-27.607 0-49.986-22.191-49.986-49.997zM250.017 450.003c0-27.612 22.454-49.997 49.767-49.997h400.435c27.485 0 49.767 22.191 49.767 49.997 0 27.612-22.454 49.997-49.767 49.997H299.784c-27.485 0-49.767-22.191-49.767-49.997zm0-199.986c0-27.612 22.454-49.997 49.767-49.997h400.435c27.485 0 49.767 22.191 49.767 49.997 0 27.612-22.454 49.997-49.767 49.997H299.784c-27.485 0-49.767-22.191-49.767-49.997z"/></svg>