<svg xmlns="http://www.w3.org/2000/svg" width="1500" height="1500" viewBox="0 0 1500 1500"><path d="M1117.922 276.012l-841.913 841.913c-78.98-101.602-126.01-229.27-126.01-367.922 0-331.37 268.629-599.999 599.999-599.999 138.653 0 266.322 47.03 367.922 126.01zm106.066 106.066c78.98 101.602 126.01 229.27 126.01 367.922 0 331.37-268.629 599.999-599.999 599.999-138.653 0-266.322-47.03-367.922-126.01l841.913-841.913zM1500 750c0-414.212-335.786-750-750-750S0 335.786 0 750c0 414.212 335.786 750 750 750s750-335.786 750-750z"/></svg>