<!-- Generated by IcoMoon.io -->
<svg version="1.1" xmlns="http://www.w3.org/2000/svg" width="32" height="32" viewBox="0 0 32 32">
<title>junk</title>
<path d="M23.849 5.888l-17.961 17.961c-1.685-2.168-2.688-4.891-2.688-7.849 0-7.069 5.731-12.8 12.8-12.8 2.958 0 5.682 1.003 7.849 2.688zM26.112 8.151c1.685 2.168 2.688 4.891 2.688 7.849 0 7.069-5.731 12.8-12.8 12.8-2.958 0-5.682-1.003-7.849-2.688l17.961-17.961zM32 16c0-8.837-7.163-16-16-16s-16 7.163-16 16c0 8.837 7.163 16 16 16s16-7.163 16-16z"></path>
</svg>
