<!-- Generated by IcoMoon.io -->
<svg version="1.1" xmlns="http://www.w3.org/2000/svg" width="1500" height="1500" viewBox="0 0 1500 1500">
<title>junk</title>
<path d="M1117.922 276.012l-841.913 841.913c-78.98-101.602-126.010-229.27-126.010-367.922 0-331.37 268.629-599.999 599.999-599.999 138.653 0 266.322 47.030 367.922 126.010zM1223.988 382.078c78.98 101.602 126.010 229.27 126.010 367.922 0 331.37-268.629 599.999-599.999 599.999-138.653 0-266.322-47.030-367.922-126.010l841.913-841.913zM1500 750c0-414.212-335.786-750-750-750s-750 335.786-750 750c0 414.212 335.786 750 750 750s750-335.786 750-750z"></path>
</svg>
