<svg xmlns="http://www.w3.org/2000/svg" width="1000" height="1000" viewBox="0 0 1000 1000"><path d="M745.281 184.008L184.006 745.283c-52.653-67.734-84.007-152.847-84.007-245.281 0-220.913 179.086-399.999 399.999-399.999 92.436 0 177.548 31.354 245.281 84.007zm70.711 70.711c52.653 67.734 84.007 152.847 84.007 245.281 0 220.913-179.086 399.999-399.999 399.999-92.436 0-177.548-31.354-245.281-84.007l561.275-561.275zM1000 500C1000 223.858 776.143 0 500 0S0 223.857 0 500c0 276.142 223.857 500 500 500s500-223.857 500-500z"/></svg>