<svg width="1500" height="1500" viewBox="0 0 1500 1500" xmlns="http://www.w3.org/2000/svg"><path d="M1354.616 1345.431c-20.057-92.995-143.479-191.99-260.216-207.99h-23.656c-89.546 87.163-210.165 137.472-336.84 140.494-126.93-3.225-247.796-53.483-337.868-140.493H373.41c-119.308 14.999-242.73 112.494-262.787 206.99v8.999c-4.656 24.268.804 49.34 15.177 69.691s36.48 34.31 61.448 38.803a3325.277 3325.277 0 0 0 518.888 37.998 3219.07 3219.07 0 0 0 570.827-46.997c25.01-4.147 47.28-17.834 61.862-38.019s20.267-45.197 15.792-69.476zM330.726 802.96c5.648.415 11.32.415 16.97 0 78.167 193.49 228.33 323.483 384.151 323.983s302.385-132.493 381.067-326.983c6.672.577 13.384.577 20.056 0 78.802-6.637 137.725-73.249 132.679-149.992 2.494-62.358-34.984-119.702-94.11-143.993C1175.14 168.991 987.95 0 731.847 0c-256.1 0-443.805 168.991-440.206 508.474-58.229 23.959-95.526 80.035-94.109 141.493-3.272 37.474 8.937 74.672 33.928 103.379 24.991 28.706 60.71 46.558 99.265 49.613z" fill="#8E929A"/></svg>