<?xml version="1.0" encoding="UTF-8"?>
<svg width="9px" height="8px" viewBox="0 0 9 8" version="1.1" xmlns="http://www.w3.org/2000/svg" xmlns:xlink="http://www.w3.org/1999/xlink">
    <!-- Generator: Sketch 53 (72520) - https://sketchapp.com -->
    <title>link</title>
    <desc>Created with Sketch.</desc>
    <g id="Page-1" stroke="none" stroke-width="1" fill="none" fill-rule="evenodd">
        <g id="01-Interested-Copy-3" transform="translate(-118.000000, -722.000000)" fill="#9FA6B0">
            <g id="Group-2" transform="translate(0.000000, 702.000000)">
                <g id="link" transform="translate(118.000000, 20.000000)">
                    <path d="M4.8725614,3.11268616 C4.77796491,3.01752827 4.67307602,2.93317739 4.55984405,2.86117739 C4.25992982,2.6691306 3.91126706,2.56707992 3.5551345,2.56707992 C3.06083431,2.56615984 2.58661988,2.7625575 2.2377076,3.11268616 L0.545013645,4.80670565 C0.196693957,5.15569591 0.000920077973,5.62853801 0.000608187135,6.12160624 C-4.67836257e-05,7.15053411 0.833512671,7.98516959 1.86244055,7.98582456 C2.35597661,7.98753996 2.82975439,7.79207797 3.17854191,7.44288499 L4.57581287,6.04561404 C4.60120078,6.02044444 4.61537622,5.98610526 4.61517349,5.95036257 C4.61475244,5.8768655 4.55482261,5.81763743 4.48132554,5.81805848 L4.42810136,5.81805848 C4.13617154,5.81908772 3.846846,5.76302534 3.57643665,5.65305263 C3.52661209,5.63254581 3.46934893,5.64411696 3.43139181,5.68232359 L2.42668226,6.68835867 C2.11469786,7.00034308 1.60887329,7.00034308 1.29688889,6.68835867 C0.984904483,6.37637427 0.984904483,5.87054971 1.29688889,5.5585653 L2.99624172,3.86055361 C3.30797661,3.54920858 3.81297466,3.54920858 4.12470955,3.86055361 C4.33479922,4.0582768 4.66250292,4.0582768 4.872577,3.86055361 C4.96296296,3.77008967 5.01776218,3.65010526 5.02694737,3.52254191 C5.03666277,3.37010526 4.98044444,3.22081871 4.8725614,3.11268616 Z" id="Path"></path>
                    <path d="M7.48435754,0.545695906 C6.75676299,-0.181898635 5.57709828,-0.181898635 4.84950373,0.545695906 L3.45355831,1.94030019 C3.41522693,1.97881871 3.4041704,2.03675244 3.4256129,2.08668616 C3.44680588,2.13676023 3.49633414,2.16890058 3.55069672,2.16785575 L3.59992869,2.16785575 C3.89151543,2.16732554 4.18037313,2.22382456 4.45026787,2.33420273 C4.50009243,2.35470955 4.55735559,2.3431384 4.5953127,2.30493177 L5.59735559,1.30421442 C5.90933999,0.992230019 6.41516455,0.992230019 6.72714896,1.30421442 C7.03913336,1.61619883 7.03913336,2.12202339 6.72714896,2.4340078 L5.47891504,3.68090058 L5.46826397,3.69287719 L5.03178833,4.12670175 C4.72005344,4.43804678 4.21505539,4.43804678 3.9033205,4.12670175 C3.69323083,3.92897856 3.36552713,3.92897856 3.15545305,4.12670175 C3.06449009,4.21785185 3.00964408,4.33888109 3.00108268,4.46736452 C2.99135169,4.61980117 3.04757001,4.76908772 3.15545305,4.87723587 C3.30948034,5.03191813 3.48969087,5.15806238 3.68774155,5.24983626 C3.71568697,5.2631384 3.74363239,5.27378947 3.77157781,5.28576608 C3.79952323,5.29774269 3.82879418,5.30705263 3.8567396,5.3177037 C3.88468502,5.32835478 3.91395598,5.33766472 3.94190139,5.34564912 L4.02041991,5.36693567 C4.07364408,5.38023782 4.12688385,5.39088889 4.18143356,5.40019883 C4.24714896,5.40996101 4.31333219,5.41618324 4.37971816,5.41883431 L4.47286436,5.41883431 L4.48084876,5.41883431 L4.56069282,5.40952437 C4.58996377,5.40819883 4.62057586,5.40153996 4.65518015,5.40153996 L4.70041991,5.40153996 L4.79224058,5.38823782 L4.83482927,5.38025341 L4.91200666,5.3642846 L4.92664993,5.3642846 C5.25352713,5.28217934 5.55200666,5.11293177 5.79029126,4.8745692 L7.48431075,3.18054971 C8.21195208,2.45295517 8.21195208,1.27329045 7.48435754,0.545695906 Z" id="Path"></path>
                </g>
            </g>
        </g>
    </g>
</svg>