<svg width="1000" height="1000" viewBox="0 0 1000 1000" xmlns="http://www.w3.org/2000/svg"><g fill-rule="evenodd"><path d="M606.19 390.187a225.392 225.392 0 0 0-38.91-31.285 231.863 231.863 0 0 0-125.01-36.583 230.841 230.841 0 0 0-163.92 67.868L67.737 600.906A231.708 231.708 0 0 0 0 764.466c-.081 127.988 103.634 231.809 231.658 231.89a230.352 230.352 0 0 0 163.755-67.536l173.855-173.807a16.55 16.55 0 0 0 4.897-11.848c-.052-9.142-7.509-16.51-16.654-16.457h-6.622a278.752 278.752 0 0 1-105.968-20.525 16.56 16.56 0 0 0-18.047 3.64l-125.01 125.141c-38.82 38.808-101.756 38.808-140.575 0-38.818-38.807-38.818-101.727 0-140.535L372.73 483.214c38.788-38.728 101.622-38.728 140.41 0 26.14 24.595 66.914 24.595 93.053 0a66.206 66.206 0 0 0 19.207-42.045 66.21 66.21 0 0 0-19.21-50.982z"/><path d="M931.162 70.88c-90.53-90.506-237.31-90.506-327.84 0l-173.69 173.474a16.549 16.549 0 0 0-3.477 18.209 16.555 16.555 0 0 0 15.563 10.096h6.126a278.23 278.23 0 0 1 105.803 20.692 16.56 16.56 0 0 0 18.047-3.64l124.679-124.48c38.818-38.808 101.755-38.808 140.574 0 38.818 38.808 38.818 101.727 0 140.535l-155.311 155.1-1.325 1.49-54.309 53.964c-38.787 38.728-101.621 38.728-140.409 0-26.14-24.595-66.914-24.595-93.053 0a66.215 66.215 0 0 0-19.207 42.375 66.208 66.208 0 0 0 19.207 50.984 229.828 229.828 0 0 0 66.23 46.348c3.477 1.654 6.954 2.98 10.431 4.469 3.477 1.49 7.12 2.648 10.596 3.973 3.478 1.325 7.12 2.483 10.597 3.476l9.77 2.648c6.622 1.654 13.246 2.98 20.033 4.137a230.544 230.544 0 0 0 24.672 2.318h12.583l9.934-1.158c3.642-.165 7.451-.993 11.757-.993h5.629l11.425-1.655 5.299-.993 9.603-1.986h1.822a231.802 231.802 0 0 0 107.458-60.916l210.777-210.719c90.537-90.505 90.537-237.244.006-327.749z"/></g></svg>