<svg width="1000" height="1000" viewBox="0 0 1000 1000" xmlns="http://www.w3.org/2000/svg"><path d="M552.628 497.93l-54.698 54.698 18.836 18.836.053.054c67.58 67.876 67.58 177.61-.053 245.539L385.14 948.68c-67.876 67.579-177.61 67.579-245.539-.053L51.32 860.344c-67.579-67.876-67.579-177.61.053-245.539l131.625-131.624c67.876-67.58 177.61-67.58 245.539.053l20.384 20.384 54.698-54.698-20.437-20.438c-67.58-67.876-67.58-177.61.053-245.539L614.86 51.32c67.876-67.579 177.61-67.579 245.539.053l88.23 88.23.053.054c67.579 67.876 67.579 177.61-.053 245.539L817.003 516.819c-67.876 67.58-177.61 67.58-245.539-.053l-18.836-18.836zm0-98.02L692.2 260.337c13.533-13.534 35.476-13.534 49.01 0 13.534 13.534 13.534 35.476 0 49.01L601.639 448.92l18.782 18.782c40.833 40.654 106.846 40.654 147.625.053l131.518-131.517c40.645-40.824 40.654-106.82.024-147.654l-88.147-88.148c-40.833-40.654-106.847-40.654-147.626-.053L532.298 231.9c-40.654 40.833-40.654 106.846-.053 147.626l20.383 20.383zM399.91 552.627l-20.33-20.33c-40.833-40.654-106.846-40.654-147.625-.053L100.436 663.762c-40.654 40.832-40.654 106.846-.053 147.625l88.176 88.177c40.833 40.654 106.847 40.654 147.626.053L467.702 768.1c40.646-40.824 40.654-106.82.025-147.654l-18.807-18.807L309.348 741.21c-13.534 13.534-35.476 13.534-49.01 0-13.534-13.534-13.534-35.477 0-49.01l139.571-139.572z"/></svg>