<!-- Generated by IcoMoon.io -->
<svg version="1.1" xmlns="http://www.w3.org/2000/svg" width="32" height="32" viewBox="0 0 32 32">
<title>location</title>
<path d="M21.946 24.526c-2.157 2.56-4.876 4.808-5.946 4.808s-3.788-2.247-5.946-4.808c-2.928-3.475-4.721-7.297-4.721-11.192 0-5.891 4.776-10.667 10.667-10.667s10.667 4.776 10.667 10.667c0 3.895-1.793 7.718-4.721 11.192zM15.099 25.806c0.396 0.327 0.901 0.694 0.901 0.694s0.562-0.413 0.901-0.694c0.984-0.813 2.040-1.852 3.006-2.998 2.559-3.037 4.094-6.308 4.094-9.474 0-4.418-3.582-8-8-8s-8 3.582-8 8c0 3.166 1.534 6.437 4.094 9.474 0.965 1.146 2.022 2.185 3.006 2.998zM12 13.333c0-2.209 1.791-4 4-4s4 1.791 4 4c0 2.209-1.791 4-4 4s-4-1.791-4-4zM17.333 13.333c0-0.736-0.597-1.333-1.333-1.333s-1.333 0.597-1.333 1.333c0 0.736 0.597 1.333 1.333 1.333s1.333-0.597 1.333-1.333z"></path>
</svg>
