<svg xmlns="http://www.w3.org/2000/svg" width="1500" height="1500" viewBox="0 0 1500 1500"><path d="M1084.45 1229.577C963.101 1373.598 810.167 1500 750.001 1500s-213.1-126.403-334.449-270.423C250.864 1034.119 149.999 819.109 149.999 600c0-331.371 268.629-600 600-600s600 268.629 600 600c0 219.108-100.863 434.117-265.553 629.577zm-385.116 71.989c22.251 18.39 50.667 39.013 50.667 39.013s31.604-23.256 50.667-39.013c55.324-45.724 114.775-104.202 169.069-168.642C1113.696 962.066 1200 778.099 1200 599.999c0-248.528-201.472-450-450-450s-450 201.472-450 450c0 178.099 86.301 362.065 230.263 532.925 54.296 64.44 113.748 122.915 169.069 168.642zM525.001 600.001c0-124.263 100.737-225 225-225s225 100.737 225 225-100.737 225-225 225-225-100.737-225-225zm300 0c0-41.421-33.58-75-75-75s-75 33.58-75 75c0 41.421 33.58 75 75 75s75-33.58 75-75z"/></svg>