<!-- Generated by IcoMoon.io -->
<svg version="1.1" xmlns="http://www.w3.org/2000/svg" width="1500" height="1500" viewBox="0 0 1500 1500">
<title>location</title>
<path d="M1084.45 1229.577c-121.349 144.021-274.283 270.423-334.449 270.423s-213.1-126.403-334.449-270.423c-164.688-195.458-265.553-410.468-265.553-629.577 0-331.371 268.629-600 600-600s600 268.629 600 600c0 219.108-100.863 434.117-265.553 629.577zM699.334 1301.566c22.251 18.39 50.667 39.013 50.667 39.013s31.604-23.256 50.667-39.013c55.324-45.724 114.775-104.202 169.069-168.642 143.959-170.858 230.263-354.825 230.263-532.925 0-248.528-201.472-450-450-450s-450 201.472-450 450c0 178.099 86.301 362.065 230.263 532.925 54.296 64.44 113.748 122.915 169.069 168.642zM525.001 600.001c0-124.263 100.737-225 225-225s225 100.737 225 225c0 124.263-100.737 225-225 225s-225-100.737-225-225zM825.001 600.001c0-41.421-33.58-75-75-75s-75 33.58-75 75c0 41.421 33.58 75 75 75s75-33.58 75-75z"></path>
</svg>
