<!-- Generated by IcoMoon.io -->
<svg version="1.1" xmlns="http://www.w3.org/2000/svg" width="32" height="32" viewBox="0 0 32 32">
<title>logout</title>
<path d="M1.778 17.778c0-4.743 2.341-9.094 6.177-11.729 0.809-0.556 1.916-0.351 2.472 0.458s0.351 1.916-0.458 2.472c-2.88 1.979-4.635 5.239-4.635 8.799 0 5.891 4.776 10.667 10.667 10.667s10.667-4.776 10.667-10.667c0-3.499-1.694-6.71-4.494-8.7-0.8-0.569-0.988-1.679-0.419-2.479s1.679-0.988 2.479-0.419c3.727 2.65 5.989 6.936 5.989 11.598 0 7.855-6.367 14.222-14.222 14.222s-14.222-6.367-14.222-14.222zM14.222 1.77c0-0.977 0.789-1.77 1.778-1.77 0.982 0 1.778 0.798 1.778 1.77v14.239c0 0.977-0.789 1.77-1.778 1.77-0.982 0-1.778-0.798-1.778-1.77v-14.239z"></path>
</svg>
