<!-- Generated by IcoMoon.io -->
<svg version="1.1" xmlns="http://www.w3.org/2000/svg" width="29" height="32" viewBox="0 0 29 32">
<title>logout-door</title>
<path d="M23.76 11.484c-0.589-0.579-0.592-1.521-0.006-2.103s1.538-0.585 2.127-0.006l3.009 2.957c0.589 0.579 0.592 1.521 0.006 2.103l-3.009 2.992c-0.586 0.583-1.538 0.585-2.127 0.006s-0.592-1.521-0.006-2.103l0.456-0.457h-7.667c-0.828 0-1.5-0.66-1.5-1.487 0-0.821 0.673-1.487 1.5-1.487h7.639l-0.422-0.415zM12.034 26.772v3.293c0 1.571-1.571 2.446-2.93 1.615l-7.756-4.742c-0.793-0.485-1.348-1.473-1.348-2.391v-22.321c0-0.476 0.144-0.887 0.383-1.207 0.020-0.053 0.049-0.104 0.088-0.153 0.413-0.527 1.060-0.865 1.787-0.865h16.546c1.244 0 2.257 0.999 2.257 2.226v3.724c0 0.821-0.674 1.487-1.504 1.487s-1.504-0.666-1.504-1.487v-2.975l-11.265-0.006 3.9 2.384c0.793 0.485 1.348 1.473 1.348 2.391v16.053h6.017v-2.975c0-0.821 0.674-1.487 1.504-1.487s1.504 0.666 1.504 1.487v3.724c0 1.232-1.013 2.226-2.257 2.226h-6.769zM9.033 7.881l-6.025-3.7v20.347l6.025 3.627v-20.274z"></path>
</svg>
