<svg xmlns="http://www.w3.org/2000/svg" width="917" height="1000" viewBox="0 0 917 1000"><path d="M742.501 358.875c-18.413-18.097-18.503-47.526-.199-65.731s48.066-18.294 66.48-.196l94.017 92.404c18.413 18.098 18.502 47.526.198 65.732l-94.017 93.514c-18.304 18.205-48.067 18.293-66.48.195s-18.501-47.526-.197-65.731l14.244-14.266H516.954c-25.885 0-46.868-20.631-46.868-46.479 0-25.67 21.024-46.479 46.868-46.479h238.733L742.5 358.877zM376.068 836.632v102.896c0 49.08-49.104 76.438-91.565 50.478L42.118 841.81C17.339 826.66 0 795.777 0 767.08V69.552C0 54.691 4.503 41.821 11.959 31.82a18.588 18.588 0 0 1 2.739-4.78C27.609 10.579 47.838.001 70.529.001h517.062c38.861 0 70.529 31.233 70.529 69.552v116.366c0 25.67-21.047 46.479-47.009 46.479s-47.009-20.81-47.009-46.479V92.96l-352.025-.203 121.873 74.515c24.779 15.15 42.118 46.033 42.118 74.73v501.672h188.034v-92.959c0-25.67 21.047-46.479 47.009-46.479s47.009 20.81 47.009 46.479v116.366c0 38.496-31.647 69.552-70.529 69.552H376.069zm-93.78-590.348L94.017 130.65v635.851l188.271 113.341V246.284z"/></svg>