<!-- Generated by IcoMoon.io -->
<svg version="1.1" xmlns="http://www.w3.org/2000/svg" width="1500" height="1500" viewBox="0 0 1500 1500">
<title>logout</title>
<path d="M83.333 833.333c0-222.334 109.74-426.272 289.529-549.806 37.932-26.063 89.813-16.441 115.875 21.491s16.441 89.813-21.491 115.875c-135.010 92.766-217.247 245.593-217.247 412.438 0 276.144 223.857 500.001 500.001 500.001s500.001-223.857 500.001-500.001c0-163.997-79.425-314.522-210.636-407.817-37.507-26.67-46.295-78.697-19.625-116.205s78.697-46.295 116.205-19.625c174.721 124.235 280.72 325.118 280.72 543.647 0 368.19-298.477 666.667-666.667 666.667s-666.667-298.477-666.667-666.667zM666.667 82.948c0-45.813 36.989-82.95 83.333-82.95 46.024 0 83.333 37.425 83.333 82.95v667.434c0 45.813-36.989 82.95-83.333 82.95-46.024 0-83.333-37.425-83.333-82.95v-667.434z"></path>
</svg>
