<svg xmlns="http://www.w3.org/2000/svg" width="1000" height="1000" viewBox="0 0 1000 1000"><path d="M55.556 555.556c0-148.223 73.16-284.182 193.02-366.537 25.288-17.375 59.875-10.961 77.25 14.327s10.961 59.875-14.327 77.25c-90.007 61.844-144.831 163.729-144.831 274.959 0 184.096 149.238 333.334 333.334 333.334s333.334-149.238 333.334-333.334c0-109.331-52.95-209.682-140.424-271.878-25.005-17.78-30.863-52.465-13.083-77.47s52.465-30.863 77.47-13.083c116.48 82.823 187.146 216.745 187.146 362.432 0 245.46-198.984 444.444-444.444 444.444S55.557 801.016 55.557 555.556zM444.444 55.299c0-30.542 24.659-55.3 55.556-55.3 30.683 0 55.556 24.95 55.556 55.3v444.956c0 30.542-24.659 55.3-55.556 55.3-30.683 0-55.556-24.95-55.556-55.3V55.299z"/></svg>