<!-- Generated by IcoMoon.io -->
<svg version="1.1" xmlns="http://www.w3.org/2000/svg" width="32" height="32" viewBox="0 0 32 32">
<title>mail</title>
<path d="M18.667 17.886l-1.724 1.724c-0.521 0.521-1.365 0.521-1.886 0l-1.724-1.724-7.452 7.452 20.233-0.004-7.448-7.448zM28 8.552l-7.448 7.448 7.447 7.447 0-14.895zM11.448 16l-7.447-7.447-0 14.895 7.448-7.448zM16 16.825l10.125-10.163-20.245 0.004 10.121 10.159zM4.001 4h23.998c1.473 0 2.668 1.19 2.668 2.66v18.68c0 1.469-1.195 2.66-2.668 2.66h-23.998c-1.473 0-2.668-1.19-2.668-2.66v-18.68c0-1.469 1.195-2.66 2.668-2.66z"></path>
</svg>
