<svg xmlns="http://www.w3.org/2000/svg" width="1000" height="1000" viewBox="0 0 1000 1000"><path d="M590.909 564.282l-58.768 58.768c-17.751 17.751-46.531 17.751-64.282 0l-58.768-58.768-254.045 254.045 689.768-.141L590.91 564.282zm318.184-318.183L655.192 500 909.08 753.888l.014-507.788zM344.809 500L90.921 246.112 90.907 753.9l253.901-253.901zM500 528.128l345.16-346.456-690.178.141 345.02 346.314zM90.951 90.909h818.1c50.23 0 90.95 40.573 90.95 90.687v636.81c0 50.085-40.753 90.687-90.95 90.687h-818.1c-50.23 0-90.95-40.573-90.95-90.687v-636.81c0-50.085 40.753-90.687 90.95-90.687z"/></svg>