<svg xmlns="http://www.w3.org/2000/svg" width="1500" height="1500" viewBox="0 0 1500 1500"><path d="M886.364 846.423l-88.151 88.151c-26.626 26.626-69.797 26.626-96.423 0l-88.151-88.151-381.067 381.067 1034.651-.211-380.856-380.856zm477.275-477.275L982.787 750l380.832 380.832.021-761.682zM517.213 750L136.381 369.168l-.021 761.682 380.852-380.852zM750 792.192l517.74-519.684-1035.267.211 517.529 519.472zM136.427 136.364h1227.149c75.346 0 136.425 60.86 136.425 136.03v955.214c0 75.127-61.129 136.03-136.425 136.03H136.427c-75.346 0-136.425-60.86-136.425-136.03V272.394c0-75.127 61.129-136.03 136.425-136.03z"/></svg>