<svg width="1000" height="1000" viewBox="0 0 1000 1000" xmlns="http://www.w3.org/2000/svg"><path d="M886.82.007a18.242 18.242 0 0 0-3.836.514L109.256 212.297c-8.794 2.181-15.081 10.517-15.256 20.225v767.054h280.12V689.853h252.76V1000H907V20.64C906.724 8.946 897.689-.29 886.82.006zM295.577 587.883h-95.474V485.065h95.572l-.098 102.818zm0-181.493h-95.474V303.361h95.572l-.098 103.03zm168.407 181.493h-95.572V485.065h95.572v102.818zm0-181.493h-95.572V303.361h95.572v103.03zm168.604 181.493h-95.572V485.065h95.572v102.818zm0-181.704h-95.572V303.36h95.572v102.818zM800.995 587.67h-95.572V484.854h95.572V587.67zm0-181.492h-95.572V303.36h95.572v102.818z"/></svg>