<svg xmlns="http://www.w3.org/2000/svg" width="318" height="1000" viewBox="0 0 318 1000"><path d="M292.818 488.182c0 73.272-55.772 132.682-124.546 132.682S43.726 561.455 43.726 488.182 99.498 355.5 168.272 355.5c68.772 0 124.546 59.409 124.546 132.682zm0 353.772c0 73.272-55.772 132.682-124.546 132.682S43.726 915.227 43.726 841.954s55.772-132.682 124.546-132.682c68.772 0 124.546 59.409 124.546 132.728zm0-707.545c0 73.272-55.772 132.682-124.546 132.682S43.726 207.682 43.726 134.363c0-73.228 55.772-132.637 124.546-132.637s124.546 59.409 124.546 132.682z"/></svg>