<!-- Generated by IcoMoon.io -->
<svg version="1.1" xmlns="http://www.w3.org/2000/svg" width="478" height="1500" viewBox="0 0 478 1500">
<title>more</title>
<path d="M439.228 732.272c0 109.909-83.659 199.022-186.819 199.022s-186.819-89.114-186.819-199.022 83.659-199.022 186.819-199.022c103.159 0 186.819 89.114 186.819 199.022zM439.228 1262.931c0 109.909-83.659 199.022-186.819 199.022s-186.819-89.114-186.819-199.022 83.659-199.022 186.819-199.022c103.159 0 186.819 89.114 186.819 199.091zM439.228 201.614c0 109.909-83.659 199.022-186.819 199.022s-186.819-89.114-186.819-199.091c0-109.841 83.659-198.955 186.819-198.955s186.819 89.114 186.819 199.022z"></path>
</svg>
