<svg xmlns="http://www.w3.org/2000/svg" width="478" height="1500" viewBox="0 0 478 1500"><path d="M439.228 732.272c0 109.909-83.659 199.022-186.819 199.022S65.59 842.18 65.59 732.272 149.249 533.25 252.409 533.25c103.159 0 186.819 89.114 186.819 199.022zm0 530.659c0 109.909-83.659 199.022-186.819 199.022S65.59 1372.839 65.59 1262.931s83.659-199.022 186.819-199.022c103.159 0 186.819 89.114 186.819 199.091zm0-1061.317c0 109.909-83.659 199.022-186.819 199.022S65.59 311.522 65.59 201.545C65.59 91.704 149.249 2.59 252.409 2.59s186.819 89.114 186.819 199.022z"/></svg>