<!-- Generated by IcoMoon.io -->
<svg version="1.1" xmlns="http://www.w3.org/2000/svg" width="10" height="32" viewBox="0 0 10 32">
<title>more</title>
<path d="M9.37 15.622c0 2.345-1.785 4.246-3.985 4.246s-3.985-1.901-3.985-4.246 1.785-4.246 3.985-4.246c2.201 0 3.985 1.901 3.985 4.246zM9.37 26.943c0 2.345-1.785 4.246-3.985 4.246s-3.985-1.901-3.985-4.246 1.785-4.246 3.985-4.246c2.201 0 3.985 1.901 3.985 4.247zM9.37 4.301c0 2.345-1.785 4.246-3.985 4.246s-3.985-1.901-3.985-4.247c0-2.343 1.785-4.244 3.985-4.244s3.985 1.901 3.985 4.246z"></path>
</svg>
