<svg width="1001" height="1001" viewBox="0 0 1001 1001" xmlns="http://www.w3.org/2000/svg"><path d="M927.506 638.904l-140.248-91.94c-29.428-18.96-68.565-11.408-88.824 17.141-21.817 26.492-45.191 63.891-102.85 42.075l-51.424-26.492-90.382 98.174 18.7 15.583 31.166 24.934C600.26 793.178 699.992 841.486 785.7 841.486c121.548 0 179.206-107.524 183.88-135.574 4.676-28.05-23.374-54.541-42.074-67.008zm63.891-629.56c-12.118-11.879-31.514-11.879-43.633 0L458.453 498.656a417.629 417.629 0 0 1-48.308-62.333c-49.866-81.032-4.675-110.64 26.491-134.015 28.55-20.26 36.102-59.397 17.142-88.824l-91.94-140.249c-12.467-17.141-28.05-46.75-67.008-40.516-38.958 6.233-135.574 60.774-135.574 182.323s85.707 252.448 204.14 377.113L12.774 944.335a31.166 31.166 0 1 0 43.633 43.632l934.99-934.99c11.88-12.119 11.88-31.514 0-43.633z"/></svg>