<svg width="1000" height="1000" viewBox="0 0 1000 1000" xmlns="http://www.w3.org/2000/svg"><path d="M84.828 825.15h406.835c14.468 0 26.196 11.726 26.196 26.192s-11.728 26.193-26.196 26.193H58.632c-14.468 0-26.197-11.727-26.197-26.193V26.635C32.435 12.169 44.164.442 58.632.442h648.073c14.468 0 26.197 11.727 26.197 26.193v608.011c0 14.466-11.729 26.193-26.197 26.193s-26.196-11.727-26.196-26.193V52.828H84.828v772.321zm94.897-798.515c0-14.466 11.728-26.193 26.196-26.193 14.468 0 26.196 11.727 26.196 26.193V144.45c0 14.466-11.728 26.193-26.196 26.193-14.468 0-26.196-11.727-26.196-26.193V26.635zm-3.262 144.008c-14.468 0-26.196-11.727-26.196-26.193 0-14.466 11.728-26.193 26.196-26.193h58.916c14.468 0 26.196 11.727 26.196 26.193 0 14.466-11.728 26.193-26.196 26.193h-58.916zM356.472 26.635c0-14.466 11.728-26.193 26.196-26.193 14.468 0 26.197 11.727 26.197 26.193V144.45c0 14.466-11.729 26.193-26.197 26.193s-26.196-11.727-26.196-26.193V26.635zm-3.261 144.008c-14.468 0-26.197-11.727-26.197-26.193 0-14.466 11.729-26.193 26.197-26.193h58.915c14.468 0 26.197 11.727 26.197 26.193 0 14.466-11.729 26.193-26.197 26.193h-58.915zM533.219 26.635c0-14.466 11.729-26.193 26.197-26.193s26.196 11.727 26.196 26.193V144.45c0 14.466-11.728 26.193-26.196 26.193-14.468 0-26.197-11.727-26.197-26.193V26.635zm-3.261 144.008c-14.468 0-26.197-11.727-26.197-26.193 0-14.466 11.729-26.193 26.197-26.193h58.916c14.468 0 26.196 11.727 26.196 26.193 0 14.466-11.728 26.193-26.196 26.193h-58.916z"/><path d="M820.787 483.538c10.237-10.187 26.79-10.167 37.003.045L960.892 586.67c10.248 10.247 10.228 26.865-.044 37.087L654.485 928.605l-9.233 5.942-167.91 63.326c-21.212 8-41.883-12.89-33.657-34.012l64.807-166.414 5.933-9.062 306.362-304.847zm-265.48 338.075l-41.48 106.511 107.68-40.61 283.77-282.366-66.056-66.046-283.915 282.51zm-40.927 3.86L617.483 928.56l37.047-37.043L551.427 788.43l-37.047 37.042zm37.047-37.043L654.53 891.518c24.698 24.695-12.35 61.738-37.047 37.043L514.38 825.472c-24.698-24.695 12.35-61.737 37.047-37.042zm-371.702-162.2v-63.115h405.887v63.116zm5.155-157.788v-63.115h405.887v63.115z"/></svg>