<!-- Generated by IcoMoon.io -->
<svg version="1.1" xmlns="http://www.w3.org/2000/svg" width="1500" height="1500" viewBox="0 0 1500 1500">
<title>note</title>
<path d="M1199.84 1349.999l0.164-675h-450.003c-41.421 0-75-33.58-75-75v-450h-375.34l0.34 1199.997 899.839 0.001zM825 150.001v374.999h374.999l-374.999-374.999zM299.662 0h548.048c20.692 0 49.427 11.962 63.791 26.332l412.176 412.332c14.537 14.543 26.323 43.434 26.323 63.781v847.61c0 82.812-67.088 149.944-150.16 149.944h-899.679c-82.931 0-150.16-67.367-150.16-150.001v-1199.997c0-82.844 67.191-150.001 149.66-150.001z"></path>
</svg>
