<!-- Generated by IcoMoon.io -->
<svg version="1.1" xmlns="http://www.w3.org/2000/svg" width="32" height="32" viewBox="0 0 32 32">
<title>notification</title>
<path d="M8.003 26.667c-2.21 0-4.003-1.793-4.003-4 0-1.465 0.793-2.771 2.006-3.468 0-0.405-0.006-5.2-0.006-5.2 0-4.607 3.093-8.486 7.333-9.645v-0.353c0-1.473 1.194-2.667 2.667-2.667s2.667 1.194 2.667 2.667v0.353c4.241 1.159 7.333 5.038 7.333 9.652v5.205c1.214 0.701 2 2.001 2 3.457 0 2.21-1.791 4-4.003 4h-3.997c-0.002 2.21-1.797 4-4 4-2.209 0-4-1.789-4-3.997l-3.997-0.003zM14.667 26.667c0 0.738 0.596 1.333 1.333 1.333 0.732 0 1.331-0.598 1.333-1.333h-2.667zM23.333 20.448v-6.443c0-4.057-3.281-7.338-7.333-7.338-4.051 0-7.333 3.282-7.333 7.331v6.45c0 0.373-0.286 0.744-0.64 0.834l-0.361 0.093c-0.584 0.15-0.999 0.679-0.999 1.291 0 0.734 0.599 1.333 1.336 1.333h15.994c0.74 0 1.336-0.596 1.336-1.333 0-0.609-0.417-1.14-1-1.291l-0.35-0.090c-0.355-0.092-0.65-0.468-0.65-0.837z"></path>
</svg>
