<!-- Generated by IcoMoon.io -->
<svg version="1.1" xmlns="http://www.w3.org/2000/svg" width="1500" height="1500" viewBox="0 0 1500 1500">
<title>notification</title>
<path d="M341.054 1295.454c-112.991 0-204.691-91.674-204.691-204.545 0-74.917 40.563-141.688 102.561-177.349 0-20.692-0.287-265.928-0.287-265.928 0-235.601 158.162-433.96 375-493.219v-18.050c0-75.311 61.052-136.364 136.364-136.364s136.364 61.052 136.364 136.364v18.050c216.885 59.246 375 257.622 375 493.573v266.168c62.070 35.829 102.272 102.324 102.272 176.754 0 113.017-91.566 204.545-204.691 204.545h-204.4c-0.116 112.988-91.879 204.545-204.545 204.545-112.967 0-204.545-91.484-204.545-204.398l-204.4-0.146zM681.817 1295.454c0 37.715 30.492 68.183 68.183 68.183 37.427 0 68.065-30.579 68.181-68.183h-136.364zM1125 977.461v-329.476c0-207.483-167.771-375.259-375-375.259-207.144 0-375 167.834-375 374.903v329.829c0 19.071-14.643 38.021-32.706 42.672l-18.478 4.758c-29.851 7.685-51.088 34.723-51.088 66.022 0 37.551 30.64 68.183 68.326 68.183h817.891c37.827 0 68.326-30.488 68.326-68.183 0-31.163-21.325-58.307-51.155-66.019l-17.878-4.622c-18.179-4.699-33.239-23.911-33.239-42.807z"></path>
</svg>
