<svg xmlns="http://www.w3.org/2000/svg" width="1000" height="1000" viewBox="0 0 1000 1000"><path d="M227.369 863.636c-75.327 0-136.461-61.116-136.461-136.363 0-49.944 27.042-94.459 68.374-118.232 0-13.795-.191-177.285-.191-177.285 0-157.067 105.441-289.307 250-328.813V90.91C409.091 40.703 449.792.001 500 .001s90.909 40.701 90.909 90.909v12.033c144.59 39.497 250 171.748 250 329.049v177.445c41.38 23.886 68.182 68.216 68.182 117.836 0 75.345-61.044 136.363-136.461 136.363H636.363C636.286 938.961 575.11 999.999 500 999.999c-75.312 0-136.363-60.989-136.363-136.266l-136.267-.098zm227.176 0c0 25.144 20.328 45.455 45.455 45.455 24.951 0 45.377-20.386 45.454-45.455h-90.909zM750 651.641v-219.65c0-138.322-111.848-250.173-250-250.173-138.096 0-250 111.89-250 249.936V651.64c0 12.714-9.762 25.348-21.804 28.448l-12.318 3.172c-19.9 5.123-34.059 23.148-34.059 44.015 0 25.034 20.427 45.455 45.551 45.455h545.261c25.218 0 45.551-20.325 45.551-45.455 0-20.775-14.217-38.871-34.104-44.013l-11.919-3.081C760.04 677.048 750 664.241 750 651.643z"/></svg>