<svg xmlns="http://www.w3.org/2000/svg" width="1000" height="1000" viewBox="0 0 1000 1000"><path d="M888.887 189.679L372.616 705.95c-21.695 21.695-56.871 21.695-78.567 0s-21.695-56.871 0-78.567L810.32 111.112H666.666c-30.683 0-55.556-24.874-55.556-55.556S635.984 0 666.666 0h277.776c30.683 0 55.556 24.874 55.556 55.556v277.776c0 30.683-24.874 55.556-55.556 55.556s-55.556-24.874-55.556-55.556V189.678zm0 365.877c0-30.683 24.874-55.556 55.556-55.556s55.556 24.874 55.556 55.556v333.469c0 61.347-49.649 110.975-111.103 110.975H111.104C49.714 1000 .001 950.379.001 888.897V111.105C.001 49.77 49.643.002 110.976.002h333.469c30.683 0 55.556 24.874 55.556 55.556s-24.874 55.556-55.556 55.556H111.113v777.775h777.775V555.557z"/></svg>