<svg xmlns="http://www.w3.org/2000/svg" width="1500" height="1500" viewBox="0 0 1500 1500"><path d="M1333.33 284.518l-774.406 774.406c-32.543 32.543-85.307 32.543-117.851 0s-32.543-85.307 0-117.851l774.406-774.406H999.998c-46.024 0-83.333-37.311-83.333-83.333S953.976.001 999.998.001h416.665c46.024 0 83.333 37.311 83.333 83.333v416.665c0 46.024-37.311 83.333-83.333 83.333s-83.333-37.311-83.333-83.333V284.518zm0 548.815c0-46.024 37.311-83.333 83.333-83.333s83.333 37.311 83.333 83.333v500.203c0 92.02-74.474 166.462-166.654 166.462H166.654C74.57 1499.998 0 1425.566 0 1333.344V166.656C0 74.654 74.462.002 166.462.002h500.203c46.024 0 83.333 37.311 83.333 83.333s-37.311 83.333-83.333 83.333H166.667v1166.663H1333.33V833.333z"/></svg>