<!-- Generated by IcoMoon.io -->
<svg version="1.1" xmlns="http://www.w3.org/2000/svg" width="32" height="32" viewBox="0 0 32 32">
<title>open-external</title>
<path d="M28.444 6.070l-16.521 16.521c-0.694 0.694-1.82 0.694-2.514 0s-0.694-1.82 0-2.514l16.521-16.521h-4.597c-0.982 0-1.778-0.796-1.778-1.778s0.796-1.778 1.778-1.778h8.889c0.982 0 1.778 0.796 1.778 1.778v8.889c0 0.982-0.796 1.778-1.778 1.778s-1.778-0.796-1.778-1.778v-4.597zM28.444 17.778c0-0.982 0.796-1.778 1.778-1.778s1.778 0.796 1.778 1.778v10.671c0 1.963-1.589 3.551-3.555 3.551h-24.889c-1.964 0-3.555-1.588-3.555-3.555v-24.889c0-1.963 1.589-3.555 3.551-3.555h10.671c0.982 0 1.778 0.796 1.778 1.778s-0.796 1.778-1.778 1.778h-10.667v24.889h24.889v-10.667z"></path>
</svg>
