<svg xmlns="http://www.w3.org/2000/svg" width="1000" height="1000" viewBox="0 0 1000 1000"><path d="M50 926.829V97.554C50 43.633 93.572 0 147.604 0h682.842c53.919 0 97.604 43.559 97.604 97.554v829.275c0 36.263-38.161 59.848-70.596 43.631l-75.193-37.597-76.299 37.597a48.785 48.785 0 0 1-43.631 0l-75.617-37.809-75.874 37.809a48.785 48.785 0 0 1-43.631 0l-75.595-37.797-75.827 37.792a48.782 48.782 0 0 1-43.631.011l-75.677-37.815-75.885 37.811c-32.435 16.217-70.596-7.368-70.596-43.631zM830.445 97.561l-682.885-.007v750.278l26.965-13.414a48.784 48.784 0 0 1 43.62-.005l76.244 38.051 75.247-38.04a48.78 48.78 0 0 1 43.642-.005l75.746 37.969 75.746-37.969a48.785 48.785 0 0 1 43.631 0l76.479 38.196 75.014-38.196a48.785 48.785 0 0 1 43.631 0l27.209 13.607-.287-750.464zM489.024 634.146c0-26.94 21.645-48.78 48.771-48.78h146.36c26.936 0 48.771 21.652 48.771 48.78 0 26.94-21.645 48.78-48.771 48.78h-146.36c-26.936 0-48.771-21.652-48.771-48.78zM245.122 439.024c0-26.94 21.907-48.78 48.556-48.78h390.693c26.816 0 48.556 21.652 48.556 48.78 0 26.94-21.907 48.78-48.556 48.78H293.678c-26.816 0-48.556-21.652-48.556-48.78zm0-195.122c0-26.94 21.907-48.78 48.556-48.78h390.693c26.816 0 48.556 21.652 48.556 48.78 0 26.94-21.907 48.78-48.556 48.78H293.678c-26.816 0-48.556-21.652-48.556-48.78z"/></svg>