<svg width="1500" height="1500" viewBox="0 0 1500 1500" xmlns="http://www.w3.org/2000/svg"><path d="M1294.787 1329.82l-93.14-331.173-906.944.166-91.94 330.937 381.403.024 28.28-84.842c7.245-21.731 31.782-39.349 54.124-39.349h166.32c22.647 0 46.96 17.86 54.123 39.35l28.288 84.863 379.486.024zm-289.075-662.41H493.748c29.304 63.928 76.354 112.536 135.814 140.08 10.69-33.174 41.647-57.155 78.692-57.155h82.951a82.518 82.518 0 0 1 78.696 57.154c59.458-27.545 106.507-76.153 135.81-140.079zm91.276 165.673h148.275c45.516 0 92.33 35.605 104.661 79.881l139.934 502.471c12.286 44.117-14.733 79.911-60.912 79.95l-1360.237 1.12c-45.927.038-73.307-35.603-61.056-79.964l139.033-503.425c12.207-44.2 59.349-80.033 104.519-80.033H402.47c-38.02-48.348-66.904-105.224-85.194-167.796-36.79-8.472-64.214-41.302-64.214-80.394V336.358c0-182.835 148.175-331.052 330.766-331.052H915.63c182.677 0 330.765 148.589 330.765 331.052v248.535c0 39.158-27.41 71.945-64.215 80.4-18.29 62.57-47.174 119.443-85.193 167.79zm-678.37-413.962c0 46.027 36.951 82.763 82.533 82.763h497.158c45.509 0 82.532-37.054 82.532-82.763 0-46.027-36.951-82.763-82.532-82.763H501.15c-45.51 0-82.532 37.054-82.532 82.763z" fill="#ED754B"/></svg>