<svg width="1000" height="1000" viewBox="0 0 1000 1000" xmlns="http://www.w3.org/2000/svg"><g fill-rule="evenodd"><path d="M915.744 758.272L748.368 648.69c-34.861-22.117-80.927-12.892-104.61 20.95-38.626 46.734-85.299 124.087-260.723-51.568-175.423-175.656-99.782-224.001-53.11-262.678 33.798-23.715 43.011-69.841 20.923-104.748L241.408 83.047c-14.484-20.95-33.796-54.792-78.86-48.346C117.487 41.148 0 107.22 0 252.256c0 145.037 114.267 322.304 270.378 478.62C426.489 887.195 603.522 1000 746.758 1000s214.05-128.921 218.878-161.152c4.828-32.23-28.97-66.072-49.892-80.576z"/><path d="M642.987 0c-17.925 0-32.456 14.53-32.456 32.456 0 17.925 14.531 32.455 32.456 32.455H889.65L555.356 399.206a32.456 32.456 0 1 0 45.438 45.438L935.09 110.349v246.664c0 17.925 14.53 32.456 32.455 32.456 17.925 0 32.456-14.531 32.456-32.456V0H642.987z"/></g></svg>