<svg xmlns="http://www.w3.org/2000/svg" width="1000" height="1000" viewBox="0 0 1000 1000"><path d="M500 977.484c-50.208 0-90.909-40.713-90.909-90.935s40.701-90.935 90.909-90.935c33.649 0 63.028 18.287 78.747 45.468h103.271c49.965 0 90.709-40.814 90.709-91.056V386.312c0-150.545-122.14-272.71-272.728-272.71-150.65 0-272.728 122.085-272.728 272.71v250.23c0 62.732-50.944 113.604-113.637 113.604-62.751 0-113.637-50.849-113.637-113.604V500.01c0-62.732 50.944-113.604 113.637-113.604h22.728c0-200.946 162.782-363.74 363.637-363.74 200.794 0 363.637 162.877 363.637 363.646l22.728.095c62.692 0 113.637 50.871 113.637 113.604v136.532c0 62.756-50.885 113.604-113.637 113.604h-22.728c-.065 100.379-81.456 181.87-181.618 181.87H578.747c-15.719 27.181-45.098 45.468-78.747 45.468zM113.621 477.151c-12.444 0-22.592 10.204-22.592 22.692v136.675c0 12.526 10.103 22.692 22.592 22.692 12.444 0 22.592-10.204 22.592-22.692V477.151h-22.592zM908.97 636.519V499.844c0-12.488-10.146-22.692-22.592-22.692h-22.592v182.06h22.592c12.489 0 22.592-10.166 22.592-22.692zm-522.591-23.155c-37.614 0-68.106-30.492-68.106-68.106s30.492-68.106 68.106-68.106c37.614 0 68.106 30.492 68.106 68.106s-30.492 68.106-68.106 68.106zm227.242 0c-37.614 0-68.106-30.492-68.106-68.106s30.492-68.106 68.106-68.106c37.614 0 68.106 30.492 68.106 68.106s-30.492 68.106-68.106 68.106z"/></svg>