<svg width="1500" height="1500" viewBox="0 0 1500 1500" xmlns="http://www.w3.org/2000/svg"><path d="M750 1466.226c-75.312 0-136.364-61.07-136.364-136.403S674.688 1193.421 750 1193.421c50.474 0 94.543 27.43 118.12 68.201h154.907c74.948 0 136.064-61.222 136.064-136.584v-545.57c0-225.818-183.209-409.066-409.091-409.066-225.976 0-409.09 183.129-409.09 409.066v375.346c0 94.1-76.418 170.406-170.455 170.406C76.328 1125.22 0 1048.947 0 954.814V750.016c0-94.1 76.417-170.406 170.455-170.406h34.09C204.545 278.19 448.72 34 750 34c301.191 0 545.455 244.315 545.455 545.468l34.09.142c94.038 0 170.455 76.306 170.455 170.406v204.798c0 94.133-76.328 170.406-170.455 170.406h-34.09c-.099 150.568-122.185 272.805-272.428 272.805H868.121c-23.578 40.77-67.647 68.2-118.121 68.2zM170.432 715.728c-18.667 0-33.887 15.305-33.887 34.039v205.011c0 18.79 15.153 34.04 33.887 34.04 18.667 0 33.887-15.307 33.887-34.04v-239.05h-33.887zm1193.023 239.05V749.767c0-18.734-15.22-34.04-33.887-34.04h-33.887v273.09h33.887c18.734 0 33.887-15.25 33.887-34.039zm-783.887-34.731c-56.421 0-102.16-45.739-102.16-102.16s45.739-102.16 102.16-102.16 102.16 45.739 102.16 102.16-45.739 102.16-102.16 102.16zm340.864 0c-56.421 0-102.16-45.739-102.16-102.16s45.739-102.16 102.16-102.16 102.16 45.739 102.16 102.16-45.739 102.16-102.16 102.16z" fill="#FFB40F"/></svg>