<!-- Generated by IcoMoon.io -->
<svg version="1.1" xmlns="http://www.w3.org/2000/svg" width="1500" height="1500" viewBox="0 0 1500 1500">
<title>pause</title>
<path d="M566.859 1291.071c0 115.383-93.548 208.929-208.929 208.929v0c-115.383 0-208.929-93.548-208.929-208.929v-1082.142c0-115.383 93.548-208.929 208.929-208.929v0c115.383 0 208.929 93.548 208.929 208.929v1082.142z"></path>
<path d="M1350.967 1291.071c0 115.383-93.548 208.929-208.929 208.929v0c-115.383 0-208.929-93.548-208.929-208.929v-1082.142c0.032-115.383 93.579-208.929 208.929-208.929v0c115.383 0 208.929 93.548 208.929 208.929v1082.142z"></path>
</svg>
