<!-- Generated by IcoMoon.io -->
<svg version="1.1" xmlns="http://www.w3.org/2000/svg" width="32" height="32" viewBox="0 0 32 32">
<title>pause</title>
<path d="M12.093 27.543c0 2.462-1.996 4.457-4.457 4.457v0c-2.462 0-4.457-1.996-4.457-4.457v-23.086c0-2.462 1.996-4.457 4.457-4.457v0c2.462 0 4.457 1.996 4.457 4.457v23.086z"></path>
<path d="M28.821 27.543c0 2.462-1.996 4.457-4.457 4.457v0c-2.462 0-4.457-1.996-4.457-4.457v-23.086c0.001-2.462 1.996-4.457 4.457-4.457v0c2.462 0 4.457 1.996 4.457 4.457v23.086z"></path>
</svg>
