<!-- Generated by IcoMoon.io -->
<svg version="1.1" xmlns="http://www.w3.org/2000/svg" width="1500" height="1500" viewBox="0 0 1500 1500">
<title>phone</title>
<path d="M672.806 412.919l-75.070 75.070c-41.479 41.479-41.402 108.936 0.252 150.59l250.138 250.138c41.924 41.924 109.075 41.766 150.59 0.252l75.070-75.070c27.753-27.753 72.639-27.863 100.431-0.069l275.547 275.547c41.559 41.559 41.751 108.747-0.173 150.669l-150.267 150.267c-96.812 96.812-272.559 122.271-390.086 51.942 0 0-188.253-79.208-485.143-376.099s-379.014-488.646-379.014-488.646c-68.474-118.654-45.242-293.585 51.309-390.133l150.267-150.267c41.656-41.656 108.85-41.993 150.669-0.173l275.547 275.547c27.715 27.715 27.776 72.584-0.069 100.431zM196.635 287.619c-51.281 51.281-59.96 153.91-28.764 219.029 0 0 50.074 90.87 72.738 124.311 66.99 98.843 160.156 211.371 283.733 334.948 123.558 123.558 235.389 216.144 333.067 282.186 32.977 22.296 124.629 72.507 124.629 72.507 59.341 31.055 164.845 21.664 217.044-30.538l125.443-125.443-200.489-200.489-25.075 25.075c-96.99 96.99-253.906 96.923-351.079-0.252l-250.138-250.138c-96.937-96.938-97.173-254.158-0.252-351.079l25.075-25.075-200.489-200.489-125.443 125.443z"></path>
</svg>
