<!-- Generated by IcoMoon.io -->
<svg version="1.1" xmlns="http://www.w3.org/2000/svg" width="32" height="32" viewBox="0 0 32 32">
<title>phone</title>
<path d="M14.548 9.659l-1.412 1.412c-0.78 0.78-0.779 2.049 0.005 2.833l4.705 4.705c0.789 0.789 2.052 0.786 2.833 0.005l1.412-1.412c0.522-0.522 1.366-0.524 1.889-0.001l5.183 5.183c0.782 0.782 0.785 2.046-0.003 2.834l-2.827 2.827c-1.821 1.821-5.127 2.3-7.338 0.977 0 0-3.541-1.49-9.126-7.074s-7.129-9.191-7.129-9.191c-1.288-2.232-0.851-5.522 0.965-7.338l2.827-2.827c0.784-0.784 2.047-0.79 2.834-0.003l5.183 5.183c0.521 0.521 0.522 1.365-0.001 1.889zM5.591 7.303c-0.965 0.965-1.128 2.895-0.541 4.12 0 0 0.942 1.709 1.368 2.338 1.26 1.859 3.013 3.976 5.337 6.3s4.428 4.066 6.265 5.308c0.62 0.419 2.344 1.364 2.344 1.364 1.116 0.584 3.101 0.407 4.083-0.574l2.36-2.36-3.771-3.771-0.472 0.472c-1.824 1.824-4.776 1.823-6.604-0.005l-4.705-4.705c-1.823-1.823-1.828-4.781-0.005-6.604l0.472-0.472-3.771-3.771-2.36 2.36z"></path>
</svg>
