<svg xmlns="http://www.w3.org/2000/svg" width="1000" height="1000" viewBox="0 0 1000 1000"><path d="M710.315 894.737V789.474H289.262v105.263h421.053zm0-631.579H289.262v526.315h421.053V263.158zm0 0V105.263H289.262v157.895h421.053zM236.762 0h526.056c29.14 0 52.762 22.288 52.762 49.933v900.136c0 27.577-23.605 49.933-52.762 49.933H236.762c-29.14 0-52.762-22.288-52.762-49.933V49.933C184 22.356 207.605 0 236.762 0zm263.027 842.105c29.067 0 52.632-23.563 52.632-52.632s-23.563-52.632-52.632-52.632c-29.067 0-52.632 23.563-52.632 52.632s23.563 52.632 52.632 52.632zm78.948-684.21H420.842c-14.526 0-26.315 0-26.315-52.632s11.789-52.632 26.315-52.632h157.895c14.526 0 26.315 11.293 26.315 52.632s-11.789 52.632-26.315 52.632z"/></svg>