<!-- Generated by IcoMoon.io -->
<svg version="1.1" xmlns="http://www.w3.org/2000/svg" width="1500" height="1500" viewBox="0 0 1500 1500">
<title>plus</title>
<path d="M833.333 83.32c0-46.242-37.311-83.32-83.333-83.32-46.343 0-83.333 37.305-83.333 83.32v583.346h-583.346c-46.242 0-83.32 37.311-83.32 83.333 0 46.343 37.305 83.333 83.32 83.333h583.346v583.346c0 46.242 37.311 83.32 83.333 83.32 46.343 0 83.333-37.305 83.333-83.32v-583.346h583.346c46.242 0 83.32-37.311 83.32-83.333 0-46.343-37.305-83.333-83.32-83.333h-583.346v-583.346z"></path>
</svg>
