<!-- Generated by IcoMoon.io -->
<svg version="1.1" xmlns="http://www.w3.org/2000/svg" width="33" height="32" viewBox="0 0 33 32">
<title>profile-1</title>
<path d="M24.736 16.778h-2.9l-5.14 4.238-5.14-4.238h-2.9c-2.257-0-4.42 0.885-6.012 2.46s-2.48 3.708-2.468 5.929l-0 6.832h33.040l-0-6.832c0.012-2.221-0.877-4.355-2.468-5.929s-3.755-2.46-6.012-2.46zM29.701 28.541h-26.010l0-3.373c-0.012-1.303 0.506-2.558 1.439-3.483s2.202-1.447 3.526-1.446h1.626l6.415 5.276 6.415-5.276h1.626c1.324-0 2.594 0.521 3.526 1.446s1.45 2.18 1.439 3.483l0 3.373z"></path>
<path d="M16.696 17.341c4.847-0 8.779-3.863 8.787-8.634s-3.911-8.647-8.758-8.663c-4.847-0.016-8.792 3.835-8.816 8.605-0 4.784 3.927 8.668 8.787 8.692zM16.696 3.459c2.912 0 5.272 2.323 5.272 5.189s-2.361 5.189-5.272 5.189c-2.912 0-5.272-2.323-5.272-5.189s2.361-5.189 5.272-5.189z"></path>
</svg>
