<!-- Generated by IcoMoon.io -->
<svg version="1.1" xmlns="http://www.w3.org/2000/svg" width="32" height="32" viewBox="0 0 32 32">
<title>profile</title>
<path d="M3.2 23.985v2.17c0.56 0.342 5.034 2.64 12.8 2.64s12.241-2.296 12.8-2.638v-2.173c0-2.746-6.091-4.881-6.525-5.045-1.363 2.445-3.377 4.26-6.275 4.26-2.896 0-4.91-1.813-6.272-4.256-0.43 0.162-6.528 2.289-6.528 5.041zM7.2 8.286c0-4.576 3.94-8.286 8.8-8.286s8.8 3.71 8.8 8.286c0 1.942-0.339 4.921-1.258 7.708 3.205 1.224 8.458 3.207 8.458 7.991v3.211c0 1.768-6.904 4.804-16 4.804s-16-3.042-16-4.804v-3.211c0-4.8 5.256-6.765 8.46-7.987-0.92-2.788-1.26-5.769-1.26-7.712zM16 20c3.151 0 5.6-5.788 5.6-11.714 0-2.764-2.466-5.086-5.6-5.086s-5.6 2.321-5.6 5.086c0 5.926 2.449 11.714 5.6 11.714z"></path>
</svg>
