<svg xmlns="http://www.w3.org/2000/svg" width="1000" height="1000" viewBox="0 0 1000 1000"><path d="M100.001 749.523v67.814c17.498 10.68 157.309 82.514 399.999 82.514s382.52-71.759 399.999-82.431v-67.896c0-85.807-190.353-152.538-203.921-157.646-42.578 76.414-105.525 133.123-196.079 133.123-90.506 0-153.435-56.647-196.011-133.001C290.557 597.047 100 663.544 100 749.524zM225 258.933C225 115.929 348.122 0 500 0s275 115.928 275 258.933c0 60.685-10.6 153.792-39.318 240.879C835.827 538.07 1000 600.038 1000 749.526v100.357c0 55.253-215.753 150.118-500 150.118S0 904.946 0 849.883V749.526c0-150.003 164.265-211.401 264.36-249.585-28.752-87.123-39.361-180.293-39.361-241.007zM500 625c98.479 0 174.999-180.868 174.999-366.067 0-86.385-77.05-158.932-174.999-158.932s-174.999 72.547-174.999 158.932C325.001 444.132 401.522 625 500 625z"/></svg>