<!-- Generated by IcoMoon.io -->
<svg version="1.1" xmlns="http://www.w3.org/2000/svg" width="1500" height="1500" viewBox="0 0 1500 1500">
<title>profile</title>
<path d="M150.001 1124.285v101.722c26.247 16.020 235.963 123.771 599.999 123.771s573.779-107.638 599.999-123.646v-101.845c0-128.71-285.529-228.807-305.881-236.47-63.867 114.621-158.288 199.685-294.119 199.685-135.759 0-230.152-84.971-294.016-199.501-20.146 7.57-305.982 107.316-305.982 236.287zM337.5 388.399c0-214.506 184.683-388.399 412.5-388.399s412.5 173.892 412.5 388.399c0 91.027-15.899 230.688-58.978 361.318 150.217 57.387 396.478 150.338 396.478 374.571v150.536c0 82.879-323.629 225.177-750 225.177s-750-142.582-750-225.177v-150.536c0-225.004 246.397-317.102 396.541-374.377-43.128-130.685-59.042-270.439-59.042-361.51zM750 937.5c147.718 0 262.499-271.302 262.499-549.101 0-129.577-115.575-238.397-262.499-238.397s-262.499 108.82-262.499 238.397c0 277.799 114.782 549.101 262.499 549.101z"></path>
</svg>
