<!-- Generated by IcoMoon.io -->
<svg version="1.1" xmlns="http://www.w3.org/2000/svg" width="32" height="32" viewBox="0 0 32 32">
<title>radio-check-filled</title>
<path d="M16 0c8.837 0 16 7.163 16 16s-7.163 16-16 16c-8.837 0-16-7.163-16-16s7.163-16 16-16zM13.539 19.341l-3.007-2.841c-0.419-0.396-1.075-0.397-1.496-0.003-0.389 0.365-0.409 0.977-0.043 1.366 0.013 0.014 0.027 0.028 0.042 0.042l3.878 3.659c0.372 0.345 0.947 0.343 1.317-0.004l8.73-8.191c0.396-0.371 0.415-0.993 0.044-1.389-0.014-0.015-0.029-0.030-0.044-0.044-0.429-0.403-1.098-0.403-1.527-0l-7.893 7.406z"></path>
</svg>
