<svg xmlns="http://www.w3.org/2000/svg" width="1000" height="1000" viewBox="0 0 1000 1000"><path d="M500 68.182C261.514 68.182 68.182 261.514 68.182 500S261.514 931.818 500 931.818 931.818 738.486 931.818 500 738.486 68.182 500 68.182zM500 0c276.143 0 500 223.857 500 500s-223.857 500-500 500C223.857 1000 0 776.143 0 500S223.857 0 500 0z"/><path d="M661.808 319.754c17.688-17.248 45.902-17.247 63.59.001 17.693 18.124 17.344 45.896-.001 62.808L452.578 648.598c-15.826 15.433-41.047 15.513-57.045.107L274.357 529.874c-17.393-17.82-17.047-45.256.088-61.965 17.434-17 45.256-16.951 62.63.109l86.043 84.489 238.69-232.753z"/></svg>