<svg xmlns="http://www.w3.org/2000/svg" width="1000" height="1000" viewBox="0 0 1000 1000"><path d="M500 0c276.143 0 500 223.857 500 500s-223.857 500-500 500C223.857 1000 0 776.143 0 500S223.857 0 500 0zm-76.911 604.403l-93.974-88.789c-13.106-12.383-33.588-12.419-46.737-.081-12.164 11.413-12.772 30.525-1.359 42.689.419.446.852.881 1.298 1.301L403.49 673.861c11.625 10.771 29.603 10.715 41.159-.13l272.814-255.977c12.365-11.602 12.983-31.031 1.382-43.396a30.02 30.02 0 0 0-1.382-1.382c-13.417-12.589-34.306-12.589-47.723-.001L423.089 604.401z"/></svg>