<!-- Generated by IcoMoon.io -->
<svg version="1.1" xmlns="http://www.w3.org/2000/svg" width="1500" height="1500" viewBox="0 0 1500 1500">
<title>radio-check</title>
<path d="M750 102.272c-357.729 0-647.728 289.998-647.728 647.728s289.998 647.728 647.728 647.728c357.729 0 647.728-289.998 647.728-647.728s-289.998-647.728-647.728-647.728zM750 0c414.214 0 750 335.786 750 750s-335.786 750-750 750c-414.214 0-750-335.786-750-750s335.786-750 750-750z"></path>
<path d="M992.711 479.631c26.531-25.872 68.854-25.871 95.385 0.001 26.54 27.186 26.016 68.843-0.001 94.211l-409.229 399.053c-23.739 23.149-61.57 23.269-85.567 0.161l-181.764-178.247c-26.089-26.73-25.57-67.884 0.132-92.947 26.15-25.5 67.884-25.427 93.945 0.164l129.064 126.734 358.036-349.129z"></path>
</svg>
