<svg xmlns="http://www.w3.org/2000/svg" width="1500" height="1500" viewBox="0 0 1500 1500"><path d="M750 0c414.214 0 750 335.786 750 750s-335.786 750-750 750S0 1164.214 0 750 335.786 0 750 0zM634.633 906.605l-140.96-133.184c-19.66-18.574-50.382-18.628-70.106-.122-18.246 17.12-19.159 45.788-2.039 64.034a44.223 44.223 0 0 0 1.947 1.951l181.759 171.507c17.438 16.157 44.404 16.072 61.739-.195l409.222-383.965c18.548-17.402 19.475-46.547 2.073-65.093a46.052 46.052 0 0 0-2.073-2.073c-20.125-18.883-51.458-18.883-71.584-.001L634.634 906.603z"/></svg>