<svg xmlns="http://www.w3.org/2000/svg" width="1500" height="1500" viewBox="0 0 1500 1500"><path d="M750 102.272c-357.729 0-647.728 289.998-647.728 647.728S392.27 1397.728 750 1397.728c357.729 0 647.728-289.998 647.728-647.728S1107.73 102.272 750 102.272zM750 0c414.214 0 750 335.786 750 750s-335.786 750-750 750S0 1164.214 0 750 335.786 0 750 0zm242.711 479.631c26.531-25.872 68.854-25.871 95.385.001 26.54 27.186 26.016 68.843-.001 94.211L678.866 972.896c-23.739 23.149-61.57 23.269-85.567.161L411.535 794.81c-26.089-26.73-25.57-67.884.132-92.947 26.15-25.5 67.884-25.427 93.945.164l129.064 126.734 358.036-349.129z"/></svg>