<!-- Generated by IcoMoon.io -->
<svg version="1.1" xmlns="http://www.w3.org/2000/svg" width="32" height="32" viewBox="0 0 32 32">
<title>radio-check</title>
<path d="M16 2.182c-7.632 0-13.818 6.187-13.818 13.818s6.187 13.818 13.818 13.818c7.632 0 13.818-6.187 13.818-13.818s-6.187-13.818-13.818-13.818zM16 0c8.837 0 16 7.163 16 16s-7.163 16-16 16c-8.837 0-16-7.163-16-16s7.163-16 16-16z"></path>
<path d="M21.178 10.232c0.566-0.552 1.469-0.552 2.035 0 0.566 0.58 0.555 1.469-0 2.010l-8.73 8.513c-0.506 0.494-1.313 0.496-1.825 0.003l-3.878-3.803c-0.557-0.57-0.546-1.448 0.003-1.983 0.558-0.544 1.448-0.542 2.004 0.004l2.753 2.704 7.638-7.448z"></path>
</svg>
