<svg width="1000" height="1000" viewBox="0 0 1000 1000" xmlns="http://www.w3.org/2000/svg"><path d="M889 0H111v900l112.727 100 110.879-66.667L445.485 1000l110.878-66.667L667.243 1000l110.878-66.667L889 1000V0zM618.403 622.222H364.965c-17.496 0-31.68-14.924-31.68-33.333 0-18.41 14.184-33.333 31.68-33.333h253.438c17.496 0 31.68 14.923 31.68 33.333 0 18.41-14.184 33.333-31.68 33.333zm-285.117-200c0-18.41 17.293-33.333 38.626-33.333h231.756c21.333 0 38.627 14.924 38.627 33.333 0 18.41-17.294 33.334-38.627 33.334H371.912c-21.333 0-38.626-14.924-38.626-33.334zM618.403 288.89H364.965c-17.496 0-31.68-14.924-31.68-33.333 0-18.41 14.184-33.334 31.68-33.334h253.438c17.496 0 31.68 14.924 31.68 33.334 0 18.41-14.184 33.333-31.68 33.333z"/></svg>