<svg width="1000" height="1000" viewBox="0 0 1000 1000" xmlns="http://www.w3.org/2000/svg"><path d="M933.333 0h-26.666l-8.334 5.025H895l-8.333 6.7H885C870.82 26.375 864.07 46.729 866.667 67v33.5H1000V67c0-37.003-29.848-67-66.667-67zM466.667 770.5H0V804c0 74.006 59.695 134 133.333 134h385c-33.065-36.742-51.464-84.46-51.666-134v-33.5z"/><path d="M233.333 67v636.5h300V804c0 74.006 59.696 134 133.334 134S800 878.006 800 804V28.475l3.333-8.375 3.334-10.05 5-8.375H300C263.822 1.664 234.238 30.653 233.333 67zM385 100.5h266.667c18.41 0 33.333 14.998 33.333 33.5 0 18.502-14.924 33.5-33.333 33.5H385c-18.41 0-33.333-14.998-33.333-33.5 0-18.502 14.924-33.5 33.333-33.5zm0 134h200c18.41 0 33.333 14.998 33.333 33.5 0 18.502-14.924 33.5-33.333 33.5H385c-18.41 0-33.333-14.998-33.333-33.5 0-18.502 14.924-33.5 33.333-33.5zm0 134h266.667c18.41 0 33.333 14.998 33.333 33.5 0 18.502-14.924 33.5-33.333 33.5H385c-18.41 0-33.333-14.998-33.333-33.5 0-18.502 14.924-33.5 33.333-33.5zm0 134h200c18.41 0 33.333 14.998 33.333 33.5 0 18.502-14.924 33.5-33.333 33.5H385c-18.41 0-33.333-14.998-33.333-33.5 0-18.502 14.924-33.5 33.333-33.5z"/></svg>