<!-- Generated by IcoMoon.io -->
<svg version="1.1" xmlns="http://www.w3.org/2000/svg" width="32" height="32" viewBox="0 0 32 32">
<title>reschedule</title>
<path d="M23.119 12.444c-0.984 0-1.785-0.796-1.785-1.778 0-0.989 0.799-1.778 1.785-1.778h2.989c-2.714-3.614-5.959-5.333-10.107-5.333-6.873 0-12.444 5.572-12.444 12.444s5.572 12.444 12.444 12.444c6.294 0 11.577-4.699 12.348-10.888 0.121-0.974 1.010-1.666 1.984-1.544s1.666 1.010 1.544 1.984c-0.992 7.963-7.784 14.004-15.877 14.004-8.837 0-16-7.163-16-16s7.163-16 16-16c5.086 0 9.165 2.064 12.444 6.11v-2.546c0-0.984 0.796-1.785 1.778-1.785 0.989 0 1.778 0.799 1.778 1.785 0 0 0 7.098 0 7.104 0 0.493-0.199 0.937-0.523 1.256-0.322 0.322-0.765 0.521-1.262 0.521h-7.096z"></path>
<path d="M13.091 10.431c0-0.941 0.646-1.704 1.455-1.704 0.803 0 1.455 0.765 1.455 1.704v6.773c0 0.941-0.646 1.704-1.455 1.704-0.803 0-1.455-0.765-1.455-1.704v-6.773zM21.569 16c0.941 0 1.704 0.646 1.704 1.455 0 0.803-0.765 1.455-1.704 1.455h-6.773c-0.941 0-1.704-0.646-1.704-1.455 0-0.803 0.765-1.455 1.704-1.455h6.773z"></path>
</svg>
