<svg xmlns="http://www.w3.org/2000/svg" width="1500" height="1500" viewBox="0 0 1500 1500"><path d="M1083.688 583.333c-46.107 0-83.689-37.31-83.689-83.333 0-46.345 37.469-83.333 83.689-83.333h140.099c-127.204-169.427-279.337-250-473.788-250-322.166 0-583.333 261.167-583.333 583.333s261.167 583.333 583.333 583.333c295.027 0 542.679-220.271 578.823-510.372 5.691-45.671 47.326-78.081 92.997-72.391s78.081 47.326 72.391 92.997c-46.509 373.285-364.852 656.432-744.211 656.432-414.214 0-750-335.786-750-750s335.786-750 750-750c238.417 0 429.625 96.75 583.333 286.384V167.022c0-46.107 37.31-83.689 83.333-83.689 46.345 0 83.333 37.469 83.333 83.689V500c0 23.112-9.319 43.898-24.524 58.896-15.072 15.091-35.856 24.438-59.165 24.438h-332.622zm-470.052-94.358c0-44.12 30.264-79.885 68.181-79.885 37.655 0 68.181 35.873 68.181 79.885v317.503c0 44.12-30.264 79.885-68.181 79.885-37.655 0-68.181-35.873-68.181-79.885V488.975zM1011.025 750c44.12 0 79.885 30.264 79.885 68.181 0 37.655-35.873 68.181-79.885 68.181H693.522c-44.12 0-79.885-30.264-79.885-68.181 0-37.655 35.873-68.181 79.885-68.181h317.503z"/></svg>