<!-- Generated by IcoMoon.io -->
<svg version="1.1" xmlns="http://www.w3.org/2000/svg" width="1500" height="1500" viewBox="0 0 1500 1500">
<title>reset</title>
<path d="M1083.688 583.334c-46.107 0-83.689-37.311-83.689-83.333 0-46.343 37.469-83.333 83.689-83.333h140.099c-127.206-169.428-279.337-249.999-473.786-249.999-322.166 0-583.333 261.167-583.333 583.333s261.167 583.333 583.333 583.333c295.027 0 542.679-220.271 578.824-510.371 5.689-45.669 47.326-78.082 92.996-72.391s78.082 47.326 72.391 92.996c-46.507 373.285-364.852 656.43-744.209 656.43-414.212 0-749.999-335.786-749.999-749.999s335.786-749.999 749.999-749.999c238.415 0 429.624 96.75 583.333 286.383v-119.361c0-46.107 37.311-83.689 83.333-83.689 46.343 0 83.333 37.469 83.333 83.689 0 0 0 332.739 0 332.978 0 23.114-9.318 43.898-24.523 58.897-15.070 15.089-35.858 24.438-59.164 24.438h-332.622z"></path>
</svg>
