<!-- Generated by IcoMoon.io -->
<svg version="1.1" xmlns="http://www.w3.org/2000/svg" width="32" height="32" viewBox="0 0 32 32">
<title>reset</title>
<path d="M21.339 13.333c-0.738 0-1.339-0.597-1.339-1.333 0-0.742 0.599-1.333 1.339-1.333h2.242c-2.035-2.711-4.469-4-7.581-4-5.155 0-9.333 4.179-9.333 9.333s4.179 9.333 9.333 9.333c4.72 0 8.683-3.524 9.261-8.166 0.091-0.731 0.757-1.249 1.488-1.158s1.249 0.757 1.158 1.488c-0.744 5.973-5.838 10.503-11.907 10.503-6.627 0-12-5.373-12-12s5.373-12 12-12c3.815 0 6.874 1.548 9.333 4.582v-1.91c0-0.738 0.597-1.339 1.333-1.339 0.741 0 1.333 0.599 1.333 1.339 0 0 0 5.324 0 5.328 0 0.37-0.149 0.702-0.392 0.942-0.241 0.241-0.574 0.391-0.947 0.391h-5.322z"></path>
</svg>
