<svg width="1000" height="1000" viewBox="0 0 1000 1000" xmlns="http://www.w3.org/2000/svg"><path d="M973.536 320.382a33.486 33.486 0 0 1 9.284 14.426 33.653 33.653 0 0 1 1.636 10.4c0 3.628-.574 7.123-1.636 10.398a33.486 33.486 0 0 1-9.284 14.427l-201.988 186.45c-13.667 12.616-34.974 11.764-47.59-1.903-12.617-13.668-11.765-34.975 1.903-47.591l138.778-128.103h-597.8c-110.17 0-199.481 89.311-199.481 199.482 0 110.17 89.31 199.482 199.481 199.482h699.482c18.6 0 33.679 15.078 33.679 33.679 0 18.6-15.078 33.678-33.679 33.678H266.84C119.47 845.207 0 725.74 0 578.368c0-147.371 119.468-266.84 266.84-266.84h597.799L725.86 183.427c-13.668-12.616-14.52-33.923-1.904-47.59 12.617-13.668 33.924-14.52 47.591-1.904l201.988 186.45z" fill="#101010"/></svg>