<!-- Generated by IcoMoon.io -->
<svg version="1.1" xmlns="http://www.w3.org/2000/svg" width="32" height="32" viewBox="0 0 32 32">
<title>search</title>
<path d="M28.523 26.637c0.518 0.518 0.52 1.357-0.004 1.881-0.521 0.521-1.362 0.523-1.881 0.004l-7.239-7.238c-1.682 1.285-3.785 2.049-6.066 2.049-5.523 0-10-4.477-10-10s4.477-10 10-10c5.523 0 10 4.477 10 10 0 2.281-0.764 4.383-2.049 6.066l7.238 7.238zM13.333 20.667c4.050 0 7.333-3.283 7.333-7.333s-3.283-7.333-7.333-7.333c-4.050 0-7.333 3.283-7.333 7.333s3.283 7.333 7.333 7.333z"></path>
</svg>
