<svg xmlns="http://www.w3.org/2000/svg" width="1500" height="1500" viewBox="0 0 1500 1500"><path d="M1472.906 1364.058c29.927 29.927 30.028 78.343-.239 108.609-30.057 30.057-78.636 30.215-108.609.239l-417.854-417.854c-97.121 74.2-218.481 118.274-350.142 118.274-318.814 0-577.267-258.451-577.267-577.267S277.246 18.792 596.062 18.792c318.814 0 577.267 258.451 577.267 577.267 0 131.657-44.074 253.021-118.274 350.142l417.854 417.854zm-876.843-344.667c233.798 0 423.33-189.53 423.33-423.33s-189.53-423.33-423.33-423.33c-233.798 0-423.33 189.53-423.33 423.33s189.53 423.33 423.33 423.33z"/></svg>