<svg xmlns="http://www.w3.org/2000/svg" width="1000" height="1000" viewBox="0 0 1000 1000"><path d="M981.938 909.372c19.951 19.951 20.019 52.229-.159 72.406-20.038 20.038-52.424 20.144-72.406.159L630.804 703.368c-64.747 49.467-145.654 78.85-233.428 78.85-212.543 0-384.845-172.301-384.845-384.845S184.832 12.528 397.376 12.528c212.543 0 384.845 172.301 384.845 384.845 0 87.771-29.383 168.681-78.85 233.428L981.94 909.37zM397.375 679.594c155.865 0 282.22-126.354 282.22-282.22s-126.354-282.22-282.22-282.22c-155.865 0-282.22 126.354-282.22 282.22s126.354 282.22 282.22 282.22z"/></svg>