<svg width="1000" height="1000" viewBox="0 0 1000 1000" xmlns="http://www.w3.org/2000/svg"><path d="M578.333 415a243.333 243.333 0 0 1-70 118.333V560a60 60 0 0 0 10 38.333 296.667 296.667 0 0 0-50 201.667H0s21.667-120 156.667-146.667c135-26.666 135-66.666 135-93.333v-26.667a243.333 243.333 0 0 1-70-116.666c-40 0-50-83.334-50-96.667 0-13.333-1.667-63.333 40-63.333C185 150 190 51.667 263.333 51.667 440-71.667 676.667 41.667 588.333 255c41.667 0 40 51.667 40 63.333 0 11.667-8.333 96.667-50 96.667zm188.334 118.333C895.533 533.333 1000 637.8 1000 766.667 1000 895.533 895.533 1000 766.667 1000c-128.867 0-233.334-104.467-233.334-233.333 0-128.867 104.467-233.334 233.334-233.334zm100 266.667c18.41 0 33.333-14.924 33.333-33.333 0-18.41-14.924-33.334-33.333-33.334H800v-66.666c0-18.41-14.924-33.334-33.333-33.334-18.41 0-33.334 14.924-33.334 33.334v66.666h-66.666c-18.41 0-33.334 14.924-33.334 33.334 0 18.41 14.924 33.333 33.334 33.333h66.666v66.667c0 18.41 14.924 33.333 33.334 33.333 18.41 0 33.333-14.924 33.333-33.333V800h66.667z" fill-rule="evenodd"/></svg>