<svg width="1000" height="1000" viewBox="0 0 1000 1000" xmlns="http://www.w3.org/2000/svg"><path d="M970.016 421.063l-81.813-21.172a397.469 397.469 0 0 0-42.187-101.422l43.437-73.766c9.233-15.724 6.662-35.703-6.25-48.578l-56.828-56.86c-12.875-12.912-32.854-15.482-48.578-6.25l-73.719 43.407a397.453 397.453 0 0 0-101.562-42.344l-21.813-84.094C576.137 12.328 560.206-.004 541.97 0h-80.407c-18.23.003-34.153 12.334-38.718 29.984l-21.688 83.797a397.5 397.5 0 0 0-102.36 42.469l-75.359-44.422c-15.724-9.233-35.702-6.662-48.578 6.25l-56.843 56.797c-12.913 12.875-15.483 32.854-6.25 48.578l44.484 75.344a397.469 397.469 0 0 0-41.86 100.453l-84.374 21.875C12.37 425.674.028 441.574 0 459.797v80.422c.003 18.231 12.334 34.154 29.984 38.718l83.657 21.641a397.5 397.5 0 0 0 42.843 103.5l-43.406 73.703c-9.233 15.725-6.662 35.703 6.25 48.578l56.86 56.86c12.875 12.912 32.853 15.482 48.578 6.25l73.765-43.438a397.437 397.437 0 0 0 103.328 42.75l21.032 81.25c4.566 17.628 20.462 29.946 38.671 29.969h80.422c18.232-.003 34.154-12.334 38.72-29.984l21.124-81.625a397.469 397.469 0 0 0 102.578-42.703l72.156 42.484c15.725 9.233 35.703 6.662 48.579-6.25L882 825.062c12.912-12.875 15.483-32.853 6.25-48.578l-42.484-72.14A397.469 397.469 0 0 0 888.859 600l81.157-21c17.678-4.572 30.016-20.536 29.984-38.797v-80.406c.004-18.237-12.328-34.168-29.984-38.734zm-468.36 313.859c-129.442 0-234.375-104.933-234.375-234.375s104.933-234.375 234.375-234.375 234.375 104.933 234.375 234.375-104.933 234.375-234.375 234.375z"/></svg>