<svg xmlns="http://www.w3.org/2000/svg" width="1000" height="1000" viewBox="0 0 1000 1000"><path d="M300 500c0 9.938-.967 19.652-2.812 29.051L745.437 742.45c27.018-26.272 63.9-42.451 104.562-42.451 82.842 0 150 67.158 150 150s-67.158 150-150 150-150-67.158-150-150c0-6.064.359-12.046 1.06-17.923L245.867 615.371c-25.994 21.623-59.412 34.628-95.866 34.628-82.842 0-150-67.158-150-150s67.158-150 150-150c36.477 0 69.913 13.021 95.913 34.666l455.152-216.687a151.594 151.594 0 0 1-1.066-17.98c0-82.842 67.158-150 150-150s150 67.158 150 150-67.158 150-150 150c-40.641 0-77.507-16.162-104.52-42.41L297.201 471.003a150.699 150.699 0 0 1 2.801 28.996zm-150 50c27.614 0 50-22.387 50-50s-22.387-50-50-50c-27.614 0-50 22.387-50 50s22.387 50 50 50zm700-350c27.614 0 50-22.387 50-50s-22.387-50-50-50c-27.614 0-50 22.387-50 50s22.387 50 50 50zm0 699.999c27.614 0 50-22.387 50-50s-22.387-50-50-50c-27.614 0-50 22.387-50 50s22.387 50 50 50z"/></svg>