<svg xmlns="http://www.w3.org/2000/svg" width="1500" height="1500" viewBox="0 0 1500 1500"><path d="M450 750c0 14.908-1.45 29.479-4.217 43.576l672.374 320.099c40.526-39.409 95.851-63.677 156.842-63.677 124.263 0 225 100.737 225 225s-100.737 225-225 225-225-100.737-225-225c0-9.097.539-18.069 1.589-26.884L368.799 923.056c-38.991 32.435-89.118 51.942-143.799 51.942-124.263 0-225-100.737-225-225s100.737-225 225-225c54.715 0 104.87 19.531 143.87 51.999l682.729-325.03a227.375 227.375 0 0 1-1.6-26.971c0-124.263 100.737-225 225-225s225 100.737 225 225-100.737 225-225 225c-60.961 0-116.26-24.243-156.779-63.615L445.801 706.504a226.044 226.044 0 0 1 4.201 43.494zm-225 75c41.421 0 75-33.58 75-75s-33.58-75-75-75c-41.421 0-75 33.58-75 75s33.58 75 75 75zm1050-525c41.421 0 75-33.58 75-75s-33.58-75-75-75c-41.421 0-75 33.58-75 75s33.58 75 75 75zm0 1049.999c41.421 0 75-33.58 75-75s-33.58-75-75-75c-41.421 0-75 33.58-75 75s33.58 75 75 75z"/></svg>