<!-- Generated by IcoMoon.io -->
<svg version="1.1" xmlns="http://www.w3.org/2000/svg" width="32" height="32" viewBox="0 0 32 32">
<title>share</title>
<path d="M10.667 16c0 0.265-0.026 0.524-0.075 0.775l11.953 5.691c0.72-0.701 1.704-1.132 2.788-1.132 2.209 0 4 1.791 4 4s-1.791 4-4 4c-2.209 0-4-1.791-4-4 0-0.162 0.010-0.321 0.028-0.478l-12.138-5.779c-0.693 0.577-1.584 0.923-2.556 0.923-2.209 0-4-1.791-4-4s1.791-4 4-4c0.973 0 1.864 0.347 2.558 0.924l12.137-5.778c-0.019-0.157-0.028-0.317-0.028-0.479 0-2.209 1.791-4 4-4s4 1.791 4 4c0 2.209-1.791 4-4 4-1.084 0-2.067-0.431-2.787-1.131l-11.954 5.691c0.049 0.25 0.075 0.509 0.075 0.773zM6.667 17.333c0.736 0 1.333-0.597 1.333-1.333s-0.597-1.333-1.333-1.333c-0.736 0-1.333 0.597-1.333 1.333s0.597 1.333 1.333 1.333zM25.333 8c0.736 0 1.333-0.597 1.333-1.333s-0.597-1.333-1.333-1.333c-0.736 0-1.333 0.597-1.333 1.333s0.597 1.333 1.333 1.333zM25.333 26.667c0.736 0 1.333-0.597 1.333-1.333s-0.597-1.333-1.333-1.333c-0.736 0-1.333 0.597-1.333 1.333s0.597 1.333 1.333 1.333z"></path>
</svg>
