<!-- Generated by IcoMoon.io -->
<svg version="1.1" xmlns="http://www.w3.org/2000/svg" width="1500" height="1500" viewBox="0 0 1500 1500">
<title>share</title>
<path d="M450 750c0 14.908-1.45 29.479-4.217 43.576l672.374 320.099c40.526-39.409 95.851-63.677 156.842-63.677 124.263 0 225 100.737 225 225s-100.737 225-225 225c-124.263 0-225-100.737-225-225 0-9.097 0.539-18.069 1.589-26.884l-682.789-325.058c-38.991 32.435-89.118 51.942-143.799 51.942-124.263 0-225-100.737-225-225s100.737-225 225-225c54.715 0 104.87 19.531 143.87 51.999l682.729-325.030c-1.056-8.842-1.6-17.843-1.6-26.971 0-124.263 100.737-225 225-225s225 100.737 225 225c0 124.263-100.737 225-225 225-60.961 0-116.26-24.243-156.779-63.615l-672.419 320.123c2.757 14.071 4.201 28.614 4.201 43.494zM225 825c41.421 0 75-33.58 75-75s-33.58-75-75-75c-41.421 0-75 33.58-75 75s33.58 75 75 75zM1275 300c41.421 0 75-33.58 75-75s-33.58-75-75-75c-41.421 0-75 33.58-75 75s33.58 75 75 75zM1275 1349.999c41.421 0 75-33.58 75-75s-33.58-75-75-75c-41.421 0-75 33.58-75 75s33.58 75 75 75z"></path>
</svg>
