<svg xmlns="http://www.w3.org/2000/svg" width="1000" height="1000" viewBox="0 0 1000 1000"><path d="M421.191 263.158H579.13V105.263H421.191v157.895zm0 105.263v157.895H579.13V368.421H421.191zm421.171-105.263V105.263H684.423v157.895h157.939zm0 105.263H684.423v157.895h157.939V368.421zM157.959 263.158h157.939V105.263H157.959v157.895zm0 105.263v157.895h157.939V368.421H157.959zm684.403 263.158H157.96v263.158h236.908V789.424c0-29.04 23.341-52.582 52.597-52.582h105.393c29.048 0 52.597 23.334 52.597 52.582v105.313h236.908V631.579zM105.311 0H895.01c29.074 0 52.645 23.733 52.645 52.707v894.586c0 29.109-23.479 52.707-52.645 52.707H105.311c-29.074 0-52.645-23.733-52.645-52.707V52.707C52.666 23.598 76.145 0 105.311 0z"/></svg>