<?xml version="1.0" encoding="UTF-8"?>
<svg width="1000px" height="1000px" viewBox="0 0 1000 1000" version="1.1" xmlns="http://www.w3.org/2000/svg" xmlns:xlink="http://www.w3.org/1999/xlink">
    <!-- Generator: Sketch 52.2 (67145) - http://www.bohemiancoding.com/sketch -->
    <title>site-visit-2</title>
    <desc>Created with Sketch.</desc>
    <g id="site-visit-2" stroke="none" stroke-width="1" fill="none" fill-rule="evenodd">
        <path d="M462.25828,937.288581 C461.155405,937.428082 460.031156,937.5 458.889915,937.5 L26.2796576,937.5 C11.7658035,937.5 0,925.868169 0,911.519579 L0,509.436731 C0,498.580608 6.82779812,488.869023 17.1204163,485.085342 L439.346986,329.870136 L439.346986,119.730421 C439.346986,105.381831 451.11279,93.75 465.626644,93.75 L973.720342,93.75 C988.234197,93.75 1000,105.381831 1000,119.730421 L1000,911.519579 C1000,925.868169 988.234197,937.5 973.720342,937.5 L465.626644,937.5 C464.485404,937.5 463.361154,937.428082 462.25828,937.288581 Z M603.594847,606.863309 C603.594847,592.514719 615.36065,580.882888 629.874504,580.882888 L810.442892,580.882888 C824.956746,580.882888 836.722549,592.514719 836.722549,606.863309 L836.722549,770.200299 C836.722549,784.548889 824.956746,796.180719 810.442892,796.180719 L629.874504,796.180719 C615.36065,796.180719 603.594847,784.548889 603.594847,770.200299 L603.594847,606.863309 Z M656.154162,632.84373 L656.154162,744.219878 L784.163234,744.219878 L784.163234,632.84373 L656.154162,632.84373 Z M491.906302,145.710841 L491.906302,885.539159 L947.440685,885.539159 L947.440685,145.710841 L491.906302,145.710841 Z M52.5593153,527.494465 L52.5593153,885.539159 L432.610258,885.539159 L432.610258,387.783491 L52.5593153,527.494465 Z M603.594847,282.10805 C603.594847,267.75946 615.36065,256.127629 629.874504,256.127629 L810.442892,256.127629 C824.956746,256.127629 836.722549,267.75946 836.722549,282.10805 L836.722549,445.44504 C836.722549,459.79363 824.956746,471.42546 810.442892,471.42546 L629.874504,471.42546 C615.36065,471.42546 603.594847,459.79363 603.594847,445.44504 L603.594847,282.10805 Z M656.154162,419.464619 L784.163234,419.464619 L784.163234,308.088471 L656.154162,308.088471 L656.154162,419.464619 Z" id="Shape" fill="#101010" fill-rule="nonzero"></path>
    </g>
</svg>