<svg width="1000" height="1000" viewBox="0 0 1000 1000" xmlns="http://www.w3.org/2000/svg"><path d="M462.258 937.289c-1.103.14-2.227.211-3.368.211H26.28C11.766 937.5 0 925.868 0 911.52V509.437c0-10.856 6.828-20.568 17.12-24.352L439.347 329.87V119.73c0-14.348 11.766-25.98 26.28-25.98H973.72c14.514 0 26.28 11.632 26.28 25.98v791.79c0 14.348-11.766 25.98-26.28 25.98H465.627c-1.142 0-2.266-.072-3.369-.211zm141.337-330.426c0-14.348 11.766-25.98 26.28-25.98h180.568c14.514 0 26.28 11.632 26.28 25.98V770.2c0 14.349-11.766 25.98-26.28 25.98H629.875c-14.514 0-26.28-11.631-26.28-25.98V606.863zm52.56 25.98V744.22h128.008V632.844H656.154zm-164.25-487.131V885.54H947.44V145.711H491.906zM52.56 527.494V885.54h380.05V387.783L52.56 527.494zm551.036-245.386c0-14.349 11.766-25.98 26.28-25.98h180.568c14.514 0 26.28 11.631 26.28 25.98v163.337c0 14.349-11.766 25.98-26.28 25.98H629.875c-14.514 0-26.28-11.631-26.28-25.98V282.108zm52.56 137.357h128.008V308.088h-128.01v111.377z" fill="#101010"/></svg>