<svg width="1000" height="1000" viewBox="0 0 1000 1000" xmlns="http://www.w3.org/2000/svg"><path d="M342.1 767.205C153.157 765.813.419 612.158.419 422.816.419 232.61 154.554 78.418 344.69 78.418h310.622c190.136 0 344.271 154.192 344.271 344.398 0 190.206-154.135 344.399-344.271 344.399h-81.004L397.294 914.78c-21.917 18.271-55.193 2.68-55.193-25.86V767.204zm198.482-59.514a33.643 33.643 0 0 1 21.542-7.802h93.187c152.966 0 276.97-124.05 276.97-277.073 0-153.023-124.004-277.072-276.97-277.072H344.689c-152.966 0-276.97 124.05-276.97 277.072 0 153.023 124.004 277.073 276.97 277.073h31.063c18.584 0 33.65 15.071 33.65 33.663v83.495l131.18-109.356z"/><path d="M313.627 487.553c-35.74 0-64.713-28.984-64.713-64.737 0-35.753 28.973-64.736 64.713-64.736 35.74 0 64.713 28.983 64.713 64.736s-28.973 64.737-64.713 64.737zm0-67.326a2.589 2.589 0 1 0 .001 5.178 2.589 2.589 0 0 0 0-5.178zM500 487.553c-35.74 0-64.713-28.984-64.713-64.737 0-35.753 28.973-64.736 64.713-64.736 35.74 0 64.713 28.983 64.713 64.736S535.74 487.553 500 487.553zm0-67.326a2.589 2.589 0 1 0 .001 5.178 2.589 2.589 0 0 0-.001-5.178zm186.373 67.326c-35.74 0-64.713-28.984-64.713-64.737 0-35.753 28.973-64.736 64.713-64.736 35.74 0 64.713 28.983 64.713 64.736s-28.973 64.737-64.713 64.737zm0-67.326a2.589 2.589 0 1 0 0 5.178 2.589 2.589 0 0 0 0-5.178z"/></svg>