<!-- Generated by IcoMoon.io -->
<svg version="1.1" xmlns="http://www.w3.org/2000/svg" width="32" height="32" viewBox="0 0 32 32">
<title>sms</title>
<path d="M18.058 1.333c6.964 0 12.609 5.671 12.609 12.667 0 1.948-0.438 3.794-1.22 5.443l1.154 5.153c0.321 1.434-0.579 2.333-2.008 2.009l-5.121-1.161c-1.263 0.604-2.642 1.003-4.094 1.155-1.822 2.46-4.746 4.055-8.044 4.055-1.69 0-3.282-0.419-4.678-1.159l-3.4 1.052c-1.411 0.436-2.206-0.353-1.776-1.767l1.036-3.403c-0.754-1.405-1.182-3.011-1.182-4.717 0-3.358 1.658-6.33 4.2-8.142 0.731-6.297 6.059-11.185 12.524-11.185zM23.16 22.639l4.515 1.041-1.019-4.552 0.395-0.833c0.63-1.329 0.962-2.786 0.962-4.295 0-5.523-4.457-10-9.955-10-4.48 0-8.269 2.973-9.518 7.062 0.887-0.257 1.824-0.395 2.794-0.395 5.523 0 10 4.474 10 9.993 0 1.019-0.153 2.002-0.436 2.928 0.491-0.146 2.263-0.95 2.263-0.95zM5.39 25.104l-0.684 2.211 2.214-0.684 0.989 0.523c1.045 0.553 2.211 0.846 3.424 0.846 4.047 0 7.333-3.281 7.333-7.333s-3.286-7.333-7.333-7.333c-4.047 0-7.333 3.281-7.333 7.333 0 1.229 0.301 2.409 0.867 3.464l0.523 0.973zM11.333 22c-0.736 0-1.333-0.597-1.333-1.333s0.597-1.333 1.333-1.333c0.736 0 1.333 0.597 1.333 1.333s-0.597 1.333-1.333 1.333zM15.333 22c-0.736 0-1.333-0.597-1.333-1.333s0.597-1.333 1.333-1.333c0.736 0 1.333 0.597 1.333 1.333s-0.597 1.333-1.333 1.333zM7.333 22c-0.736 0-1.333-0.597-1.333-1.333s0.597-1.333 1.333-1.333c0.736 0 1.333 0.597 1.333 1.333s-0.597 1.333-1.333 1.333z"></path>
</svg>
