<svg xmlns="http://www.w3.org/2000/svg" width="1500" height="1500" viewBox="0 0 1500 1500"><path d="M855.212.001c356.105 0 644.786 289.998 644.786 647.726 0 99.623-22.389 193.994-62.388 278.312l59.011 263.522c16.417 73.307-29.594 119.282-102.68 102.708l-261.882-59.391c-64.592 30.895-135.107 51.313-209.367 59.073-93.148 125.799-242.707 207.357-411.33 207.357-86.426 0-167.842-21.426-239.224-59.251L98.27 1493.856c-72.13 22.318-112.806-18.06-90.809-90.335l52.969-174.029C21.868 1157.649-.002 1075.522-.002 988.291c0-171.741 84.778-323.695 214.793-416.347C252.147 249.923 524.626.002 855.212.002zm260.913 1089.468l230.871 53.249-52.124-232.767 20.197-42.577c32.237-67.956 49.185-142.456 49.185-219.647 0-282.417-227.905-511.364-509.042-511.364-229.087 0-422.83 152.021-486.716 361.121 45.34-13.159 93.28-20.21 142.866-20.21 282.417 0 511.364 228.791 511.364 511.018 0 52.1-7.802 102.378-22.302 149.732 25.115-7.491 115.699-48.554 115.699-48.554zm-908.667 126.06l-34.969 113.051 113.203-34.994 50.561 26.767c53.458 28.299 113.057 43.28 175.11 43.28 206.966 0 375-167.754 375-375s-168.034-375-375-375-375 167.754-375 375c0 62.855 15.371 123.182 44.36 177.135l26.733 49.759zm303.906-158.712c-37.655 0-68.183-30.527-68.183-68.183s30.527-68.183 68.183-68.183c37.655 0 68.183 30.527 68.183 68.183s-30.527 68.183-68.183 68.183zm204.546 0c-37.655 0-68.183-30.527-68.183-68.183s30.527-68.183 68.183-68.183c37.655 0 68.183 30.527 68.183 68.183s-30.527 68.183-68.183 68.183zm-409.091 0c-37.655 0-68.183-30.527-68.183-68.183s30.527-68.183 68.183-68.183c37.655 0 68.183 30.527 68.183 68.183s-30.527 68.183-68.183 68.183z"/></svg>