<svg xmlns="http://www.w3.org/2000/svg" width="1000" height="1000" viewBox="0 0 1000 1000"><path d="M761.904 816.667c-62.201 0-115.117-39.753-134.729-95.238H372.822c-19.611 55.485-72.527 95.238-134.729 95.238s-115.117-39.753-134.729-95.238H47.556c-26.267 0-47.56-21.358-47.56-47.759V197.619C-.004 171.32 21.315 150 47.615 150h595.238a47.618 47.618 0 0 1 44.213 29.934l83.265 208.161h182.105c26.267 0 47.56 21.358 47.56 47.759V673.67c0 26.376-21.349 47.759-47.56 47.759h-55.808c-19.611 55.485-72.527 95.238-134.729 95.238zm0-285.715c62.201 0 115.117 39.753 134.729 95.238h8.129V483.333H95.239V626.19h8.129c19.611-55.485 72.527-95.238 134.729-95.238s115.117 39.753 134.729 95.238h254.353c19.611-55.485 72.527-95.238 134.729-95.238zM95.238 388.096h214.286V245.284l-214.286.028v142.784zm572.434 0l-57.335-142.853-205.575.027v142.825h262.91zM809.523 673.81c0-26.299-21.319-47.619-47.619-47.619s-47.619 21.319-47.619 47.619c0 26.299 21.319 47.619 47.619 47.619s47.619-21.319 47.619-47.619zm-523.809 0c0-26.299-21.319-47.619-47.619-47.619s-47.619 21.319-47.619 47.619c0 26.299 21.319 47.619 47.619 47.619s47.619-21.319 47.619-47.619z"/></svg>