<!-- Generated by IcoMoon.io -->
<svg version="1.1" xmlns="http://www.w3.org/2000/svg" width="1500" height="1500" viewBox="0 0 1500 1500">
<title>undo</title>
<path d="M1013.312 549.031c171.035 0 309.672 138.721 309.672 309.93 0 171.050-138.873 309.93-309.672 309.93h-930.045c-42.792 0-77.483 34.69-77.483 77.483s34.69 77.483 77.483 77.483h930.045c256.386 0 464.638-208.261 464.638-464.895 0-256.774-207.999-464.895-464.638-464.895h-742.988l177.659-177.659c30.258-30.258 30.258-79.317 0-109.578s-79.317-30.258-109.578 0l-309.93 309.93c-30.258 30.258-30.258 79.317 0 109.578l309.93 309.93c30.258 30.258 79.317 30.258 109.578 0s30.258-79.317 0-109.578l-177.659-177.659h742.988z"></path>
</svg>
