<svg xmlns="http://www.w3.org/2000/svg" width="1000" height="1000" viewBox="0 0 1000 1000"><path d="M675.541 366.021c114.023 0 206.448 92.48 206.448 206.62 0 114.033-92.582 206.62-206.448 206.62H55.511c-28.528 0-51.655 23.127-51.655 51.655s23.127 51.655 51.655 51.655h620.03c170.924 0 309.759-138.841 309.759-309.93 0-171.183-138.666-309.93-309.759-309.93H180.216l118.439-118.439c20.172-20.172 20.172-52.878 0-73.052s-52.878-20.172-73.052 0L18.983 277.84c-20.172 20.172-20.172 52.878 0 73.052l206.62 206.62c20.172 20.172 52.878 20.172 73.052 0s20.172-52.878 0-73.052L180.216 366.021h495.325z"/></svg>