<svg xmlns="http://www.w3.org/2000/svg" width="1500" height="1500" viewBox="0 0 1500 1500"><path d="M1013.312 549.031c171.035 0 309.672 138.721 309.672 309.93 0 171.05-138.873 309.93-309.672 309.93H83.267c-42.792 0-77.483 34.69-77.483 77.483s34.69 77.483 77.483 77.483h930.045c256.386 0 464.638-208.261 464.638-464.895 0-256.774-207.999-464.895-464.638-464.895H270.324l177.659-177.659c30.258-30.258 30.258-79.317 0-109.578s-79.317-30.258-109.578 0L28.475 416.76c-30.258 30.258-30.258 79.317 0 109.578l309.93 309.93c30.258 30.258 79.317 30.258 109.578 0s30.258-79.317 0-109.578L270.324 549.031h742.988z"/></svg>