<!-- Generated by IcoMoon.io -->
<svg version="1.1" xmlns="http://www.w3.org/2000/svg" width="32" height="32" viewBox="0 0 32 32">
<title>undo</title>
<path d="M21.338 13.333c2.943 0 5.329 2.387 5.329 5.333 0 2.943-2.39 5.333-5.329 5.333h-16.004c-0.736 0-1.333 0.597-1.333 1.333s0.597 1.333 1.333 1.333h16.004c4.412 0 7.996-3.584 7.996-8 0-4.419-3.579-8-7.996-8h-12.785l3.057-3.057c0.521-0.521 0.521-1.365 0-1.886s-1.365-0.521-1.886 0l-5.333 5.333c-0.521 0.521-0.521 1.365 0 1.886l5.333 5.333c0.521 0.521 1.365 0.521 1.886 0s0.521-1.365 0-1.886l-3.057-3.057h12.785z"></path>
</svg>
