<svg xmlns="http://www.w3.org/2000/svg" width="1500" height="1500" viewBox="0 0 1500 1500"><path d="M750 .001c229.994 0 442.702 103.194 583.333 270.571V166.666c0-46.024 37.311-83.333 83.333-83.333s83.333 37.311 83.333 83.333V500c0 46.024-37.311 83.333-83.333 83.333h-37.254a82.406 82.406 0 0 1-8.479 0h-287.599c-46.024 0-83.333-37.311-83.333-83.333s37.311-83.333 83.333-83.333h152.314C1128.042 263.727 947.219 166.668 750 166.668c-295.099 0-542.791 220.378-578.846 510.565-5.676 45.672-47.301 78.098-92.972 72.422S.084 702.354 5.76 656.683C52.155 283.286 370.549.001 750.002.001zM416.666 1083.334H264.441c107.414 153.051 288.059 249.999 485.558 249.999 294.662 0 542.115-219.74 578.7-509.392 5.767-45.661 47.459-78.001 93.119-72.234s78.001 47.459 72.234 93.119c-47.076 372.71-365.162 655.173-744.051 655.173-230.259 0-442.865-103.113-583.333-270.593v103.928c0 46.024-37.311 83.333-83.333 83.333S.002 1379.356.002 1333.334V1000c0-46.024 37.311-83.333 83.333-83.333h333.334c46.024 0 83.333 37.311 83.333 83.333s-37.311 83.333-83.333 83.333z"/></svg>