<!-- Generated by IcoMoon.io -->
<svg version="1.1" xmlns="http://www.w3.org/2000/svg" width="1500" height="1500" viewBox="0 0 1500 1500">
<title>updating</title>
<path d="M750 0.001c229.994 0 442.702 103.194 583.333 270.571v-103.906c0-46.024 37.311-83.333 83.333-83.333s83.333 37.311 83.333 83.333v333.334c0 46.024-37.311 83.333-83.333 83.333h-37.254c-2.837 0.146-5.666 0.145-8.479 0h-287.599c-46.024 0-83.333-37.311-83.333-83.333s37.311-83.333 83.333-83.333h152.314c-107.606-152.94-288.429-249.999-485.648-249.999-295.099 0-542.791 220.378-578.846 510.565-5.676 45.672-47.301 78.098-92.972 72.422s-78.098-47.301-72.422-92.972c46.395-373.397 364.789-656.682 744.242-656.682zM416.666 1083.334h-152.225c107.414 153.051 288.059 249.999 485.558 249.999 294.662 0 542.115-219.74 578.7-509.392 5.767-45.661 47.459-78.001 93.119-72.234s78.001 47.459 72.234 93.119c-47.076 372.71-365.162 655.173-744.051 655.173-230.259 0-442.865-103.113-583.333-270.593v103.928c0 46.024-37.311 83.333-83.333 83.333s-83.333-37.311-83.333-83.333v-333.334c0-46.024 37.311-83.333 83.333-83.333h333.334c46.024 0 83.333 37.311 83.333 83.333s-37.311 83.333-83.333 83.333z"></path>
</svg>
