<!-- Generated by IcoMoon.io -->
<svg version="1.1" xmlns="http://www.w3.org/2000/svg" width="32" height="32" viewBox="0 0 32 32">
<title>updating</title>
<path d="M16 0c4.907 0 9.444 2.201 12.444 5.772v-2.217c0-0.982 0.796-1.778 1.778-1.778s1.778 0.796 1.778 1.778v7.111c0 0.982-0.796 1.778-1.778 1.778h-0.795c-0.061 0.003-0.121 0.003-0.181 0h-6.135c-0.982 0-1.778-0.796-1.778-1.778s0.796-1.778 1.778-1.778h3.249c-2.296-3.263-6.153-5.333-10.361-5.333-6.295 0-11.58 4.701-12.349 10.892-0.121 0.974-1.009 1.666-1.983 1.545s-1.666-1.009-1.545-1.983c0.99-7.966 7.782-14.009 15.877-14.009zM8.889 23.111h-3.247c2.292 3.265 6.145 5.333 10.359 5.333 6.286 0 11.565-4.688 12.346-10.867 0.123-0.974 1.012-1.664 1.987-1.541s1.664 1.012 1.541 1.987c-1.004 7.951-7.79 13.977-15.873 13.977-4.912 0-9.448-2.2-12.444-5.773v2.217c0 0.982-0.796 1.778-1.778 1.778s-1.778-0.796-1.778-1.778v-7.111c0-0.982 0.796-1.778 1.778-1.778h7.111c0.982 0 1.778 0.796 1.778 1.778s-0.796 1.778-1.778 1.778z"></path>
</svg>
