<svg xmlns="http://www.w3.org/2000/svg" width="1000" height="1000" viewBox="0 0 1000 1000"><path d="M500 .001c153.329 0 295.135 68.796 388.889 180.381v-69.271c0-30.683 24.874-55.556 55.556-55.556s55.556 24.874 55.556 55.556v222.223c0 30.683-24.874 55.556-55.556 55.556h-24.836a54.643 54.643 0 0 1-5.652 0H722.225c-30.683 0-55.556-24.874-55.556-55.556s24.874-55.556 55.556-55.556h101.543c-71.737-101.96-192.286-166.666-323.766-166.666-196.732 0-361.86 146.919-385.897 340.377-3.784 30.448-31.534 52.065-61.981 48.281S.059 468.236 3.843 437.789C34.773 188.857 247.035.001 500.004.001zM277.777 722.223H176.294c71.609 102.034 192.039 166.666 323.705 166.666 196.441 0 361.41-146.493 385.8-339.595 3.845-30.44 31.64-52.001 62.079-48.156s52.001 31.64 48.156 62.079C964.65 811.691 752.593 999.999 500 999.999c-153.506 0-295.243-68.742-388.889-180.396v69.285c0 30.683-24.874 55.556-55.556 55.556S-.001 919.57-.001 888.888V666.665c0-30.683 24.874-55.556 55.556-55.556h222.223c30.683 0 55.556 24.874 55.556 55.556s-24.874 55.556-55.556 55.556z"/></svg>