<!-- Generated by IcoMoon.io -->
<svg version="1.1" xmlns="http://www.w3.org/2000/svg" width="32" height="32" viewBox="0 0 32 32">
<title>upload</title>
<path d="M13.181 16.719c-0.522 0.522-1.369 0.525-1.89 0.004-0.524-0.524-0.519-1.367 0.004-1.89 0 0 3.765-3.765 3.767-3.767 0.261-0.261 0.602-0.391 0.944-0.389 0.341-0 0.682 0.129 0.946 0.393l3.763 3.763c0.522 0.522 0.525 1.369 0.004 1.89-0.524 0.524-1.367 0.519-1.89-0.004l-1.491-1.491v12.762c0 0.737-0.597 1.334-1.333 1.334-0.742 0-1.333-0.597-1.333-1.334v-12.762l-1.491 1.491zM24.673 21.333h-3.34c-0.736 0-1.333-0.597-1.333-1.333s0.597-1.333 1.333-1.333h3.34c1.833 0 3.327-1.494 3.327-3.333s-1.492-3.333-3.327-3.333h-1.912l-0.187-1.113c-0.535-3.186-3.307-5.554-6.574-5.554s-6.040 2.368-6.574 5.554l-0.187 1.113h-1.912c-1.833 0-3.327 1.494-3.327 3.333s1.492 3.333 3.327 3.333h3.34c0.736 0 1.333 0.597 1.333 1.333s-0.597 1.333-1.333 1.333h-3.34c-3.309 0-5.994-2.69-5.994-6 0-3.227 2.552-5.863 5.742-5.995 0.608-3.109 4.349-6.672 8.924-6.672 4.203 0 7.818 2.796 8.96 6.711 2.94 0 5.707 2.646 5.707 5.955 0 3.311-2.687 6-5.994 6z"></path>
</svg>
