<!-- Generated by IcoMoon.io -->
<svg version="1.1" xmlns="http://www.w3.org/2000/svg" width="1500" height="1500" viewBox="0 0 1500 1500">
<title>upload</title>
<path d="M617.846 783.686c-24.453 24.453-64.169 24.596-88.576 0.189-24.579-24.579-24.324-64.065 0.189-88.576 0 0 176.462-176.462 176.588-176.588 12.258-12.258 28.223-18.338 44.24-18.229 15.996-0.010 31.976 6.056 44.336 18.417l176.399 176.399c24.453 24.453 24.596 64.169 0.189 88.576-24.579 24.579-64.065 24.324-88.576-0.189l-69.894-69.894v598.203c0 34.538-27.983 62.521-62.5 62.521-34.758 0-62.5-27.992-62.5-62.521v-598.203l-69.894 69.894zM1156.551 1000h-156.552c-34.518 0-62.5-27.983-62.5-62.5s27.983-62.5 62.5-62.5h156.552c85.937 0 155.949-70.046 155.949-156.25 0-86.164-69.935-156.25-155.949-156.25h-89.625l-8.751-52.159c-25.056-149.348-154.998-260.341-308.177-260.341s-283.121 110.993-308.177 260.341l-8.751 52.159h-89.625c-85.937 0-155.949 70.046-155.949 156.25 0 86.164 69.935 156.25 155.949 156.25h156.552c34.518 0 62.5 27.983 62.5 62.5s-27.983 62.5-62.5 62.5h-156.552c-155.109 0-280.948-126.111-280.948-281.25 0-151.277 119.637-274.819 269.18-281.007 28.485-145.748 203.842-312.743 418.321-312.743 196.992 0 366.466 131.042 420 314.593 137.815 0 267.5 124.018 267.5 279.157 0 155.225-125.963 281.25-280.948 281.25z"></path>
</svg>
