<svg xmlns="http://www.w3.org/2000/svg" width="1000" height="1000" viewBox="0 0 1000 1000"><path d="M411.897 522.457c-16.302 16.302-42.779 16.397-59.051.126-16.386-16.386-16.216-42.71.126-59.051l117.726-117.726c8.172-8.172 18.815-12.226 29.493-12.152 10.664-.007 21.317 4.037 29.558 12.278l117.6 117.6c16.302 16.302 16.397 42.779.126 59.051-16.386 16.386-42.71 16.216-59.051-.126l-46.596-46.596v398.802c0 23.025-18.655 41.681-41.667 41.681-23.172 0-41.667-18.661-41.667-41.681V475.861l-46.596 46.596zm359.137 144.21H666.666c-23.012 0-41.667-18.655-41.667-41.667s18.655-41.667 41.667-41.667h104.368c57.291 0 103.966-46.697 103.966-104.167 0-57.442-46.623-104.167-103.966-104.167h-59.75l-5.834-34.772c-16.704-99.565-103.332-173.561-205.451-173.561s-188.747 73.995-205.451 173.561l-5.834 34.772h-59.75c-57.291 0-103.966 46.697-103.966 104.167 0 57.442 46.623 104.167 103.966 104.167h104.368c23.012 0 41.667 18.655 41.667 41.667s-18.655 41.667-41.667 41.667H228.964c-103.406 0-187.299-84.074-187.299-187.5 0-100.852 79.758-183.213 179.453-187.338 18.99-97.165 135.895-208.495 278.881-208.495 131.328 0 244.311 87.361 280 209.729 91.877 0 178.333 82.679 178.333 186.104 0 103.483-83.976 187.5-187.299 187.5z"/></svg>