<svg width="1000" height="1000" viewBox="0 0 1000 1000" xmlns="http://www.w3.org/2000/svg"><path d="M501.118 513.885v15.605c0 3.113 1.046 6.496 3.717 10.002 4.779 6.272 13.983 12.22 29.445 16.91 16.522 5.013 25.853 22.468 20.84 38.989-5.012 16.52-22.468 25.85-38.99 20.839-27.416-8.317-47.805-21.494-61.029-38.85-11.335-14.877-16.506-31.607-16.506-47.89v-28.413a31.259 31.259 0 0 1 9.674-22.61 169.103 169.103 0 0 0 47.91-83.93c3.298-14.152 15.913-24.165 30.445-24.165 4.93 0 9.917-3.329 15.006-11.665 6.514-10.671 10.5-26.284 10.5-42.315 0-8.503-.362-14.702-1.623-20.987-.393-1.959-.846-3.682-1.334-5.115-18.258-3.407-30.061-22.503-23.722-40.905 14.853-43.117 16.279-80.011 6.286-109.548-8.786-25.972-26.526-46.258-51.443-59.595-52.74-28.228-129.24-21.492-191.656 20.562a31.263 31.263 0 0 1-17.469 5.336c-6.681 0-11.566 2.093-16.096 6.708-5.635 5.741-10.566 15.329-14 28.287-7.722 29.131-6.546 69.997 3.659 110.857 4.442 17.785-7.25 35.064-24.494 38.295-.488 1.434-.942 3.158-1.335 5.118-1.262 6.285-1.623 12.484-1.623 20.987 0 16.03 3.985 31.644 10.5 42.315 5.09 8.336 10.077 11.665 15.006 11.665 14.507 0 27.108 9.98 30.43 24.1a170.524 170.524 0 0 0 47.973 84.041 31.259 31.259 0 0 1 9.626 22.564v28.413c0 52.499-38.575 83.052-147.248 104.54-37.264 7.368-64.268 24.614-83.532 49a137.29 137.29 0 0 0-9.765 14.092h379.587c17.265 0 31.261 13.996 31.261 31.26 0 17.264-13.996 31.26-31.261 31.26H44.098c-19.486 0-34.224-17.633-30.765-36.809.332-1.838.937-4.575 1.877-8.09 1.458-5.451 3.374-11.42 5.815-17.783 6.892-17.968 16.678-35.887 29.947-52.683 28.24-35.748 68.146-61.233 120.466-71.579 48.607-9.61 77.57-20.307 90.788-30.775 5.508-4.363 6.066-5.77 6.066-12.433v-15.638a233.041 233.041 0 0 1-50.333-85.22c-17.755-6.36-32.66-19.521-43.545-37.35-12.797-20.962-19.658-47.838-19.658-74.89 0-4.997.063-8.426.333-13.042.404-6.931 1.192-13.668 2.513-20.246 2.51-12.509 6.71-23.544 13.67-32.908a57.454 57.454 0 0 1 7.44-8.243c-7.402-42.054-6.954-83.338 1.923-116.834 6.02-22.715 15.86-41.846 29.817-56.064 13.814-14.074 31.085-22.663 50.562-24.868C340.666-6.068 438.01-13.302 509.8 25.123c38.624 20.673 67.17 53.317 81.163 94.68 12.362 36.54 12.94 78.367 1.44 123.769a58.073 58.073 0 0 1 5.736 6.624c6.96 9.364 11.159 20.399 13.67 32.908 1.32 6.578 2.108 13.315 2.512 20.246.27 4.616.333 8.045.333 13.042 0 27.052-6.862 53.928-19.658 74.89-10.877 17.816-25.77 30.972-43.507 37.335a231.62 231.62 0 0 1-50.37 85.268z"/><path d="M717.427 999.574c-150.083 0-271.736-121.778-271.736-271.981 0-150.204 121.653-271.982 271.736-271.982 150.083 0 271.736 121.778 271.736 271.982 0 150.203-121.653 271.981-271.736 271.981zm0-62.519c115.537 0 209.213-93.772 209.213-209.462 0-115.691-93.676-209.463-209.213-209.463-115.537 0-209.213 93.772-209.213 209.463 0 115.69 93.676 209.462 209.213 209.462z"/><path d="M689.35 643.932c0-13.28 10.766-24.046 24.047-24.046 13.28 0 24.047 10.766 24.047 24.046V836.51c0 13.28-10.766 24.045-24.047 24.045s-24.048-10.765-24.048-24.045V643.932zm108.705 123.333c11.654-6.369 26.265-2.085 32.633 9.569 6.37 11.653 2.085 26.263-9.57 32.632l-95.46 52.164a24.049 24.049 0 0 1-23.307-.135l-92.89-52.164c-11.579-6.503-15.694-21.161-9.19-32.74 6.503-11.58 21.162-15.695 32.742-9.192l81.272 45.641 83.77-45.775z"/></svg>