<svg xmlns="http://www.w3.org/2000/svg" width="1000" height="1000" viewBox="0 0 1000 1000"><path d="M617.08 117.802l359.438 638.71c59.438 105.618 1.165 205.505-119.928 205.505H143.521c-121.206 0-179.504-99.667-120.015-205.485l359.067-638.71c59.807-106.385 174.578-106.511 234.507-.019zm-87.175 49.059c-21.647-38.468-43.366-30.993-60.134-.019l-359.067 638.71c-17.052 33.479-11.889 56.434 32.817 56.434H856.59c32.753 0 54.691-17.43 32.753-56.413l-359.438-638.71zm-30.102 645.108c-27.623 0-50.017-22.394-50.017-50.017s22.394-50.017 50.017-50.017c27.623 0 50.017 22.394 50.017 50.017s-22.394 50.017-50.017 50.017zm-50.017-449.996c0-27.704 22.2-50.163 50.017-50.163 27.623 0 50.017 22.434 50.017 50.163v249.786c0 27.704-22.2 50.163-50.017 50.163-27.623 0-50.017-22.434-50.017-50.163V361.973z"/></svg>