<?xml version="1.0" encoding="UTF-8"?>
<svg width="1000px" height="1000px" viewBox="0 0 1000 1000" version="1.1" xmlns="http://www.w3.org/2000/svg" xmlns:xlink="http://www.w3.org/1999/xlink">
    <!-- Generator: Sketch 52.4 (67378) - http://www.bohemiancoding.com/sketch -->
    <title>Shape</title>
    <desc>Created with Sketch.</desc>
    <g id="Page-1" stroke="none" stroke-width="1" fill="none" fill-rule="evenodd">
        <g id="Orion_warning-(1)" fill="#202020" fill-rule="nonzero">
            <path d="M707.125,0 L292.90625,0 L0,292.890625 L0,707.109375 L292.90625,1000 L707.125,1000 L1000,707.09375 L1000,292.890625 L707.125,0 Z M497.625,198.953125 C510.245058,198.346147 522.588839,202.780462 531.937721,211.279445 C541.286602,219.778428 546.87379,231.644994 547.46875,244.265625 C547.5297,245.770216 547.5297,247.276659 547.46875,248.78125 L531.125,592.46875 C530.377258,609.184593 516.607559,622.352108 499.875,622.352108 C483.142441,622.352108 469.372742,609.184593 468.625,592.46875 L452.296875,248.78125 C451.69417,236.163824 456.130405,223.82408 464.62894,214.478622 C473.127475,205.133164 484.991585,199.54815 497.609375,198.953125 L497.625,198.953125 Z M544.0625,761.671875 C522.959743,782.833071 489.84529,786.134848 464.979654,769.557071 C440.114018,752.979293 430.426702,721.141821 441.844725,693.523868 C453.262748,665.905915 482.604159,650.203995 511.916917,656.025058 C541.229675,661.846122 562.344962,687.567968 562.34375,717.453125 C562.30064,734.022968 555.732888,749.909069 544.0625,761.671875 Z" id="Shape"></path>
        </g>
    </g>
</svg>