<!-- Generated by IcoMoon.io -->
<svg version="1.1" xmlns="http://www.w3.org/2000/svg" width="32" height="32" viewBox="0 0 32 32">
<title>warning</title>
<path d="M19.741 3.349l11.502 20.439c1.902 3.38 0.037 6.576-3.838 6.576h-22.818c-3.879 0-5.744-3.189-3.84-6.576l11.49-20.439c1.914-3.404 5.586-3.408 7.504-0.001zM16.952 4.919c-0.693-1.231-1.388-0.992-1.924-0.001l-11.49 20.439c-0.546 1.071-0.38 1.806 1.050 1.806h22.818c1.048 0 1.75-0.558 1.048-1.805l-11.502-20.439zM15.989 25.563c-0.884 0-1.601-0.717-1.601-1.601s0.717-1.601 1.601-1.601c0.884 0 1.601 0.717 1.601 1.601s-0.717 1.601-1.601 1.601zM14.388 11.163c0-0.887 0.71-1.605 1.601-1.605 0.884 0 1.601 0.718 1.601 1.605v7.993c0 0.887-0.71 1.605-1.601 1.605-0.884 0-1.601-0.718-1.601-1.605v-7.993z"></path>
</svg>
