<!-- Generated by IcoMoon.io -->
<svg version="1.1" xmlns="http://www.w3.org/2000/svg" width="1500" height="1500" viewBox="0 0 1500 1500">
<title>warning</title>
<path d="M925.62 176.703l539.158 958.065c89.156 158.427 1.748 308.257-179.892 308.257h-1069.604c-181.809 0-269.256-149.5-180.022-308.228l538.601-958.065c89.71-159.577 261.867-159.766 351.76-0.028zM794.858 250.292c-32.471-57.702-65.049-46.49-90.201-0.028l-538.601 958.065c-25.578 50.219-17.833 84.65 49.226 84.65h1069.604c49.129 0 82.037-26.145 49.129-84.62l-539.158-958.065zM749.704 1217.953c-41.435 0-75.025-33.59-75.025-75.025s33.59-75.025 75.025-75.025c41.435 0 75.025 33.59 75.025 75.025s-33.59 75.025-75.025 75.025zM674.679 542.959c0-41.556 33.3-75.245 75.025-75.245 41.435 0 75.025 33.65 75.025 75.245v374.679c0 41.556-33.3 75.245-75.025 75.245-41.435 0-75.025-33.65-75.025-75.245v-374.679z"></path>
</svg>
