<svg xmlns="http://www.w3.org/2000/svg" width="1500" height="1500" viewBox="0 0 1500 1500"><path d="M272.763 1431.712s-.344-241.792-.344-263.396C142.991 1041.318 68.233 867.5 68.233 681.767 68.233 305.239 373.47-.001 750.001-.001s681.768 305.237 681.768 681.768c0 376.528-305.237 681.768-681.768 681.768-53.448 0-106.122-6.164-157.248-18.24-11.875 7.283-213.993 143.142-213.993 143.142-45.306 30.205-105.995-2.273-105.995-56.726zm-68.176-749.944c0 157.301 66.864 303.659 181.821 406.551a68.18 68.18 0 0 1 22.709 50.801v167.125l133.941-91.216a68.176 68.176 0 0 1 56.572-8.82c48.448 13.862 98.9 20.974 150.369 20.974 301.223 0 545.414-244.189 545.414-545.414s-244.189-545.414-545.414-545.414c-301.223 0-545.414 244.189-545.414 545.414zm351.011-263.419c12.524-12.521 33.1-12.255 45.379.023l91.712 91.689c12.75 12.747 12.674 33.163.034 45.8-12.729 12.725-17.424 36.211-10.682 52.651 0 0 10.649 38.851 56.398 84.586l84.687 56.461c16.276 7.103 40.072 2.007 52.714-10.63 12.729-12.725 33.151-12.624 45.812.034l91.712 91.689c12.538 12.536 12.379 33.016.023 45.369l-45.99 45.977c-37.925 37.915-104.314 43.629-147.163 11.855 0 0-60.192-36.086-174.253-150.12L497.686 611.652c-31.339-43.452-25.922-109.488 11.924-147.325l45.99-45.977z"/></svg>