<svg xmlns="http://www.w3.org/2000/svg" width="1000" height="1000" viewBox="0 0 1000 1000"><path d="M181.842 954.475s-.229-161.194-.229-175.598C95.328 694.212 45.489 578.333 45.489 454.511 45.489 203.492 248.98-.001 500.001-.001S954.513 203.49 954.513 454.511c0 251.019-203.491 454.512-454.512 454.512-35.632 0-70.748-4.109-104.832-12.16-7.917 4.855-142.662 95.428-142.662 95.428-30.204 20.137-70.663-1.516-70.663-37.817zm-45.45-499.963c0 104.867 44.576 202.439 121.214 271.034a45.452 45.452 0 0 1 15.14 33.867V870.83l89.294-60.811a45.453 45.453 0 0 1 37.715-5.88c32.299 9.241 65.934 13.982 100.246 13.982 200.815 0 363.609-162.793 363.609-363.609S700.817 90.903 500.001 90.903c-200.815 0-363.609 162.793-363.609 363.609zm234.006-175.613c8.35-8.348 22.066-8.17 30.253.016l61.142 61.126a21.532 21.532 0 0 1 .022 30.533c-8.486 8.483-11.616 24.141-7.121 35.101 0 0 7.1 25.9 37.599 56.391s56.458 37.641 56.458 37.641c10.851 4.735 26.715 1.338 35.143-7.087 8.486-8.483 22.101-8.416 30.541.022l61.142 61.126c8.358 8.357 8.253 22.011.016 30.246l-30.66 30.651c-25.283 25.276-69.543 29.086-98.108 7.903 0 0-40.128-24.058-116.169-100.08s-98.863-114.721-98.863-114.721c-20.893-28.968-17.281-72.992 7.949-98.217l30.66-30.651z"/></svg>