<!-- Generated by IcoMoon.io -->
<svg version="1.1" xmlns="http://www.w3.org/2000/svg" width="1500" height="1500" viewBox="0 0 1500 1500">
<title>whatsapp</title>
<path d="M272.763 1431.712c0 0-0.344-241.792-0.344-263.396-129.428-126.998-204.186-300.816-204.186-486.549 0-376.528 305.237-681.768 681.768-681.768s681.768 305.237 681.768 681.768c0 376.528-305.237 681.768-681.768 681.768-53.448 0-106.122-6.164-157.248-18.24-11.875 7.283-213.993 143.142-213.993 143.142-45.306 30.205-105.995-2.273-105.995-56.726zM204.587 681.768c0 157.301 66.864 303.659 181.821 406.551 14.449 12.933 22.709 31.408 22.709 50.801v167.125l133.941-91.216c16.649-11.099 37.334-14.325 56.572-8.82 48.448 13.862 98.9 20.974 150.369 20.974 301.223 0 545.414-244.189 545.414-545.414s-244.189-545.414-545.414-545.414c-301.223 0-545.414 244.189-545.414 545.414zM555.598 418.349c12.524-12.521 33.1-12.255 45.379 0.023l91.712 91.689c12.75 12.747 12.674 33.163 0.034 45.8-12.729 12.725-17.424 36.211-10.682 52.651 0 0 10.649 38.851 56.398 84.586s84.687 56.461 84.687 56.461c16.276 7.103 40.072 2.007 52.714-10.63 12.729-12.725 33.151-12.624 45.812 0.034l91.712 91.689c12.538 12.536 12.379 33.016 0.023 45.369l-45.99 45.977c-37.925 37.915-104.314 43.629-147.163 11.855 0 0-60.192-36.086-174.253-150.12s-148.295-172.081-148.295-172.081c-31.339-43.452-25.922-109.488 11.924-147.325l45.99-45.977z"></path>
</svg>
