<!-- Generated by IcoMoon.io -->
<svg version="1.1" xmlns="http://www.w3.org/2000/svg" width="32" height="32" viewBox="0 0 32 32">
<title>whatsapp</title>
<path d="M6.667 29.333c0 0-0.007-4.729-0.007-5.151-2.531-2.484-3.993-5.883-3.993-9.515 0-7.364 5.97-13.333 13.333-13.333s13.333 5.97 13.333 13.333c0 7.364-5.97 13.333-13.333 13.333-1.045 0-2.075-0.121-3.075-0.357-0.232 0.142-4.185 2.799-4.185 2.799-0.886 0.591-2.073-0.044-2.073-1.109zM5.333 14.667c0 3.076 1.308 5.939 3.556 7.951 0.283 0.253 0.444 0.614 0.444 0.994v3.268l2.62-1.784c0.326-0.217 0.73-0.28 1.106-0.172 0.947 0.271 1.934 0.41 2.941 0.41 5.891 0 10.667-4.776 10.667-10.667s-4.776-10.667-10.667-10.667c-5.891 0-10.667 4.776-10.667 10.667zM12.198 9.515c0.245-0.245 0.647-0.24 0.887 0l1.794 1.793c0.249 0.249 0.248 0.649 0.001 0.896-0.249 0.249-0.341 0.708-0.209 1.030 0 0 0.208 0.76 1.103 1.654s1.656 1.104 1.656 1.104c0.318 0.139 0.784 0.039 1.031-0.208 0.249-0.249 0.648-0.247 0.896 0.001l1.794 1.793c0.245 0.245 0.242 0.646 0 0.887l-0.899 0.899c-0.742 0.741-2.040 0.853-2.878 0.232 0 0-1.177-0.706-3.408-2.936s-2.9-3.365-2.9-3.365c-0.613-0.85-0.507-2.141 0.233-2.881l0.899-0.899z"></path>
</svg>
