<svg viewBox="0 0 1000 1000" fill="none" xmlns="http://www.w3.org/2000/svg"><path fill-rule="evenodd" clip-rule="evenodd" d="M500 999.5C775.87 999.5 999.5 775.87 999.5 500C999.5 224.13 775.87 0.5 500 0.5C224.13 0.5 0.5 224.13 0.5 500C0.5 775.87 224.13 999.5 500 999.5ZM320.49 367.29C320.49 268.15 400.83 187.81 499.97 187.81C599.11 187.81 679.51 268.15 679.51 367.29C679.51 466.49 599.11 546.83 499.97 546.83C400.83 546.83 320.49 466.49 320.49 367.29ZM498.72 921.45C380.19 921.45 272.93 874 195.62 797.66V743.5C195.62 678.02 250.1 624.87 317.37 624.87H682.63C749.9 624.87 804.38 678.02 804.38 743.5V794.93C726.88 872.81 618.59 921.45 498.72 921.45Z" fill="black"/></svg>