<svg width="1000" height="1000" version="1.1" id="Layer_1" xmlns="http://www.w3.org/2000/svg" x="0" y="0" viewBox="0 0 1000 1000" xml:space="preserve"><style>.st2{fill-rule:evenodd;clip-rule:evenodd;fill:#fff}</style><path fill="none" d="M0 0h1000v1000H0z"/><path d="M500 999.5c275.87 0 499.5-223.63 499.5-499.5S775.87.5 500 .5.5 224.13.5 500 224.13 999.5 500 999.5z" fill-rule="evenodd" clip-rule="evenodd"/><path class="st2" d="M804.38 797.66C727.07 874 619.81 921.45 501.28 921.45c-119.87 0-228.16-48.64-305.66-126.52V743.5c0-65.48 54.48-118.63 121.75-118.63h365.26c67.27 0 121.75 53.15 121.75 118.63v54.16zM499.97 187.81c-99.14 0-179.48 80.34-179.48 179.48 0 99.2 80.34 179.54 179.48 179.54 99.14 0 179.54-80.34 179.54-179.54 0-99.14-80.4-179.48-179.54-179.48z"/></svg>