<svg xmlns="http://www.w3.org/2000/svg" width="1000pt" height="740pt" viewBox="0 0 1000 740"><g fill="#000"><path d="M155.168 355.797l187.77-192.402 61.359 70.265-119.02 121.945 118.926 121.207-61.172 70.442zm0 0"/><path d="M0 355.309C0 160.387 146.395 1.805 326.344 1.805h347.312C853.606 1.805 1000 160.387 1000 355.309c0 194.921-146.395 353.5-326.344 353.5H326.344C146.394 708.809 0 550.23 0 355.309zm910.719 0c0-141.606-106.348-256.79-237.063-256.79H326.344C195.629 98.52 89.28 213.704 89.28 355.31c0 141.593 106.348 256.789 237.063 256.789h347.312c130.715 0 237.063-115.196 237.063-256.79zm0 0"/><path d="M799.043 397.102c-21.305 0-38.578-18.723-38.578-41.805s17.273-41.809 38.578-41.809c21.309 0 38.594 18.727 38.594 41.809 0 23.082-17.285 41.805-38.594 41.805zm0 0"/><path d="M799.043 397.102c-21.305 0-38.578-18.723-38.578-41.805s17.273-41.809 38.578-41.809c21.309 0 38.594 18.727 38.594 41.809 0 23.082-17.285 41.805-38.594 41.805zm0 0M644.707 397.102c-21.309 0-38.582-18.723-38.582-41.805s17.273-41.809 38.582-41.809c21.313 0 38.598 18.727 38.598 41.809 0 23.082-17.285 41.805-38.598 41.805zm0 0"/><path d="M644.707 397.102c-21.309 0-38.582-18.723-38.582-41.805s17.273-41.809 38.582-41.809c21.313 0 38.598 18.727 38.598 41.809 0 23.082-17.285 41.805-38.598 41.805zm0 0M490.34 397.102c-21.309 0-38.586-18.723-38.586-41.805s17.277-41.809 38.586-41.809c21.32 0 38.594 18.727 38.594 41.809 0 23.082-17.274 41.805-38.594 41.805zm0 0"/><path d="M490.34 397.102c-21.309 0-38.586-18.723-38.586-41.805s17.277-41.809 38.586-41.809c21.32 0 38.594 18.727 38.594 41.809 0 23.082-17.274 41.805-38.594 41.805zm0 0"/></g></svg>