<svg width="1000" height="1000" fill="none" xmlns="http://www.w3.org/2000/svg"><path d="M613.325 193.706c169.222 0 306.765 137.748 306.765 306.764 0 169.017-137.748 306.765-306.765 306.765H386.47c-169.221 0-306.764-137.748-306.764-306.765 0-169.016 137.748-306.764 306.764-306.764h226.855zm0-79.706H386.47C172.9 114 0 286.9 0 500.47c0 213.571 172.9 386.471 386.47 386.471h227.06c213.57 0 386.47-172.9 386.47-386.471C999.796 286.9 826.896 114 613.325 114z" fill="#000"/><path d="M380.952 700.347L181.279 500.47l199.673-199.877 56.203 56.203-143.47 143.674 143.47 143.675-56.203 56.202zM536.481 557.286c31.378 0 56.816-25.437 56.816-56.816 0-31.378-25.438-56.816-56.816-56.816-31.379 0-56.816 25.438-56.816 56.816 0 31.379 25.437 56.816 56.816 56.816zM750.051 557.286c31.379 0 56.816-25.437 56.816-56.816 0-31.378-25.437-56.816-56.816-56.816-31.378 0-56.816 25.438-56.816 56.816 0 31.379 25.438 56.816 56.816 56.816z" fill="#000"/></svg>