<svg width="1000" height="1000" viewBox="0 0 1000 1000" xmlns="http://www.w3.org/2000/svg"><path d="M804.054 816.68c-168.919-31.665-168.919-83.328-168.919-116.66v-19.998c42.878-39.603 73.36-90.496 87.838-146.656h1.69c50.675 0 64.188-104.993 64.188-121.659 0-16.665 1.69-78.328-50.675-78.328C847.973 33.4 552.365-86.59 329.392 66.731c-91.216 0-99.662 133.324-65.878 266.648-52.365 0-50.676 63.33-50.676 78.328 0 15 11.824 121.659 64.189 121.659 14.478 56.16 44.96 107.053 87.838 146.656v19.999c0 33.33 0 86.66-168.92 116.658C99.304 833.537 22.192 905.681 0 1000h1000c-22.985-93.868-99.718-165.656-195.946-183.32z"/></svg>