<svg width="1000" height="1000" viewBox="0 0 1000 1000" fill="none" xmlns="http://www.w3.org/2000/svg">
<mask id="mask0_5644_409299" style="mask-type:luminance" maskUnits="userSpaceOnUse" x="0" y="0" width="1000" height="1000">
<path d="M999.729 0H0V1000H999.729V0Z" fill="white"/>
</mask>
<g mask="url(#mask0_5644_409299)">
<path d="M849.837 991.304H154.661C115.154 991.304 77.2631 975.688 49.3265 947.891C21.3899 920.094 5.69531 882.394 5.69531 843.083V52.5692C5.69531 39.4656 10.9268 26.8987 20.2391 17.6331C29.5512 8.36748 42.1813 3.16211 55.3507 3.16211H750.527C763.695 3.16211 776.326 8.36748 785.638 17.6331C794.95 26.8987 800.182 39.4656 800.182 52.5692V398.419H998.803V843.083C998.803 882.394 983.108 920.094 955.172 947.891C927.235 975.688 889.346 991.304 849.837 991.304ZM800.182 497.233V843.083C800.182 856.187 805.413 868.754 814.726 878.019C824.037 887.285 836.667 892.49 849.837 892.49C863.006 892.49 875.636 887.285 884.949 878.019C894.261 868.754 899.492 856.187 899.492 843.083V497.233H800.182ZM154.661 200.791V497.233H452.594V200.791H154.661ZM154.661 546.64V645.455H651.215V546.64H154.661ZM154.661 694.862V793.676H651.215V694.862H154.661ZM253.973 299.605H353.283V398.419H253.973V299.605Z" fill="#101721"/>
</g>
</svg>
