<svg width="1001" height="1001" viewBox="0 0 1001 1001" fill="none" xmlns="http://www.w3.org/2000/svg">
<path d="M850.504 1000.34H150.503C110.721 1000.34 72.5683 984.54 44.4377 956.406C16.3074 928.28 0.503973 890.126 0.503906 850.339V50.3401C0.503906 37.0794 5.77176 24.3614 15.1485 14.9845C24.525 5.60766 37.243 0.339844 50.5036 0.339844H750.505C763.765 0.339844 776.478 5.60766 785.858 14.9845C795.231 24.3614 800.504 37.0794 800.504 50.3401V400.341H1000.5V850.339C1000.5 890.126 984.697 928.28 956.571 956.406C928.437 984.54 890.284 1000.34 850.504 1000.34ZM800.504 500.341V850.339C800.504 863.606 805.771 876.32 815.144 885.7C824.524 895.073 837.238 900.34 850.504 900.34C863.764 900.34 876.478 895.073 885.858 885.7C895.231 876.32 900.504 863.606 900.504 850.339V500.341H800.504ZM150.503 200.34V500.341H450.503V200.34H150.503ZM150.503 550.341V650.339H650.505V550.341H150.503ZM150.503 700.339V800.339H650.505V700.339H150.503ZM250.503 300.341H350.503V400.341H250.503V300.341Z" fill="black"/>
</svg>
