<svg width="1000" height="1000" viewBox="0 0 1000 1000" fill="none" xmlns="http://www.w3.org/2000/svg">
<g>
<path d="M600.709 262.985L618.73 343.829C625.94 376.286 642.681 405.849 666.807 428.726C690.933 451.604 721.344 466.752 754.137 472.228L812.372 481.906C852.299 488.547 893.255 479.712 926.894 457.204C960.533 434.695 984.323 400.206 993.416 360.765C1019.78 246.799 977.981 117.816 859.093 69.1764C745.186 22.8723 623.299 -0.626383 500.343 0.0126933C377.773 0.171736 256.367 23.7903 142.677 69.5935C23.6221 117.9 -18.844 246.966 7.52001 361.266C16.5918 400.59 40.3206 434.973 73.8683 457.405C107.416 479.837 148.257 488.63 188.063 481.989L246.715 472.228C279.535 466.761 309.971 451.608 334.114 428.713C358.258 405.819 375.005 376.229 382.205 343.745L400.143 262.985C432.998 255.057 466.632 250.804 500.426 250.304C534.237 250.562 567.898 254.819 600.709 262.985ZM827.556 146.433C898.472 175.383 932.011 256.227 912.154 341.993C907.829 360.747 896.513 377.144 880.513 387.841C864.514 398.538 845.037 402.729 826.054 399.56L767.904 389.882C751.494 387.149 736.275 379.572 724.204 368.125C712.132 356.678 703.758 341.883 700.158 325.641L676.798 220.435C675.227 213.37 671.848 206.834 666.993 201.467C662.137 196.1 655.972 192.085 649.099 189.817H648.765L648.014 189.483L645.511 188.649C631.924 184.58 618.174 181.072 604.297 178.136C570.12 170.845 535.288 167.071 500.343 166.873C451.214 167.139 402.38 174.472 355.341 188.649L352.838 189.483L352.004 189.733L351.753 189.817H351.587C344.741 192.102 338.605 196.125 333.779 201.492C328.954 206.859 325.603 213.386 324.054 220.435L300.694 325.724C297.094 341.966 288.72 356.761 276.648 368.208C264.577 379.656 249.359 387.232 232.949 389.966L174.297 399.644C155.434 402.812 136.073 398.663 120.165 388.042C104.258 377.422 93.0027 361.13 88.6977 342.494C68.9247 256.644 102.797 175.717 173.963 146.933C253.806 114.562 365.019 83.8601 500.509 83.5264C612.563 82.9007 723.734 104.273 827.556 146.433Z" fill="black"/>
<path d="M242.101 936L363.195 567.565H471.921L591.469 936H504.385L479.135 854.068H345.675L320.425 936H242.101ZM412.663 635.584L363.71 794.81H461.1L412.663 635.584ZM643.888 936V567.565H727.881V936H643.888Z" fill="black"/>
</g>
</svg>
