<?xml version="1.0" encoding="UTF-8"?>
<svg width="1000px" height="1000px" viewBox="0 0 1000 1000" version="1.1" xmlns="http://www.w3.org/2000/svg" xmlns:xlink="http://www.w3.org/1999/xlink">
    <!-- Generator: Sketch 55.2 (78181) - https://sketchapp.com -->
    <title>Alert</title>
    <desc>Created with Sketch.</desc>
    <g id="Alert" stroke="none" stroke-width="1" fill="none" fill-rule="evenodd">
        <g id="Group" transform="translate(36.111111, 5.555556)" fill="#000000" fill-rule="nonzero">
            <path d="M925,688.888889 L830.555556,533.333333 C819.444444,516.666667 813.888889,500 813.888889,477.777778 L813.888889,344.444444 C813.888889,155.555556 658.333333,5.68434189e-14 463.888889,5.68434189e-14 C275,5.68434189e-14 119.444444,155.555556 119.444444,344.444444 L119.444444,477.777778 C119.444444,494.444444 113.888889,516.666667 102.777778,533.333333 L8.33333333,688.888889 C-2.77777778,705.555556 -2.77777778,727.777778 8.33333333,744.444444 C19.4444444,761.111111 36.1111111,772.222222 52.7777778,772.222222 L880.555556,772.222222 C897.222222,772.222222 919.444444,761.111111 925,744.444444 C930.555556,722.222222 930.555556,705.555556 925,688.888889 Z M775,561.111111 L869.444444,711.111111 L58.3333333,711.111111 L152.777778,561.111111 C169.444444,533.333333 175,505.555556 175,477.777778 L175,344.444444 C175,183.333333 302.777778,55.5555556 463.888889,55.5555556 C625,55.5555556 752.777778,183.333333 752.777778,344.444444 L752.777778,477.777778 C752.777778,505.555556 763.888889,538.888889 775,561.111111 Z" id="Shape"></path>
            <path d="M586.111111,822.222222 C586.111111,827.777778 586.111111,833.333333 586.111111,833.333333 C580.555556,866.666667 563.888889,894.444444 536.111111,911.111111 C508.333333,927.777778 475,938.888889 441.666667,927.777778 C397.222222,916.666667 358.333333,877.777778 352.777778,827.777778 C352.777778,827.777778 352.777778,822.222222 352.777778,816.666667 C352.777778,811.111111 352.777778,811.111111 347.222222,811.111111 L302.777778,811.111111 C297.222222,811.111111 297.222222,816.666667 297.222222,816.666667 C302.777778,900 369.444444,966.666667 447.222222,983.333333 C458.333333,983.333333 463.888889,983.333333 475,983.333333 C513.888889,983.333333 547.222222,972.222222 580.555556,950 C619.444444,922.222222 647.222222,877.777778 652.777778,833.333333 C652.777778,827.777778 652.777778,822.222222 652.777778,816.666667 C652.777778,811.111111 652.777778,811.111111 647.222222,811.111111 L602.777778,811.111111 C586.111111,816.666667 586.111111,822.222222 586.111111,822.222222 Z" id="Path"></path>
        </g>
    </g>
</svg>