<svg width="1000" height="1000" xmlns="http://www.w3.org/2000/svg"><g fill="#000" fill-rule="nonzero"><path d="M961.111 694.444L866.667 538.89C855.556 522.222 850 505.556 850 483.333V350C850 161.111 694.444 5.556 500 5.556 311.111 5.556 155.556 161.11 155.556 350v133.333c0 16.667-5.556 38.89-16.667 55.556L44.444 694.444c-11.11 16.667-11.11 38.89 0 55.556 11.112 16.667 27.778 27.778 44.445 27.778h827.778c16.666 0 38.889-11.111 44.444-27.778 5.556-22.222 5.556-38.889 0-55.556zm-150-127.777l94.445 150H94.444l94.445-150c16.667-27.778 22.222-55.556 22.222-83.334V350C211.111 188.889 338.89 61.111 500 61.111S788.889 188.89 788.889 350v133.333c0 27.778 11.111 61.111 22.222 83.334zM622.222 827.778v11.11c-5.555 33.334-22.222 61.112-50 77.779-27.778 16.666-61.11 27.777-94.444 16.666-44.445-11.11-83.334-50-88.89-100v-11.11c0-5.556 0-5.556-5.555-5.556H338.89c-5.556 0-5.556 5.555-5.556 5.555 5.556 83.334 72.223 150 150 166.667h27.778c38.889 0 72.222-11.111 105.556-33.333 38.889-27.778 66.666-72.223 72.222-116.667v-16.667c0-5.555 0-5.555-5.556-5.555H638.89c-16.667 5.555-16.667 11.11-16.667 11.11z"/></g></svg>