<svg width="24" height="24" viewBox="0 0 24 24" fill="none" xmlns="http://www.w3.org/2000/svg">
<path fill-rule="evenodd" clip-rule="evenodd" d="M6.69422 19.2727C5.207 19.2727 4 18.0504 4 16.5455C4 15.5466 4.5339 14.6563 5.34994 14.1808C5.34994 13.9049 5.34615 10.6351 5.34615 10.6351C5.34615 7.49373 7.42793 4.84896 10.2821 4.05884V3.81818C10.2821 2.81403 11.0856 2 12.0769 2C13.0682 2 13.8718 2.81403 13.8718 3.81818V4.05884C16.7265 4.8488 18.8077 7.4938 18.8077 10.6398V14.1887C19.6247 14.6665 20.1538 15.553 20.1538 16.5455C20.1538 18.0524 18.9486 19.2727 17.4596 19.2727H14.7692C14.7677 20.7792 13.5599 22 12.0769 22C10.59 22 9.38461 20.7802 9.38461 19.2747L6.69422 19.2727ZM11.1795 19.2727C11.1795 19.7756 11.5808 20.1818 12.0769 20.1818C12.5695 20.1818 12.9728 19.7741 12.9744 19.2727H11.1795ZM17.0128 10.6398V15.0328C17.0128 15.2848 17.211 15.5409 17.4503 15.6036L17.6856 15.6652C18.0783 15.7681 18.359 16.13 18.359 16.5455C18.359 17.0481 17.9575 17.4546 17.4596 17.4546H6.69422C6.19816 17.4546 5.79487 17.0462 5.79487 16.5455C5.79487 16.1282 6.07443 15.7676 6.46733 15.6652L6.71055 15.6018C6.94829 15.5398 7.14103 15.2871 7.14103 15.0328V10.6351C7.14103 7.87417 9.35041 5.63638 12.0769 5.63638C14.8045 5.63638 17.0128 7.87341 17.0128 10.6398Z" fill="black"/>
<mask id="mask0_18405_61810" style="mask-type:luminance" maskUnits="userSpaceOnUse" x="4" y="2" width="17" height="20">
<path fill-rule="evenodd" clip-rule="evenodd" d="M6.69422 19.2727C5.207 19.2727 4 18.0504 4 16.5455C4 15.5466 4.5339 14.6563 5.34994 14.1808C5.34994 13.9049 5.34615 10.6351 5.34615 10.6351C5.34615 7.49373 7.42793 4.84896 10.2821 4.05884V3.81818C10.2821 2.81403 11.0856 2 12.0769 2C13.0682 2 13.8718 2.81403 13.8718 3.81818V4.05884C16.7265 4.8488 18.8077 7.4938 18.8077 10.6398V14.1887C19.6247 14.6665 20.1538 15.553 20.1538 16.5455C20.1538 18.0524 18.9486 19.2727 17.4596 19.2727H14.7692C14.7677 20.7792 13.5599 22 12.0769 22C10.59 22 9.38461 20.7802 9.38461 19.2747L6.69422 19.2727ZM11.1795 19.2727C11.1795 19.7756 11.5808 20.1818 12.0769 20.1818C12.5695 20.1818 12.9728 19.7741 12.9744 19.2727H11.1795ZM17.0128 10.6398V15.0328C17.0128 15.2848 17.211 15.5409 17.4503 15.6036L17.6856 15.6652C18.0783 15.7681 18.359 16.13 18.359 16.5455C18.359 17.0481 17.9575 17.4546 17.4596 17.4546H6.69422C6.19816 17.4546 5.79487 17.0462 5.79487 16.5455C5.79487 16.1282 6.07443 15.7676 6.46733 15.6652L6.71055 15.6018C6.94829 15.5398 7.14103 15.2871 7.14103 15.0328V10.6351C7.14103 7.87417 9.35041 5.63638 12.0769 5.63638C14.8045 5.63638 17.0128 7.87341 17.0128 10.6398Z" fill="white"/>
</mask>
<g mask="url(#mask0_18405_61810)">
</g>
</svg>
