<?xml version="1.0" encoding="UTF-8"?>
<svg width="1000px" height="1000px" viewBox="0 0 1000 1000" version="1.1" xmlns="http://www.w3.org/2000/svg" xmlns:xlink="http://www.w3.org/1999/xlink">
    <!-- Generator: Sketch 55.2 (78181) - https://sketchapp.com -->
    <title>Alert/selected</title>
    <desc>Created with Sketch.</desc>
    <g id="Alert/selected" stroke="none" stroke-width="1" fill="none" fill-rule="evenodd">
        <g id="Group" transform="translate(40.000000, 3.000000)" fill="#000000" fill-rule="nonzero">
            <path d="M798.70226,488.888889 L798.70226,338.888889 C798.70226,150 648.70226,0 459.813371,0 L459.813371,0 L459.813371,0 C270.924482,0 120.924482,150 120.924482,338.888889 L120.924482,488.888889 C120.924482,516.666667 115.368927,538.888889 98.7022602,561.111111 L4.25781572,716.666667 C-6.85329539,738.888889 4.25781572,766.666667 32.0355935,766.666667 L882.035593,766.666667 C909.813371,766.666667 926.480038,738.888889 909.813371,716.666667 L815.368927,561.111111 C804.257816,544.444444 798.70226,516.666667 798.70226,488.888889 Z" id="Path"></path>
            <path d="M459.813371,994.444444 C548.70226,994.444444 620.924482,922.222222 620.924482,833.333333 L298.70226,833.333333 C298.70226,927.777778 370.924482,994.444444 459.813371,994.444444 Z" id="Path"></path>
        </g>
    </g>
</svg>