<svg width="1000" height="1000" viewBox="0 0 1000 1000" fill="none" xmlns="http://www.w3.org/2000/svg">
<path d="M777.037 444.592V112.145C777.037 51.1967 727.17 1.32959 666.222 1.32959H333.775C272.826 1.32959 222.959 51.1967 222.959 112.145V222.961H112.144C51.1951 222.961 1.32812 272.828 1.32812 333.777V887.855C1.32812 948.803 51.1951 998.67 112.144 998.67H389.183C419.657 998.67 444.591 973.737 444.591 943.262V777.039H555.406V943.262C555.406 973.737 580.34 998.67 610.814 998.67H887.853C948.802 998.67 998.669 948.803 998.669 887.855V555.408C998.669 494.459 948.802 444.592 887.853 444.592H777.037ZM222.959 887.855H112.144V777.039H222.959V887.855ZM222.959 666.223H112.144V555.408H222.959V666.223ZM222.959 444.592H112.144V333.777H222.959V444.592ZM444.591 666.223H333.775V555.408H444.591V666.223ZM444.591 444.592H333.775V333.777H444.591V444.592ZM444.591 222.961H333.775V112.145H444.591V222.961ZM666.222 666.223H555.406V555.408H666.222V666.223ZM666.222 444.592H555.406V333.777H666.222V444.592ZM666.222 222.961H555.406V112.145H666.222V222.961ZM887.853 887.855H777.037V777.039H887.853V887.855ZM887.853 666.223H777.037V555.408H887.853V666.223Z" fill="#101721"/>
</svg>
