<svg width="1000" height="778" viewBox="0 0 1000 778" fill="none" xmlns="http://www.w3.org/2000/svg">
<path d="M777.794 342.672C777.794 373.699 777.794 404.264 777.794 435.292C833.35 435.292 905.572 435.292 962.983 435.292C962.983 404.264 962.983 373.699 962.983 342.672C905.572 342.672 833.35 342.672 777.794 342.672Z" fill="black"/>
<path d="M685.206 648.78C729.65 681.656 787.517 725.19 833.35 759.456C851.872 734.915 870.389 709.908 888.906 685.362C843.072 651.092 785.206 607.562 740.761 574.22C722.239 599.227 703.722 624.234 685.206 648.78Z" fill="black"/>
<path d="M888.906 92.6009C870.389 68.0567 851.872 43.0497 833.35 18.5057C787.517 52.7747 729.65 96.3058 685.206 129.649C703.722 154.192 722.239 179.2 740.761 203.744C785.206 170.401 843.072 127.333 888.906 92.6009Z" fill="black"/>
<path d="M129.648 250.053C78.7217 250.053 37.0551 291.732 37.0551 342.672V435.292C37.0551 486.232 78.7217 527.91 129.648 527.91H175.944V713.148H268.537V527.91H314.833L546.314 666.84V111.125L314.833 250.053H129.648ZM362.518 329.242L453.722 274.597V503.367L362.518 448.721L340.296 435.292H129.648V342.672H340.296L362.518 329.242Z" fill="black"/>
<path d="M662.056 388.982C662.056 327.39 635.206 271.819 592.611 233.845V543.656C635.206 506.145 662.056 450.574 662.056 388.982Z" fill="black"/>
</svg>
