<svg width="1000" height="1000" version="1.1" id="Layer_1" xmlns="http://www.w3.org/2000/svg" x="0" y="0" viewBox="0 0 1000 1000" xml:space="preserve"><style>.st0{fill-rule:evenodd;clip-rule:evenodd}</style><path class="st0" d="M.5 63.56C.5 28.66 28.16.5 63.56.5h123.63c34.9 0 63.06 27.66 63.06 63.06v123.63c0 34.9-27.66 63.06-63.06 63.06H63.56C28.66 250.25.5 222.59.5 187.19V63.56zM.5 438.19c0-34.84 27.66-63.06 63.06-63.06h123.63c34.84 0 63.06 27.66 63.06 63.06v123.63c0 34.9-27.66 63.06-63.06 63.06H63.56C28.66 624.88.5 597.22.5 561.82V438.19zM375.12 63.56C375.12 28.72 402.78.5 438.18.5h123.63c34.84 0 63.06 27.66 63.06 63.06v123.63c0 34.9-27.66 63.06-63.06 63.06H438.19c-34.9 0-63.06-27.66-63.06-63.06V63.56zM375.12 438.19c0-34.84 27.66-63.06 63.06-63.06h123.63c34.84 0 63.06 27.66 63.06 63.06v123.63c0 34.84-27.66 63.06-63.06 63.06H438.19c-34.84 0-63.06-27.66-63.06-63.06V438.19zM749.75 63.56C749.75 28.72 777.41.5 812.81.5h123.63c34.84 0 63.06 27.66 63.06 63.06v123.63c0 34.9-27.66 63.06-63.06 63.06H812.81c-34.9 0-63.06-27.66-63.06-63.06V63.56zM749.75 438.19c0-34.84 27.66-63.06 63.06-63.06h123.63c34.84 0 63.06 27.66 63.06 63.06v123.63c0 34.84-27.66 63.06-63.06 63.06H812.81c-34.84 0-63.06-27.66-63.06-63.06V438.19zM.5 812.81c0-34.84 27.66-63.06 63.06-63.06h123.63c34.84 0 63.06 27.66 63.06 63.06v123.63c0 34.9-27.66 63.06-63.06 63.06H63.56C28.66 999.5.5 971.84.5 936.44V812.81zM375.12 812.81c0-34.84 27.66-63.06 63.06-63.06h123.63c34.84 0 63.06 27.66 63.06 63.06v123.63c0 34.84-27.66 63.06-63.06 63.06H438.19c-34.84 0-63.06-27.66-63.06-63.06V812.81zM749.75 812.81c0-34.84 27.66-63.06 63.06-63.06h123.63c34.84 0 63.06 27.66 63.06 63.06v123.63c0 34.84-27.66 63.06-63.06 63.06H812.81c-34.84 0-63.06-27.66-63.06-63.06V812.81z"/><path fill-rule="evenodd" clip-rule="evenodd" fill="none" d="M0 0h1000v1000H0z"/></svg>