<svg xmlns="http://www.w3.org/2000/svg" viewBox="0 0 1000 1000"><path d="M918.1 777.5h-46.8V443.8h-55v64.5H184.8v-64.5h-55v333.6H82.9c-15.2 0-27.5 12.3-27.5 27.5v97.2c0 15.2 12.3 27.5 27.5 27.5H918c15.2 0 27.5-12.3 27.5-27.5V805c.1-15.2-12.3-27.5-27.4-27.5zm-101.9-175v174.9h-84.1v-214h84.1v39.1zm-494.6 175V563.4h81.8v214.1h-81.8zm136.8-214.1h81.8v214.1h-81.8V563.4zm136.9 0h81.8v214.1h-81.8V563.4zm-410.5 39.1v-39.2h81.8v214.1h-81.8V602.5zm705.8 272.2H110.4v-42.2h780.1v42.2z"/><path d="M333.1 297.7H473v154.8h55V297.7h139.9v154.8h55v-319c0-11.3-6.9-21.5-17.5-25.6l-6.4-2.5c-64.7-25.4-132.7-38-202.2-37.6-69.5.5-137.3 14-201.7 40.2-10.4 4.2-17.1 14.3-17.1 25.5v319h55V297.7zm334.8-55H528v-119c47.9 2.7 94.8 12.3 139.9 28.8v90.2zM473 123.7v119.1H333.1v-90.3c45.1-16.5 92-26.2 139.9-28.8z"/></svg>