<?xml version="1.0" encoding="utf-8"?>
<!-- Generator: Adobe Illustrator 24.0.1, SVG Export Plug-In . SVG Version: 6.00 Build 0)  -->
<svg version="1.1" id="Layer_1" xmlns="http://www.w3.org/2000/svg" xmlns:xlink="http://www.w3.org/1999/xlink" x="0px" y="0px"
	 viewBox="0 0 1000 1000" style="enable-background:new 0 0 1000 1000;" xml:space="preserve">
<g>
	<path d="M918.1,777.5h-46.8V602.5v-66.7v-92h-55v64.5H184.8v-64.5h-55v92v66.7v174.9H82.9c-15.2,0-27.5,12.3-27.5,27.5v97.2
		c0,15.2,12.3,27.5,27.5,27.5h835.1c15.2,0,27.5-12.3,27.5-27.5V805C945.6,789.8,933.2,777.5,918.1,777.5z M816.2,602.5v174.9h-84.1
		V563.4h84.1V602.5z M321.6,777.5V563.4h81.8v214.1H321.6z M458.4,563.4h81.8v214.1h-81.8V563.4z M595.3,563.4h81.8v214.1h-81.8
		V563.4z M184.8,602.5v-39.2h81.8v214.1h-81.8V602.5z M890.6,874.7H110.4v-42.2h780.1V874.7z"/>
	<path d="M333.1,297.7H473v154.8h55V297.7h139.9v154.8h55v-319c0-11.3-6.9-21.5-17.5-25.6l-6.4-2.5c-64.7-25.4-132.7-38-202.2-37.6
		c-69.5,0.5-137.3,14-201.7,40.2c-10.4,4.2-17.1,14.3-17.1,25.5v319h55V297.7z M667.9,242.7H528V123.7
		c47.9,2.7,94.8,12.3,139.9,28.8V242.7z M473,123.7v119.1H333.1v-90.3C378.2,136,425.1,126.3,473,123.7z"/>
</g>
</svg>
