<?xml version="1.0" encoding="utf-8"?>
<!-- Generator: Adobe Illustrator 24.1.0, SVG Export Plug-In . SVG Version: 6.00 Build 0)  -->
<svg version="1.1" id="Layer_1" xmlns="http://www.w3.org/2000/svg" xmlns:xlink="http://www.w3.org/1999/xlink" x="0px" y="0px"
	 viewBox="0 0 1000 1000" style="enable-background:new 0 0 1000 1000;" xml:space="preserve">
<g>
	<path d="M759.6,683H721V564.8v-21.2v-77.4h-15.2v52.6c-3.8-1.9-8.1-3-12.6-3h-64.3V272.7c0-3.1-1.9-5.9-4.8-7.1l-4-1.6
		c-39.1-15.3-80.2-23-122.1-22.7c-42,0.3-82.9,8.4-121.8,24.3c-2.9,1.2-4.7,3.9-4.7,7v243.1h-64.3c-4.5,0-8.8,1.1-12.6,3v-52.6
		h-15.2v77.4v21.2V683h-38.6c-4.2,0-7.6,3.4-7.6,7.6V751c0,4.2,3.4,7.6,7.6,7.6h518.8c4.2,0,7.6-3.4,7.6-7.6v-60.4
		C767.2,686.4,763.8,683,759.6,683z M634.6,531h58.6c6.9,0,12.6,5.7,12.6,12.6v21.2V683h-71.2L634.6,531L634.6,531z M619.4,531v152
		h-69.8V531H619.4z M507.8,515.8V365.2h105.9v150.6L507.8,515.8L507.8,515.8z M534.4,531v152h-69.8V531H534.4z M613.7,350H507.8
		v-93.3c36.4,0.9,71.9,8,105.9,21.2V350z M492.6,256.7V350H386.7v-72.2C420.6,264.7,456.2,257.6,492.6,256.7z M386.7,365.2h105.9
		v150.6H386.7V365.2z M379.5,531h69.8v152h-69.8V531z M294.5,564.8v-21.2c0-6.9,5.7-12.6,12.6-12.6h57.2v152h-69.8V564.8z
		 M752,743.4H248.4v-45.2H752V743.4z"/>
</g>
</svg>
