<svg version="1.1" id="Layer_1" xmlns="http://www.w3.org/2000/svg" x="0" y="0" viewBox="0 0 1000 1000" xml:space="preserve"><style></style><path d="M434 919.8c-16 0-32-6.1-44.2-18.3L97.5 609.2c-24.4-24.4-24.4-64 0-88.4L533 85.2c5.9-5.9 14.2-8.8 22.4-7.9L863.6 111c12.8 1.4 22.9 11.5 24.3 24.3l33.7 308.2c.9 8.3-2 16.5-7.9 22.4L478.2 901.5c-12.1 12.2-28.2 18.3-44.2 18.3zm128.6-786.4L136.4 559.7c-2.9 2.9-2.9 7.7 0 10.6l292.4 292.4c2.9 2.9 7.7 2.9 10.6 0l426.2-426.2-29.9-273.1-273.1-30z"/><path transform="rotate(-45.001 383.076 615.926)" d="M355.6 461.2h55v309.3h-55z"/><circle cx="724.3" cy="274.7" r="60.8"/></svg>