<?xml version="1.0" encoding="utf-8"?>
<!-- Generator: Adobe Illustrator 24.0.1, SVG Export Plug-In . SVG Version: 6.00 Build 0)  -->
<svg version="1.1" id="Layer_1" xmlns="http://www.w3.org/2000/svg" xmlns:xlink="http://www.w3.org/1999/xlink" x="0px" y="0px"
	 viewBox="0 0 1000 1000" style="enable-background:new 0 0 1000 1000;" xml:space="preserve">
<style type="text/css">
	.st0{fill:none;stroke:#000000;stroke-width:55;stroke-linejoin:round;stroke-miterlimit:10;}
</style>
<g>
	<g>
		<path d="M434,919.8c-16,0-32-6.1-44.2-18.3L97.5,609.2c-24.4-24.4-24.4-64,0-88.4L533,85.2c5.9-5.9,14.2-8.8,22.4-7.9L863.6,111
			c12.8,1.4,22.9,11.5,24.3,24.3l33.7,308.2c0.9,8.3-2,16.5-7.9,22.4L478.2,901.5C466.1,913.7,450,919.8,434,919.8z M562.6,133.4
			L136.4,559.7c-2.9,2.9-2.9,7.7,0,10.6l292.4,292.4c2.9,2.9,7.7,2.9,10.6,0l426.2-426.2l-29.9-273.1L562.6,133.4z"/>
	</g>
	<g>
		<rect x="355.6" y="461.2" transform="matrix(0.7071 -0.7071 0.7071 0.7071 -323.3186 451.2777)" width="55" height="309.3"/>
	</g>
	<g>
		<circle cx="724.3" cy="274.7" r="60.8"/>
	</g>
</g>
</svg>
