<?xml version="1.0" encoding="utf-8"?>
<!-- Generator: Adobe Illustrator 24.1.0, SVG Export Plug-In . SVG Version: 6.00 Build 0)  -->
<svg version="1.1" id="Layer_1" xmlns="http://www.w3.org/2000/svg" xmlns:xlink="http://www.w3.org/1999/xlink" x="0px" y="0px"
	 viewBox="0 0 1000 1000" style="enable-background:new 0 0 1000 1000;" xml:space="preserve">
<g>
	<path d="M776.8,532.3h-38.9V294.4c0-36.3-29.6-65.9-65.9-65.9c-27.8,0-52.8,17.6-62.1,43.8l-0.9,2.3c-30.6,3.1-54.6,29.1-54.6,60.5
		c0,0.8,0.1,1.5,0.1,2.3c0.2,4.1,3.5,7.3,7.6,7.3h106.2c4.1,0,7.5-3.2,7.6-7.3c0.1-0.8,0.1-1.5,0.1-2.3c0-30.1-22.1-55.2-50.9-60
		c7.7-18.9,26.2-31.4,46.9-31.4c27.9,0,50.7,22.7,50.7,50.7v237.9H209.1v15.2h36v66.2c0,46.9,27.2,87.6,66.6,107.1v46.7h15.2v-40.4
		c11.9,4,24.5,6.1,37.7,6.1h253.8c13.2,0,25.9-2.2,37.8-6.1v40.4h15.2v-46.7c39.4-19.6,66.5-60.2,66.5-107.1v-8.2v-58h38.9V532.3z
		 M660.4,329.5H570c2.8-22.5,22-39.9,45.2-39.9S657.6,307,660.4,329.5z M722.7,605.5v8.2c0,57.5-46.8,104.3-104.3,104.3H364.6
		c-57.5,0-104.3-46.8-104.3-104.3v-66.2h462.4V605.5z"/>
	<rect x="554.5" y="409.2" width="15.2" height="36.8"/>
	<rect x="609.4" y="371.3" width="15.2" height="36.8"/>
	<rect x="660.8" y="409.2" width="15.2" height="36.8"/>
</g>
</svg>
