<svg xmlns="http://www.w3.org/2000/svg" viewBox="0 0 1000 1000"><path d="M950 533.9h-46.2V172.3c0-66.1-53.8-120-120-120-48.9 0-92.9 29.8-111.1 74.8-51.5 9.9-90.6 55.4-90.6 109.8 0 1.3 0 2.6.1 4.3.6 14.7 12.7 26.4 27.5 26.4h168.4c14.7 0 26.9-11.6 27.5-26.4.1-1.6.1-3 .1-4.3 0-48-30.4-89-72.9-104.8 12.1-15.3 30.8-24.8 51-24.8 35.8 0 65 29.1 65 65V534H50v55h41.7v89.6c0 76.9 42.6 144 105.4 179.1v92.6h55v-71.6c14.3 3.2 29.2 4.9 44.4 4.9H699c15.2 0 30.1-1.7 44.4-4.9v71.6h55v-92.6c62.8-35 105.4-102.2 105.4-179.1V589H950v-55.1zM745.2 212.5H642.6c9.1-19.1 28.7-32.4 51.3-32.4s42.1 13.3 51.3 32.4zm103.6 453v13c0 82.6-67.2 149.8-149.9 149.8H296.6c-82.6 0-149.8-67.2-149.8-149.8v-89.6h702.1v76.6z"/><path d="M582.1 354.2h55v58.3h-55zM669.2 294.2h55v58.3h-55zM750.7 354.2h55v58.3h-55z"/></svg>