<?xml version="1.0" encoding="utf-8"?>
<!-- Generator: Adobe Illustrator 24.0.1, SVG Export Plug-In . SVG Version: 6.00 Build 0)  -->
<svg version="1.1" id="Layer_1" xmlns="http://www.w3.org/2000/svg" xmlns:xlink="http://www.w3.org/1999/xlink" x="0px" y="0px"
	 viewBox="0 0 1000 1000" style="enable-background:new 0 0 1000 1000;" xml:space="preserve">
<g>
	<path d="M950,533.9h-46.2V172.3c0-66.1-53.8-120-120-120c-48.9,0-92.9,29.8-111.1,74.8c-51.5,9.9-90.6,55.4-90.6,109.8
		c0,1.3,0,2.6,0.1,4.3c0.6,14.7,12.7,26.4,27.5,26.4h168.4c14.7,0,26.9-11.6,27.5-26.4c0.1-1.6,0.1-3,0.1-4.3
		c0-48-30.4-89-72.9-104.8c12.1-15.3,30.8-24.8,51-24.8c35.8,0,65,29.1,65,65v361.7H50v55h41.7v89.6c0,76.9,42.6,144,105.4,179.1
		v92.6h55v-71.6c14.3,3.2,29.2,4.9,44.4,4.9H699c15.2,0,30.1-1.7,44.4-4.9v71.6h55v-92.6c62.8-35,105.4-102.2,105.4-179.1v-13v-76.6
		H950V533.9z M745.2,212.5H642.6c9.1-19.1,28.7-32.4,51.3-32.4S736,193.4,745.2,212.5z M848.8,665.5v13
		c0,82.6-67.2,149.8-149.9,149.8H296.6c-82.6,0-149.8-67.2-149.8-149.8v-89.6h702.1V665.5z"/>
	<rect x="582.1" y="354.2" width="55" height="58.3"/>
	<rect x="669.2" y="294.2" width="55" height="58.3"/>
	<rect x="750.7" y="354.2" width="55" height="58.3"/>
</g>
</svg>
