<?xml version="1.0" encoding="utf-8"?>
<!-- Generator: Adobe Illustrator 24.0.1, SVG Export Plug-In . SVG Version: 6.00 Build 0)  -->
<svg version="1.1" id="Layer_1" xmlns="http://www.w3.org/2000/svg" xmlns:xlink="http://www.w3.org/1999/xlink" x="0px" y="0px"
	 viewBox="0 0 1000 1000" style="enable-background:new 0 0 1000 1000;" xml:space="preserve">
<path d="M878,384.2V130.3c0-34.5-28-62.5-62.5-62.5H184.5c-34.5,0-62.5,28-62.5,62.5v253.9c-41.8,18-71.2,59.6-71.2,108v312.4v127.7
	h55V832.2h788.4v100.2h55V804.7V492.2C949.2,443.9,919.8,402.2,878,384.2z M184.5,122.8h631.1c4.1,0,7.5,3.4,7.5,7.5v244.4h-68.7
	V244.3c0-15.2-12.3-27.5-27.5-27.5H558.1c-15.2,0-27.5,12.3-27.5,27.5v130.4h-61.3V244.3c0-15.2-12.3-27.5-27.5-27.5H273.2
	c-15.2,0-27.5,12.3-27.5,27.5v130.4H177V130.3C177,126.2,180.3,122.8,184.5,122.8z M699.3,374.7H585.6V271.8h113.7V374.7z
	 M414.4,374.7H300.7V271.8h113.7V374.7z M168.3,429.7h663.4c34.5,0,62.5,28,62.5,62.5v162.4H105.8V492.2
	C105.8,457.7,133.8,429.7,168.3,429.7z M105.8,709.6h788.4v67.5H105.8V709.6z"/>
</svg>
