<svg xmlns="http://www.w3.org/2000/svg" viewBox="0 0 1000 1000"><path d="M878 384.2V130.3c0-34.5-28-62.5-62.5-62.5h-631c-34.5 0-62.5 28-62.5 62.5v253.9c-41.8 18-71.2 59.6-71.2 108V932.3h55V832.2h788.4v100.2h55V492.2c0-48.3-29.4-90-71.2-108zM184.5 122.8h631.1c4.1 0 7.5 3.4 7.5 7.5v244.4h-68.7V244.3c0-15.2-12.3-27.5-27.5-27.5H558.1c-15.2 0-27.5 12.3-27.5 27.5v130.4h-61.3V244.3c0-15.2-12.3-27.5-27.5-27.5H273.2c-15.2 0-27.5 12.3-27.5 27.5v130.4H177V130.3c0-4.1 3.3-7.5 7.5-7.5zm514.8 251.9H585.6V271.8h113.7v102.9zm-284.9 0H300.7V271.8h113.7v102.9zm-246.1 55h663.4c34.5 0 62.5 28 62.5 62.5v162.4H105.8V492.2c0-34.5 28-62.5 62.5-62.5zm-62.5 279.9h788.4v67.5H105.8v-67.5z"/></svg>