<?xml version="1.0" encoding="utf-8"?>
<!-- Generator: Adobe Illustrator 24.1.0, SVG Export Plug-In . SVG Version: 6.00 Build 0)  -->
<svg version="1.1" id="Layer_1" xmlns="http://www.w3.org/2000/svg" xmlns:xlink="http://www.w3.org/1999/xlink" x="0px" y="0px"
	 viewBox="0 0 1000 1000" style="enable-background:new 0 0 1000 1000;" xml:space="preserve">
<g>
	<path d="M852.9,128.9H742.8V67.8h-55v61.1H312.2V67.8h-55v61.1H147.1c-34.5,0-62.5,28-62.5,62.5v705.8c0,34.5,28,62.5,62.5,62.5
		h705.8c34.5,0,62.5-28,62.5-62.5V191.4C915.4,156.9,887.4,128.9,852.9,128.9z M147.1,183.9h110.1V245h55v-61.1h375.7V245h55v-61.1
		h110.1c4.1,0,7.5,3.4,7.5,7.5v155.2H139.6V191.4C139.6,187.3,143,183.9,147.1,183.9z M852.9,904.7H147.1c-4.1,0-7.5-3.4-7.5-7.5
		V401.6h720.8v495.6C860.4,901.3,857,904.7,852.9,904.7z"/>
	<path d="M445.5,708L356,618.5l-38.9,38.9l109,109c5.4,5.4,12.4,8.1,19.4,8.1c7,0,14.1-2.7,19.4-8.1l208.6-208.6l-38.9-38.9
		L445.5,708z"/>
</g>
</svg>
