<svg xmlns="http://www.w3.org/2000/svg" viewBox="0 0 1000 1000"><path fill-rule="evenodd" d="M500 291.7V125H83.3v750h833.4V291.7H500zm-250 500h-83.3v-83.4H250v83.4zm0-166.7h-83.3v-83.3H250V625zm0-166.7h-83.3V375H250v83.3zm0-166.6h-83.3v-83.4H250v83.4zm166.7 500h-83.4v-83.4h83.4v83.4zm0-166.7h-83.4v-83.3h83.4V625zm0-166.7h-83.4V375h83.4v83.3zm0-166.6h-83.4v-83.4h83.4v83.4zm416.6 500H500v-83.4h83.3V625H500v-83.3h83.3v-83.4H500V375h333.3v416.7zM666.7 458.3H750v83.4h-83.3v-83.4zm0 166.7H750v83.3h-83.3V625z" clip-rule="evenodd"/></svg>