<svg width="1000" height="1000" viewBox="0 0 1000 1000" fill="none" xmlns="http://www.w3.org/2000/svg">
<path d="M800 0H200C144.85 0 100 44.85 100 100V950C100 977.6 122.35 1000 150 1000H850C877.65 1000 900 977.6 900 950V100C900 44.85 855.15 0 800 0ZM800 900H200V100H800V900Z" fill="black"/>
<path d="M300 200.004H450V300.004H300V200.004ZM550 200.004H700V300.004H550V200.004ZM300 400.004H450V500.004H300V400.004ZM550 401.554H700V500.004H550V401.554ZM300 600.004H450V700.004H300V600.004ZM550 600.004H700V700.004H550V600.004Z" fill="black"/>
</svg>
