<svg width="1000" height="1000" viewBox="0 0 1000 1000" fill="none" xmlns="http://www.w3.org/2000/svg">
<path d="M750 83.332H250C204.041 83.332 166.667 120.707 166.667 166.665V874.999C166.667 897.999 185.292 916.666 208.333 916.666H791.666C814.708 916.666 833.333 897.999 833.333 874.999V166.665C833.333 120.707 795.958 83.332 750 83.332ZM750 833.332H250V166.665H750V833.332Z" fill="black"/>
<path d="M333.333 250H458.333V333.333H333.333V250ZM541.666 250H666.666V333.333H541.666V250ZM333.333 416.667H458.333V500H333.333V416.667ZM541.666 417.958H666.666V500H541.666V417.958ZM333.333 583.333H458.333V666.667H333.333V583.333ZM541.666 583.333H666.666V666.667H541.666V583.333Z" fill="black"/>
</svg>
