<svg width="1001" height="1001" viewBox="0 0 1001 1001" fill="none" xmlns="http://www.w3.org/2000/svg">
<path d="M51.3179 945.376H950.338C958.123 945.376 964.609 948.004 969.853 953.258C975.097 958.511 977.721 965.007 977.721 972.802C977.721 980.597 975.098 987.077 969.855 992.302C964.611 997.527 958.125 1000.14 950.338 1000.14H51.3179C43.5331 1000.14 37.0474 997.514 31.8032 992.261C26.5588 987.007 23.9341 980.512 23.9341 972.717C23.9341 964.922 26.5584 958.441 31.8013 953.217C37.0452 947.991 43.5316 945.376 51.3179 945.376ZM218.568 380.771C226.363 380.771 232.843 383.395 238.068 388.638C243.294 393.882 245.909 400.368 245.909 408.154V803.378C245.909 811.163 243.28 817.648 238.027 822.893C232.773 828.137 226.278 830.761 218.483 830.761C210.688 830.761 204.208 828.136 198.983 822.894C193.757 817.65 191.142 811.164 191.142 803.378V408.154C191.142 400.37 193.771 393.884 199.024 388.64C204.277 383.395 210.773 380.771 218.568 380.771ZM500.871 380.771C508.665 380.771 515.146 383.395 520.371 388.638C525.596 393.882 528.211 400.368 528.211 408.154V803.378C528.211 811.163 525.583 817.648 520.33 822.893C515.076 828.137 508.581 830.761 500.786 830.761C492.991 830.761 486.51 828.137 481.286 822.894C476.06 817.65 473.445 811.164 473.445 803.378V408.154C473.445 400.369 476.073 393.884 481.327 388.64C486.58 383.395 493.076 380.771 500.871 380.771ZM783.173 380.771C790.968 380.771 797.449 383.395 802.673 388.638C807.899 393.882 810.514 400.368 810.514 408.154V803.378C810.514 811.163 807.886 817.648 802.632 822.893C797.379 828.137 790.883 830.761 783.088 830.761C775.293 830.761 768.813 828.136 763.588 822.894C758.363 817.65 755.748 811.164 755.748 803.378V408.154C755.748 400.369 758.376 393.884 763.629 388.64C768.883 383.395 775.378 380.771 783.173 380.771ZM500.687 1.83594C514.182 1.83597 527.059 4.84558 539.328 10.8682L539.337 10.8721L964.471 213.13C968.207 215.601 971.355 218.597 973.917 222.121L973.918 222.123C976.453 225.587 977.721 229.522 977.721 233.959V243.389C977.721 250.338 975.629 255.824 971.505 259.938L971.504 259.939C967.394 264.059 961.821 266.156 954.686 266.156H44.5845C39.0091 266.156 34.2729 264.29 30.3306 260.546L29.9517 260.178C25.9344 256.178 23.9341 251.351 23.9341 245.646V232.59C23.9341 228.392 24.9907 224.837 27.0688 221.885L27.0698 221.883C29.1689 218.888 31.9449 216.444 35.4155 214.556L462.32 10.8721L462.326 10.8691L462.333 10.8652C474.411 4.84482 487.192 1.83594 500.687 1.83594ZM500.828 57.6895C495.641 57.6895 490.46 58.8038 485.292 61.0186L485.263 61.0322L171.907 209.777L172.27 211.39H829.386L829.749 209.777L516.393 61.0322L516.364 61.0186L515.394 60.6162C510.548 58.669 505.691 57.6895 500.828 57.6895Z" fill="black" stroke="white" stroke-width="1.69381"/>
</svg>
