<svg width="1000" height="1000" viewBox="0 0 1000 1000" fill="none" xmlns="http://www.w3.org/2000/svg">
<path d="M668.667 1H85.3333C39.5 1 2 38.5 2 84.3333V667.667C2 713.5 39.5 751 85.3333 751H668.667C714.5 751 1000 713.5 1000 667.667V84.3333C1000 38.5 714.5 1 668.667 1ZM442 148.083C454.083 136 474.083 136 486.167 148.083L522.833 184.75L559.5 148.083C571.583 136 591.583 136 603.667 148.083C615.75 160.167 615.75 180.167 603.667 192.25L567 228.917L603.667 265.583C615.75 277.667 615.75 297.667 603.667 309.75C591.583 321.833 571.583 321.833 559.5 309.75L522.833 273.5L486.167 310.167C474.083 322.25 454.083 322.25 442 310.167C429.917 298.083 429.917 278.083 442 266L478.667 229.333L442 192.667C429.5 180.167 429.5 160.167 442 148.083ZM168.667 197.667H314.5C331.583 197.667 345.75 211.833 345.75 228.917C345.75 246 331.583 260.167 314.5 260.167H168.667C151.583 260.167 137.417 246 137.417 228.917C137.417 211.833 151.583 197.667 168.667 197.667ZM324.917 542.667H272.833V594.75C272.833 611.833 258.667 626 241.583 626C224.5 626 210.333 611.833 210.333 594.75V542.667H158.25C141.167 542.667 127 528.5 127 511.417C127 494.333 141.167 480.167 158.25 480.167H210.333V428.083C210.333 411 224.5 396.833 241.583 396.833C258.667 396.833 272.833 411 272.833 428.083V480.167H324.917C342 480.167 356.167 494.333 356.167 511.417C356.167 528.5 342 542.667 324.917 542.667ZM595.75 594.75H449.917C432.833 594.75 418.667 580.583 418.667 563.5C418.667 546.417 432.833 532.25 449.917 532.25H595.75C612.833 532.25 627 546.417 627 563.5C627 580.583 612.833 594.75 595.75 594.75ZM595.75 490.583H449.917C432.833 490.583 418.667 476.417 418.667 459.333C418.667 442.25 432.833 428.083 449.917 428.083H595.75C612.833 428.083 627 442.25 627 459.333C627 476.417 612.833 490.583 595.75 490.583Z" fill="black"/>
</svg>
