<svg width="1000" height="1000" viewBox="0 0 1000 1000" fill="none" xmlns="http://www.w3.org/2000/svg">
<path d="M888.889 0H111.111C50 0 0 50 0 111.111V888.889C0 950 50 1000 111.111 1000H888.889C950 1000 1000 950 1000 888.889V111.111C1000 50 950 0 888.889 0ZM557.222 225.556L616.111 166.667L694.444 245L772.778 166.667L831.667 225.556L753.333 303.889L831.667 382.222L772.778 441.111L694.444 363.333L616.111 441.667L557.222 382.778L635.556 304.444L557.222 225.556ZM180.556 262.222H458.333V345.556H180.556V262.222ZM472.222 722.222H361.111V833.333H277.778V722.222H166.667V638.889H277.778V527.778H361.111V638.889H472.222V722.222ZM833.333 791.667H555.556V708.333H833.333V791.667ZM833.333 652.778H555.556V569.444H833.333V652.778Z" fill="black"/>
</svg>
