<svg width="1000" height="1000" viewBox="0 0 1000 1000" fill="none" xmlns="http://www.w3.org/2000/svg">
<path d="M722.222 472.553C706.111 458.185 679.444 458.185 663.333 472.553L421.667 688.07L333.333 609.295C317.222 594.927 290.556 594.927 274.444 609.295C258.333 623.662 258.333 647.444 274.444 661.811L382.222 757.927C403.889 777.249 438.889 777.249 460.556 757.927L721.667 525.069C738.333 510.702 738.333 486.92 722.222 472.553ZM888.889 99.4848H833.333V49.9406C833.333 22.6913 808.333 0.396362 777.778 0.396362C747.222 0.396362 722.222 22.6913 722.222 49.9406V99.4848H277.778V49.9406C277.778 22.6913 252.778 0.396362 222.222 0.396362C191.667 0.396362 166.667 22.6913 166.667 49.9406V99.4848H111.111C49.4444 99.4848 0.555555 144.075 0.555555 198.573L0 892.192C0 946.691 49.4444 991.28 111.111 991.28H888.889C950 991.28 1000 946.691 1000 892.192V198.573C1000 144.075 950 99.4848 888.889 99.4848ZM833.333 892.192H166.667C136.111 892.192 111.111 869.897 111.111 842.648V347.206H888.889V842.648C888.889 869.897 863.889 892.192 833.333 892.192Z" fill="#101721"/>
</svg>
