<svg width="1000" height="1000" xmlns="http://www.w3.org/2000/svg"><path d="M858.588 419.353h-35.294v-64.53C823.294 153.236 690.941 0 514.471 0h-29.412c-176.47 0-308.824 153.235-308.824 354.824v64.588h-35.294c-29.235 0-52.941 26-52.941 58.059v174.176c0 32.118 23.706 58.118 52.941 58.118h152.941V419.353H235.06v-64.53c0-166.117 107.353-290.294 250-290.294h29.412c142.647 0 250 124.177 250 290.295v64.588h-58.824v290.353h58.824c0 187.059-132.353 193.53-147.06 193.53h-8.823a58.235 58.235 0 00-50-32.295h-58.823c-32.47 0-58.824 28.882-58.824 64.53 0 35.646 26.353 64.47 58.824 64.47h58.823a58.235 58.235 0 0050-32.235h8.824c1.47 0 205.882-3.236 205.882-258.06h35.294c29.236 0 52.941-26 52.941-58.117V477.471c0-32.118-23.705-58.118-52.94-58.118z" fill="#000" fill-rule="nonzero"/></svg>