<svg width="1000" height="1000" viewBox="0 0 1000 1000" xmlns="http://www.w3.org/2000/svg">
    <path d="M770.588235,419.352941 L735.294118,419.352941 L735.294118,354.823529 C735.294118,153.235294 602.941176,0 426.470588,0 L397.058824,0 C220.588235,0 88.2352941,153.235294 88.2352941,354.823529 L88.2352941,419.411765 L52.9411765,419.411765 C23.7058824,419.411765 0,445.411765 0,477.470588 L0,651.647059 C0,683.764706 23.7058824,709.764706 52.9411765,709.764706 L205.882353,709.764706 L205.882353,419.352941 L147.058824,419.352941 L147.058824,354.823529 C147.058824,188.705882 254.411765,64.5294118 397.058824,64.5294118 L426.470588,64.5294118 C569.117647,64.5294118 676.470588,188.705882 676.470588,354.823529 L676.470588,419.411765 L617.647059,419.411765 L617.647059,709.764706 L676.470588,709.764706 C676.470588,896.823529 544.117647,903.294118 529.411765,903.294118 L520.588235,903.294118 C511.097193,884.181632 491.912906,871.790839 470.588235,871 L411.764706,871 C379.294118,871 352.941176,899.882353 352.941176,935.529412 C352.941176,971.176471 379.294118,1000 411.764706,1000 L470.588235,1000 C491.900016,999.220566 511.081166,986.854366 520.588235,967.764706 L529.411765,967.764706 C530.882353,967.764706 735.294118,964.529412 735.294118,709.705882 L770.588235,709.705882 C799.823529,709.705882 823.529412,683.705882 823.529412,651.588235 L823.529412,477.470588 C823.529412,445.352941 799.823529,419.352941 770.588235,419.352941 Z" id="Path"></path>
</svg>