<svg width="1000" height="1000" viewBox="0 0 1000 1000" fill="none" xmlns="http://www.w3.org/2000/svg">
<path d="M500 777.778C423.148 777.778 357.648 750.685 303.5 696.5C249.315 642.352 222.222 576.852 222.222 500C222.222 423.148 249.315 357.63 303.5 303.444C357.648 249.296 423.148 222.222 500 222.222C576.852 222.222 642.37 249.296 696.556 303.444C750.704 357.63 777.778 423.148 777.778 500C777.778 576.852 750.704 642.352 696.556 696.5C642.37 750.685 576.852 777.778 500 777.778ZM55.5556 333.333C39.8148 333.333 26.6296 328 16 317.333C5.33334 306.704 0 293.519 0 277.778V111.111C0 80.5556 10.8704 54.3889 32.6111 32.6111C54.3889 10.8704 80.5556 0 111.111 0H277.778C293.519 0 306.722 5.31481 317.389 15.9444C328.019 26.6111 333.333 39.8148 333.333 55.5556C333.333 71.2963 328.019 84.4815 317.389 95.1111C306.722 105.778 293.519 111.111 277.778 111.111H111.111V277.778C111.111 293.519 105.796 306.704 95.1667 317.333C84.5 328 71.2963 333.333 55.5556 333.333ZM111.111 1000C80.5556 1000 54.3889 989.13 32.6111 967.389C10.8704 945.611 0 919.444 0 888.889V722.222C0 706.482 5.33334 693.278 16 682.611C26.6296 671.981 39.8148 666.667 55.5556 666.667C71.2963 666.667 84.5 671.981 95.1667 682.611C105.796 693.278 111.111 706.482 111.111 722.222V888.889H277.778C293.519 888.889 306.722 894.222 317.389 904.889C328.019 915.519 333.333 928.704 333.333 944.444C333.333 960.185 328.019 973.37 317.389 984C306.722 994.667 293.519 1000 277.778 1000H111.111ZM722.222 1000C706.482 1000 693.296 994.667 682.667 984C672 973.37 666.667 960.185 666.667 944.444C666.667 928.704 672 915.519 682.667 904.889C693.296 894.222 706.482 888.889 722.222 888.889H888.889V722.222C888.889 706.482 894.222 693.278 904.889 682.611C915.519 671.981 928.704 666.667 944.444 666.667C960.185 666.667 973.37 671.981 984 682.611C994.667 693.278 1000 706.482 1000 722.222V888.889C1000 919.444 989.13 945.611 967.389 967.389C945.611 989.13 919.444 1000 888.889 1000H722.222ZM944.444 333.333C928.704 333.333 915.519 328 904.889 317.333C894.222 306.704 888.889 293.519 888.889 277.778V111.111H722.222C706.482 111.111 693.296 105.778 682.667 95.1111C672 84.4815 666.667 71.2963 666.667 55.5556C666.667 39.8148 672 26.6111 682.667 15.9444C693.296 5.31481 706.482 0 722.222 0H888.889C919.444 0 945.611 10.8704 967.389 32.6111C989.13 54.3889 1000 80.5556 1000 111.111V277.778C1000 293.519 994.667 306.704 984 317.333C973.37 328 960.185 333.333 944.444 333.333Z" fill="black"/>
</svg>
