<?xml version="1.0" encoding="utf-8"?>
<!-- Generator: Adobe Illustrator 24.0.1, SVG Export Plug-In . SVG Version: 6.00 Build 0)  -->
<svg version="1.1" id="Layer_1" xmlns="http://www.w3.org/2000/svg" xmlns:xlink="http://www.w3.org/1999/xlink" x="0px" y="0px"
	 viewBox="0 0 1000 1000" style="enable-background:new 0 0 1000 1000;" xml:space="preserve">
<g>
	<path d="M857.9,303.1l-35-127.7c-15-54.7-65-92.9-121.7-92.9H298.9c-56.7,0-106.7,38.2-121.7,92.9l-35,127.7
		C65.8,319.9,8.5,388,8.5,469.3v223.2v159.1c0,36.3,29.6,65.9,65.9,65.9h70.8c36.3,0,65.9-29.6,65.9-65.9V720H789v131.6
		c0,36.3,29.6,65.9,65.9,65.9h70.8c36.3,0,65.9-29.6,65.9-65.9V692.5V469.3C991.5,388,934.2,319.9,857.9,303.1z M936.5,509.9
		c0,23.8-19.4,43.3-43.3,43.3S850,533.7,850,509.9c0-23.8,19.4-43.3,43.3-43.3S936.5,486,936.5,509.9z M230.2,189.9
		c8.5-30.8,36.7-52.4,68.7-52.4h402.2c32,0,60.2,21.5,68.7,52.4l29.9,109.2H200.2L230.2,189.9z M178.6,354.2h642.8
		c44.4,0,83,25.3,102.2,62.2c-9.6-3.1-19.8-4.8-30.4-4.8c-54.2,0-98.3,44.1-98.3,98.3c0,54.2,44.1,98.3,98.3,98.3
		c15.5,0,30.2-3.6,43.3-10V665h-873v-67.2c13.1,6.4,27.7,10,43.3,10c54.2,0,98.3-44.1,98.3-98.3c0-54.2-44.1-98.3-98.3-98.3
		c-10.5,0-20.7,1.7-30.2,4.8C95.8,379.3,134.3,354.2,178.6,354.2z M106.8,466.3c23.8,0,43.3,19.4,43.3,43.3
		c0,23.8-19.4,43.3-43.3,43.3s-43.3-19.4-43.3-43.3C63.5,485.7,82.9,466.3,106.8,466.3z M156,851.6c0,6-4.9,10.9-10.9,10.9H74.4
		c-6,0-10.9-4.9-10.9-10.9V720H156V851.6z M925.6,862.5h-70.8c-6,0-10.9-4.9-10.9-10.9V720h92.5v131.6
		C936.5,857.6,931.6,862.5,925.6,862.5z"/>
	<rect x="322.3" y="482.1" width="355.4" height="55"/>
</g>
</svg>
