<svg xmlns="http://www.w3.org/2000/svg" width="1000" height="1000" viewBox="0 0 1000 1000"><path d="M318.183 409.093V272.761c-8.665-.008-16.396-.017-22.829-.032-90.499-.202-163.558 45.58-191.821 136.363h214.651zM90.917 636.365h30.479c18.72-52.963 69.231-90.908 128.604-90.908s109.885 37.945 128.604 90.908h242.791c18.72-52.963 69.231-90.908 128.604-90.908s109.885 37.945 128.604 90.908h30.486V590.91c0-40.674-21.316-69.893-70.241-90.908H90.91c.019 12.099.013 86.547.007 136.363zm527.541-273.023l-5.272-8.212c-40.896-63.595-63.599-82.4-113.186-82.4-20.206 0-54.819.021-90.908.034v136.329H650.37c-10.169-12.969-20.578-28.11-31.911-45.751zM1000 590.91v90.908c0 25.104-20.152 45.455-45.411 45.455h-75.984c-18.72 52.963-69.231 90.908-128.604 90.908s-109.885-37.945-128.604-90.908H378.606c-18.72 52.963-69.231 90.908-128.604 90.908s-109.885-37.945-128.604-90.908H45.591c-25.178 0-45.589-20.176-45.589-45.455 0 0 .019-169.893 0-181.75-.306-204.363 130.908-318.617 295.554-318.249 46.263.103 160.018 0 204.445 0 88.924 0 133.637 37.04 189.648 124.138l5.295 8.246c32.77 51.009 49.285 67.459 76.785 72.67C918.767 414.732 1000 477.765 1000 590.909zm-204.545 90.909c0-25.104-20.352-45.455-45.455-45.455s-45.455 20.352-45.455 45.455c0 25.104 20.352 45.455 45.455 45.455s45.455-20.352 45.455-45.455zm-500 0c0-25.104-20.352-45.455-45.455-45.455s-45.455 20.352-45.455 45.455c0 25.104 20.352 45.455 45.455 45.455s45.455-20.352 45.455-45.455z"/></svg>