<svg width="1000" height="1000" viewBox="0 0 1000 1000" xmlns="http://www.w3.org/2000/svg"><path d="M288.767 709.338c-13.483 2.999-28.142 5.795-44.019 8.405-60.006 9.836-99.551 31.226-123.535 60.114-11.057 13.32-18.097 27.452-21.978 41.475-1.319 4.764-2.15 9.104-2.596 12.867a48.526 48.526 0 0 0-.271 2.973c-.01.168-.015.294-.018.375 0-.034.002-.152.002-.33v103.654h373.48V734.67c0-16.783 13.604-30.388 30.385-30.388 16.781 0 30.386 13.605 30.386 30.388v204.2h373.045V835.517a19.952 19.952 0 0 0-.015-.301 46.616 46.616 0 0 0-.279-2.951c-.461-3.76-1.322-8.103-2.689-12.878-4.037-14.1-11.373-28.335-22.932-41.792-24.205-28.181-63.64-49.402-122.852-59.902-15.833-2.807-30.355-5.792-43.648-8.98V868.71c0 24.97-28.442 39.282-48.492 24.403L482.11 759.073c-13.477-10-16.295-29.034-6.296-42.511 10-13.478 29.032-16.296 42.508-6.296l132.139 98.057V689.159c-19.106-8.43-33.454-17.967-43.805-28.849-11.566-12.16-11.086-31.394 1.073-42.961 12.16-11.567 31.392-11.087 42.958 1.073 5.374 5.65 15.324 11.773 31.154 17.982 19.991 7.842 47.57 15.051 83.648 21.447 72.54 12.864 124.63 40.893 158.342 80.142 17.535 20.416 28.903 42.474 35.257 64.665 2.27 7.928 3.747 15.38 4.584 22.205.545 4.444.746 7.944.746 10.354V969.26c0 16.783-13.604 30.388-30.386 30.388H501.236a30.938 30.938 0 0 1-2.038 0H65.967c-16.782 0-30.386-13.605-30.386-30.388V835.217c0-2.36.19-5.8.71-10.176.798-6.733 2.208-14.09 4.375-21.92 6.078-21.964 16.964-43.819 33.792-64.087 33.697-40.59 86.482-69.14 160.447-81.264 35.737-5.874 63.872-12.626 84.67-20.009 17.017-6.04 27.978-12.095 33.214-17.201 12.014-11.718 31.252-11.476 42.968.539 11.717 12.015 11.476 31.254-.539 42.971-10.533 10.273-25.626 19.33-45.68 27.336v117.003l132.6-98.164c13.489-9.985 32.517-7.144 42.501 6.345 9.985 13.489 7.145 32.519-6.344 42.504L337.231 893.135c-20.054 14.847-48.464.53-48.464-24.424V709.338zm39.435-495.592c23.142-2.081 43.028-6.632 60.787-13.44 19.693-7.55 35.648-17.087 56.984-32.901 3.53-2.616 17.564-13.232 21.123-15.87 18.983-14.07 33.35-23.015 50.225-30.162 21.034-8.909 43.517-13.489 69.134-13.558 16.626-.588 32.755 1.565 47.86 6.05a138.85 138.85 0 0 0-15.966-14.912c-30.714-24.516-73.325-37.596-118.204-37.596-16.782 0-30.386-13.605-30.386-30.388S483.363.581 500.145.581c57.924 0 113.913 17.188 156.113 50.871 49.245 39.307 76.702 98.145 76.73 172.537v24.625a64.174 64.174 0 0 1 18.445 12.931c9.935 9.96 16.17 22.394 19.749 36.5 3.113 12.27 3.821 22.363 3.767 36.304l-.004 1.363c0 14.337-4.62 41.625-12.306 63.38-5.598 15.85-12.792 29.483-22.237 40.327-7.411 8.507-16.068 15.07-25.79 19.177-19.376 56.437-58.767 105.136-111.822 137.952-14.273 8.828-32.999 4.413-41.826-9.86-8.827-14.274-4.413-33.001 9.86-41.829 45.467-28.122 77.652-70.795 90.374-119.453 3.465-13.255 15.372-22.552 29.071-22.699.953-.01 2.016-.575 4.31-3.209 3.732-4.284 7.504-11.434 10.76-20.65 2.987-8.455 5.35-18.075 6.984-27.723 1.18-6.972 1.851-13.441 1.851-15.413 0-.423 0-.648.005-1.6.035-9.14-.386-15.148-1.901-21.119-1.1-4.33-2.53-7.183-3.87-8.527-.987-.99-2.42-1.575-6.295-1.638-16.588-.267-29.895-13.792-29.895-30.383v-37.987c-3.91-38.055-40.425-67.606-83.982-65.892-.398.016-.796.024-1.194.024-17.736 0-32.342 2.952-46.022 8.746-11.568 4.9-22.289 11.574-37.739 23.026-3.24 2.402-17.274 13.018-21.123 15.87-25.383 18.814-45.724 30.973-71.417 40.822-24.607 9.434-51.805 15.393-82.861 17.692-1.265 15.512-14.184 27.746-30.018 27.884-3.974.035-5.439.623-6.431 1.611-1.34 1.335-2.776 4.193-3.879 8.55-1.512 5.975-1.932 11.99-1.894 21.13.004.993.005 1.22.005 1.657 0 1.974.675 8.48 1.86 15.485 1.643 9.7 4.02 19.366 7.02 27.85 3.268 9.237 7.053 16.385 10.783 20.638 2.264 2.58 3.267 3.104 4.206 3.104 13.819 0 25.897 9.326 29.396 22.696 12.727 48.645 44.894 91.31 90.334 119.45 14.268 8.835 18.672 27.564 9.838 41.833-8.835 14.269-27.563 18.674-41.83 9.838-52.964-32.797-92.3-81.418-111.696-137.76-9.769-4.053-18.477-10.584-25.931-19.081-9.518-10.85-16.758-24.526-22.39-40.448-7.719-21.817-12.36-49.232-12.36-63.605 0-.316-.002-.516-.005-1.405-.058-13.931.647-24.028 3.75-36.293 3.595-14.204 9.878-26.712 19.912-36.705a64.118 64.118 0 0 1 18.66-12.942v-24.228c0-74.39 27.478-133.242 76.771-172.558C386.205 17.77 442.225.581 500.145.581c16.781 0 30.385 13.605 30.385 30.388s-13.604 30.388-30.385 30.388c-44.882 0-87.53 13.086-118.272 37.605-32.478 25.904-51.447 63.83-53.671 114.784z"/><path d="M583.815 552.682c-.503-16.776 12.687-30.783 29.46-31.286 16.774-.503 30.78 12.687 31.284 29.463l1.266 42.19a30.39 30.39 0 0 1-.39 5.845c-1.183 7.191.96 14.582 6.152 20.578 11.575 13.366 9.34 33.755-4.858 44.294l-128.401 95.32a30.384 30.384 0 0 1-36.054.124l-126.231-92.37c-15.044-11.008-16.72-32.843-3.535-46.02 6.609-6.604 9.697-15.137 8.777-23.586a30.39 30.39 0 0 1-.179-3.29V550.38c0-16.782 13.604-30.387 30.386-30.387 16.781 0 30.385 13.605 30.385 30.387v42.088c1.285 14.591-1.108 29.062-6.74 42.308l84.95 62.163 89.04-66.1c-4.299-12.285-5.77-25.45-4.124-38.582l-1.188-39.574z"/></svg>