<svg xmlns="http://www.w3.org/2000/svg" viewBox="0 0 1000 1000"><path d="M954.8 599.1l-81.3-90.4c-10.2-11.3-27.5-12.2-38.8-2.1l-90.4 81.3 36.8 40.9 44-39.5v44.2c0 116.7-94.9 211.6-211.6 211.6H470v55h143.4c71.2 0 138.2-27.7 188.5-78.1 50.4-50.4 78.1-117.3 78.1-188.5v-35.3l33.9 37.7 40.9-36.8zM386.6 100.1c-71.2 0-138.2 27.7-188.5 78.1S120 295.5 120 366.7v34.8l-33.4-37.2-40.9 36.8 81.3 90.4c5.4 6 12.9 9.1 20.5 9.1 6.5 0 13.1-2.3 18.4-7.1l90.4-81.3-36.8-40.9-44.5 40.1v-44.7c0-116.7 95-211.6 211.6-211.6H530v-55H386.6z"/><path d="M642.8 695h60.3L538 305.2h-75.6L297.4 695h60.3L423 539.2h154.4L642.8 695zM446.1 484.2l52-124h4.4l52 124H446.1z"/></svg>