<svg width="1000" height="1001" viewBox="0 0 1000 1001" fill="none" xmlns="http://www.w3.org/2000/svg">
<path fill-rule="evenodd" clip-rule="evenodd" d="M13.3333 0C13.6279 0 13.8666 0.238781 13.8666 0.533332V3.73333H0V0.533332C0 0.238781 0.238781 0 0.533332 0H13.3333ZM9.41331 6.93319H7.46665C7.1721 6.93319 6.93332 6.69441 6.93332 6.39986C6.93332 6.10531 7.1721 5.86652 7.46665 5.86652H11.7333C12.0279 5.86652 12.2666 6.10531 12.2666 6.39986C12.8191 6.45704 13.3591 6.60103 13.8666 6.82652V4.79986H0V7.99985H7.91998C8.35239 7.56069 8.85764 7.19979 9.41331 6.93319ZM2.39997 7.19961C1.95815 7.19961 1.59998 6.84143 1.59998 6.39961C1.59998 5.95778 1.95815 5.59961 2.39997 5.59961C2.8418 5.59961 3.19997 5.95778 3.19997 6.39961C3.19997 6.84143 2.8418 7.19961 2.39997 7.19961ZM7.11998 9.06663C6.64761 9.87589 6.39911 10.7963 6.39999 11.7333C6.39963 12.0915 6.43536 12.4489 6.50665 12.8H0.533332C0.238781 12.8 0 12.5612 0 12.2666V9.06663H7.11998ZM2.39998 11.4665C1.95815 11.4665 1.59998 11.1083 1.59998 10.6665C1.59998 10.2247 1.95815 9.8665 2.39998 9.8665C2.84181 9.8665 3.19998 10.2247 3.19998 10.6665C3.19998 11.1083 2.84181 11.4665 2.39998 11.4665ZM2.39997 2.93374C1.95815 2.93374 1.59998 2.57557 1.59998 2.13374C1.59998 1.69191 1.95815 1.33374 2.39997 1.33374C2.8418 1.33374 3.19997 1.69191 3.19997 2.13374C3.19997 2.57557 2.8418 2.93374 2.39997 2.93374ZM7.46665 2.66627H11.7333C12.0279 2.66627 12.2666 2.42749 12.2666 2.13294C12.2666 1.83839 12.0279 1.59961 11.7333 1.59961H7.46665C7.1721 1.59961 6.93332 1.83839 6.93332 2.13294C6.93332 2.42749 7.1721 2.66627 7.46665 2.66627Z" fill="black"/>
<path fill-rule="evenodd" clip-rule="evenodd" d="M7.4668 11.7325C7.4668 9.37607 9.37705 7.46582 11.7335 7.46582C14.0899 7.46582 16.0001 9.37607 16.0001 11.7325C16.0001 14.0889 14.0899 15.9991 11.7335 15.9991C9.37705 15.9991 7.4668 14.0889 7.4668 11.7325ZM11.4934 13.839L14.0001 11.0123V11.039C14.1989 10.8181 14.181 10.4778 13.9601 10.279C13.7392 10.0801 13.3989 10.0981 13.2001 10.319L11.4401 12.2923L10.5068 11.359C10.3816 11.192 10.1705 11.1134 9.96659 11.1579C9.76269 11.2023 9.60343 11.3615 9.55901 11.5654C9.51459 11.7693 9.59317 11.9804 9.76012 12.1056L11.4934 13.839Z" fill="black"/>
</svg>
