<svg width="1000" height="1000" viewBox="0 0 1000 1000" fill="none" xmlns="http://www.w3.org/2000/svg">
<path fill-rule="evenodd" clip-rule="evenodd" d="M833.331 0C851.744 0 866.663 14.924 866.663 33.333V233.333H0V33.333C0 14.924 14.924 0 33.333 0H833.331ZM588.332 433.324H466.666C448.256 433.324 433.332 418.401 433.332 399.991C433.332 381.582 448.256 366.658 466.666 366.658H733.331C751.744 366.658 766.663 381.582 766.663 399.991C801.194 403.565 834.944 412.564 866.663 426.658V299.991H0V499.991H494.999C522.024 472.543 553.602 449.987 588.332 433.324ZM149.998 449.976C122.384 449.976 99.999 427.589 99.999 399.976C99.999 372.361 122.384 349.976 149.998 349.976C177.613 349.976 199.998 372.361 199.998 399.976C199.998 427.589 177.613 449.976 149.998 449.976ZM444.999 566.664C415.476 617.243 399.944 674.769 399.999 733.331C399.977 755.719 402.21 778.056 406.666 800H33.333C14.924 800 0 785.075 0 766.663V566.664H444.999ZM149.999 716.656C122.384 716.656 99.999 694.269 99.999 666.656C99.999 639.044 122.384 616.656 149.999 616.656C177.613 616.656 199.999 639.044 199.999 666.656C199.999 694.269 177.613 716.656 149.999 716.656ZM149.998 183.359C122.384 183.359 99.999 160.973 99.999 133.359C99.999 105.744 122.384 83.359 149.998 83.359C177.613 83.359 199.998 105.744 199.998 133.359C199.998 160.973 177.613 183.359 149.998 183.359ZM466.666 166.642H733.331C751.744 166.642 766.663 151.718 766.663 133.309C766.663 114.899 751.744 99.976 733.331 99.976H466.666C448.256 99.976 433.332 114.899 433.332 133.309C433.332 151.718 448.256 166.642 466.666 166.642Z" fill="black"/>
<path fill-rule="evenodd" clip-rule="evenodd" d="M466.667 733.306C466.667 586.029 586.058 466.639 733.331 466.639C880.606 466.639 1000 586.029 1000 733.306C1000 880.581 880.606 999.969 733.331 999.969C586.058 999.969 466.667 880.581 466.667 733.306ZM718.331 864.962L875 688.294V689.963C887.425 676.156 886.306 654.887 872.5 642.463C858.694 630.031 837.425 631.156 825 644.962L715 768.294L656.669 709.963C648.837 699.525 635.65 694.612 622.904 697.394C610.161 700.169 600.207 710.119 597.431 722.862C594.654 735.606 599.566 748.8 610 756.625L718.331 864.962Z" fill="black"/>
</svg>