<svg width="1000" height="1000" viewBox="0 0 900 1000" fill="none" xmlns="http://www.w3.org/2000/svg">
<path d="M200 700H550V800H200V700ZM200 500H700V600H200V500ZM200 300H700V400H200V300ZM800 100H591C570 42 515 0 450 0C385 0 330 42 309 100H100C93 100 86.5 100.5 80 102C60.5 106 43 116 29.5 129.5C20.5 138.5 13 149.5 8 161.5C3 173 0 186 0 200V900C0 913.5 3 927 8 939C13 951 20.5 961.5 29.5 971C43 984.5 60.5 994.5 80 998.5C86.5 999.5 93 1000 100 1000H800C855 1000 900 955 900 900V200C900 145 855 100 800 100ZM450 87.5C470.5 87.5 487.5 104.5 487.5 125C487.5 145.5 470.5 162.5 450 162.5C429.5 162.5 412.5 145.5 412.5 125C412.5 104.5 429.5 87.5 450 87.5ZM800 900H100V200H800V900Z" fill="black"/>
</svg>