<svg xmlns="http://www.w3.org/2000/svg" width="1000" height="1000" viewBox="0 0 1000 1000"><path d="M500 1000C223.857 1000 0 776.143 0 500S223.857 0 500 0c276.143 0 500 223.857 500 500s-223.857 500-500 500zm0-100c220.914 0 400-179.086 400-400S720.914 100 500 100 100 279.086 100 500s179.086 400 400 400z"/><path d="M532 319.467v-.134c0-29.087-23.58-52.667-52.667-52.667h-.211.011-.134c-29.087 0-52.667 23.58-52.667 52.667v.141-.008 211.2c0 29.087 23.58 52.667 52.667 52.667h185.066c29.087 0 52.667-23.58 52.667-52.667v-.2c0-29.087-23.58-52.667-52.667-52.667H531.999V319.466z"/></svg>