<svg xmlns="http://www.w3.org/2000/svg" width="1000" height="1000" viewBox="0 0 1000 1000"><path d="M500 1000C223.857 1000 0 776.143 0 500S223.857 0 500 0c276.143 0 500 223.857 500 500s-223.857 500-500 500zm168.593-637.657c8.543-8.543 8.543-22.393.001-30.936s-22.393-8.543-30.936-.001L500.001 469.058 362.344 331.406c-8.543-8.543-22.394-8.542-30.936.001s-8.542 22.394.001 30.936l137.656 137.651-137.656 137.651c-8.543 8.543-8.543 22.393-.001 30.936s22.393 8.543 30.936.001L500.001 530.93l137.657 137.652c8.543 8.543 22.394 8.542 30.936-.001s8.542-22.394-.001-30.936L530.937 499.994l137.656-137.651z"/></svg>