<svg xmlns="http://www.w3.org/2000/svg" viewBox="0 0 1000 1000"><path fill="none" d="M0 0h1000v1000H0z"/><path d="M846.85 455.64C825.03 283.72 677.77 150.35 500 150.35c-137.66 0-257.24 80.47-311.84 207.29C80.87 389.71.5 491.01.5 599.9c0 137.71 112.04 249.75 249.75 249.75h49.95v-99.9h-49.95c-82.62 0-149.85-67.23-149.85-149.85 0-70.13 59.89-137.71 133.52-150.65l29.02-5.09 9.59-27.87C307.64 313.84 394.81 250.25 500 250.25c137.71 0 249.75 112.04 249.75 249.75v49.95h49.95c55.09 0 99.9 44.81 99.9 99.9s-44.81 99.9-99.9 99.9h-99.9v99.9h99.9c110.19 0 199.8-89.61 199.8-199.8 0-93.96-65.18-172.93-152.65-194.21z"/><path d="M549.95 599.9V400.1h-99.9v199.8H300.2L500 849.65 699.8 599.9z"/></svg>