<svg width="1000" height="1000" fill="none" xmlns="http://www.w3.org/2000/svg"><path d="M541.667 791.667V625h125L500 416.667 333.333 625h125v166.667h83.334z" fill="#000"/><path d="M291.667 791.667H375v-83.334h-83.333c-68.917 0-125-56.083-125-125 0-58.5 49.958-114.833 111.375-125.625l24.208-4.25 8-23.25C339.542 344.75 412.292 291.667 500 291.667c114.875 0 208.333 93.458 208.333 208.333v41.667H750c45.958 0 83.333 37.375 83.333 83.333S795.958 708.333 750 708.333H625v83.334h125c91.917 0 166.667-74.75 166.667-166.667 0-78.333-54.375-144.25-127.334-162-18.208-143.417-141-254.667-289.333-254.667-114.833 0-214.583 67.125-260.125 172.917C150.375 408 83.333 492.5 83.333 583.333c0 114.875 93.459 208.334 208.334 208.334z" fill="#000"/></svg>