<svg width="1000" height="1000" fill="none" xmlns="http://www.w3.org/2000/svg"><path d="M789.501 463c-18.208-143.417-141.042-254.667-289.333-254.667-114.834 0-214.584 67.125-260.125 172.917C150.543 408 83.501 492.5 83.501 583.333c0 114.875 93.458 208.334 208.333 208.334h41.667v-83.334h-41.667c-68.916 0-125-56.083-125-125 0-58.5 49.959-114.875 111.375-125.666l24.209-4.25 8-23.25c29.291-85.459 102-138.5 189.75-138.5 114.875 0 208.333 93.458 208.333 208.333v41.667h41.667c45.958 0 83.333 37.375 83.333 83.333s-37.375 83.333-83.333 83.333h-83.334v83.334h83.334c91.916 0 166.666-74.75 166.666-166.667 0-78.375-54.375-144.25-127.333-162z" fill="#000"/><path d="M541.834 583.333V416.667h-83.333v166.666h-125l166.667 208.334 166.666-208.334h-125z" fill="#000"/></svg>