<svg xmlns="http://www.w3.org/2000/svg" viewBox="0 0 1000 1000"><path d="M228.7 579.8l-10.2 147.4c-.5 7.8 2.2 15.4 7.7 21 5.2 5.4 12.3 8.4 19.8 8.4h1l152.1-5.5c6.9-.3 13.5-3.1 18.4-8l494.9-494.9c24.4-24.4 24.4-64 0-88.4L820 67.3c-24.4-24.4-64-24.4-88.4 0L236.7 562.2c-4.7 4.7-7.5 10.9-8 17.6zm541.8-473.6c2.9-2.9 7.7-2.9 10.6 0l92.4 92.4c2.9 2.9 2.9 7.7 0 10.6l-72.9 72.9-103-103 72.9-72.9zM282.9 593.8L658.7 218l103 103-375.4 375.5-110.8 4 7.4-106.7z"/><path d="M944.8 357.6L900 402.3c7.3 31 11 62.9 11 95.2 0 56-11 110.2-32.6 161.3-20.9 49.4-50.8 93.7-88.8 131.8-38.1 38.1-82.4 68-131.8 88.8-51 21.6-105.3 32.6-161.3 32.6s-110.2-11-161.3-32.6c-49.4-20.9-93.7-50.8-131.8-88.8-38.1-38.1-68-82.4-88.8-131.8C93 607.8 82 553.5 82 497.5s11-110.2 32.6-161.3c20.9-49.4 50.8-93.7 88.8-131.8 38.1-38.1 82.4-68 131.8-88.8C386.3 94 440.5 83 496.5 83c24.1 0 47.9 2.1 71.4 6.1l46.3-46.3C575.9 33 536.4 28 496.5 28c-63.4 0-124.9 12.4-182.8 36.9-55.9 23.6-106.1 57.5-149.2 100.6-43.1 43.1-77 93.3-100.6 149.2C39.4 372.6 27 434.1 27 497.5c0 63.4 12.4 124.9 36.9 182.8 23.6 55.9 57.5 106.1 100.6 149.2 43.1 43.1 93.3 77 149.2 100.6 57.9 24.5 119.4 36.9 182.8 36.9 63.4 0 124.9-12.4 182.8-36.9 55.9-23.6 106.1-57.5 149.2-100.6 43.1-43.1 77-93.3 100.6-149.2 24.5-57.9 36.9-119.4 36.9-182.8 0-47.8-7.2-94.8-21.2-139.9z"/></svg>