<?xml version="1.0" encoding="utf-8"?>
<!-- Generator: Adobe Illustrator 24.0.1, SVG Export Plug-In . SVG Version: 6.00 Build 0)  -->
<svg version="1.1" id="Layer_1" xmlns="http://www.w3.org/2000/svg" xmlns:xlink="http://www.w3.org/1999/xlink" x="0px" y="0px"
	 viewBox="0 0 1000 1000" style="enable-background:new 0 0 1000 1000;" xml:space="preserve">
<g>
	<path d="M924.6,243.2c0-16.7-6.5-32.3-18.3-44.1L784,76.8c-24.3-24.3-63.9-24.3-88.2,0L91.3,681.4c-4.7,4.7-7.5,10.9-7.9,17.4
		L71,877.4c-0.5,7.7,2.2,15.3,7.6,20.9c5.2,5.3,12.3,8.3,19.7,8.3c0.3,0,0.7,0,1,0l184.2-6.7c6.9-0.3,13.5-3.1,18.3-8l604.6-604.6v0
		C918.1,275.6,924.6,259.9,924.6,243.2z M270.7,845.6l-143.1,5.2l9.6-138L619,231l133.2,133.2L270.7,845.6z M867.7,248.7
		C867.7,248.7,867.7,248.7,867.7,248.7l-76.8,76.8L657.7,192.3l76.8-76.8c3-3,7.8-3,10.8,0l122.3,122.3c1.9,1.9,2.2,4,2.2,5.4
		C869.9,244.7,869.5,246.8,867.7,248.7z"/>
	<polygon points="780.8,646 726.2,646 726.2,767.2 605,767.2 605,821.8 726.2,821.8 726.2,943 780.8,943 780.8,821.8 902,821.8 
		902,767.2 780.8,767.2 	"/>
</g>
</svg>
