<svg xmlns="http://www.w3.org/2000/svg" viewBox="0 0 1000 1000"><path d="M873.1 316.7l49.5-24c-8.5-17.4-18.1-34.5-28.7-50.8l-46.1 30c9.3 14.3 17.8 29.4 25.3 44.8zM817.1 230.4l42.1-35.4c-12.5-14.8-26.1-29-40.3-42.2l-37.4 40.4c12.5 11.6 24.5 24.2 35.6 37.2zM906.1 414l53.9-11c-3.9-19-9-38-15.2-56.4l-52.1 17.7c5.5 16.2 10 33 13.4 49.7zM773.6 115.9c-15.8-11.3-32.4-21.8-49.4-31.1l-26.3 48.3c15 8.2 29.7 17.4 43.7 27.4l32-44.6z"/><path d="M968.1 460.8l-54.8 4.2c.8 10.7 1.2 21.6 1.2 32.4 0 56-11 110.2-32.6 161.3-20.9 49.4-50.8 93.7-88.8 131.8s-82.4 68-131.8 88.8C610.2 901 556 912 500 912c-56 0-110.2-11-161.3-32.6-49.4-20.9-93.7-50.8-131.8-88.8-38.1-38.1-68-82.4-88.8-131.8-21.6-51.1-32.6-105.4-32.6-161.3 0-56 11-110.2 32.6-161.3 20.9-49.4 50.8-93.7 88.8-131.8 38.1-38.1 82.4-68 131.8-88.8C389.8 93.9 444 83 500 83c17.2 0 34.5 1.1 51.5 3.2l6.8-54.6C539 29.2 519.5 28 500 28c-63.4 0-124.9 12.4-182.8 36.9-55.9 23.6-106.1 57.5-149.2 100.6-43.1 43.1-77 93.3-100.6 149.2-24.5 57.9-36.9 119.4-36.9 182.8s12.4 124.9 36.9 182.8C91 736.2 124.9 786.4 168 829.5c43.1 43.1 93.3 77 149.2 100.6C375.1 954.5 436.6 967 500 967s124.9-12.4 182.8-36.9c55.9-23.6 106.1-57.5 149.2-100.6s77-93.3 100.6-149.2c24.5-57.9 36.9-119.4 36.9-182.8 0-12.2-.5-24.6-1.4-36.7z"/><path d="M671.2 60.2c-18.1-7.1-36.8-13.1-55.6-17.9l-13.5 53.3c16.6 4.2 33.1 9.5 49.1 15.8l20-51.2z"/></svg>