<?xml version="1.0" encoding="utf-8"?>
<!-- Generator: Adobe Illustrator 24.0.1, SVG Export Plug-In . SVG Version: 6.00 Build 0)  -->
<svg version="1.1" id="Layer_1" xmlns="http://www.w3.org/2000/svg" xmlns:xlink="http://www.w3.org/1999/xlink" x="0px" y="0px"
	 viewBox="0 0 1000 1000" style="enable-background:new 0 0 1000 1000;" xml:space="preserve">
<g>
	<path d="M228.7,579.8l-10.2,147.4c-0.5,7.8,2.2,15.4,7.7,21c5.2,5.4,12.3,8.4,19.8,8.4c0.3,0,0.7,0,1,0l152.1-5.5
		c6.9-0.3,13.5-3.1,18.4-8l494.9-494.9c0,0,0,0,0,0c24.4-24.4,24.4-64,0-88.4L820,67.3c-24.4-24.4-64-24.4-88.4,0L236.7,562.2
		C232,566.9,229.2,573.1,228.7,579.8z M770.5,106.2c2.9-2.9,7.7-2.9,10.6,0l92.4,92.4c2.9,2.9,2.9,7.7,0,10.6l-72.9,72.9l-103-103
		L770.5,106.2z M282.9,593.8L658.7,218l103,103L386.3,696.5l-110.8,4L282.9,593.8z"/>
	<path d="M893.5,409v484.5h-787v-787h444l55-55H79c-15.2,0-27.5,12.3-27.5,27.5v842c0,15.2,12.3,27.5,27.5,27.5h842
		c15.2,0,27.5-12.3,27.5-27.5V354L893.5,409z"/>
</g>
</svg>
