<svg xmlns="http://www.w3.org/2000/svg" viewBox="0 0 1000 1000"><path d="M228.7 579.8l-10.2 147.4c-.5 7.8 2.2 15.4 7.7 21 5.2 5.4 12.3 8.4 19.8 8.4h1l152.1-5.5c6.9-.3 13.5-3.1 18.4-8l494.9-494.9c24.4-24.4 24.4-64 0-88.4L820 67.3c-24.4-24.4-64-24.4-88.4 0L236.7 562.2c-4.7 4.7-7.5 10.9-8 17.6zm541.8-473.6c2.9-2.9 7.7-2.9 10.6 0l92.4 92.4c2.9 2.9 2.9 7.7 0 10.6l-72.9 72.9-103-103 72.9-72.9zM282.9 593.8L658.7 218l103 103-375.4 375.5-110.8 4 7.4-106.7z"/><path d="M893.5 409v484.5h-787v-787h444l55-55H79c-15.2 0-27.5 12.3-27.5 27.5v842c0 15.2 12.3 27.5 27.5 27.5h842c15.2 0 27.5-12.3 27.5-27.5V354l-55 55z"/></svg>