<?xml version="1.0" encoding="utf-8"?>
<!-- Generator: Adobe Illustrator 24.0.1, SVG Export Plug-In . SVG Version: 6.00 Build 0)  -->
<svg version="1.1" id="Layer_1" xmlns="http://www.w3.org/2000/svg" xmlns:xlink="http://www.w3.org/1999/xlink" x="0px" y="0px"
	 viewBox="0 0 1000 1000" style="enable-background:new 0 0 1000 1000;" xml:space="preserve">
<g>
	<path d="M228.7,579.8l-10.2,147.4c-0.5,7.8,2.2,15.4,7.7,21c5.2,5.4,12.3,8.4,19.8,8.4c0.3,0,0.7,0,1,0l152.1-5.5
		c6.9-0.3,13.5-3.1,18.4-8l494.9-494.9c0,0,0,0,0,0c24.4-24.4,24.4-64,0-88.4L820,67.3c-24.4-24.4-64-24.4-88.4,0L236.7,562.2
		C232,566.9,229.2,573.1,228.7,579.8z M770.5,106.2c2.9-2.9,7.7-2.9,10.6,0l92.4,92.4c2.9,2.9,2.9,7.7,0,10.6l-72.9,72.9l-103-103
		L770.5,106.2z M282.9,593.8L658.7,218l103,103L386.3,696.5l-110.8,4L282.9,593.8z"/>
	<path d="M944.8,357.6L900,402.3c7.3,31,11,62.9,11,95.2c0,56-11,110.2-32.6,161.3c-20.9,49.4-50.8,93.7-88.8,131.8
		c-38.1,38.1-82.4,68-131.8,88.8C606.8,901,552.5,912,496.5,912s-110.2-11-161.3-32.6c-49.4-20.9-93.7-50.8-131.8-88.8
		c-38.1-38.1-68-82.4-88.8-131.8C93,607.8,82,553.5,82,497.5s11-110.2,32.6-161.3c20.9-49.4,50.8-93.7,88.8-131.8
		c38.1-38.1,82.4-68,131.8-88.8C386.3,94,440.5,83,496.5,83c24.1,0,47.9,2.1,71.4,6.1l46.3-46.3C575.9,33,536.4,28,496.5,28
		c-63.4,0-124.9,12.4-182.8,36.9c-55.9,23.6-106.1,57.5-149.2,100.6c-43.1,43.1-77,93.3-100.6,149.2C39.4,372.6,27,434.1,27,497.5
		c0,63.4,12.4,124.9,36.9,182.8c23.6,55.9,57.5,106.1,100.6,149.2c43.1,43.1,93.3,77,149.2,100.6c57.9,24.5,119.4,36.9,182.8,36.9
		c63.4,0,124.9-12.4,182.8-36.9c55.9-23.6,106.1-57.5,149.2-100.6c43.1-43.1,77-93.3,100.6-149.2c24.5-57.9,36.9-119.4,36.9-182.8
		C966,449.7,958.8,402.7,944.8,357.6z"/>
</g>
</svg>
