<svg width="1000" height="1000" viewBox="0 0 1000 1000" fill="none" xmlns="http://www.w3.org/2000/svg">
<path d="M825.789 954.413L582.99 711.614L698.217 596.388L941.015 839.187C956.562 854.733 964.335 873.937 964.335 896.8C964.335 919.662 956.562 938.866 941.015 954.413C925.469 969.959 906.264 977.732 883.402 977.732C860.54 977.732 841.335 969.959 825.789 954.413ZM68.5871 954.413C53.0407 938.866 45.2675 919.662 45.2675 896.8C45.2675 873.937 53.0407 854.733 68.5871 839.187L389.575 518.199L296.296 424.92C284.408 436.809 271.148 442.296 256.516 441.381C241.884 440.467 229.538 434.98 219.479 424.92L187.929 393.37V505.853L178.326 515.455C170.096 523.686 160.494 527.801 149.52 527.801C138.546 527.801 128.944 523.686 120.713 515.455L12.3457 407.088C4.11523 398.857 0 389.255 0 378.281C0 367.307 4.11523 357.705 12.3457 349.475L21.9479 339.872H134.431L104.252 309.694C93.2785 298.72 87.7915 285.917 87.7915 271.285C87.7915 256.653 93.2785 243.85 104.252 232.877L260.631 76.4979C278.921 58.2081 298.583 44.9479 319.616 36.7174C340.649 28.487 362.14 24.3717 384.088 24.3717C406.036 24.3717 427.526 28.487 448.56 36.7174C469.593 44.9479 489.255 58.2081 507.545 76.4979L381.344 202.698L411.523 232.877C421.582 242.936 427.069 255.282 427.984 269.914C428.898 284.545 423.411 297.806 411.523 309.694L504.801 402.973L628.258 279.516C624.6 269.456 621.637 258.94 619.369 247.966C617.064 236.992 615.912 226.018 615.912 215.044C615.912 161.089 634.44 115.583 671.495 78.5281C708.514 41.5094 754.001 23 807.956 23C821.673 23 834.714 24.3717 847.078 27.1152C859.406 29.8587 871.971 33.9739 884.774 39.4609L748.971 175.263L847.737 274.029L983.539 138.226C989.941 151.029 994.294 163.594 996.598 175.922C998.866 188.286 1000 201.326 1000 215.044C1000 268.999 981.491 314.486 944.472 351.505C907.417 388.56 861.911 407.088 807.956 407.088C796.982 407.088 786.008 406.173 775.034 404.344C764.06 402.515 753.544 399.315 743.484 394.742L183.813 954.413C168.267 969.959 149.063 977.732 126.2 977.732C103.338 977.732 84.1335 969.959 68.5871 954.413Z" fill="black"/>
</svg>
