<svg xmlns="http://www.w3.org/2000/svg" viewBox="0 0 1000 1000"><path d="M816.5 176.3v-14.1c0-34.5-28-62.5-62.5-62.5H624c-34.5 0-62.5 28-62.5 62.5v14.1h-511v55h510.9v14.1c0 34.5 28 62.5 62.5 62.5h130c34.5 0 62.5-28 62.5-62.5v-14.1h133v-55H816.5zm-55 69c0 4.1-3.4 7.5-7.5 7.5H624c-4.1 0-7.5-3.4-7.5-7.5v-83.2c0-4.1 3.4-7.5 7.5-7.5h130c4.1 0 7.5 3.4 7.5 7.5v83.2zM441.4 458.4c0-34.5-28-62.5-62.5-62.5h-130c-34.5 0-62.5 28-62.5 62.5v14.1H50.5v55h135.8v14.1c0 34.5 28 62.5 62.5 62.5h130c34.5 0 62.5-28 62.5-62.5v-14.1h508.1v-55h-508v-14.1zm-55 83.2c0 4.1-3.4 7.5-7.5 7.5h-130c-4.1 0-7.5-3.4-7.5-7.5v-83.2c0-4.1 3.4-7.5 7.5-7.5h130c4.1 0 7.5 3.4 7.5 7.5v83.2zM816.5 754.7c0-34.5-28-62.5-62.5-62.5H624c-34.5 0-62.5 28-62.5 62.5v14.1h-511v55h510.9v14.1c0 34.5 28 62.5 62.5 62.5h130c34.5 0 62.5-28 62.5-62.5v-14.1h133v-55h-133v-14.1zm-55 83.1c0 4.1-3.4 7.5-7.5 7.5H624c-4.1 0-7.5-3.4-7.5-7.5v-83.2c0-4.1 3.4-7.5 7.5-7.5h130c4.1 0 7.5 3.4 7.5 7.5v83.2z"/></svg>