<svg xmlns="http://www.w3.org/2000/svg" viewBox="0 0 1000 1000"><path d="M83.332 875h833.336c45.832 0 82.914-37.5 82.914-83.332l.418-583.336C1000 162.5 962.5 125 916.668 125H83.332C37.5 125 0 162.5 0 208.332v583.336C0 837.5 37.5 875 83.332 875zm0-666.668h833.336v583.336H83.332zm728.75 208.332L875 333.332l-82.918-82.918c-54.582 40.836-95 98.75-113.75 166.25-7.5 26.668-11.664 54.586-11.664 83.336s4.164 56.668 11.664 83.332c18.75 67.086 59.168 125.418 113.75 166.25L875 666.668l-62.918-83.336H743.75c-9.168-26.25-14.582-54.168-14.582-83.332 0-29.168 5.414-57.086 14.582-83.336zM375 500c68.75 0 125-56.25 125-125s-56.25-125-125-125-125 56.25-125 125 56.25 125 125 125zm0-166.668c22.918 0 41.668 18.75 41.668 41.668 0 22.914-18.75 41.664-41.668 41.664s-41.668-18.75-41.668-41.664c0-22.918 18.75-41.668 41.668-41.668zm0 208.332c-84.582 0-250 45.004-250 149.168V750h500v-58.75c0-104.582-165.418-149.586-250-149.586zM228.332 666.668C259.168 645.832 320.832 625 375 625c54.168 0 115.418 20.418 146.668 41.668zm0 0" fill-rule="evenodd" fill="#000"/></svg>