<?xml version="1.0" encoding="utf-8"?>
<!-- Generator: Adobe Illustrator 24.1.0, SVG Export Plug-In . SVG Version: 6.00 Build 0)  -->
<svg version="1.1" id="Layer_1" xmlns="http://www.w3.org/2000/svg" xmlns:xlink="http://www.w3.org/1999/xlink" x="0px" y="0px"
	 viewBox="0 0 1000 1000" style="enable-background:new 0 0 1000 1000;" xml:space="preserve">
<g>
	<path d="M816.5,176.3v-14.1c0-34.5-28-62.5-62.5-62.5H624c-34.5,0-62.5,28-62.5,62.5v14.1H50.5v55h510.9v14.1
		c0,34.5,28,62.5,62.5,62.5h130c34.5,0,62.5-28,62.5-62.5v-14.1h133v-55H816.5z M761.5,245.3c0,4.1-3.4,7.5-7.5,7.5H624
		c-4.1,0-7.5-3.4-7.5-7.5v-83.2c0-4.1,3.4-7.5,7.5-7.5h130c4.1,0,7.5,3.4,7.5,7.5V245.3z"/>
	<path d="M441.4,458.4c0-34.5-28-62.5-62.5-62.5h-130c-34.5,0-62.5,28-62.5,62.5v14.1H50.5v55h135.8v14.1c0,34.5,28,62.5,62.5,62.5
		h130c34.5,0,62.5-28,62.5-62.5v-14.1h508.1v-55H441.4V458.4z M386.4,541.6c0,4.1-3.4,7.5-7.5,7.5h-130c-4.1,0-7.5-3.4-7.5-7.5
		v-83.2c0-4.1,3.4-7.5,7.5-7.5h130c4.1,0,7.5,3.4,7.5,7.5V541.6z"/>
	<path d="M816.5,754.7c0-34.5-28-62.5-62.5-62.5H624c-34.5,0-62.5,28-62.5,62.5v14.1H50.5v55h510.9v14.1c0,34.5,28,62.5,62.5,62.5
		h130c34.5,0,62.5-28,62.5-62.5v-14.1h133v-55h-133V754.7z M761.5,837.8c0,4.1-3.4,7.5-7.5,7.5H624c-4.1,0-7.5-3.4-7.5-7.5v-83.2
		c0-4.1,3.4-7.5,7.5-7.5h130c4.1,0,7.5,3.4,7.5,7.5V837.8z"/>
</g>
</svg>
