<svg width="1000" height="1000" viewBox="0 0 1000 1000" xmlns="http://www.w3.org/2000/svg"><g fill-rule="evenodd"><path d="M119.603 429.026c26.489-3.794 37.841 17.072 47.301 28.454l64.33 98.64c13.8 20.494 8.76 48.286-11.352 62.598-26.489 22.764-54.87 41.733 49.193 146.064 104.063 104.33 113.524 66.392 136.228 39.835 14.276-20.165 41.996-25.218 62.438-11.382l98.387 64.496c13.245 7.587 32.165 20.866 28.381 47.423-17.969 56.145-69.848 94.39-128.66 94.846-85.142 0-189.205-66.392-280.024-159.342C95.006 747.71 25 643.378 25 558.017c.455-58.963 38.602-110.976 94.603-128.99z"/><path d="M526.125 725.995l-18.321-12.49c-15.995-10.302-34.535-15.719-53.438-15.613-23.651-.018-46.48 8.875-64.125 24.98l-15.268-6.244-16.794-17.174a410.485 410.485 0 0 1-33.59-37.471c9.683-10.769 16.975-23.551 21.375-37.47l32.063-9.369 67.178-17.174c65.652-24.98 61.072-57.767 61.072-74.941v-23.42c-31.103-29.453-53.347-67.365-64.125-109.289-38.17 0-45.804-79.625-45.804-90.554 0-10.93-1.527-59.329 36.643-59.329C355.125 39.032 571.93-67.135 733.768 48.4c67.178 0 71.759 92.115 47.33 192.037 38.17 0 36.643 46.839 36.643 59.329 0 12.49-9.16 90.554-45.803 90.554-10.779 41.924-33.023 79.836-64.125 109.29v24.98c0 24.98 0 62.451 123.67 87.432C955.151 637.002 975 749.415 975 749.415H561.241l-35.116-23.42z"/></g></svg>