<svg width="1000" height="1000" viewBox="0 0 1000 1000" fill="none" xmlns="http://www.w3.org/2000/svg">
<path d="M571.167 265.306L354.917 698.082C343.111 721.554 319.083 736.415 292.833 736.415H208.667C185.611 736.415 167 755.026 167 778.082C167 801.137 185.611 819.748 208.667 819.748H292.833C351.028 819.748 403.389 787.387 429.5 735.304L645.889 302.667C657.694 279.195 681.722 264.334 707.972 264.334H792C815.056 264.334 833.667 245.723 833.667 222.667C833.667 199.612 815.056 181 792 181H707.833C649.639 180.862 597.278 213.223 571.167 265.306Z" fill="black"/>
<path d="M777.778 0.216797H222.222C99.4444 0.216797 0 99.6615 0 222.439V777.994C0 900.772 99.4444 1000.22 222.222 1000.22H777.778C900.556 1000.22 1000 900.772 1000 777.994V222.439C1000 99.6615 900.556 0.216797 777.778 0.216797ZM916.667 777.994C916.667 854.661 854.444 916.883 777.778 916.883H222.222C145.556 916.883 83.3333 854.661 83.3333 777.994V222.439C83.3333 145.773 145.556 83.5503 222.222 83.5503H777.778C854.306 83.5503 916.667 145.911 916.667 222.439V777.994Z" fill="black"/>
</svg>
