<?xml version="1.0" encoding="utf-8"?>
<!-- Generator: Adobe Illustrator 24.0.1, SVG Export Plug-In . SVG Version: 6.00 Build 0)  -->
<svg version="1.1" id="Layer_1" xmlns="http://www.w3.org/2000/svg" xmlns:xlink="http://www.w3.org/1999/xlink" x="0px" y="0px"
	 viewBox="0 0 1000 1000" style="enable-background:new 0 0 1000 1000;" xml:space="preserve">
<g>
	<path d="M901,202.2H689.1l-45.7-128c-8.5-23.8-31.2-39.8-56.5-39.8H406c-25.1,0-47.8,15.9-56.4,39.5l-46.7,128.3H99v55h92.6v648.2
		c0,33.1,26.9,60,60,60h488.7c33.1,0,60-26.9,60-60V257.2H901V202.2z M401.3,92.7c0.7-2,2.6-3.3,4.7-3.3h180.8c2.1,0,4,1.3,4.7,3.3
		l39.1,109.5H361.5L401.3,92.7z M745.2,905.4c0,2.8-2.2,5-5,5H251.6c-2.8,0-5-2.2-5-5V257.2h498.6V905.4z"/>
	<rect x="381.5" y="396.8" width="55" height="373.9"/>
	<rect x="555.3" y="396.8" width="55" height="373.9"/>
</g>
</svg>
