<svg width="1000" height="1000" viewBox="0 0 1000 1000" xmlns="http://www.w3.org/2000/svg"><path d="M88.872 187.5C71.822 187.5 58 173.509 58 156.25S71.822 125 88.872 125h823.256c17.05 0 30.872 13.991 30.872 31.25s-13.822 31.25-30.872 31.25H88.872zm284.182-31.25c0 17.259-13.822 31.25-30.872 31.25s-30.873-13.991-30.873-31.25V92.187C311.31 41.094 352.948 0 403.926 0h193.148c50.978 0 92.617 41.094 92.617 92.188v64.062c0 17.259-13.822 31.25-30.873 31.25-17.05 0-30.872-13.991-30.872-31.25V92.187c0-16.216-13.65-29.687-30.872-29.687H403.926c-17.223 0-30.872 13.471-30.872 29.688v64.062zm421.188-1.97c1.075-17.224 15.74-30.306 32.756-29.218 17.017 1.088 29.94 15.933 28.865 33.158l-45.857 734.602c-1.182 58.88-48.947 106.02-108.442 107.178l-402.725-.006c-58.898-1.151-106.663-48.293-107.79-105.837L145.137 158.22c-1.075-17.225 11.848-32.07 28.865-33.158 17.016-1.088 31.681 11.994 32.756 29.218l45.967 737.273c.502 24.991 21.224 45.443 46.71 45.947l401.533.006c26.083-.51 46.805-20.962 47.362-47.288l45.912-735.938zM469.628 281.25c0-17.259 13.822-31.25 30.872-31.25s30.872 13.991 30.872 31.25v562.5c0 17.259-13.822 31.25-30.872 31.25s-30.872-13.991-30.872-31.25v-562.5zm-158.269 1.778c-.97-17.231 12.044-31.996 29.066-32.977 17.023-.982 31.609 12.19 32.579 29.421l31.663 562.5c.97 17.231-12.043 31.996-29.065 32.977-17.023.982-31.609-12.19-32.579-29.421l-31.664-562.5zm316.637-3.556c.97-17.23 15.556-30.403 32.579-29.421 17.022.981 30.035 15.746 29.066 32.977l-31.664 562.5c-.97 17.23-15.556 30.403-32.579 29.421-17.022-.981-30.035-15.746-29.065-32.977l31.663-562.5z"/></svg>