<?xml version="1.0" encoding="utf-8"?>
<!-- Generator: Adobe Illustrator 24.0.1, SVG Export Plug-In . SVG Version: 6.00 Build 0)  -->
<svg version="1.1" id="Layer_1" xmlns="http://www.w3.org/2000/svg" xmlns:xlink="http://www.w3.org/1999/xlink" x="0px" y="0px"
	 viewBox="0 0 1000 1000" style="enable-background:new 0 0 1000 1000;" xml:space="preserve">
<g>
	<path d="M197.6,287.1v645.5c0,19.3,15.7,35,35,35h534.8c19.3,0,35-15.7,35-35V287.1H197.6z"/>
	<path d="M651,131.4l-39.9-79.7c-5.9-11.8-18-19.3-31.3-19.3H416c-13.2,0-25.2,7.4-31.2,19.1l-40.8,79.9H163.6c-8.3,0-15,6.7-15,15
		v77.7c0,8.3,6.7,15,15,15h672.8c8.3,0,15-6.7,15-15v-77.7c0-8.3-6.7-15-15-15H651z"/>
</g>
</svg>
