<svg xmlns="http://www.w3.org/2000/svg" viewBox="0 0 1000 1000"><path d="M944.445 1000C975 1000 1000 975 1000 944.445v-193.89C1000 720 975 695 944.445 695c-68.89 0-136.113-11.11-198.336-31.668-5.554-2.223-11.664-2.777-17.218-2.777-14.446 0-28.336 5.554-39.446 16.113L567.223 798.891C410 718.332 281.109 590 201.109 432.777l122.223-122.222c15.559-15.555 20-37.223 13.89-56.664C316.669 191.668 305.556 125 305.556 55.555 305.555 25 280.555 0 250 0H55.555C25 0 0 25 0 55.555 0 577.223 422.777 1000 944.445 1000zm-200-221.11c47.223 13.333 95.555 21.665 144.446 25v82.778c-73.336-5-143.891-19.445-211.114-41.668zM112.777 111.11h83.332C200 160.554 208.332 208.89 221.668 255L155 321.668C132.223 255 117.777 184.445 112.777 111.109zm0 0" fill-rule="evenodd" fill="#000"/></svg>