<svg width="1000" height="1000" viewBox="0 0 1000 1000" xmlns="http://www.w3.org/2000/svg"><path d="M327.204 898.87c-35.135-47.221-63.438-108.652-82.628-179.244H124.921c46.484 79.215 117.346 142.397 202.283 179.243zm345.592 0c84.937-36.847 155.799-100.029 202.283-179.244H755.424c-19.19 70.592-47.493 132.023-82.628 179.243zm233.63-244.664c18.193-47.924 28.153-99.902 28.153-154.206 0-54.304-9.96-106.282-28.153-154.206H770.093c8.728 48.678 13.396 100.529 13.396 154.206 0 53.677-4.668 105.528-13.396 154.206h136.333zm-31.347-373.832c-46.484-79.215-117.346-142.397-202.283-179.243 35.135 47.22 63.438 108.651 82.628 179.243h119.655zM327.204 101.13c-84.937 36.846-155.799 100.028-202.283 179.243h119.655c19.19-70.592 47.493-132.023 82.628-179.243zM93.574 345.794C75.381 393.718 65.421 445.696 65.421 500c0 54.304 9.96 106.282 28.153 154.206h136.333C221.18 605.528 216.511 553.677 216.511 500c0-53.677 4.668-105.528 13.396-154.206H93.574zM467.29 929.387V70.613c-63.96 20.366-121.19 99.139-154.6 209.76h374.62C653.9 169.753 596.67 90.98 532.71 70.614v858.774c63.96-20.366 121.19-99.139 154.6-209.76H312.69c33.41 110.621 90.64 189.394 154.6 209.76zM296.52 654.206h406.96c9.38-47.791 14.589-99.73 14.589-154.206 0-54.476-5.209-106.415-14.59-154.206H296.52c-9.38 47.791-14.589 99.73-14.589 154.206 0 54.476 5.209 106.415 14.59 154.206zM500 1000C223.858 1000 0 776.142 0 500S223.858 0 500 0s500 223.858 500 500-223.858 500-500 500z"/></svg>