<svg xmlns="http://www.w3.org/2000/svg" viewBox="0 0 1000 1000"><path d="M90.2 937.8c-7.2 0-14.2-2.8-19.5-8.1-8-8-10.3-20-5.8-30.4l247.8-571.8c2.8-6.4 7.9-11.5 14.3-14.3L898.8 65.5c10.4-4.5 22.4-2.2 30.4 5.8s10.3 20 5.8 30.4L687.2 673.5c-2.8 6.4-7.9 11.5-14.3 14.3L101.2 935.5c-3.6 1.5-7.3 2.3-11 2.3zm268.7-578.4l-215.8 498 498-215.8 215.8-498-498 215.8z"/><path d="M500 599.6c-54.6 0-99.1-44.5-99.1-99.1 0-54.6 44.5-99.1 99.1-99.1 54.6 0 99.1 44.5 99.1 99.1 0 54.7-44.5 99.1-99.1 99.1zm0-143.2c-24.3 0-44.1 19.8-44.1 44.1s19.8 44.1 44.1 44.1 44.1-19.8 44.1-44.1-19.8-44.1-44.1-44.1z"/></svg>