<?xml version="1.0" encoding="utf-8"?>
<!-- Generator: Adobe Illustrator 24.0.1, SVG Export Plug-In . SVG Version: 6.00 Build 0)  -->
<svg version="1.1" id="Layer_1" xmlns="http://www.w3.org/2000/svg" xmlns:xlink="http://www.w3.org/1999/xlink" x="0px" y="0px"
	 viewBox="0 0 1000 1000" style="enable-background:new 0 0 1000 1000;" xml:space="preserve">
<path d="M929.2,71.3c-8-8-20-10.3-30.4-5.8L327,313.2c-6.4,2.8-11.5,7.9-14.3,14.3L65,899.3c-4.5,10.4-2.2,22.4,5.8,30.4
	c5.3,5.3,12.3,8.1,19.5,8.1c3.7,0,7.4-0.7,10.9-2.3l571.8-247.8c6.4-2.8,11.5-7.9,14.3-14.3L935,101.6
	C939.5,91.3,937.2,79.2,929.2,71.3z M347.1,386.5l266.8,266.8l-470.9,204L347.1,386.5z M652.8,614.4L386,347.6l470.9-204
	L652.8,614.4z"/>
</svg>
