<?xml version="1.0" encoding="utf-8"?>
<!-- Generator: Adobe Illustrator 24.1.0, SVG Export Plug-In . SVG Version: 6.00 Build 0)  -->
<svg version="1.1" id="Layer_1" xmlns="http://www.w3.org/2000/svg" xmlns:xlink="http://www.w3.org/1999/xlink" x="0px" y="0px"
	 viewBox="0 0 1000 1000" style="enable-background:new 0 0 1000 1000;" xml:space="preserve">
<style type="text/css">
	.st0{fill:#97B7FF;}
	.st1{fill:#5A5AFF;}
</style>
<g>
	<g>
		<polygon class="st0" points="738.6,261.4 421.8,421.8 578.2,578.2 		"/>
	</g>
	<path class="st1" d="M744,256c-2.3-2.3-5.9-2.9-8.8-1.4L418.4,415c-1.4,0.7-2.6,1.9-3.3,3.3L254.6,735.2c-1.5,2.9-0.9,6.5,1.4,8.8
		c1.5,1.5,3.4,2.2,5.4,2.2c1.2,0,2.3-0.3,3.4-0.8L581.6,585c1.4-0.7,2.6-1.9,3.3-3.3l160.4-316.8C746.9,261.9,746.3,258.3,744,256z
		 M423.9,434.6l141.5,141.5L278.6,721.4L423.9,434.6z M576.1,565.4L434.6,423.9l286.8-145.2L576.1,565.4z"/>
</g>
</svg>
