<svg xmlns="http://www.w3.org/2000/svg" width="1000" height="1000" viewBox="0 0 1000 1000"><path d="M450 100.001H199.773L200 899.999l599.893.001s.111-291.415.109-450H500c-27.614 0-50-22.387-50-50V100zM550 350h249.999L550 100.001V350zM199.774 0h365.365c13.795 0 32.951 7.975 42.527 17.555L882.45 292.443c9.691 9.695 17.549 28.956 17.549 42.521v565.073c0 55.208-44.726 99.963-100.106 99.963H200.107c-55.287 0-100.106-44.911-100.106-100.001V100.001C100.001 44.772 144.795 0 199.774 0zm50.227 749.999c0-27.614 22.455-50 49.77-50h400.46c27.487 0 49.77 22.193 49.77 50 0 27.614-22.455 50-49.77 50h-400.46c-27.487 0-49.77-22.193-49.77-50zm0-149.999c0-27.614 22.549-50 50.214-50h199.573c27.732 0 50.214 22.193 50.214 50 0 27.614-22.549 50-50.214 50H300.215c-27.732 0-50.214-22.193-50.214-50z"/></svg>