<svg width="1000" height="1000" fill="none" xmlns="http://www.w3.org/2000/svg"><path d="M500 416.667c-45.833 0-83.333 37.5-83.333 83.333s37.5 83.333 83.333 83.333c45.834 0 83.334-37.5 83.334-83.333s-37.5-83.333-83.334-83.333zm0-250c-45.833 0-83.333 37.5-83.333 83.333s37.5 83.333 83.333 83.333c45.834 0 83.334-37.5 83.334-83.333s-37.5-83.333-83.334-83.333zm0 500c-45.833 0-83.333 37.5-83.333 83.333s37.5 83.333 83.333 83.333c45.834 0 83.334-37.5 83.334-83.333s-37.5-83.333-83.334-83.333z" fill="#000"/></svg>