<svg xmlns="http://www.w3.org/2000/svg" width="1000" height="1000" viewBox="0 0 1000 1000"><path d="M394.277 572.883l55.915 55.937V50.037c0-27.634 22.193-50.035 50-50.035 27.614 0 50 22.395 50 50.035V628.82l55.915-55.937c19.609-19.617 51.199-19.821 70.861-.151 19.525 19.534 19.411 51.32-.151 70.889L535.698 784.795c-9.889 9.893-22.674 14.747-35.469 14.738-12.813.088-25.587-4.779-35.392-14.589L323.566 643.62c-19.609-19.617-19.813-51.219-.151-70.889 19.525-19.534 51.3-19.418 70.861.151zM800 899.972V749.906c0-27.625 22.387-50.02 50-50.02s50 22.395 50 50.02v150.066c0 55.158-44.796 100.029-99.781 100.029H199.781c-55.191 0-99.781-44.673-99.781-100.029V749.906c0-27.625 22.387-50.02 50-50.02s50 22.395 50 50.02l-.219 150.058 600.22.01z"/></svg>