<svg width="1000" height="1000" viewBox="0 0 1000 1000" fill="none" xmlns="http://www.w3.org/2000/svg">
<path d="M606.646 333.335C606.646 370 581.828 400 551.498 400H55.1499C24.8173 400 0 370 0 333.335C0 296.666 24.8173 266.666 55.1499 266.666H551.498C581.828 266.666 606.646 296.666 606.646 333.335ZM0 66.6665C0 103.334 24.8173 133.334 55.1499 133.334H551.498C581.828 133.334 606.646 103.334 606.646 66.6665C606.646 30 581.828 0 551.498 0H55.1499C24.8173 0 0 30 0 66.6665ZM386.049 600C386.049 563.335 361.232 533.335 330.897 533.335H55.1499C24.8173 533.335 0 563.335 0 600C0 636.665 24.8173 666.665 55.1499 666.665H330.897C361.232 666.665 386.049 636.665 386.049 600ZM827.797 458L866.95 410.665C888.458 384.665 923.203 384.665 944.711 410.665L983.869 458C1005.38 484 1005.38 526 983.869 552L944.711 599.335L827.797 458ZM788.639 505.335L504.068 849.335C499.104 855.335 496.345 863.335 496.345 872.665V966.665C496.345 985.335 508.481 1000 523.921 1000H601.682C608.85 1000 616.023 996.665 620.986 990L905.558 646L788.639 505.335Z" fill="black"/>
</svg>
