<svg xmlns="http://www.w3.org/2000/svg" width="18" height="18" viewBox="0 0 18 18">
    <g fill="#FFF" fill-rule="nonzero" stroke="#FFF" stroke-width=".5">
        <path d="M1.333 16.992a.332.332 0 0 1-.31-.457l1.334-3.333a.33.33 0 0 1 .074-.112L14.024 1.502c.657-.657 1.803-.657 2.46 0 .336.335.517.774.516 1.24a1.724 1.724 0 0 1-.516 1.23C7.002 13.344 5.17 15.23 4.958 15.487a.336.336 0 0 1-.168.149l-3.333 1.333a.33.33 0 0 1-.124.024zm1.618-3.48L1.93 16.06 4.5 15.033c.518-.622 2.66-2.782 11.516-11.535a1.066 1.066 0 0 0 .003-1.52 1.096 1.096 0 0 0-1.523-.005L2.951 13.513z"/>
        <path d="M5 15.325a.335.335 0 0 1-.236-.097l-2-2a.334.334 0 0 1 .471-.471l2 2a.334.334 0 0 1-.235.568zM14.333 5.992a.335.335 0 0 1-.236-.097l-2-2a.334.334 0 0 1 .472-.472l2 2a.334.334 0 0 1-.236.569z"/>
    </g>
</svg>
