<svg width="1000" height="1000" viewBox="0 0 1000 1000" fill="none" xmlns="http://www.w3.org/2000/svg"><path d="M606.646 351.669C606.646 384.3 581.828 411 551.498 411H55.1499C24.8173 411 0 384.3 0 351.669C0 319.033 24.8173 292.333 55.1499 292.333H551.498C581.828 292.333 606.646 319.033 606.646 351.669ZM0 114.333C0 146.967 24.8173 173.667 55.1499 173.667H551.498C581.828 173.667 606.646 146.967 606.646 114.333C606.646 81.7 581.828 55 551.498 55H55.1499C24.8173 55 0 81.7 0 114.333ZM386.049 589C386.049 556.368 361.232 529.669 330.897 529.669H55.1499C24.8173 529.669 0 556.368 0 589C0 621.631 24.8173 648.331 55.1499 648.331H330.897C361.232 648.331 386.049 621.631 386.049 589ZM827.797 462.62L866.95 420.491C888.458 397.351 923.203 397.351 944.711 420.491L983.869 462.62C1005.38 485.76 1005.38 523.14 983.869 546.28L944.711 588.408L827.797 462.62ZM788.639 504.749L504.068 810.909C499.104 816.249 496.345 823.368 496.345 831.671V915.331C496.345 931.948 508.481 945 523.921 945H601.682C608.85 945 616.023 942.031 620.986 936.1L905.558 629.94L788.639 504.749Z" fill="black"/></svg>
