<svg width="1000" height="1000" fill="none" xmlns="http://www.w3.org/2000/svg"><g clip-path="url(#clip0)" fill="#000"><path d="M186.39 865.843c2.861 0 5.927-.204 9.197-.817l217.044-40.057 572.042-572.246c19.007-19.416 19.007-50.276 0-69.283L819.744 18.51C810.138 8.906 797.671 4 785 4c-12.467 0-24.933 4.905-34.743 14.51L178.011 590.757l-40.058 217.044c-5.722 30.656 18.598 58.042 48.437 58.042zM785 96.377l121.807 121.807-86.859 86.858-121.807-121.806L785 96.376zM251.789 629.588l389.945-390.15 121.807 121.807-389.945 390.149-149.193 27.386 27.386-149.192zM1000 916.732H0v79.502h1000v-79.502z"/></g><defs><clipPath id="clip0"><path fill="#fff" d="M0 0h1000v1000H0z"/></clipPath></defs></svg>