<?xml version="1.0" encoding="utf-8"?>
<!-- Generator: Adobe Illustrator 24.1.0, SVG Export Plug-In . SVG Version: 6.00 Build 0)  -->
<svg version="1.1" id="Layer_1" xmlns="http://www.w3.org/2000/svg" xmlns:xlink="http://www.w3.org/1999/xlink" x="0px" y="0px"
	 viewBox="0 0 1000 1000" style="enable-background:new 0 0 1000 1000;" xml:space="preserve">
<g>
	<g>
		<path d="M612.2,288.8V304h75v75h15.2v-82.7c0-4.1-3.3-7.5-7.5-7.5H612.2z"/>
		<path d="M295.2,621H280v82.7c0,4.1,3.3,7.5,7.5,7.5h82.7V696h-75V621z"/>
		<path d="M687.2,685.2L550.9,549l-10.7,10.7L676.4,696h-64.2v15.2h82.7c4.1,0,7.5-3.3,7.5-7.5V621h-15.2V685.2z"/>
		<path d="M295.2,314.8L431.4,451l10.7-10.7L305.9,304h64.2v-15.2h-82.7c-4.1,0-7.5,3.3-7.5,7.5V379h15.2v-64.2H295.2z"/>
		<rect x="687.2" y="415.4" width="15.2" height="169.2"/>
		<rect x="280" y="415.4" width="15.2" height="169.2"/>
		<rect x="406.6" y="696" width="169.2" height="15.2"/>
		<rect x="406.6" y="288.8" width="169.2" height="15.2"/>
	</g>
</g>
</svg>
