<?xml version="1.0" encoding="utf-8"?>
<!-- Generator: Adobe Illustrator 24.0.1, SVG Export Plug-In . SVG Version: 6.00 Build 0)  -->
<svg version="1.1" id="Layer_1" xmlns="http://www.w3.org/2000/svg" xmlns:xlink="http://www.w3.org/1999/xlink" x="0px" y="0px"
	 viewBox="0 0 1000 1000" style="enable-background:new 0 0 1000 1000;" xml:space="preserve">
<g>
	<path d="M922.2,49.3H751.2v55h143.6v143.6h55V76.8C949.7,61.6,937.4,49.3,922.2,49.3z"/>
	<path d="M106.3,749.2h-55v171.1c0,15.2,12.3,27.5,27.5,27.5h171.1v-55H106.3V749.2z"/>
	<path d="M894.7,853.9L632.6,591.7l-38.9,38.9l262.2,262.2H751.2v55h171.1c15.2,0,27.5-12.3,27.5-27.5V749.2h-55V853.9z"/>
	<path d="M106.3,143.1l262.2,262.2l38.9-38.9L145.1,104.3h104.7v-55H78.8c-15.2,0-27.5,12.3-27.5,27.5v171.1h55V143.1z"/>
	<rect x="894.7" y="323.3" width="55" height="350.4"/>
	<rect x="51.3" y="323.3" width="55" height="350.4"/>
	<rect x="325.3" y="892.7" width="350.4" height="55"/>
	<rect x="325.3" y="49.3" width="350.4" height="55"/>
</g>
</svg>
