<svg xmlns="http://www.w3.org/2000/svg" viewBox="0 0 1000 1000"><path d="M922.2 49.3h-171v55h143.6v143.6h55V76.8c-.1-15.2-12.4-27.5-27.6-27.5zM106.3 749.2h-55v171.1c0 15.2 12.3 27.5 27.5 27.5h171.1v-55H106.3V749.2zM894.7 853.9L632.6 591.7l-38.9 38.9 262.2 262.2H751.2v55h171.1c15.2 0 27.5-12.3 27.5-27.5V749.2h-55v104.7zM106.3 143.1l262.2 262.2 38.9-38.9-262.3-262.1h104.7v-55h-171c-15.2 0-27.5 12.3-27.5 27.5v171.1h55V143.1zM894.7 323.3h55v350.4h-55zM51.3 323.3h55v350.4h-55zM325.3 892.7h350.4v55H325.3zM325.3 49.3h350.4v55H325.3z"/></svg>