<?xml version="1.0" encoding="utf-8"?>
<!-- Generator: Adobe Illustrator 24.0.1, SVG Export Plug-In . SVG Version: 6.00 Build 0)  -->
<svg version="1.1" id="Layer_1" xmlns="http://www.w3.org/2000/svg" xmlns:xlink="http://www.w3.org/1999/xlink" x="0px" y="0px"
	 viewBox="0 0 1000 1000" style="enable-background:new 0 0 1000 1000;" xml:space="preserve">
<g>
	<g>
		<path d="M499.5,782.5c-91.9,0-182.7-23.5-262.6-68C159.6,671.3,93.3,609.1,45.3,534.6c-13.7-21.3-13.7-48.9,0-70.2
			c48-74.5,114.3-136.7,191.6-179.8c79.8-44.5,170.6-68,262.6-68s182.7,23.5,262.6,68c77.3,43.1,143.6,105.3,191.6,179.8v0
			c13.7,21.3,13.7,48.9,0,70.2c-48,74.5-114.3,136.7-191.6,179.8C682.2,759,591.4,782.5,499.5,782.5z M499.5,271.5
			c-82.6,0-164.1,21.1-235.8,61.1c-69.5,38.7-129,94.6-172.2,161.6c-2.1,3.2-2.1,7.4,0,10.7c43.1,67,102.7,122.8,172.2,161.6
			c71.7,40,153.2,61.1,235.8,61.1c82.6,0,164.1-21.1,235.8-61.1c69.5-38.7,129-94.6,172.2-161.6c2.1-3.2,2.1-7.4,0-10.7l0,0
			c-43.1-67-102.7-122.8-172.2-161.6C663.6,292.6,582.1,271.5,499.5,271.5z"/>
	</g>
	<g>
		<path d="M499.5,668.6c-93.2,0-169.1-75.9-169.1-169.1s75.9-169.1,169.1-169.1s169.1,75.9,169.1,169.1S592.7,668.6,499.5,668.6z
			 M499.5,385.4c-62.9,0-114.1,51.2-114.1,114.1s51.2,114.1,114.1,114.1s114.1-51.2,114.1-114.1S562.4,385.4,499.5,385.4z"/>
	</g>
</g>
</svg>
