<svg width="1000" height="1000" fill="none" xmlns="http://www.w3.org/2000/svg"><path fill-rule="evenodd" clip-rule="evenodd" d="M375 500c80.417 0 145.833-65.417 145.833-145.833 0-80.417-65.416-145.834-145.833-145.834S229.167 273.75 229.167 354.167C229.167 434.583 294.583 500 375 500zm0-208.333c34.583 0 62.5 27.916 62.5 62.5 0 34.583-27.917 62.5-62.5 62.5s-62.5-27.917-62.5-62.5c0-34.584 27.917-62.5 62.5-62.5zm2.083 416.666H198.75C240 687.5 311.25 666.667 375 666.667c4.583 0 9.583.416 14.167.416 14.166-30.416 38.75-55.416 68.333-75.416-30.417-5.417-59.167-8.334-82.5-8.334-97.5 0-291.667 48.75-291.667 145.834v62.5H375v-62.5c0-7.084.833-14.167 2.083-20.834zM687.5 604.167c-76.667 0-229.167 42.083-229.167 125v62.5h458.334v-62.5c0-82.917-152.5-125-229.167-125zm50.417-75.834c31.666-17.916 53.75-51.666 53.75-90.833 0-57.5-46.667-104.167-104.167-104.167S583.333 380 583.333 437.5c0 39.167 22.084 72.917 53.75 90.833 15 8.334 32.084 13.334 50.417 13.334s35.417-5 50.417-13.334z" fill="#000"/></svg>