<svg xmlns="http://www.w3.org/2000/svg" viewBox="0 0 1000 1000"><path fill="none" d="M0 0h1000v1000H0z"/><path d="M350.15 500c96.4 0 174.82-78.42 174.82-174.82 0-96.4-78.42-174.83-174.82-174.83s-174.82 78.42-174.82 174.83c0 96.4 78.42 174.82 174.82 174.82zm0-249.75c41.46 0 74.92 33.47 74.92 74.92 0 41.46-33.47 74.92-74.92 74.92s-74.92-33.47-74.92-74.92c-.01-41.45 33.46-74.92 74.92-74.92zm2.5 499.5H138.86c49.45-24.97 134.86-49.95 211.29-49.95 5.49 0 11.49.5 16.98.5 16.98-36.46 46.45-66.43 81.92-90.41-36.46-6.49-70.93-9.99-98.9-9.99C233.27 599.9.5 658.34.5 774.73v74.92h349.65v-74.92c0-8.5 1-16.99 2.5-24.98zm372.12-124.87c-91.91 0-274.73 50.45-274.73 149.85v74.92H999.5v-74.92c0-99.41-182.82-149.85-274.73-149.85zm60.44-90.91c37.96-21.48 64.44-61.94 64.44-108.89 0-68.93-55.94-124.88-124.88-124.88S599.9 356.14 599.9 425.08c0 46.95 26.47 87.41 64.44 108.89 17.98 9.99 38.46 15.98 60.44 15.98s42.45-5.99 60.43-15.98z" fill-rule="evenodd" clip-rule="evenodd"/></svg>