<?xml version="1.0" encoding="utf-8"?>
<!-- Generator: Adobe Illustrator 24.1.0, SVG Export Plug-In . SVG Version: 6.00 Build 0)  -->
<svg version="1.1" id="Layer_1" xmlns="http://www.w3.org/2000/svg" xmlns:xlink="http://www.w3.org/1999/xlink" x="0px" y="0px"
	 viewBox="0 0 1000 1000" style="enable-background:new 0 0 1000 1000;" xml:space="preserve">
<g>
	<path d="M716.4,779.1V603.6h98.4c2.4,0,4.6-1.1,6.1-3c1.4-1.9,1.9-4.4,1.3-6.6l-106-377.7c-0.9-3.3-3.9-5.5-7.2-5.5c0,0,0,0-0.1,0
		c-3.4,0-6.3,2.2-7.3,5.4L588.4,593.9c-0.7,2.3-0.3,4.8,1.2,6.7c1.4,1.9,3.7,3.1,6.1,3.1h105.6v175.5H524.5v-59.4h18.3v-15.2h-49.5
		V685h15.3v-15.2h-15.3v-19.6h15.3V635h-15.3v-18.7h15.3v-15.2H209.1v15.2H225V635h-15.9v15.2H225v19.6h-15.9V685H225v19.6h-49.5
		v15.2h18.3v59.4h-27.3v15.2H846v-15.2H716.4V779.1z M605.9,588.5l102.7-342.8l96.2,342.8h-88.3V423.4h-15.2v84.9l-24.7-39
		l-12.8,8.1l37.5,59.4v51.7H605.9z M240.2,616.4h237.9V635H240.2V616.4z M240.2,650.2h237.9v19.6H240.2V650.2z M240.2,685h237.9
		v19.6H240.2V685z M209,719.7h23.6h253.1h23.6v59.4H209V719.7z"/>
</g>
</svg>
