<?xml version="1.0" encoding="utf-8"?>
<!-- Generator: Adobe Illustrator 24.1.0, SVG Export Plug-In . SVG Version: 6.00 Build 0)  -->
<svg version="1.1" id="Layer_1" xmlns="http://www.w3.org/2000/svg" xmlns:xlink="http://www.w3.org/1999/xlink" x="0px" y="0px"
	 viewBox="0 0 1000 1000" style="enable-background:new 0 0 1000 1000;" xml:space="preserve">
<path d="M715.9,629.5c53.1-6.1,102.3-29.7,140.7-68.1c44.9-44.9,69.7-104.7,69.7-168.2S901.5,269.9,856.6,225
	c-44.9-44.9-104.7-69.7-168.2-69.7c-63.5,0-123.3,24.7-168.2,69.7c-44.9,44.9-69.7,104.7-69.7,168.2s24.7,123.3,69.7,168.2
	c38.4,38.4,87.6,62,140.7,68.1v258.1H528v-44.6h36.1v-55h-63.6h-11.3v-18.2H514v-55h-24.8v-15.5H514v-55h-24.8v-24.8h-55v24.8H262
	v-24.8h-55v24.8h-21.3v55H207v15.5h-21.3v55H207v18.2h-11.3h-63.6v55h36.1v44.6H91v55h824.9v-55h-200V629.5z M505.5,393.2
	c0-100.8,82-182.9,182.9-182.9c100.8,0,182.9,82,182.9,182.9c0,91.5-67.5,167.5-155.4,180.8V351.1h-55v114.3l-38.1-49.1L579.3,450
	l81.6,105.2V574C573,560.7,505.5,484.7,505.5,393.2z M262,699.2h172.2v15.5H262V699.2z M262,769.7h172.2v18.2H262V769.7z
	 M223.2,842.9H473v44.6H223.2V842.9z"/>
</svg>
