<svg width="1000" height="1000" viewBox="0 0 1000 1000" fill="none" xmlns="http://www.w3.org/2000/svg">
<path fill-rule="evenodd" clip-rule="evenodd" d="M833.332 125H166.665C120.832 125 83.332 162.5 83.332 208.333V791.667C83.332 837.5 120.832 875 166.665 875H833.332C879.165 875 916.665 837.5 916.665 791.667V208.333C916.665 162.5 879.165 125 833.332 125ZM416.665 708.333H208.332V625H416.665V708.333ZM416.665 541.667H208.332V458.333H416.665V541.667ZM416.665 375H208.332V291.667H416.665V375ZM617.499 625L499.999 506.667L558.749 447.917L617.499 507.083L749.582 375L808.749 434.167L617.499 625Z" fill="black"/>
</svg>
