<svg width="1000" height="1000" viewBox="0 0 1000 1000" fill="none" xmlns="http://www.w3.org/2000/svg">
<path fill-rule="evenodd" clip-rule="evenodd" d="M899.681 50.3594H100.32C45.3639 50.3594 0.399902 95.3234 0.399902 150.279V849.72C0.399902 904.676 45.3639 949.64 100.32 949.64H899.681C954.637 949.64 999.601 904.676 999.601 849.72V150.279C999.601 95.3234 954.637 50.3594 899.681 50.3594ZM400.08 749.8H150.28V649.88H400.08V749.8ZM400.08 549.96H150.28V450.04H400.08V549.96ZM400.08 350.12H150.28V250.2H400.08V350.12ZM640.888 649.88L500 507.993L570.444 437.55L640.888 508.493L799.261 350.12L870.204 421.063L640.888 649.88Z" fill="black"/>
</svg>
