<svg width="1000" height="1000" viewBox="0 0 1000 1000" xmlns="http://www.w3.org/2000/svg"><path d="M111 33.679C111 15.079 126.828 0 146.354 0h449.954c9.47 0 18.544 3.62 25.188 10.047L878.613 258.75c6.514 6.301 10.165 14.79 10.165 23.632V966.32c0 18.6-15.829 33.679-35.354 33.679h-707.07C126.828 1000 111 984.922 111 966.321V33.68zm70.707 33.679v865.284h636.364V296.183L581.505 67.358H181.707zm449.954 181.347h221.763c19.525 0 35.354 15.078 35.354 33.678 0 18.6-15.829 33.68-35.354 33.68H596.308c-19.526 0-35.354-15.08-35.354-33.68V33.68c0-18.6 15.828-33.679 35.354-33.679 19.525 0 35.353 15.078 35.353 33.679v215.026z"/></svg>