<svg viewBox="0 0 1000 1000" fill="none" xmlns="http://www.w3.org/2000/svg">
<path d="M956.92 22.0001H43.0699C26.9527 21.9707 12.176 30.3528 4.80894 43.6994C-2.6608 57.2265 -1.34959 73.5153 8.19255 85.8691L342.989 524.86C343.1 525.011 343.222 525.154 343.333 525.305C355.498 540.592 362.073 559.103 362.114 578.136V936.041C362.042 946.645 366.514 956.823 374.543 964.343C382.571 971.863 393.486 976.082 404.868 976.082C410.661 976.082 416.382 975.004 421.728 972.942L609.858 906.168C626.717 901.382 637.906 886.577 637.906 868.747V578.136C637.936 559.113 644.521 540.592 656.677 525.305C656.788 525.154 656.91 525.011 657.021 524.86L991.807 85.85C1001.35 73.5065 1002.66 57.2265 995.191 43.6994C987.824 30.3528 973.047 21.9707 956.92 22.0001ZM614.726 496.614C596.026 520.235 585.914 548.792 585.853 578.136V862.863L414.147 923.8V578.136C414.086 548.792 403.974 520.235 385.264 496.614L60.2343 70.4324H939.764L614.726 496.614Z" fill="black"/>
</svg>
