<svg width="1000" height="1000" viewBox="0 0 1000 1000" fill="none" xmlns="http://www.w3.org/2000/svg">
<path d="M843.474 173.471H220.395C209.406 173.451 199.331 179.166 194.308 188.266C189.215 197.489 190.109 208.595 196.615 217.018L424.885 516.33C424.961 516.433 425.044 516.53 425.12 516.633C433.414 527.056 437.897 539.677 437.925 552.654V796.68C437.876 803.91 440.925 810.85 446.399 815.977C451.873 821.104 459.315 823.981 467.075 823.981C471.025 823.981 474.926 823.246 478.571 821.84L606.841 776.312C618.336 773.049 625.965 762.955 625.965 750.798V552.654C625.985 539.684 630.475 527.056 638.763 516.633C638.839 516.53 638.922 516.433 638.998 516.33L867.261 217.005C873.767 208.589 874.661 197.489 869.568 188.266C864.545 179.166 854.47 173.451 843.474 173.471V173.471ZM610.16 497.071C597.41 513.176 590.516 532.647 590.474 552.654V746.786L473.402 788.334V552.654C473.36 532.647 466.466 513.176 453.709 497.071L232.098 206.493H831.777L610.16 497.071Z" fill="black"/>
<path fill-rule="evenodd" clip-rule="evenodd" d="M425.12 516.634C425.044 516.531 424.96 516.434 424.884 516.331L196.615 217.019C190.108 208.596 189.214 197.49 194.307 188.267C199.331 179.167 209.406 173.453 220.395 173.472H843.473C854.47 173.453 864.544 179.167 869.568 188.267C874.661 197.49 873.767 208.59 867.261 217.007L638.998 516.331C638.96 516.383 638.92 516.433 638.88 516.483C638.84 516.533 638.8 516.583 638.762 516.634C630.475 527.057 625.985 539.685 625.964 552.655V750.799C625.964 762.956 618.336 773.05 606.84 776.313L478.57 821.841C474.926 823.247 471.025 823.982 467.075 823.982C459.315 823.982 451.873 821.105 446.399 815.978C440.925 810.851 437.876 803.911 437.925 796.681V552.655C437.897 539.678 433.414 527.057 425.12 516.634ZM437.625 552.656C437.597 539.749 433.138 527.192 424.885 516.821L424.878 516.813C424.844 516.766 424.808 516.72 424.767 516.67C424.74 516.635 424.71 516.597 424.68 516.558C424.668 516.543 424.656 516.527 424.644 516.511C424.644 516.51 424.643 516.51 424.643 516.509L196.377 217.203C196.377 217.203 196.377 217.202 196.377 217.202C189.799 208.686 188.893 197.451 194.045 188.122C199.125 178.92 209.304 173.152 220.395 173.172H843.473C854.571 173.152 864.75 178.919 869.831 188.122C874.982 197.451 874.076 208.68 867.498 217.19L639.239 516.509C639.238 516.51 639.238 516.511 639.237 516.512C639.209 516.55 639.181 516.586 639.154 516.621C639.14 516.637 639.127 516.654 639.115 516.67C639.093 516.697 639.072 516.723 639.052 516.749C639.035 516.77 639.019 516.791 639.004 516.812L638.997 516.821C630.751 527.192 626.285 539.755 626.264 552.656V750.799C626.264 763.086 618.552 773.296 606.932 776.599C606.929 776.6 606.925 776.601 606.922 776.602L478.678 822.121C478.677 822.121 478.676 822.121 478.675 822.122C474.997 823.54 471.061 824.282 467.075 824.282C459.241 824.282 451.726 821.379 446.194 816.197C440.662 811.015 437.576 803.997 437.625 796.681M437.625 552.656L437.625 796.679ZM590.474 552.655C590.516 532.648 597.41 513.177 610.159 497.073L831.777 206.494H232.098L453.709 497.073C466.465 513.177 473.36 532.648 473.401 552.655V788.335L590.474 746.787V552.655ZM590.174 746.575V552.655C590.216 532.58 597.133 513.044 609.922 496.889C609.923 496.888 609.923 496.887 609.924 496.886L831.171 206.794H232.704L453.944 496.886C453.945 496.887 453.945 496.888 453.946 496.888C466.742 513.044 473.66 532.579 473.701 552.654V787.91L590.174 746.575Z" fill="black"/>
</svg>
