<svg width="1000" height="1000" fill="none" xmlns="http://www.w3.org/2000/svg"><path d="M797.833 123.792c-14.958-24.959-42.333-40.459-71.417-40.459H273.583c-29.083 0-56.458 15.5-71.417 40.459L89.291 311.875a41.444 41.444 0 0 0 -5.958 21.458c0 41.917 16.083 79.75 41.667 109.084v349.25C125 837.625 162.375 875 208.333 875H791.666C837.625 875 875 837.625 875 791.667v-349.25c25.583-29.334 41.666-67.167 41.666-109.084a41.44 41.44 0 0 0 -5.958-21.458L797.833 123.792zm34.833 220c-5.166 41-40.25 72.875-82.666 72.875-45.959 0-83.334-37.375-83.334-83.334 0-2.833-1.041-5.333-1.625-8l.834-.166-31.709-158.5h92.25l106.25 177.125zM450.791 166.667h98.375l33.875 169.375C581.583 380.708 545 416.667 500 416.667s-81.584-35.959-83.042-80.625l33.833-169.375zm-177.208 0h92.25l-31.667 158.5.834.166c-.625 2.667-1.667 5.167-1.667 8 0 45.959-37.375 83.334-83.333 83.334-42.417 0-77.5-31.875-82.667-72.875l106.25-177.125zm143.083 625v-125h166.667v125H416.666zm250 0v-125c0-45.959-37.375-83.334-83.333-83.334H416.666c-45.958 0-83.333 37.375-83.333 83.334v125h-125V494.083C221.708 497.542 235.5 500 250 500c49.708 0 94.458-21.875 125-56.542C405.541 478.125 450.291 500 500 500c49.708 0 94.458-21.875 125-56.542C655.541 478.125 700.291 500 750 500c14.5 0 28.291-2.458 41.666-5.917v297.584h-125z" fill="#000"/></svg>