<svg xmlns="http://www.w3.org/2000/svg" viewBox="0 0 1000 1000"><path fill="none" d="M0 0h1000v1000H0z"/><path d="M857.04 73.98c-17.93-29.92-50.75-48.5-85.61-48.5H228.57c-34.86 0-67.68 18.58-85.61 48.5L7.64 299.45C2.94 307.24.5 316.08.5 325.17c0 50.25 19.28 95.6 49.95 130.77v418.68c0 55.09 44.81 99.9 99.9 99.9h699.3c55.1 0 99.9-44.81 99.9-99.9V455.94c30.67-35.17 49.95-80.52 49.95-130.77 0-9.09-2.45-17.93-7.14-25.72L857.04 73.98zm41.76 263.73c-6.19 49.15-48.25 87.36-99.1 87.36-55.1 0-99.9-44.81-99.9-99.9 0-3.4-1.25-6.39-1.95-9.59l1-.2-38.01-190.01h110.59L898.8 337.71zM441.01 125.38h117.93l40.61 203.05c-1.75 53.55-45.6 96.65-99.55 96.65s-97.8-43.11-99.55-96.65l40.56-203.05zm-212.44 0h110.59L301.2 315.39l1 .2c-.75 3.2-2 6.19-2 9.59 0 55.1-44.81 99.9-99.9 99.9-50.85 0-92.91-38.21-99.1-87.36l127.37-212.34zM400.1 874.63V724.78h199.8v149.85H400.1zm299.7 0V724.78c0-55.1-44.81-99.9-99.9-99.9H400.1c-55.09 0-99.9 44.81-99.9 99.9v149.85H150.35V517.88c16.03 4.15 32.57 7.09 49.95 7.09 59.59 0 113.24-26.22 149.85-67.78 36.61 41.56 90.26 67.78 149.85 67.78 59.59 0 113.24-26.22 149.85-67.78 36.61 41.56 90.26 67.78 149.85 67.78 17.38 0 33.92-2.95 49.95-7.09v356.74H699.8z"/></svg>