<svg viewBox="0 0 1000 1500" fill="none" xmlns="http://www.w3.org/2000/svg">
<path d="M839.935 763.716C863.841 711.336 834.418 646.445 787.219 646.445H672.591L812.35 824.697L839.935 763.716ZM849.743 134.362C869.971 81.981 840.547 21 794.575 21H342.196C308.481 21 280.897 56.1813 280.897 99.181V146.871L656.655 626.119L849.743 134.362ZM982.146 1262.51L104.36 142.962C80.4535 112.471 41.836 112.471 17.9297 142.962C-5.97656 173.452 -5.97656 222.706 17.9297 253.197L280.897 589.374V802.808C280.897 845.806 308.481 880.987 342.196 880.987H464.791V1439.98C464.791 1479.85 505.861 1493.92 521.799 1459.53L684.239 1103.8L895.102 1372.75C919.009 1403.24 957.626 1403.24 981.533 1372.75C1006.05 1342.25 1006.05 1293 982.146 1262.51Z" fill="black"/>
</svg>
