<svg width="1000" height="1000" viewBox="0 0 1000 1000" fill="none" xmlns="http://www.w3.org/2000/svg">
<path d="M900 200H500L400 100H100C45 100 0.5 145 0.5 200L0 800C0 855 45 900 100 900H900C955 900 1000 855 1000 800V300C1000 245 955 200 900 200ZM800 500H700V600H800V700H700V800H600V700H700V600H600V500H700V400H600V300H700V400H800V500Z" fill="black"/>
<path d="M900 200H500L400 100H100C45 100 0.5 145 0.5 200L0 800C0 855 45 900 100 900H900C955 900 1000 855 1000 800V300C1000 245 955 200 900 200ZM800 500H700V600H800V700H700V800H600V700H700V600H600V500H700V400H600V300H700V400H800V500Z" fill="black"/>
</svg>
