<svg width="999" height="1000" viewBox="0 0 999 1000" fill="none" xmlns="http://www.w3.org/2000/svg">
<path fill-rule="evenodd" clip-rule="evenodd" d="M200 0H800C910.457 0 1000 89.5431 1000 200V800C1000 910.457 910.457 1000 800 1000H200C89.543 1000 0 910.457 0 800V200C0 89.5431 89.543 0 200 0ZM361.589 796.159C397.052 812.954 438.038 821.351 484.547 821.351C529.891 821.351 570.299 812.05 605.762 793.462C641.225 774.868 669.127 749.08 689.475 716.093C709.823 683.105 720 644.116 720 599.138V187.997H589.195V217.375C579.463 208.926 568.416 201.832 556.054 196.094C533.384 184.698 507.51 179 478.443 179C439.492 179 404.9 188.596 374.669 207.789C344.439 226.382 320.603 252.172 303.162 285.159C285.721 317.546 277 354.132 277 394.916C277 435.1 285.721 471.686 303.162 504.673C320.603 537.66 344.439 563.749 374.669 582.939C404.9 602.136 439.492 611.731 478.443 611.731C506.928 611.731 532.802 606.03 556.054 594.635C567.322 589.115 577.496 582.61 586.579 575.119V602.732C586.579 633.323 576.984 657.017 557.8 673.805C539.192 690.599 513.324 698.997 480.187 698.997C453.445 698.997 430.481 694.199 411.295 684.604C392.692 675.009 375.832 660.911 360.717 642.316L278.744 726.885C299.092 756.875 326.707 779.966 361.589 796.159ZM551.698 476.784C538.322 485.182 522.337 489.377 503.729 489.377C485.128 489.377 468.85 485.182 454.898 476.784C441.526 468.387 431.062 456.992 423.504 442.597C415.946 427.603 412.168 411.71 412.168 394.916C412.168 376.923 415.946 360.729 423.504 346.335C431.062 331.941 441.817 320.545 455.77 312.148C469.723 303.752 485.71 299.554 503.729 299.554C522.337 299.554 538.322 303.752 551.698 312.148C565.649 320.545 576.114 331.941 583.086 346.335C590.647 360.729 594.427 376.923 594.427 394.916C594.427 412.909 590.647 429.103 583.086 443.497C576.114 457.292 565.649 468.387 551.698 476.784Z" fill="black"/>
</svg>
