<svg width="20" height="21" viewBox="0 0 20 21" fill="none" xmlns="http://www.w3.org/2000/svg">
<rect x="2" y="2.26672" width="16" height="16" rx="3.2" fill="url(#paint0_linear_21609_14809)"/>
<path d="M9.90162 15.0667C9.20654 15.0667 8.59399 14.9412 8.06399 14.6902C7.54268 14.4482 7.12997 14.1031 6.82587 13.6549L8.05096 12.391C8.27686 12.6689 8.52883 12.8796 8.80686 13.023C9.09359 13.1664 9.43679 13.2381 9.83646 13.2381C10.3317 13.2381 10.7183 13.1126 10.9964 12.8616C11.2831 12.6107 11.4265 12.2566 11.4265 11.7994V10.1322L11.7653 8.70701L11.4656 7.2818V5.60113H13.4205V11.7457C13.4205 12.4179 13.2684 13.0006 12.9643 13.4936C12.6602 13.9866 12.2432 14.372 11.7132 14.6499C11.1832 14.9277 10.5793 15.0667 9.90162 15.0667ZM9.81039 11.9339C9.22826 11.9339 8.71129 11.7905 8.25948 11.5036C7.80768 11.2168 7.45145 10.8269 7.19079 10.3339C6.93013 9.8409 6.7998 9.29413 6.7998 8.69357C6.7998 8.08404 6.93013 7.53726 7.19079 7.05323C7.45145 6.56023 7.80768 6.1748 8.25948 5.89693C8.71129 5.61009 9.22826 5.46667 9.81039 5.46667C10.2448 5.46667 10.6315 5.55183 10.9703 5.72214C11.3179 5.88348 11.5959 6.11653 11.8044 6.4213C12.0216 6.7171 12.1433 7.06219 12.1693 7.45659V9.94399C12.1433 10.3294 12.0216 10.6745 11.8044 10.9793C11.5959 11.2751 11.3179 11.5081 10.9703 11.6784C10.6228 11.8487 10.2361 11.9339 9.81039 11.9339ZM10.1883 10.1053C10.4664 10.1053 10.7053 10.0426 10.9052 9.9171C11.1137 9.7916 11.2701 9.62578 11.3743 9.41962C11.4873 9.20449 11.5438 8.96247 11.5438 8.69357C11.5438 8.42466 11.4873 8.18264 11.3743 7.96752C11.2701 7.75239 11.1137 7.58208 10.9052 7.45659C10.7053 7.3311 10.4664 7.26836 10.1883 7.26836C9.919 7.26836 9.68007 7.3311 9.47154 7.45659C9.26301 7.58208 9.10228 7.75239 8.98932 7.96752C8.87637 8.18264 8.8199 8.42466 8.8199 8.69357C8.8199 8.94455 8.87637 9.18208 8.98932 9.40617C9.10228 9.6213 9.25867 9.7916 9.45851 9.9171C9.66703 10.0426 9.91031 10.1053 10.1883 10.1053Z" fill="white"/>
<defs>
<linearGradient id="paint0_linear_21609_14809" x1="8.38889" y1="2.26672" x2="-3.06039" y2="12.0809" gradientUnits="userSpaceOnUse">
<stop stop-color="#4040BA"/>
<stop offset="1" stop-color="#7070FF"/>
</linearGradient>
</defs>
</svg>
