<svg xmlns="http://www.w3.org/2000/svg" viewBox="0 0 1000 1000"><path fill="none" d="M0 0h1000v1000H0z"/><path d="M996.86 359.09c-6.44-18.88-23.48-32.22-43.36-33.77l-284.77-22.63L545.5 29.91C537.46 11.98 519.62.49 499.99.49s-37.46 11.49-45.51 29.37L331.25 302.69 46.48 325.32c-19.53 1.55-36.36 14.39-43.01 32.82-6.64 18.43-1.95 39.06 12.09 52.75l210.45 205.15-74.43 322.29c-4.6 19.93 3.45 40.66 20.28 52.3 8.59 5.89 18.48 8.89 28.42 8.89 9.64 0 19.33-2.79 27.72-8.39L499.99 809.8l271.98 181.32c17.38 11.59 40.21 11.14 57.2-1.2 16.88-12.33 24.32-33.96 18.58-54.05l-91.37-319.69 226.58-203.9c14.85-13.38 20.29-34.26 13.9-53.19z"/></svg>