<svg width="1000" height="1000" viewBox="0 0 1000 1000" fill="none" xmlns="http://www.w3.org/2000/svg">
<path d="M946.841 341.969L664.08 317.358L553.663 56.5981C533.802 9.13396 466.03 9.13396 446.167 56.5981L335.749 317.944L53.5704 341.969C2.15919 346.071 -18.8727 410.528 20.2698 444.515L234.679 630.859L170.415 907.438C158.73 957.834 213.063 997.676 257.464 970.723L499.915 824.231L742.368 971.307C786.767 998.267 841.099 958.418 829.413 908.022L765.153 630.859L979.56 444.515C1018.7 410.528 998.257 346.071 946.841 341.969ZM499.915 714.649L280.248 847.668L338.67 596.868L144.709 428.107L400.597 405.841L499.915 169.691L599.814 406.427L855.702 428.694L661.746 597.458L720.166 848.252L499.915 714.649Z" fill="black"/>
</svg>
