<svg width="1000" height="1000" xmlns="http://www.w3.org/2000/svg"><g fill="#000" fill-rule="nonzero"><path d="M980.522 896.48H19.48C9.74 896.48 0 906.78 0 917.076v34.328C0 961.7 9.74 972 19.48 972h961.042c9.74 0 19.478-10.3 19.478-20.596v-34.328c0-10.295-9.739-20.596-19.478-20.596zM980.522 28H19.48C9.74 28 0 38.298 0 48.596v34.328c0 10.298 9.74 20.596 19.48 20.596h961.042c9.74 0 19.478-10.298 19.478-20.596V48.596C1000 38.298 990.261 28 980.522 28zM980.522 463.956H19.48C9.74 463.956 0 474.254 0 484.553v34.327c0 10.298 9.74 20.596 19.48 20.596h961.042c9.74 0 19.478-10.298 19.478-20.596v-34.327c0-13.731-9.739-20.597-19.478-20.597z"/></g></svg>