<svg width="1000" height="1000" xmlns="http://www.w3.org/2000/svg"><g fill="#000" fill-rule="nonzero"><path d="M972.222 56H27.778C11.11 56 5.556 67.113 5.556 83.781v88.9c0 11.113 11.11 22.225 22.222 22.225h944.444c11.111 0 22.222-11.112 22.222-22.225v-88.9c0-16.669-5.555-27.781-22.222-27.781zM972.222 433.825H27.778c-16.667 0-22.222 11.113-22.222 22.225v88.9c0 11.113 11.11 22.225 22.222 22.225h944.444c11.111 0 22.222-11.112 22.222-22.225v-88.9c0-11.112-5.555-22.225-22.222-22.225zM972.222 806.094H27.778c-11.111 0-22.222 11.112-22.222 22.225v88.9c0 11.112 11.11 22.225 22.222 22.225h944.444c11.111 0 22.222-11.113 22.222-22.225v-88.9c0-11.113-5.555-22.225-22.222-22.225z"/></g></svg>