<?xml version="1.0" encoding="UTF-8"?>
<svg width="1000px" height="1000px" viewBox="0 0 1000 1000" version="1.1" xmlns="http://www.w3.org/2000/svg" xmlns:xlink="http://www.w3.org/1999/xlink">
    <!-- Generator: Sketch 55.2 (78181) - https://sketchapp.com -->
    <title>More</title>
    <desc>Created with Sketch.</desc>
    <g id="More" stroke="none" stroke-width="1" fill="none" fill-rule="evenodd">
        <g id="More-icon-lineart" transform="translate(0.000000, 28.000000)" fill="#000000" fill-rule="nonzero">
            <path d="M980.522222,868.48 L19.4805,868.48 C9.74027778,868.48 0,878.780706 0,889.075859 L0,923.404141 C0,933.699294 9.74027778,944 19.4805,944 L980.522222,944 C990.261111,944 1000,933.699294 1000,923.404141 L1000,889.075859 C1000,878.780706 990.261111,868.48 980.522222,868.48 Z" id="Path"></path>
            <path d="M980.522222,0 L19.4805,0 C9.74027778,0 0,10.2982071 0,20.5963586 L0,54.9236414 C0,65.2220706 9.74027778,75.52 19.4805,75.52 L980.522222,75.52 C990.261111,75.52 1000,65.2220706 1000,54.9236414 L1000,20.5963586 C1000,10.2982071 990.261111,0 980.522222,0 Z" id="Path"></path>
            <path d="M980.522222,435.956414 L19.4805,435.956414 C9.74027778,435.956414 0,446.254344 0,456.552828 L0,490.88 C0,501.177929 9.74027778,511.476414 19.4805,511.476414 L980.522222,511.476414 C990.261111,511.476414 1000,501.177929 1000,490.88 L1000,456.552828 C1000,442.821515 990.261111,435.956414 980.522222,435.956414 Z" id="Path"></path>
        </g>
    </g>
</svg>