<?xml version="1.0" encoding="UTF-8"?>
<svg width="1000px" height="1000px" viewBox="0 0 1000 1000" version="1.1" xmlns="http://www.w3.org/2000/svg" xmlns:xlink="http://www.w3.org/1999/xlink">
    <!-- Generator: Sketch 55.2 (78181) - https://sketchapp.com -->
    <title>More/Selected</title>
    <desc>Created with Sketch.</desc>
    <g id="More/Selected" stroke="none" stroke-width="1" fill="none" fill-rule="evenodd">
        <g id="More-icon-fill" transform="translate(0.000000, 56.000000)" fill="#000000" fill-rule="nonzero">
            <path d="M972.222222,0 L27.7777778,0 C11.1111111,0 5.55555556,11.1125 5.55555556,27.78125 L5.55555556,116.68125 C5.55555556,127.79375 16.6666667,138.90625 27.7777778,138.90625 L972.222222,138.90625 C983.333333,138.90625 994.444444,127.79375 994.444444,116.68125 L994.444444,27.78125 C994.444444,11.1125 988.888889,0 972.222222,0 Z" id="Path"></path>
            <path d="M972.222222,377.825 L27.7777778,377.825 C11.1111111,377.825 5.55555556,388.9375 5.55555556,400.05 L5.55555556,488.95 C5.55555556,500.0625 16.6666667,511.175 27.7777778,511.175 L972.222222,511.175 C983.333333,511.175 994.444444,500.0625 994.444444,488.95 L994.444444,400.05 C994.444444,388.9375 988.888889,377.825 972.222222,377.825 Z" id="Path"></path>
            <path d="M972.222222,750.09375 L27.7777778,750.09375 C16.6666667,750.09375 5.55555556,761.20625 5.55555556,772.31875 L5.55555556,861.21875 C5.55555556,872.33125 16.6666667,883.44375 27.7777778,883.44375 L972.222222,883.44375 C983.333333,883.44375 994.444444,872.33125 994.444444,861.21875 L994.444444,772.31875 C994.444444,761.20625 988.888889,750.09375 972.222222,750.09375 Z" id="Path"></path>
        </g>
    </g>
</svg>