<svg xmlns="http://www.w3.org/2000/svg" viewBox="0 0 1000 1000"><path d="M499.98 2C224.39 2 .98 225.41.98 501s223.41 499 499 499 499-223.41 499-499S775.57 2 499.98 2zm0 823.35c-27.56 0-49.9-22.34-49.9-49.9s22.34-49.9 49.9-49.9 49.9 22.34 49.9 49.9-22.34 49.9-49.9 49.9zm82.29-267.23c-17.96 8.14-29.8 23.44-32.01 40.83-.03.24-.1 12.38-.16 26.93-.13 27.5-22.46 49.76-49.95 49.76-27.65 0-50.04-22.49-49.95-50.14.05-15.29.11-28.43.18-29.64 3.36-53.62 36.47-102.28 86.61-126.72 18.1-8.82 34.78-20.89 45.7-37.8 46.33-71.76-8.72-152.17-78.76-154.84-27.44-1.01-53.43 8.83-73.14 27.8-11.06 10.65-19.34 23.36-24.48 37.3-7.49 20.34-25.85 34.61-47.52 34.61-33.66 0-58.62-32.92-47.74-64.78 10.11-29.62 27.23-56.61 50.53-79.04 39.44-37.96 91.36-57.68 146.14-55.63 103.56 3.92 187.79 88.14 191.72 191.72 3.09 81.58-42.9 156.01-117.17 189.64z"/></svg>