<svg xmlns="http://www.w3.org/2000/svg" width="1000pt" height="1000pt" viewBox="0 0 1000 1000"><path d="M66.55 13.375c-15.226-15.23-39.91-15.23-55.128 0-15.23 15.219-15.23 39.91 0 55.129l174.254 174.258C98.96 314.066 42.953 400.215 15.715 448.707c-18.317 32.617-18.469 71.64-.402 104.387 23.46 42.535 74.78 124.351 154.859 194.379 97.75 85.492 208.336 129.082 328.723 129.64.175 0 .343.028.52.028.331 0 .67-.008 1.007-.008.265 0 .539.008.812.008 88.329 0 171.985-23.453 249.067-69.746L931.434 988.52c7.613 7.613 17.586 11.421 27.566 11.421s19.953-3.808 27.566-11.421c15.227-15.22 15.227-39.907 0-55.133zm302.2 412.46l56.504 56.505a78.319 78.319 0 0 0 -2.035 24.773c2.914 37.953 33.605 68.64 71.562 71.563a78.67 78.67 0 0 0 24.774-2.04l56.52 56.52c-58.255 33.274-133.18 24.727-182.626-24.71-49.195-49.188-57.832-124.368-24.699-182.61zM83.578 515.435c-4.933-8.95-4.89-19.621.125-28.547 25.04-44.586 77.102-124.664 157.387-188.715l71.187 71.191c-62.988 90.11-53.52 214.66 26.04 294.211C383.23 708.5 442.07 731.114 501 731.114c45.98 0 92.016-13.786 131.54-41.493l60 60.004c-60.126 32.715-124.548 49.355-192.06 49.535-235.23-.422-369.894-198.504-416.902-283.726zm262.895-323.555c-5.852-20.723 6.195-42.258 26.918-48.117 45.273-12.79 87.09-19.012 127.84-19.012 120.007 0 230.816 43.691 329.347 129.867 80.063 70.016 131.895 151.75 155.66 194.235 18.203 32.527 18.356 71.445.41 104.097a38.616 38.616 0 0 1 -5.543 7.684c-17.152 30.219-44.386 72.98-82.113 117.207-7.71 9.047-18.66 13.687-29.68 13.687-8.945 0-17.937-3.054-25.277-9.32-16.383-13.98-18.328-38.582-4.363-54.96 36.754-43.079 62.375-84.583 77.387-111.813a40.517 40.517 0 0 1 3.527-5.309c2.441-7.652 1.64-16-2.387-23.2-47.804-85.456-184.14-284.202-416.969-284.202-33.48 0-68.359 5.254-106.644 16.066-20.715 5.852-42.262-6.187-48.113-26.91zm159.156 79.117c59.656 1.207 115.746 25.117 157.953 67.317 43.43 43.44 67.36 101.195 67.36 162.636 0 21.528-17.45 38.977-38.989 38.977-21.527 0-38.976-17.45-38.976-38.977 0-40.613-15.817-78.793-44.532-107.508-27.894-27.894-64.972-43.695-104.402-44.496-21.523-.433-38.621-18.242-38.184-39.761.442-21.532 18.188-38.622 39.77-38.188zm0 0" fill="#000"/></svg>