<svg xmlns="http://www.w3.org/2000/svg" viewBox="0 0 1000 1000"><path d="M263.2 302.4l78 79.3c-37.2 27.6-67.2 64.6-85.9 107.6 41.2 94.2 135.4 160 244.9 160 31.4 0 61.6-5.5 89.6-15.5l89.9 91.1 27.6-27.2-416.6-422.6-27.5 27.3zM500 610.3c-84.9 0-162.1-47-201.6-121.1 17.1-32.2 41.6-59.2 70.4-79.6l39.2 39.7c-5.3 12.2-8.2 25.7-8.2 39.9 0 55.4 44.9 100.3 100.3 100.3 13.6 0 26.7-2.8 38.4-7.6l20.4 20.7c-19 5-38.8 7.7-58.9 7.7zm-60.7-129.2l67.9 69.1c-2.4.3-4.7.4-7.2.4-33.9 0-61.4-27.5-61.4-61.4 0-2.6.3-5.4.7-8.1zM592.2 528.8c5.1-12.1 8-25.4 8-39.5 0-55.4-44.9-100.3-100.3-100.3-13.4 0-26.4 2.6-38 7.5l31.2 31.8c2.2-.3 4.5-.4 6.8-.4 33.9 0 61.4 27.5 61.4 61.4 0 2.6-.3 5.1-.5 7.6l31.4 31.9z"/><path d="M500 368c84.9 0 162.1 47 201.6 121.1-17.1 32.1-41.2 59.1-70.1 79.5l27.6 28c37.1-27.6 67-64.6 85.7-107.4-41.4-94.2-135.3-160-244.8-160-31.4 0-61.4 5.4-89.3 15.3l30.8 31.2c18.9-4.9 38.5-7.7 58.5-7.7z"/></svg>
