<svg xmlns="http://www.w3.org/2000/svg" width="1000" height="1000" viewBox="0 0 1000 1000"><path d="M277.533 388.866c30.688 0 55.566-24.878 55.566-55.566s-24.878-55.566-55.566-55.566H184.2C268.933 164.8 370.334 111.067 500 111.067c214.737.037 388.801 174.125 388.801 388.866 0 214.765-174.102 388.866-388.866 388.866-197.586 0-360.753-147.362-385.593-338.177l-.208-1.956C110.6 521.078 87.265 499.974 59 499.974c-30.685 0-55.56 24.875-55.56 55.56 0 2.421.154 4.805.455 7.144l-.029-.277c32.057 248.054 241.961 437.733 496.167 437.733 276.179 0 500.066-223.888 500.066-500.066S776.211.002 500.033.002h-.035.002c-158.934 0-286.4 64.533-388.866 190.934v-79.6c0-30.688-24.878-55.566-55.566-55.566S.002 80.648.002 111.336v222c0 15.4 6.2 29.267 16.333 39.267 10.02 10.05 23.877 16.268 39.188 16.268l.295-.001h221.718z"/><path d="M534.667 377.8v-.134c0-24.484-19.849-44.333-44.333-44.333h-.134c-24.484 0-44.333 19.849-44.333 44.333v.141-.007 177.733c0 24.6 19.733 44.467 44.467 44.467H646c24.484 0 44.333-19.849 44.333-44.333v-.2c0-24.484-19.849-44.333-44.333-44.333H534.734V377.801z"/></svg>