<svg xmlns="http://www.w3.org/2000/svg" width="1000" height="1000" viewBox="0 0 1000 1000"><path d="M981.729 520.926L549.385 22.068a68.842 68.842 0 0 0-99.772 0L17.269 520.926c-20.125 27.853-15.721 66.45 10.161 89.054s64.721 21.771 89.61-1.92l30.93-35.918 85.139 425.027h532.115l84.806-424.694 30.93 35.918c24.89 23.691 63.729 24.522 89.61 1.92s30.286-61.201 10.161-89.054l.998-.333zM499.166 880.769c-36.735 0-66.515-29.779-66.515-66.515s29.779-66.515 66.515-66.515c36.735 0 66.515 29.779 66.515 66.515s-29.779 66.515-66.515 66.515zm0-216.172c-73.47 0-133.029-59.559-133.029-133.029s59.559-133.029 133.029-133.029 133.029 59.559 133.029 133.029-59.559 133.029-133.029 133.029z"/></svg>