<svg xmlns="http://www.w3.org/2000/svg" width="1000" height="1000" viewBox="0 0 1000 1000"><path d="M181.858 886.362l136.324.026V613.523c0-25.042 20.33-45.343 45.319-45.343h272.997c25.029 0 45.319 20.287 45.319 45.343v272.958l136.363.081V450.736L499.998 132.834 181.814 450.739c-.01 85.973.042 435.624.042 435.624zM77.596 554.868c-17.751 17.751-46.531 17.751-64.282 0s-17.751-46.531 0-64.282L467.86 36.04c17.751-17.751 46.531-17.751 64.282 0l454.546 454.546c17.751 17.751 17.751 46.531 0 64.282s-46.531 17.751-64.282 0l-13.313-13.302v344.998c0 50.181-40.645 90.708-90.949 90.708H181.86c-50.184 0-90.949-40.524-90.949-90.708V541.566l-13.313 13.302zm513.312 331.587V659.019l-181.818.07v227.319l181.818.046z"/></svg>