<svg width="1000" height="1000" viewBox="0 0 1000 1000" xmlns="http://www.w3.org/2000/svg"><path d="M522.42 9.095C516.54 3.281 508.45 0 500 0c-8.45 0-16.539 3.281-22.42 9.095C156.632 333.44-2.55 495.613.03 495.613h125.256V985.04c0 8.263 6.99 14.961 15.613 14.961h274.136c8.622 0 15.613-6.698 15.613-14.961V786.257c0-8.263 6.99-14.961 15.613-14.961h107.478c8.623 0 15.613 6.698 15.613 14.96V985.04c0 8.263 6.99 14.961 15.613 14.961h274.136c8.622 0 15.613-6.698 15.613-14.961V495.613h125.255c2.581 0-156.601-162.173-477.549-486.518z"/></svg>