<?xml version="1.0" encoding="utf-8"?>
<!-- Generator: Adobe Illustrator 24.0.1, SVG Export Plug-In . SVG Version: 6.00 Build 0)  -->
<svg version="1.1" id="Layer_1" xmlns="http://www.w3.org/2000/svg" xmlns:xlink="http://www.w3.org/1999/xlink" x="0px" y="0px"
	 viewBox="0 0 1000 1000" style="enable-background:new 0 0 1000 1000;" xml:space="preserve">
<g>
	<path d="M969.1,369.3L533.8,84.1c-20.8-13.6-47.7-13.6-68.6,0L30.9,369.3l30.2,46l71.8-47.1v495.5c0,34.5,28,62.5,62.5,62.5h600.5
		c34.5,0,62.5-28,62.5-62.5V362.5l80.5,52.8L969.1,369.3z M803.4,863.7c0,4.1-3.4,7.5-7.5,7.5H195.4c-4.1,0-7.5-3.4-7.5-7.5V332
		l307.5-202c2.5-1.6,5.7-1.6,8.2,0l299.8,196.4V863.7z"/>
	<path d="M333.4,572l-38.8,39l127.9,127.2c5.2,5.1,12.1,8,19.4,8c0.1,0,0.1,0,0.2,0c7.3,0,14.3-3,19.5-8.2l248.3-253.3l-39.3-38.5
		L441.7,679.7L333.4,572z"/>
</g>
</svg>
