<svg xmlns="http://www.w3.org/2000/svg" viewBox="0 0 1000 1000"><path fill-rule="evenodd" d="M421 487a210.5 210.5 0 1 0 .2-420.9 210.5 210.5 0 0 0-.1 421zm0-315.7c58 0 105.3 47.3 105.3 105.2 0 58-47.4 105.3-105.2 105.3a105.6 105.6 0 0 1-105.3-105.3c0-57.9 47.4-105.2 105.3-105.2zm-52.6 631.5H105.3c10.5-33.1 134.2-87.9 259.4-102h1.6l24.2-23.7 83.2-81.6a491.4 491.4 0 0 0-52.6-3.2C280.5 592.3 0 662.8 0 802.8v105.3h473.7L368.4 802.8zm558-289.4l-270 272-109-109.4-73.7 74.2 182.6 184.2L1000 587.6l-73.7-74.2z" clip-rule="evenodd"/></svg>