<?xml version="1.0" encoding="UTF-8"?>
<svg width="1000px" height="1000px" viewBox="0 0 1000 1000" version="1.1" xmlns="http://www.w3.org/2000/svg" xmlns:xlink="http://www.w3.org/1999/xlink">
    <!-- Generator: Sketch 59 (86127) - https://sketch.com -->
    <title>Artboard</title>
    <desc>Created with Sketch.</desc>
    <g id="Artboard" stroke="none" stroke-width="1" fill="none" fill-rule="evenodd">
        <g id="layer1" fill="#101721" fill-rule="nonzero">
            <path d="M500.000009,0 C401.109167,0 304.44,29.3245 222.215,84.265 C139.990833,139.205833 75.90425,217.295 38.0604167,308.658333 C0.216640833,400.020833 -9.685,500.554167 9.60758333,597.545 C28.9001667,694.535833 76.5205833,783.626667 146.446667,853.55 C216.373333,923.483333 305.464167,971.1 402.455,990.391667 C499.445833,1009.68333 599.978333,999.783333 691.341667,961.941667 C782.705,924.091667 860.791667,860.008333 915.733333,777.785 C970.675,695.56 1000.00001,598.890833 1000.00001,500 C999.85,367.438333 947.116667,240.350833 853.383333,146.615833 C759.649167,52.8805833 632.561667,0.153008333 500.000009,0 L500.000009,0 Z M453.484167,234.953333 C463.975,225.0875 477.833333,219.594167 492.234167,219.594167 C506.635,219.594167 520.494167,225.0875 530.984167,234.953333 C541.175833,245.208333 546.903333,259.073333 546.921667,273.530833 C546.921667,288.035 541.16,301.945 530.904167,312.200833 C520.648333,322.456667 506.738333,328.218333 492.234167,328.218333 C477.730833,328.218333 463.820833,322.456667 453.565,312.200833 C443.308333,301.945 437.546667,288.035 437.546667,273.530833 C437.570833,259.074167 443.2975,245.210833 453.484167,234.953333 Z M562.546667,781.359167 L437.546667,781.359167 L437.546667,718.859167 L468.75,718.859167 L468.75,437.875 L437.5625,437.875 L437.5625,375.375 L531.25,375.375 L531.25,718.890833 L562.5625,718.890833 L562.546667,781.359167 Z" id="Shape"></path>
        </g>
    </g>
</svg>