<svg width="1000" height="1000" xmlns="http://www.w3.org/2000/svg"><path d="M500 0A500.002 500.002 0 009.608 597.545 499.978 499.978 0 00146.447 853.55a499.946 499.946 0 00256.008 136.842 500.024 500.024 0 00288.887-28.45 500.052 500.052 0 00224.391-184.157A499.994 499.994 0 001000 500c-.15-132.562-52.883-259.65-146.617-353.384A500.573 500.573 0 00500 0zm-46.516 234.953a56.563 56.563 0 0177.5 0 54.824 54.824 0 0115.938 38.578 54.688 54.688 0 11-109.375 0 54.876 54.876 0 0115.937-38.578zM562.547 781.36h-125v-62.5h31.203V437.875h-31.188v-62.5h93.688v343.516h31.313l-.016 62.468z" fill="#101721" fill-rule="nonzero"/></svg>