<svg width="1000" height="1000" viewBox="0 0 1000 1000" fill="none" xmlns="http://www.w3.org/2000/svg">
<path d="M783.546 548.688V891.489H97.9432V205.886H343.781C346.229 171.117 354.554 138.306 367.287 107.943H97.9432C44.0744 107.943 0 152.018 0 205.886V891.489C0 945.358 44.0744 989.432 97.9432 989.432H783.546C837.414 989.432 881.489 945.358 881.489 891.489V646.631L783.546 548.688ZM695.884 656L447.5 656L157.197 656V601L373.5 601L695.884 601V656ZM847.209 347.414C868.756 313.134 881.489 273.467 881.489 230.372C881.489 108.433 783.056 10 661.117 10C539.177 10 440.744 108.433 440.744 230.372C440.744 352.311 539.177 450.744 660.627 450.744C703.722 450.744 743.878 438.012 777.669 416.464L930.46 569.256L1000 499.716L847.209 347.414ZM661.117 352.801C593.536 352.801 538.688 297.953 538.688 230.372C538.688 162.791 593.536 107.943 661.117 107.943C728.697 107.943 783.546 162.791 783.546 230.372C783.546 297.953 728.697 352.801 661.117 352.801Z" fill="black"/>
<rect x="157" y="753" width="539" height="55" fill="black"/>
<rect x="157" y="448" width="305" height="55" fill="black"/>
</svg>
