<svg width="1000" height="1000" viewBox="0 0 1000 1000" fill="none" xmlns="http://www.w3.org/2000/svg">
<path d="M471.089 289.643H164.573C149.627 289.643 137.409 275.868 137.409 258.935C137.409 242.135 149.627 228.326 164.573 228.326H471.089C485.947 228.326 498.151 242.117 498.151 258.935C498.151 275.853 485.947 289.643 471.089 289.643ZM174.529 522.99C147.845 522.99 137.409 509.23 137.409 492.218C137.409 475.349 146.707 461.673 173.391 461.673H746.824C773.353 461.673 781.488 475.348 781.488 492.218C781.488 509.23 771.077 522.99 744.548 522.99H174.529ZM530.252 67.807H139.589C97.9869 67.807 64.1703 102.717 64.1703 144.198V615.972H250.457C327.224 615.972 389.632 678.54 389.632 755.346V934.788H783.361C824.902 934.788 858.727 900.957 858.727 859.474V513.949C858.727 496.126 873.008 484.086 890.703 484.086C908.529 484.086 923.956 498.393 923.956 516.226V859.474C923.956 936.492 860.349 999 783.37 999H348.797C340.309 999 332.241 995.595 326.159 989.652L9.40518 674.007C3.32396 668.054 0 659.852 0 651.288L8.48416e-06 131.675C8.48416e-06 54.7279 62.5396 0.11954 139.589 0.11954H527.976C545.74 0.11954 556.75 17.8939 556.75 35.6659C556.75 53.3765 530.252 67.807 530.252 67.807ZM329.685 897.877V752.662C329.685 710.368 295.345 676.01 253.214 676.01H107.079L329.685 897.877ZM767.119 0C873.811 0 960.613 86.8508 960.613 193.586C960.613 245.487 952.428 282.588 913.444 319.772L995 400.764L952.266 443.507L867.102 358.306C836.055 376.982 800.865 387.179 767.119 387.179C660.412 387.179 573.615 300.342 573.615 193.586M573.615 193.107C573.615 86.6265 660.197 0.00113743 766.629 0.00113743ZM766.628 59.9958C693.258 59.9958 633.58 119.698 633.58 193.096C633.58 266.494 693.263 326.208 766.628 326.208C839.986 326.208 899.662 266.494 899.662 193.096C899.662 119.698 839.98 59.9958 766.628 59.9958ZM762.861 751.83H481.014C467.271 751.83 456.036 738.068 456.036 721.057C456.036 704.189 467.271 690.512 481.014 690.512H762.861C776.523 690.512 787.746 704.189 787.746 721.057C787.747 738.068 776.523 751.83 762.861 751.83Z" fill="black"/>
</svg>
