<svg width="1000" height="1000" viewBox="0 0 1000 1000" fill="none" xmlns="http://www.w3.org/2000/svg">
<g clip-path="url(#clip0_892_665)">
<mask id="path-1-inside-1_892_665" fill="white">
<path d="M473.456 289.933H165.4C150.379 289.933 138.099 276.144 138.099 259.194C138.099 242.377 150.379 228.554 165.4 228.554H473.456C488.389 228.554 500.655 242.359 500.655 259.194C500.655 276.129 488.389 289.933 473.456 289.933ZM175.406 523.514C148.588 523.514 138.099 509.74 138.099 492.71C138.099 475.825 147.444 462.135 174.262 462.135H750.577C777.239 462.135 785.415 475.824 785.415 492.71C785.415 509.74 774.952 523.514 748.289 523.514H175.406ZM532.917 67.8749H140.291C98.4793 67.8749 64.4928 102.82 64.4928 144.343V616.588H251.715C328.868 616.588 391.59 679.219 391.59 756.103V935.724H787.298C829.047 935.724 863.042 901.858 863.042 860.334V514.464C863.042 496.623 877.395 484.571 895.179 484.571C913.095 484.571 928.599 498.892 928.599 516.743V860.334C928.599 937.429 864.673 1000 787.307 1000H350.55C342.019 1000 333.911 996.591 327.798 990.642L9.45244 674.682C3.34067 668.723 0 660.513 0 651.94L8.52679e-06 131.807C8.52679e-06 54.7827 62.8539 0.11966 140.291 0.11966H530.629C548.482 0.11966 559.548 17.9118 559.548 35.7016C559.548 53.4299 532.917 67.8749 532.917 67.8749ZM331.342 898.776V753.415C331.342 711.079 296.83 676.686 254.486 676.686H107.617L331.342 898.776ZM770.974 0C878.202 0 965.441 86.9377 965.441 193.779C965.441 245.732 957.214 282.871 918.034 320.092L1000 401.165L957.052 443.951L871.459 358.664C840.257 377.359 804.89 387.567 770.974 387.567C663.731 387.567 576.497 300.643 576.497 193.779M576.497 193.779C576.497 87.1919 664.008 0 770.974 0ZM770.48 60.0558C696.742 60.0558 636.764 119.818 636.764 193.289C636.764 266.761 696.746 326.534 770.48 326.534C844.207 326.534 904.183 266.761 904.183 193.289C904.183 119.818 844.201 60.0558 770.48 60.0558ZM766.694 752.582H483.431C469.619 752.582 458.327 738.807 458.327 721.779C458.327 704.894 469.619 691.203 483.431 691.203H766.694C780.425 691.203 791.704 704.894 791.704 721.779C791.705 738.807 780.425 752.582 766.694 752.582Z"/>
</mask>
<path d="M473.456 289.933H165.4C150.379 289.933 138.099 276.144 138.099 259.194C138.099 242.377 150.379 228.554 165.4 228.554H473.456C488.389 228.554 500.655 242.359 500.655 259.194C500.655 276.129 488.389 289.933 473.456 289.933ZM175.406 523.514C148.588 523.514 138.099 509.74 138.099 492.71C138.099 475.825 147.444 462.135 174.262 462.135H750.577C777.239 462.135 785.415 475.824 785.415 492.71C785.415 509.74 774.952 523.514 748.289 523.514H175.406ZM532.917 67.8749H140.291C98.4793 67.8749 64.4928 102.82 64.4928 144.343V616.588H251.715C328.868 616.588 391.59 679.219 391.59 756.103V935.724H787.298C829.047 935.724 863.042 901.858 863.042 860.334V514.464C863.042 496.623 877.395 484.571 895.179 484.571C913.095 484.571 928.599 498.892 928.599 516.743V860.334C928.599 937.429 864.673 1000 787.307 1000H350.55C342.019 1000 333.911 996.591 327.798 990.642L9.45244 674.682C3.34067 668.723 0 660.513 0 651.94L8.52679e-06 131.807C8.52679e-06 54.7827 62.8539 0.11966 140.291 0.11966H530.629C548.482 0.11966 559.548 17.9118 559.548 35.7016C559.548 53.4299 532.917 67.8749 532.917 67.8749ZM331.342 898.776V753.415C331.342 711.079 296.83 676.686 254.486 676.686H107.617L331.342 898.776ZM770.974 0C878.202 0 965.441 86.9377 965.441 193.779C965.441 245.732 957.214 282.871 918.034 320.092L1000 401.165L957.052 443.951L871.459 358.664C840.257 377.359 804.89 387.567 770.974 387.567C663.731 387.567 576.497 300.643 576.497 193.779M576.497 193.779C576.497 87.1919 664.008 0 770.974 0ZM770.48 60.0558C696.742 60.0558 636.764 119.818 636.764 193.289C636.764 266.761 696.746 326.534 770.48 326.534C844.207 326.534 904.183 266.761 904.183 193.289C904.183 119.818 844.201 60.0558 770.48 60.0558ZM766.694 752.582H483.431C469.619 752.582 458.327 738.807 458.327 721.779C458.327 704.894 469.619 691.203 483.431 691.203H766.694C780.425 691.203 791.704 704.894 791.704 721.779C791.705 738.807 780.425 752.582 766.694 752.582Z" fill="black" stroke="black" stroke-width="2" mask="url(#path-1-inside-1_892_665)"/>
</g>
<defs>
<clipPath id="clip0_892_665">
<rect width="1000" height="1000" fill="white"/>
</clipPath>
</defs>
</svg>
