<svg xmlns="http://www.w3.org/2000/svg" viewBox="0 0 1000 1000"><path d="M199.2 314.5h92.1v55h-92.1zM199.2 433.4h92.1v55h-92.1zM199.2 552.2h92.1v55h-92.1zM384.5 314.5h92.1v55h-92.1zM384.5 433.4h92.1v55h-92.1zM384.5 552.2h92.1v55h-92.1zM630.8 549.6h181.8v55H630.8zM630.8 660.9h181.8v55H630.8zM630.8 772.3h181.8v55H630.8z"/><path d="M911.3 888.5V460.9c0-15.2-12.3-27.5-27.5-27.5H587V191.2c0-15.2-12.3-27.5-27.5-27.5h-48.2V84c0-15.2-12.3-27.5-27.5-27.5h-292c-15.2 0-27.5 12.3-27.5 27.5v79.7h-48.2c-15.2 0-27.5 12.3-27.5 27.5v697.3H50.5v55H949.6v-55h-38.3zm-692-777h237.1v52.2H219.3v-52.2zm-75.6 107.2H532v669.8h-87V719.9c0-15.2-12.3-27.5-27.5-27.5H258.1c-15.2 0-27.5 12.3-27.5 27.5v168.6h-87V218.7zm141.9 669.8V747.4H390v141.1H285.6zm301.4 0V488.4h269.3v400.1H587z"/></svg>