<svg xmlns="http://www.w3.org/2000/svg" viewBox="0 0 1000 1000"><path fill-rule="evenodd" d="M291.7 208.3A292 292 0 0 0 0 500a292 292 0 0 0 291.7 291.7A291.9 291.9 0 0 0 555 625h111.7v166.7h250V625h83.3V375H555a291.9 291.9 0 0 0-263.3-166.7zm625 333.4h-83.4v166.6H750V541.7H497.5l-9.6 27.9a208.4 208.4 0 1 1-196.3-278c88 0 167.2 55.9 196.3 138.8l9.6 28h419.2v83.3zM291.7 375c-68.8 0-125 56.3-125 125 0 68.8 56.2 125 125 125 68.7 0 125-56.3 125-125 0-68.8-56.3-125-125-125zm0 166.7c-23 0-41.7-18.8-41.7-41.7 0-23 18.8-41.7 41.7-41.7 22.9 0 41.6 18.8 41.6 41.7 0 23-18.7 41.7-41.6 41.7z" clip-rule="evenodd"/></svg>