<?xml version="1.0" encoding="utf-8"?>
<!-- Generator: Adobe Illustrator 24.1.0, SVG Export Plug-In . SVG Version: 6.00 Build 0)  -->
<svg version="1.1" id="Layer_1" xmlns="http://www.w3.org/2000/svg" xmlns:xlink="http://www.w3.org/1999/xlink" x="0px" y="0px"
	 viewBox="0 0 1000 1000" style="enable-background:new 0 0 1000 1000;" xml:space="preserve">
<g>
	<g>
		<path d="M600.1,440.2c-42.1,0-76.4-34.3-76.4-76.4c0-42.1,34.3-76.4,76.4-76.4s76.4,34.3,76.4,76.4
			C676.5,405.9,642.2,440.2,600.1,440.2z M600.1,342.3c-11.8,0-21.4,9.6-21.4,21.4c0,11.8,9.6,21.4,21.4,21.4s21.4-9.6,21.4-21.4
			C621.5,351.9,611.9,342.3,600.1,342.3z"/>
	</g>
	<g>
		<path d="M898.2,711.1H122.6c-10.6,0-20.3-6.1-24.8-15.7s-3.2-20.9,3.5-29.2l237.3-291.2c5.2-6.4,13-10.1,21.3-10.1c0,0,0,0,0,0
			c8.3,0,16.1,3.7,21.3,10.1l229.5,281.1h228.9L712.5,502.8l-95.1,114.9l-36.3-42.5l110.2-133c5.2-6.3,13-10,21.2-10c0,0,0,0,0,0
			c8.2,0,15.9,3.6,21.2,9.9l185.8,224c6.8,8.2,8.3,19.6,3.7,29.2C918.6,705,908.9,711.1,898.2,711.1z M180.5,656.1h359.3L359.9,436
			L180.5,656.1z"/>
	</g>
</g>
</svg>
