<?xml version="1.0" encoding="utf-8"?>
<!-- Generator: Adobe Illustrator 24.1.0, SVG Export Plug-In . SVG Version: 6.00 Build 0)  -->
<svg version="1.1" id="Layer_1" xmlns="http://www.w3.org/2000/svg" xmlns:xlink="http://www.w3.org/1999/xlink" x="0px" y="0px"
	 viewBox="0 0 1000 1000" style="enable-background:new 0 0 1000 1000;" xml:space="preserve">
<style type="text/css">
	.st0{fill:#5A5AFF;}
	.st1{fill:#97B7FF;}
</style>
<g>
	<g>
		<path class="st0" d="M597.8,317.3c-27,0-49,22-49,49s22,49,49,49c27,0,49-22,49-49S624.8,317.3,597.8,317.3z M597.8,400.2
			c-18.7,0-33.8-15.2-33.8-33.8s15.2-33.8,33.8-33.8s33.8,15.2,33.8,33.8S616.4,400.2,597.8,400.2z"/>
		<rect x="590.2" y="274.6" class="st0" width="15.2" height="26.8"/>
		<rect x="590.2" y="431.3" class="st0" width="15.2" height="26.8"/>
		<rect x="662.7" y="358.7" class="st0" width="26.8" height="15.2"/>
		<rect x="506" y="358.7" class="st0" width="26.8" height="15.2"/>
		
			<rect x="645.6" y="408.4" transform="matrix(0.7071 -0.7071 0.7071 0.7071 -106.9186 585.4099)" class="st0" width="15.2" height="26.8"/>
		
			<rect x="534.8" y="297.5" transform="matrix(0.7071 -0.7071 0.7071 0.7071 -61.006 474.5662)" class="st0" width="15.2" height="26.8"/>
		
			<rect x="528.9" y="414.2" transform="matrix(0.7071 -0.7071 0.7071 0.7071 -139.3801 507.0624)" class="st0" width="26.8" height="15.2"/>
		
			<rect x="639.8" y="303.3" transform="matrix(0.7071 -0.7071 0.7071 0.7071 -28.5296 552.9756)" class="st0" width="26.8" height="15.2"/>
	</g>
	<g>
		<polygon class="st1" points="842.6,692.5 676.7,492.4 542.8,654.1 361.8,432.4 157,692.5 574.2,692.5 573.1,691.1 		"/>
	</g>
	<path class="st0" d="M848.5,687.6L682.5,487.5c-1.4-1.7-3.6-2.7-5.8-2.7c0,0,0,0,0,0c-2.3,0-4.4,1-5.8,2.8L542.9,642.1L367.7,427.6
		c-1.4-1.8-3.6-2.8-5.9-2.8c0,0,0,0,0,0c-2.3,0-4.4,1-5.9,2.8l-212,260.1c-1.9,2.3-2.2,5.4-1,8.1c1.3,2.7,3.9,4.3,6.9,4.3h692.8
		c2.9,0,5.6-1.7,6.9-4.4C850.7,693,850.3,689.9,848.5,687.6z M165.8,684.9l196-240.5l196.4,240.5H165.8z M577.8,684.9l-25.1-30.8
		l124-149.8l149.8,180.6H577.8z"/>
</g>
</svg>
