<svg xmlns="http://www.w3.org/2000/svg" width="1000" height="1000" viewBox="0 0 1000 1000"><path d="M903.077 896.954c-13.371-61.997-95.652-127.993-173.477-138.659h-15.771c-59.697 58.108-140.11 91.647-224.56 93.662-84.62-2.149-165.198-35.655-225.245-93.662h-15.085c-79.539 9.999-161.82 74.996-175.191 137.993v6c-3.104 16.179.536 32.894 10.118 46.461s24.319 22.874 40.965 25.869a2216.78 2216.78 0 0 0 345.925 25.332 2145.977 2145.977 0 0 0 380.552-31.332c16.673-2.765 31.521-11.889 41.241-25.346s13.511-30.131 10.527-46.317zM220.483 535.306c3.766.276 7.548.276 11.313 0 52.111 128.993 152.221 215.655 256.102 215.989s201.59-88.329 254.044-217.989a77.54 77.54 0 0 0 13.371 0c52.535-4.425 91.817-48.832 88.452-99.995 1.663-41.571-23.322-79.802-62.739-95.995C783.425 112.661 658.632 0 487.898 0s-295.87 112.661-293.471 338.982c-38.819 15.973-63.685 53.357-62.739 94.328-2.181 24.982 5.958 49.781 22.619 68.919s40.474 31.039 66.177 33.075z"/></svg>