<svg xmlns="http://www.w3.org/2000/svg" viewBox="0 0 1000 790">
<path fill="#000" d="M971 744H58V23c0-6-3-12-9-16A33 33 0 0 0 9 7c-5 4-8 10-8 16v743c0 6 3 12 8 16 5 5 13 7 20 7h942c8 0 15-2 20-7 6-4 9-10 9-16 0-5-3-11-9-15-5-5-12-7-20-7Z"/>
<path fill="#000" d="M204 657a81 81 0 0 0 59-27 71 71 0 0 0 16-60l90-56a80 80 0 0 0 100-9 69 69 0 0 0 6-94l135-211a81 81 0 0 0 59-13l89 52c-3 17 0 34 9 48 8 15 22 26 39 32 17 7 35 7 52 2 17-6 31-17 41-31a69 69 0 0 0-14-91 80 80 0 0 0-98-5l-88-52a72 72 0 0 0-23-65 81 81 0 0 0-104-1c-9 8-16 18-21 29a68 68 0 0 0 12 68L427 384a81 81 0 0 0-68 21 68 68 0 0 0-20 65l-91 56a79 79 0 0 0-68-10c-12 4-22 10-31 18-8 8-14 18-18 29a68 68 0 0 0 11 64c7 9 16 17 27 22s23 8 35 8Z"/>
</svg>