<svg width="1000" height="1000" fill="none" xmlns="http://www.w3.org/2000/svg"><g clip-path="url(#clip0)"><path d="M813.286 431.958h-86.024V227.421C727.262 101.962 625.709 0 500.045 0c-125.46 0-227.217 101.553-227.217 227.421v204.537h-86.024c-31.467 0-56.804 25.541-56.804 56.804v454.434c0 31.467 25.542 56.804 56.804 56.804h626.482c31.467 0 56.804-25.541 56.804-56.804V488.762c.204-31.467-25.337-56.804-56.804-56.804zM348.431 227.421c0-83.571 68.042-151.818 151.818-151.818 83.776 0 151.819 68.042 151.819 151.818v204.537H348.431V227.421zm442.174 692.89H209.894V511.238h580.915v408.868h-.204v.205z" fill="#000"/></g><defs><clipPath id="clip0"><path fill="#fff" d="M0 0h1000v1000H0z"/></clipPath></defs></svg>