<svg width="1000" height="1001" viewBox="0 0 1000 1001" fill="none" xmlns="http://www.w3.org/2000/svg">
<path d="M750 354.252H708.333V270.919C708.333 155.919 615 62.5852 500 62.5852C385 62.5852 291.667 155.919 291.667 270.919H375C375 201.752 430.833 145.919 500 145.919C569.167 145.919 625 201.752 625 270.919V354.252H250C204.167 354.252 166.667 391.752 166.667 437.585V854.252C166.667 900.085 204.167 937.585 250 937.585H750C795.833 937.585 833.333 900.085 833.333 854.252V437.585C833.333 391.752 795.833 354.252 750 354.252ZM750 854.252H250V437.585H750V854.252ZM500 729.252C545.833 729.252 583.333 691.752 583.333 645.919C583.333 600.085 545.833 562.585 500 562.585C454.167 562.585 416.667 600.085 416.667 645.919C416.667 691.752 454.167 729.252 500 729.252Z" fill="black"/>
</svg>
