<svg width="1000" height="1001" viewBox="0 0 1000 1001" fill="none" xmlns="http://www.w3.org/2000/svg">
<path d="M187.5 833.422V416.755H687.5V458.422C716.667 458.422 744.583 462.588 770.833 470.505V416.755C770.833 370.922 733.333 333.422 687.5 333.422H645.833V250.088C645.833 135.088 552.5 41.7549 437.5 41.7549C322.5 41.7549 229.167 135.088 229.167 250.088V333.422H187.5C141.667 333.422 104.167 370.922 104.167 416.755V833.422C104.167 879.255 141.667 916.755 187.5 916.755H448.333C430.833 891.755 417.083 863.422 407.917 833.422H187.5ZM312.5 250.088C312.5 180.922 368.333 125.088 437.5 125.088C506.667 125.088 562.5 180.922 562.5 250.088V333.422H312.5V250.088Z" fill="black"/>
<path d="M687.5 541.755C572.5 541.755 479.167 635.088 479.167 750.088C479.167 865.088 572.5 958.421 687.5 958.421C802.5 958.421 895.833 865.088 895.833 750.088C895.833 635.088 802.5 541.755 687.5 541.755ZM756.25 848.005L666.667 758.422V625.088H708.333V741.338L785.417 818.421L756.25 848.005Z" fill="black"/>
</svg>
