<svg width="1000" height="1000" viewBox="0 0 1000 1000" xmlns="http://www.w3.org/2000/svg"><path d="M500 616.116l442.596-428.301c13.357-12.926 34.664-12.577 47.59.78 12.925 13.358 12.576 34.665-.782 47.59l-466 450.95c-13.048 12.627-33.76 12.627-46.808 0l-466-450.95c-13.358-12.925-13.707-34.232-.781-47.59 12.925-13.357 34.232-13.706 47.59-.78L500 616.116zm131.288-75.788c-13.005-13.28-12.783-34.588.497-47.593 13.28-13.006 34.588-12.783 47.593.497l310.667 317.22c13.006 13.28 12.783 34.588-.497 47.593-13.28 13.006-34.588 12.783-47.593-.497l-310.667-317.22zM58.045 857.548c-13.005 13.28-34.314 13.503-47.593.497-13.28-13.005-13.503-34.314-.497-47.593l310.667-317.22c13.005-13.28 34.313-13.503 47.593-.497 13.28 13.005 13.502 34.314.497 47.593L58.045 857.548z"/><path d="M67.656 245.656v554.688h864.688V245.656H67.656zM34 178.344h932c18.587 0 33.656 15.069 33.656 33.656v622c0 18.587-15.069 33.656-33.656 33.656H34C15.413 867.656.344 852.587.344 834V212c0-18.587 15.069-33.656 33.656-33.656z"/></svg>