<svg width="1000" height="1000" fill="none" xmlns="http://www.w3.org/2000/svg"><path d="M833.334 166.667H250c-45.958 0-83.333 37.375-83.333 83.333v208.333H250v-125l266.667 200a41.727 41.727 0 0025 8.334 41.727 41.727 0 0025-8.334l266.667-200v375H500v83.334h333.334c45.958 0 83.333-37.375 83.333-83.334V250c0-45.958-37.375-83.333-83.333-83.333zm-291.667 281.25L277.75 250h527.834L541.667 447.917z" fill="#000"/><path d="M83.333 500H375v83.333H83.333V500zm83.333 125h250v83.333h-250V625zm125 125h166.667v83.333H291.666V750z" fill="#000"/></svg>