<?xml version="1.0" encoding="utf-8"?>
<!-- Generator: Adobe Illustrator 24.0.1, SVG Export Plug-In . SVG Version: 6.00 Build 0)  -->
<svg version="1.1" id="Layer_1" xmlns="http://www.w3.org/2000/svg" xmlns:xlink="http://www.w3.org/1999/xlink" x="0px" y="0px"
	 viewBox="0 0 1000 1000" style="enable-background:new 0 0 1000 1000;" xml:space="preserve">
<g>
	<rect x="258.5" y="472.6" transform="matrix(0.7071 -0.7071 0.7071 0.7071 -207.5336 499.1889)" width="480.5" height="55"/>
	<path d="M478.4,637.2c2.8,35.8-9.4,72.6-36.8,99.9L320.5,858.2c-49.6,49.6-130.2,49.6-179.8,0s-49.6-130.2,0-179.8l121.1-121.1
		c24.8-24.8,57.3-37.2,89.9-37.2c3.3,0,6.7,0.1,10,0.4l46.5-46.5c-63.1-20.5-135.2-5.7-185.3,44.3L101.8,639.5
		c-71,71-71,186.6,0,257.6c35.5,35.5,82.1,53.3,128.8,53.3c46.6,0,93.3-17.8,128.8-53.3L480.5,776c50-50,64.8-122.2,44.3-185.3
		L478.4,637.2z"/>
	<path d="M895.8,103.1c-71-71-186.6-71-257.6,0L517.1,224.2c-50,50-64.8,122.2-44.3,185.3l46.5-46.5c-2.8-35.8,9.4-72.6,36.8-99.9
		L677.1,142c24.8-24.8,57.3-37.2,89.9-37.2s65.1,12.4,89.9,37.2c49.6,49.6,49.6,130.2,0,179.8L735.8,442.9
		c-24,24-55.9,37.2-89.9,37.2c-3.4,0-6.7-0.1-10.1-0.4l-46.5,46.5c18,5.9,37.1,8.9,56.6,8.9c48.7,0,94.4-18.9,128.8-53.4
		l121.1-121.1c34.4-34.4,53.4-80.1,53.4-128.8C949.1,183.3,930.2,137.5,895.8,103.1z"/>
</g>
</svg>
