<svg xmlns="http://www.w3.org/2000/svg" viewBox="0 0 1000 1000"><path d="M875 166.7H125c-23 0-41.7 18.6-41.7 41.6v583.4c0 23 18.7 41.6 41.7 41.6h750c23 0 41.7-18.6 41.7-41.6V208.3c0-23-18.7-41.6-41.7-41.6zM833.3 625c-69 0-125 56-125 125H291.7c0-69-56-125-125-125V375c69 0 125-56 125-125h416.6c0 69 56 125 125 125v250z"/><path d="M500 333.3c-92 0-166.7 74.8-166.7 166.7 0 92 74.8 166.7 166.7 166.7 92 0 166.7-74.8 166.7-166.7 0-92-74.8-166.7-166.7-166.7zm0 250a83.4 83.4 0 1 1 .2-166.8 83.4 83.4 0 0 1-.2 166.8z"/></svg>