<?xml version="1.0" encoding="utf-8"?>
<!-- Generator: Adobe Illustrator 24.0.1, SVG Export Plug-In . SVG Version: 6.00 Build 0)  -->
<svg version="1.1" id="Layer_1" xmlns="http://www.w3.org/2000/svg" xmlns:xlink="http://www.w3.org/1999/xlink" x="0px" y="0px"
	 viewBox="0 0 1000 1000" style="enable-background:new 0 0 1000 1000;" xml:space="preserve">
<g>
	<polygon points="63.7,0 0,89.2 0,190.1 129.8,0 	"/>
	<polygon points="246.8,0 0,357.9 0,454.3 317.1,0 	"/>
	<polygon points="434.1,0 1,621 0,622.4 0,718.9 500.3,0 	"/>
	<polygon points="687.5,0 617.2,0 1,885.6 0,887 0,983.4 681.5,8.6 	"/>
	<polygon points="804.4,0 104.9,1000 171.1,1000 870.7,0 	"/>
	<polygon points="541.5,1000 999,346.5 1000,345 1000,248.6 475.3,1000 	"/>
	<polygon points="728.7,1000 999,611 1000,609.6 1000,513.3 658.4,1000 	"/>
	<polygon points="911.8,1000 1000,878.3 1000,777.7 845.7,1000 	"/>
	<polygon points="991.7,0 288,1000 358.4,1000 999,81.9 1000,80.5 1000,0 	"/>
</g>
</svg>
