<svg xmlns="http://www.w3.org/2000/svg" viewBox="0 0 1000 1000"><path fill="none" d="M0 0h1000v1000H0z"/><path d="M888.5.5h-777C50.28.5.5 50.28.5 111.5v777c0 61.22 49.78 111 111 111h444c7.27 0 14.43-1.44 21.15-4.22 6.71-2.77 12.88-6.83 18.09-12.04l388.5-388.5c4.77-4.77 8.16-10.38 10.88-16.26.78-1.66 1.22-3.39 1.83-5.16 1.55-4.66 2.55-9.44 2.83-14.37.11-1.17.72-2.28.72-3.44v-444C999.5 50.28 949.72.5 888.5.5zm-777 111h777V500h-333c-30.69 0-55.5 24.86-55.5 55.5v333H111.5v-777zM611 810.02V611h199.02L611 810.02z"/></svg>