<svg width="1000" height="1000" fill="none" xmlns="http://www.w3.org/2000/svg"><path d="M791.667 125H208.333C162.375 125 125 162.375 125 208.333v583.334C125 837.625 162.375 875 208.333 875h333.334a41.501 41.501 0 0 0 15.875-3.167 41.705 41.705 0 0 0 13.583-9.041l291.667-291.667c3.583-3.583 6.125-7.792 8.166-12.208.584-1.25.917-2.542 1.375-3.875 1.167-3.5 1.917-7.084 2.125-10.792.084-.875.542-1.708.542-2.583V208.333C875 162.375 837.625 125 791.667 125zm-583.334 83.333h583.334V500h-250C518.625 500 500 518.667 500 541.667v250H208.333V208.333zm375 524.417V583.333H732.75L583.333 732.75z" fill="#000"/></svg>