<svg width="1000" height="1000" viewBox="0 0 1000 1000" fill="none" xmlns="http://www.w3.org/2000/svg">
<path d="M278.335 81.0256L206.62 7.69231C86.2588 101.538 7.02106 246.154 0 410.256H100.301C107.823 274.359 176.028 155.385 278.335 81.0256ZM899.699 410.256H1000C992.477 246.154 913.24 101.538 793.38 7.69231L722.167 81.0256C823.471 155.385 892.177 274.359 899.699 410.256ZM800.903 435.897C800.903 278.462 718.656 146.667 575.226 111.795V76.9231C575.226 34.359 541.625 0 500 0C458.375 0 424.774 34.359 424.774 76.9231V111.795C280.843 146.667 199.097 277.949 199.097 435.897V692.308L98.7964 794.872V846.154H901.204V794.872L800.903 692.308V435.897ZM500 1000C507.021 1000 513.541 999.487 520.06 997.949C552.658 990.769 579.238 968.205 592.277 937.436C597.292 925.128 599.799 911.795 599.799 897.436H399.198C399.699 953.846 444.333 1000 500 1000Z" fill="black"/>
</svg>
