<svg width="1000" height="1000" viewBox="0 0 1000 1000" xmlns="http://www.w3.org/2000/svg" fill="none">
<path d="M661.163 562.25V353.917C661.163 226 592.83 118.917 473.663 90.5833V62.25C473.663 27.6667 445.33 -0.25 410.747 -0.25C376.163 -0.25 348.663 27.6667 348.663 62.25V90.5833C229.08 118.917 161.163 225.583 161.163 353.917V562.25L106.997 616C80.7466 642.25 99.0799 687.25 136.163 687.25H684.913C721.997 687.25 740.747 642.25 714.497 616L661.163 562.25ZM410.747 812.25C456.58 812.25 494.08 774.75 494.08 728.917H327.413C327.413 774.75 364.497 812.25 410.747 812.25ZM193.247 92.6667C210.747 76.8333 211.163 49.75 194.497 33.0833C178.663 17.25 152.83 16.8333 136.58 32.25C65.3299 97.25 16.1633 185.583 0.329941 284.75C-3.42006 310.167 16.1633 333.083 41.9966 333.083C61.9966 333.083 79.4966 318.5 82.8299 298.5C95.3299 217.667 135.33 145.583 193.247 92.6667ZM686.163 32.25C669.497 16.8333 643.663 17.25 627.83 33.0833C611.163 49.75 611.997 76.4167 629.08 92.25C686.58 145.167 726.997 217.25 739.497 298.083C742.413 318.083 759.913 332.667 780.33 332.667C805.747 332.667 825.747 309.75 821.58 284.333C805.747 185.583 756.997 97.6667 686.163 32.25Z" fill="black"/>
</svg>
