<svg width="1000" height="1000" viewBox="0 0 1000 1000" xmlns="http://www.w3.org/2000/svg"><path d="M386.273 197.86c-83.637 15.753-142.424 76.341-176.364 181.766-16.97 52.106-25.454 103.606-25.454 154.5 0 6.06.303 11.21.909 15.45.606 4.242 1.515 13.633 2.727 28.174h198.182V974H-1V608.65c0-179.343 35.757-317.483 107.273-414.425C177.788 97.282 271.12 41.54 386.273 27v170.86zm612.727 0c-66.667 10.906-117.273 48.47-151.818 112.695-34.546 64.224-51.818 138.141-51.818 221.754 0 7.27.303 14.541.909 21.812.606 7.27 2.12 15.147 4.545 23.63H999V974H609.91V608.65c0-144.2 30.302-272.95 90.908-386.252C761.425 109.097 860.818 43.965 999 27v170.86z" fill-rule="evenodd"/></svg>