<?xml version="1.0" encoding="utf-8"?>
<!-- Generator: Adobe Illustrator 24.0.1, SVG Export Plug-In . SVG Version: 6.00 Build 0)  -->
<svg version="1.1" id="Layer_1" xmlns="http://www.w3.org/2000/svg" xmlns:xlink="http://www.w3.org/1999/xlink" x="0px" y="0px"
	 viewBox="0 0 1000 1000" style="enable-background:new 0 0 1000 1000;" xml:space="preserve">
<g>
	<g>
		<path d="M601.2,667.8H398.8c-34.5,0-62.5-28-62.5-62.5V403c0-34.5,28-62.5,62.5-62.5h202.3c34.5,0,62.5,28,62.5,62.5v202.3
			C663.7,639.8,635.6,667.8,601.2,667.8z M398.8,395.5c-4.1,0-7.5,3.4-7.5,7.5v202.3c0,4.1,3.4,7.5,7.5,7.5h202.3
			c4.1,0,7.5-3.4,7.5-7.5V403c0-4.1-3.4-7.5-7.5-7.5H398.8z"/>
	</g>
	<g>
		<path d="M134.6,375.3h-55V138c0-34.5,28-62.5,62.5-62.5h245.6v55H142.1c-4.1,0-7.5,3.4-7.5,7.5V375.3z"/>
	</g>
	<g>
		<path d="M857.9,924.5H620.5v-55h237.3c4.1,0,7.5-3.4,7.5-7.5V616.4h55V862C920.4,896.5,892.3,924.5,857.9,924.5z"/>
	</g>
	<g>
		<path d="M924.5,387.8h-55V142.1c0-4.1-3.4-7.5-7.5-7.5H624.7v-55H862c34.5,0,62.5,28,62.5,62.5V387.8z"/>
	</g>
	<g>
		<path d="M383.6,920.4H138c-34.5,0-62.5-28-62.5-62.5V620.5h55v237.3c0,4.1,3.4,7.5,7.5,7.5h245.6V920.4z"/>
	</g>
</g>
</svg>
