<?xml version="1.0" encoding="utf-8"?>
<!-- Generator: Adobe Illustrator 24.1.0, SVG Export Plug-In . SVG Version: 6.00 Build 0)  -->
<svg version="1.1" id="Layer_1" xmlns="http://www.w3.org/2000/svg" xmlns:xlink="http://www.w3.org/1999/xlink" x="0px" y="0px"
	 viewBox="0 0 1000 1000" style="enable-background:new 0 0 1000 1000;" xml:space="preserve">
<g>
	<g>
		<path d="M697.3,394.9L676,317.3c-7.6-27.6-32.9-46.9-61.5-46.9h-229c-28.7,0-54,19.3-61.5,46.9l-21.3,77.6
			c-42.2,6.9-74.5,43.5-74.5,87.6v127.1v90.5c0,16.2,13.2,29.5,29.5,29.5H298c16.2,0,29.5-13.2,29.5-29.5v-82.9h345.1v82.9
			c0,16.2,13.2,29.5,29.5,29.5h40.3c16.2,0,29.5-13.2,29.5-29.5v-90.5V482.5C771.7,438.4,739.4,401.8,697.3,394.9z M338.6,321.4
			c5.8-21.1,25-35.8,46.9-35.8h229c21.8,0,41.1,14.7,46.9,35.8l19.8,72.4H318.8L338.6,321.4z M276.1,472.8c18,0,32.7,14.7,32.7,32.7
			s-14.7,32.7-32.7,32.7s-32.7-14.7-32.7-32.7S258.1,472.8,276.1,472.8z M312.3,700.1c0,7.9-6.4,14.3-14.3,14.3h-40.3
			c-7.9,0-14.3-6.4-14.3-14.3v-82.9h68.8L312.3,700.1L312.3,700.1z M756.5,700.1c0,7.9-6.4,14.3-14.3,14.3H702
			c-7.9,0-14.3-6.4-14.3-14.3v-82.9h68.8V700.1z M243.5,602v-61.6c8.6,8,20.1,12.9,32.7,12.9c26.4,0,47.9-21.5,47.9-47.9
			s-21.5-47.9-47.9-47.9c-12.1,0-23.1,4.5-31.5,11.9c6.2-34.4,36.3-60.5,72.4-60.5H683c36.2,0,66.3,26.3,72.4,60.7
			c-8.4-7.4-19.5-11.9-31.5-11.9c-26.4,0-47.9,21.5-47.9,47.9s21.5,47.9,47.9,47.9c12.6,0,24.1-4.9,32.7-12.9V602H243.5z
			 M756.5,505.6c0,18-14.7,32.7-32.7,32.7s-32.7-14.7-32.7-32.7s14.7-32.7,32.7-32.7S756.5,487.6,756.5,505.6z"/>
	</g>
	<g>
		<rect x="398.8" y="497.9" width="202.3" height="15.2"/>
	</g>
</g>
</svg>
