<svg width="1000" height="1000" viewBox="0 0 1000 1000" fill="none" xmlns="http://www.w3.org/2000/svg">
<path fill-rule="evenodd" clip-rule="evenodd" d="M699 0H0V499.95H100V99.99H600V399.96H900V499.95H1000V321.868L699 0ZM200 755.224C200 741.965 194.732 729.249 185.355 719.873C175.979 710.497 163.261 705.229 150 705.229H100V805.219H150C163.261 805.219 175.979 799.952 185.355 790.576C194.732 781.2 200 768.484 200 755.224ZM300 750.025C300 769.721 296.12 789.225 288.582 807.422C281.044 825.619 269.995 842.153 256.066 856.08C242.137 870.008 225.601 881.056 207.403 888.593C189.204 896.13 169.698 900.01 150 900.01H100V1000H0V600.04H150C189.782 600.04 227.936 615.842 256.066 643.97C284.196 672.097 300 710.246 300 750.025ZM550 755.224C550 727.577 527.6 700.03 500 700.03H450V900.01H500C527.6 900.01 550 882.862 550 855.214V755.224ZM650 750.025V850.015C650 889.794 634.196 927.943 606.066 956.07C577.936 984.198 539.782 1000 500 1000H350V600.04H500C582.5 600.04 650 667.533 650 750.025ZM1000 600.04V700.03H800V800.02H1000V900.01H800V1000H700V600.04H1000Z" fill="black"/>
</svg>
