<svg width="1000" height="1000" viewBox="0 0 1000 1000" fill="none" xmlns="http://www.w3.org/2000/svg">
<g clip-path="url(#clip0_5345_320792)">
<mask id="mask0_5345_320792" style="mask-type:luminance" maskUnits="userSpaceOnUse" x="0" y="-1" width="1000" height="1002">
<path d="M1000 -0.234375H0V1000.24H1000V-0.234375Z" fill="white"/>
</mask>
<g mask="url(#mask0_5345_320792)">
<path fill-rule="evenodd" clip-rule="evenodd" d="M699 -0.234375H0V500.001H100V99.8127H600V399.954H900V500.001H1000V321.817L699 -0.234375ZM200 755.421C200 742.156 194.732 729.433 185.355 720.052C175.979 710.671 163.261 705.398 150 705.398H100V805.445H150C163.261 805.445 175.979 800.172 185.355 790.791C194.732 781.41 200 768.686 200 755.421ZM300 750.219C300 769.928 296.12 789.443 288.582 807.646C281.044 825.854 269.995 842.397 256.066 856.333C242.137 870.269 225.601 881.322 207.402 888.866C189.204 896.405 169.698 900.289 150 900.289H100V1000.34H0V600.148H150C189.782 600.148 227.935 615.961 256.066 644.104C284.196 672.247 300 710.418 300 750.219ZM550 755.421C550 727.761 527.6 700.195 500 700.195H450V900.289H500C527.6 900.289 550 883.134 550 855.468V755.421ZM650 750.219V850.266C650 890.067 634.194 928.238 606.065 956.381C577.936 984.523 539.782 1000.34 500 1000.34H350V600.148H500C582.5 600.148 650 667.68 650 750.219ZM1000 600.148V700.195H800V800.242H1000V900.289H800V1000.34H700V600.148H1000Z" fill="#101721"/>
</g>
</g>
<defs>
<clipPath id="clip0_5345_320792">
<rect width="1000" height="1000" fill="white"/>
</clipPath>
</defs>
</svg>
