<svg width="1000px" height="1000px" viewBox="0 0 1000 1000" version="1.1" xmlns="http://www.w3.org/2000/svg" xmlns:xlink="http://www.w3.org/1999/xlink">
    <!-- Generator: Sketch 55.2 (78181) - https://sketchapp.com -->
    <title>percentage</title>
    <desc>Created with Sketch.</desc>
    <g id="percentage" stroke="none" stroke-width="1" fill="none" fill-rule="evenodd">
        <g id="Group" transform="translate(0.000000, 14.000000)" fill="#000000" fill-rule="nonzero" stroke="#000000">
            <path d="M333.350958,206.629884 C333.341125,149.477078 300.290871,98.3665012 250.304513,76.9663718 C201.072318,55.8891145 144.500636,67.5144758 106.440622,106.841996 C67.5773118,146.999566 55.8295286,208.021648 77.0456591,260.955229 C97.9633282,313.144158 146.56659,346.704905 199.898289,346.704953 C273.052323,346.616919 333.237652,284.439399 333.350958,206.62988 Z M799.856135,624.54245 C726.712977,624.565165 666.523683,686.778324 666.523683,764.591844 C666.523683,842.419574 726.734961,904.641244 799.896206,904.641244 C873.057451,904.641244 933.26873,842.419574 933.268772,764.666902 C933.181071,686.849354 873.008192,624.653173 799.856129,624.54245 Z M799.856129,624.54245 C799.842771,624.54243 799.829411,624.542412 799.816052,624.542396 L799.896206,624.542444 C799.882849,624.542444 799.869492,624.542446 799.856135,624.54245 Z" id="Shape" stroke-width="133.200133"></path>
            <polygon id="Path" stroke-width="83.2500833" points="103.225032 853.55444 823.126355 47.6215197 896.599618 117.710131 176.698294 923.64305"></polygon>
        </g>
    </g>
</svg>