<svg xmlns="http://www.w3.org/2000/svg" width="1000" height="1000"><g fill="#000" fill-rule="nonzero" stroke="#000"><path stroke-width="133.2" d="M333.351 220.63c-.01-57.153-33.06-108.263-83.046-129.664C201.072 69.89 144.5 81.514 106.44 120.842 67.577 161 55.83 222.022 77.046 274.955c20.917 52.19 69.52 85.75 122.852 85.75 73.154-.088 133.34-62.266 133.453-140.075zm466.505 417.912c-73.143.023-133.332 62.236-133.332 140.05 0 77.828 60.211 140.05 133.372 140.05 73.161 0 133.373-62.222 133.373-139.975-.088-77.818-60.26-140.014-133.413-140.125zm0 0h-.04.08-.04z"/><path stroke-width="83.25" d="M103.225 867.554L823.126 61.622 896.6 131.71 176.698 937.643z"/></g></svg>