<svg width="1000" height="1000" viewBox="0 0 1000 1000" fill="none" xmlns="http://www.w3.org/2000/svg">
<path d="M416.666 458.333C508.714 458.333 583.333 383.714 583.333 291.667C583.333 199.619 508.714 125 416.666 125C324.619 125 250 199.619 250 291.667C250 383.714 324.619 458.333 416.666 458.333Z" fill="#9FA6B0"/>
<path d="M431.25 542.083C317.5 537.917 83.333 594.583 83.333 708.333V791.667H480.833C377.916 676.667 429.583 546.25 431.25 542.083Z" fill="#9FA6B0"/>
<path d="M809.583 709.167C824.583 684.583 833.333 655.833 833.333 625C833.333 532.917 758.75 458.333 666.666 458.333C574.583 458.333 500 532.917 500 625C500 717.083 574.583 791.667 666.666 791.667C697.5 791.667 726.25 782.5 750.833 767.917L857.916 875L916.666 816.25L809.583 709.167ZM666.666 708.333C620.833 708.333 583.333 670.833 583.333 625C583.333 579.167 620.833 541.667 666.666 541.667C712.5 541.667 750 579.167 750 625C750 670.833 712.5 708.333 666.666 708.333Z" fill="#9FA6B0"/>
</svg>
