<svg width="1000" height="1000" viewBox="0 0 1000 1000" fill="none" xmlns="http://www.w3.org/2000/svg">
<path d="M500.444 167.047C393.083 167.047 306 254.13 306 361.491C306 468.852 393.083 555.934 500.444 555.934C607.806 555.934 694.889 468.852 694.889 361.491C694.889 254.13 607.806 167.047 500.444 167.047ZM500.444 472.602C439.194 472.602 389.333 422.741 389.333 361.491C389.333 300.241 439.194 250.38 500.444 250.38C561.694 250.38 611.556 300.241 611.556 361.491C611.556 422.741 561.694 472.602 500.444 472.602Z" fill="black"/>
<path d="M777.778 0.379883H222.222C99.4444 0.379883 0 99.8246 0 222.602V778.156C0 900.933 99.4444 1000.38 222.222 1000.38H777.778C900.556 1000.38 1000 900.933 1000 778.156V222.602C1000 99.8246 900.556 0.379883 777.778 0.379883ZM222.222 917.045C206.944 917.045 194.444 904.545 194.444 889.267V833.711C194.444 757.183 256.806 694.822 333.333 694.822H666.667C743.194 694.822 805.556 757.183 805.556 833.711V889.267C805.556 904.545 793.056 917.045 777.778 917.045H222.222ZM916.667 778.156C916.667 809.267 906.25 838.017 888.889 861.072V833.711C888.889 710.933 789.444 611.489 666.667 611.489H333.333C210.556 611.489 111.111 710.933 111.111 833.711V861.072C93.75 837.878 83.3333 809.267 83.3333 778.156V222.602C83.3333 146.075 145.694 83.7134 222.222 83.7134H777.778C854.306 83.7134 916.667 146.075 916.667 222.602V778.156Z" fill="black"/>
</svg>
