<svg width="1000" height="1000" viewBox="0 0 1000 1000" fill="none" xmlns="http://www.w3.org/2000/svg">
<path d="M500 250.163C419.479 250.163 354.167 315.476 354.167 395.996C354.167 476.517 419.479 541.829 500 541.829C580.521 541.829 645.833 476.517 645.833 395.996C645.833 315.476 580.521 250.163 500 250.163ZM500 479.329C454.063 479.329 416.667 441.934 416.667 395.996C416.667 350.059 454.063 312.663 500 312.663C545.938 312.663 583.333 350.059 583.333 395.996C583.333 441.934 545.938 479.329 500 479.329Z" fill="black"/>
<path d="M708.333 125.163H291.667C199.583 125.163 125 199.746 125 291.83V708.496C125 800.579 199.583 875.163 291.667 875.163H708.333C800.417 875.163 875 800.579 875 708.496V291.83C875 199.746 800.417 125.163 708.333 125.163ZM291.667 812.663C280.208 812.663 270.833 803.288 270.833 791.829V750.163C270.833 692.767 317.604 645.996 375 645.996H625C682.396 645.996 729.167 692.767 729.167 750.163V791.829C729.167 803.288 719.792 812.663 708.333 812.663H291.667ZM812.5 708.496C812.5 731.829 804.688 753.392 791.667 770.683V750.163C791.667 658.079 717.083 583.496 625 583.496H375C282.917 583.496 208.333 658.079 208.333 750.163V770.683C195.313 753.288 187.5 731.829 187.5 708.496V291.83C187.5 234.434 234.271 187.663 291.667 187.663H708.333C765.729 187.663 812.5 234.434 812.5 291.83V708.496Z" fill="black"/>
</svg>
