<svg width="1000" height="1000" viewBox="0 0 1000 1000" fill="none" xmlns="http://www.w3.org/2000/svg">
<path d="M500 420.833C548.325 420.833 587.5 381.658 587.5 333.333C587.5 285.008 548.325 245.833 500 245.833C451.675 245.833 412.5 285.008 412.5 333.333C412.5 381.658 451.675 420.833 500 420.833Z" fill="#9FA6B0"/>
<path d="M500 620.833C376.25 620.833 245.833 681.666 245.833 708.333V754.166H754.166V708.333C754.166 681.666 623.75 620.833 500 620.833V620.833Z" fill="#9FA6B0"/>
<path d="M500 541.667C388.75 541.667 166.667 597.5 166.667 708.334V833.334H833.334V708.334C833.334 597.5 611.25 541.667 500 541.667ZM754.167 754.167H245.834V708.334C245.834 681.667 376.25 620.834 500 620.834C623.75 620.834 754.167 681.667 754.167 708.334V754.167ZM500 500C592.084 500 666.667 425.417 666.667 333.334C666.667 241.25 592.084 166.667 500 166.667C407.917 166.667 333.334 241.25 333.334 333.334C333.334 425.417 407.917 500 500 500ZM500 245.834C548.334 245.834 587.5 285 587.5 333.334C587.5 381.667 548.334 420.834 500 420.834C451.667 420.834 412.5 381.667 412.5 333.334C412.5 285 451.667 245.834 500 245.834Z" fill="#9FA6B0"/>
</svg>
