<svg xmlns="http://www.w3.org/2000/svg" viewBox="0 0 1000 1000"><path d="M500 562.5c-166.875 0-500 83.75-500 250V1000h1000V812.5c0-166.25-333.125-250-500-250zm381.25 318.75h-762.5V812.5c0-40 195.625-131.25 381.25-131.25S881.25 772.5 881.25 812.5zM500 500c138.125 0 250-111.875 250-250S638.125 0 500 0 250 111.875 250 250s111.875 250 250 250zm0-381.25c72.5 0 131.25 58.75 131.25 131.25S572.5 381.25 500 381.25 368.75 322.5 368.75 250 427.5 118.75 500 118.75zm0 0" fill-rule="evenodd" fill="#000"/></svg>