<svg width="1000" height="1000" viewBox="0 0 1000 1000" fill="none" xmlns="http://www.w3.org/2000/svg">
<path d="M400 450C510.457 450 600 360.457 600 250C600 139.543 510.457 50 400 50C289.543 50 200 139.543 200 250C200 360.457 289.543 450 400 450Z" fill="#000"/>
<path d="M417.5 550.5C281 545.5 0 613.5 0 750V850H477C353.5 712 415.5 555.5 417.5 550.5Z" fill="#000"/>
<path d="M871.5 751C889.5 721.5 900 687 900 650C900 539.5 810.5 450 700 450C589.5 450 500 539.5 500 650C500 760.5 589.5 850 700 850C737 850 771.5 839 801 821.5L929.5 950L1000 879.5L871.5 751ZM700 750C645 750 600 705 600 650C600 595 645 550 700 550C755 550 800 595 800 650C800 705 755 750 700 750Z" fill="#000"/>
</svg>
