<svg width="1000" height="1000" fill="none" xmlns="http://www.w3.org/2000/svg"><path fill-rule="evenodd" clip-rule="evenodd" d="M603.333 497.917C610.417 498.75 617.5 500 625 500c92.083 0 166.667-74.583 166.667-166.667 0-92.083-74.584-166.666-166.667-166.666S458.333 241.25 458.333 333.333c0 7.5 1.25 14.584 2.084 21.667l142.916 142.917zM625.001 250c45.833 0 83.333 37.5 83.333 83.333 0 41.25-30.417 75.834-69.583 82.084l-96.25-96.25C549.584 280 583.751 250 625.001 250zm70.413 340l243.334 243.333h19.583V750c0-89.167-148.333-145.833-262.917-160zM0 130l166.667 166.667v120h-125V500h125v125H250V500h120l104.583 104.584c-91.666 25-182.916 74.583-182.916 145.416v83.334h411.666L870 1000l58.75-58.75-870-870L0 130zm542.083 542.084L620 750H375c3.333-10 36.667-42.083 121.25-65.416l45.833-12.5zM249.998 380.001l36.666 36.666h-36.666v-36.666z" fill="#000"/></svg>