<svg xmlns="http://www.w3.org/2000/svg" viewBox="0 0 1000 1000"><path fill="none" d="M0 0h1000v1000H0z"/><path d="M746.11 557.98c-19.82-19.81-51.84-19.81-71.66 0l-80.93 80.88c-41.76-12.42-109.77-39.07-151.53-80.88-44.29-44.29-69.63-114.18-80.78-151.63l80.78-80.78c19.82-19.82 19.82-51.84 0-71.66L239.26 51.19c-19-19-52.66-19-71.66 0L30.31 188.53C10.95 207.79.06 234.34.51 261.36c1.11 72.12 20.07 322.67 217.77 520.37 197.55 197.5 448.26 216.6 520.42 217.77h1.42c26.76 0 52.05-10.54 71.2-29.7l137.44-137.44c19.81-19.82 19.81-51.84 0-71.66L746.11 557.98zm-6.44 340.16c-63.25-1.06-279.65-18.04-449.73-188.12-170.69-170.69-187.11-387.8-188.07-449.73l101.56-101.61 131.06 131.06-65.53 65.53c-12.06 12.06-17.23 29.5-13.73 46.22 1.22 5.83 30.96 144.03 115.09 228.16s222.33 113.88 228.16 115.09c16.78 3.6 34.11-1.62 46.22-13.73l65.53-65.53 131.05 131.06-101.61 101.6z"/><path d="M771.29 300.38L999.5 72.17 927.84.51l-228.21 228.2L558.24 87.27v354.5h354.5z"/></svg>