<svg xmlns="http://www.w3.org/2000/svg" viewBox="0 0 1000 1000"><path fill-rule="evenodd" d="M666.7 500h111A277.9 277.9 0 0 0 500 222.2v111.1c92.2 0 166.7 74.5 166.7 166.7zm222.2 0H1000A500 500 0 0 0 500 0v111.1c215 0 388.9 173.9 388.9 388.9zm55.5 194.4a631.1 631.1 0 0 1-198.3-31.6 57 57 0 0 0-56.7 13.3L567.2 798.3a835.9 835.9 0 0 1-366-366l122.1-122.9a53.3 53.3 0 0 0 14-55.5 631.1 631.1 0 0 1-31.7-198.3C305.6 25 280.6 0 250 0H55.6C25 0 0 25 0 55.6A944.4 944.4 0 0 0 944.4 1000c30.6 0 55.6-25 55.6-55.6V750c0-30.6-25-55.6-55.6-55.6zM112.8 111.1H196a765.9 765.9 0 0 0 25 143.3l-66.7 67.3A852.6 852.6 0 0 1 112.8 111zm776.1 776.1A827.9 827.9 0 0 1 677.8 845l66.7-66.7a708.5 708.5 0 0 0 144.4 25v84z" clip-rule="evenodd"/></svg>