<svg width="1000" height="1000" fill="none" xmlns="http://www.w3.org/2000/svg"><path d="M696.332 553.667c-16.291-16.292-42.625-16.292-58.916 0l-66.417 66.416c-30.792-9.166-88.25-30-124.667-66.416-36.416-36.417-57.25-93.875-66.416-124.667l66.416-66.417c16.292-16.291 16.292-42.625 0-58.916L279.666 137c-16.292-16.292-42.625-16.292-58.917 0l-113 113c-15.833 15.833-24.75 37.583-24.417 59.792.959 59.333 16.667 265.416 179.084 427.833 162.416 162.417 368.5 178.083 427.833 179.042h1.167c22 0 42.791-8.667 58.541-24.417l113-113c16.292-16.292 16.292-42.625 0-58.917L696.332 553.667zm-5.291 279.666c-52-.875-229.917-14.833-369.709-154.666-140.25-140.25-153.833-318.792-154.666-369.75l83.541-83.542 107.75 107.75L304.082 387c-9.958 9.917-14.208 24.25-11.333 38 1 4.792 25.458 118.417 94.625 187.583 69.167 69.167 182.792 93.625 187.583 94.625 13.792 2.959 28.084-1.333 38-11.291l53.875-53.875 107.75 107.75-83.541 83.541z" fill="#000"/><path d="M699.791 241.291L512.416 428.666l58.916 58.917 187.375-187.375 116.5 116.458V124.791H583.332l116.459 116.5z" fill="#000"/></svg>