<svg xmlns="http://www.w3.org/2000/svg" viewBox="0 0 1000 1000"><path d="M944.445 750.148c-68.89 0-136.113-11.105-198.336-31.648-5.554-2.223-11.664-2.777-17.218-2.777-14.446 0-28.336 5.554-39.446 16.101l-122.222 122.16C410 773.47 281.109 645.204 201.109 488.066L323.332 365.91c15.559-15.55 20-37.203 13.89-56.637-20.554-62.191-31.667-128.824-31.667-198.23 0-30.54-25-55.527-55.555-55.527H55.555C25 55.516 0 80.504 0 111.043c0 521.39 422.777 943.945 944.445 943.945 30.555 0 55.555-24.984 55.555-55.527V805.676c0-30.54-25-55.528-55.555-55.528zM112.777 166.57h83.332c3.891 49.418 12.223 97.727 25.559 143.813L155 377.016c-22.777-66.633-37.223-137.153-42.223-210.446zm776.114 775.7c-73.336-4.997-143.891-19.434-211.114-41.645l66.114-66.074c47.218 13.324 95.554 21.652 144.441 24.984v82.735zm-55.559-553.594H689.445l278.887-278.742L890 31.64 611.11 310.383V166.57H500v333.157h333.332zm0 0" fill-rule="evenodd" fill="#000"/></svg>