<svg width="1000" height="1000" viewBox="0 0 1000 1000" xmlns="http://www.w3.org/2000/svg"><path d="M775.902 636.363c-36.143-22.894-83.904-13.345-108.46 21.684-40.046 48.374-88.435 128.441-270.314-53.377-181.878-181.82-103.453-231.861-55.064-271.894 35.041-24.547 44.593-72.293 21.692-108.424L250.291 50.873C235.274 29.188 215.251-5.84 168.529.831 121.81 7.504 0 75.894 0 226.02c0 150.125 118.471 333.612 280.326 495.414C442.18 883.236 625.728 1000 774.234 1000c148.506 0 220.256-133.445 225.261-166.806 5.006-33.361-28.366-66.723-50.058-81.735L775.902 636.363z" fill-rule="evenodd"/></svg>