<svg width="1000" height="1000" xmlns="http://www.w3.org/2000/svg" viewBox="0 0 1000 1000"><path fill="none" d="M0 0h1000v1000H0z"/><path d="M773.84 541.56c-20.55-20.55-53.77-20.55-74.33 0l-83.79 83.79c-38.85-11.56-111.33-37.85-157.27-83.79-45.94-45.94-72.22-118.43-83.79-157.27l83.79-83.79c20.55-20.55 20.55-53.77 0-74.33L248.2 15.91c-20.55-20.55-53.77-20.55-74.33 0L31.31 158.47C11.34 178.44.09 205.88.51 233.9c1.21 74.85 21.03 334.84 225.92 539.73 204.9 204.9 464.88 224.66 539.73 225.87h1.47c27.75 0 53.98-10.93 73.85-30.8l142.55-142.56c20.55-20.55 20.55-53.77 0-74.33L773.84 541.56zm-6.67 352.81c-65.6-1.1-290.05-18.71-466.41-195.12C123.83 522.32 106.69 297.08 105.64 232.8l105.39-105.4 135.93 135.93L279 331.3c-12.56 12.51-17.92 30.59-14.3 47.94 1.26 6.05 32.12 149.39 119.37 236.65 87.26 87.26 230.6 118.11 236.65 119.37 17.4 3.73 35.43-1.68 47.94-14.24l67.97-67.97 135.93 135.93-105.39 105.39z"/><path d="M778.2 147.48L541.82 383.86l74.33 74.33 236.38-236.38L999.5 368.73V.51H631.29L778.2 147.48z"/></svg>