<svg xmlns="http://www.w3.org/2000/svg" viewBox="0 0 1000 1000"><path fill-rule="evenodd" d="M987.5 708.3c-127-125.4-298.6-202.6-487.7-202.6-189.1 0-360.7 77.2-487.7 202.6A44.2 44.2 0 0 0 0 739c0 12.1 4.6 23 12 30.8l103.4 107.6c7.5 7.8 17.9 12.6 29.5 12.6 11.3 0 21.7-4.8 29.2-12.2 32.9-32 70.4-59 110.8-80.2a43.4 43.4 0 0 0 23.3-39V624a598.3 598.3 0 0 1 383.2-.4v134.5a44 44 0 0 0 23.3 39 491 491 0 0 1 111.2 80.3 40 40 0 0 0 29.2 12.1c11.6 0 22-4.7 29.5-12.6L988 769.5a44.2 44.2 0 0 0-.4-61.2zm-762.6 24.3a556 556 0 0 0-77.9 55l-44.5-46.4a615.7 615.7 0 0 1 122.8-82.4v73.8h-.4zm628 54.6c-25-20.8-50.7-39-78.2-55v-73.8a627.8 627.8 0 0 1 122.8 82.4L853 787.2zM291.6 264l205.8 214.3 294.5-306.7L733 110 497.3 355.6 349.9 202H458v-86.8H208.2v260.3h83.3V264z" clip-rule="evenodd"/></svg>