<svg xmlns="http://www.w3.org/2000/svg" width="1000" height="1000" viewBox="0 0 1000 1000"><path d="M448.537 275.279l-50.047 50.047c-27.652 27.652-27.602 72.624.168 100.394l166.759 166.759c27.949 27.949 72.717 27.844 100.394.168l50.047-50.047c18.502-18.502 48.426-18.575 66.954-.046L966.51 726.252c27.706 27.706 27.834 72.498-.115 100.446L866.217 926.876c-64.541 64.541-181.706 81.514-260.058 34.628 0 0-125.502-52.806-323.429-250.732S30.054 385.008 30.054 385.008C-15.595 305.905-.107 189.284 64.26 124.919L164.438 24.741c27.771-27.771 72.566-27.995 100.446-.115l183.698 183.698c18.477 18.477 18.518 48.39-.046 66.954zM131.09 191.746c-34.188 34.188-39.974 102.606-19.176 146.02 0 0 33.383 60.58 48.492 82.874 44.66 65.896 106.771 140.914 189.155 223.299 82.372 82.372 156.926 144.096 222.045 188.124 21.984 14.864 83.086 48.338 83.086 48.338 39.561 20.703 109.896 14.442 144.696-20.358l83.629-83.629-133.659-133.659-16.717 16.717c-64.66 64.66-169.271 64.615-234.053-.168L331.829 492.545c-64.625-64.625-64.782-169.438-.168-234.053l16.717-16.717-133.659-133.659-83.629 83.629z"/></svg>