<svg xmlns="http://www.w3.org/2000/svg" viewBox="0 0 1000 1000"><path fill="none" d="M0 0h1000v1000H0z"/><path d="M773.83 541.53c-20.55-20.55-53.77-20.55-74.32 0l-83.79 83.79c-38.85-11.56-111.33-37.85-157.27-83.79-45.94-45.94-72.22-118.43-83.79-157.27l83.79-83.79c20.55-20.55 20.55-53.77 0-74.32L248.19 15.89c-20.55-20.55-53.77-20.55-74.33 0L31.31 158.45C11.34 178.42.09 205.86.51 233.88c1.21 74.85 21.03 334.83 225.92 539.72 204.89 204.9 464.88 224.66 539.78 225.92h1.47c27.75 0 53.98-10.93 73.85-30.8l142.55-142.55c20.55-20.55 20.55-53.77 0-74.33L773.83 541.53zm-6.67 352.81c-65.6-1.1-290.05-18.71-466.4-195.12-176.93-176.93-194.07-402.16-195.12-466.45l105.39-105.39 135.93 135.93L279 331.27c-12.56 12.51-17.92 30.59-14.3 47.94 1.26 6.05 32.12 149.39 119.37 236.64 87.26 87.26 230.6 118.11 236.64 119.37 17.5 3.73 35.43-1.68 47.94-14.24l68.02-67.96L872.6 788.95 767.16 894.34z"/></svg>