<svg width="1000" height="1000" fill="none" xmlns="http://www.w3.org/2000/svg"><path d="M737.79 512.209c-16.291-16.292-42.625-16.292-58.916 0l-66.417 66.416c-30.792-9.166-88.25-30-124.667-66.416-36.416-36.417-57.25-93.875-66.416-124.667l66.416-66.417c16.292-16.291 16.292-42.625 0-58.916L321.124 95.542c-16.292-16.292-42.625-16.292-58.917 0l-113 113c-15.833 15.833-24.75 37.583-24.417 59.792.959 59.333 16.667 265.416 179.084 427.833C466.29 858.584 672.374 874.25 731.749 875.25h1.166c22 0 42.792-8.666 58.542-24.416l113-113c16.292-16.292 16.292-42.625 0-58.917L737.79 512.209zm-5.291 279.666c-52-.875-229.917-14.833-369.709-154.666-140.25-140.25-153.833-318.792-154.666-369.75l83.541-83.542 107.75 107.75-53.875 53.875c-9.958 9.917-14.208 24.25-11.333 38 1 4.792 25.458 118.417 94.625 187.583 69.167 69.167 182.792 93.625 187.583 94.625 13.875 2.959 28.084-1.333 38-11.291l53.917-53.875 107.75 107.75-83.583 83.541z" fill="#000"/></svg>