<svg width="1000" height="1000" fill="none" xmlns="http://www.w3.org/2000/svg"><path d="M696.335 553.666c-16.292-16.291-42.625-16.291-58.917 0l-66.542 66.5c-34.333-10.208-90.25-32.125-124.583-66.5-36.417-36.416-57.25-93.875-66.417-124.666l66.417-66.417c16.292-16.292 16.292-42.625 0-58.917L279.626 137c-15.625-15.625-43.292-15.625-58.917 0L107.834 249.916c-15.916 15.834-24.875 37.667-24.5 59.875.917 59.292 16.5 265.292 179.042 427.834C424.793 900 630.918 915.708 690.251 916.666h1.167c22 0 42.792-8.666 58.542-24.416l113-113c16.291-16.292 16.291-42.625 0-58.917L696.335 553.666zm-5.292 279.667c-52-.875-229.917-14.833-369.75-154.667-140.334-140.333-153.834-318.833-154.625-369.75l83.5-83.541 107.75 107.75L304.043 387c-9.917 9.916-14.167 24.25-11.292 38 1 4.791 25.458 118.416 94.625 187.583s182.792 93.625 187.583 94.625c13.792 2.958 28.042-1.333 38.001-11.292l53.875-53.875 107.749 107.75-83.541 83.542z" fill="#000"/><path d="M658.125 282.958l-116.25-116.292v291.459h291.459l-116.292-116.25L904.667 154.25 845.75 95.333 658.125 282.958z" fill="#000"/></svg>