<svg xmlns="http://www.w3.org/2000/svg" viewBox="0 0 1000 1000"><path fill-rule="evenodd" d="M625 500h83.3c0-115-93.3-208.3-208.3-208.3V375c69.2 0 125 55.8 125 125zm166.7 0H875c0-207-168-375-375-375v83.3A291.5 291.5 0 0 1 791.7 500zm41.6 145.8c-52 0-102-8.3-148.7-23.7a42.7 42.7 0 0 0-42.5 10l-91.7 91.6a626.9 626.9 0 0 1-274.6-274.5l91.7-92.1a40 40 0 0 0 10.4-41.7 473.3 473.3 0 0 1-23.7-148.7c0-23-18.8-41.7-41.7-41.7H166.7c-23 0-41.7 18.8-41.7 41.7C125 557.9 442 875 833.3 875c23 0 41.7-18.8 41.7-41.7V687.5c0-23-18.8-41.7-41.7-41.7zM209.6 208.3H272c2.9 36.7 9.2 73 18.7 107.5l-50 50.4a639.5 639.5 0 0 1-31.2-157.9zm582 582.1a620.9 620.9 0 0 1-158.3-31.6l50-50c35.4 10 71.7 16.2 108.4 18.7v63z" clip-rule="evenodd"/></svg>