<svg width="1000" height="1000" viewBox="0 0 1000 1000" fill="none" xmlns="http://www.w3.org/2000/svg">
<path d="M906.617 816.694H997.079V907.155H2V816.694H92.4617V138.231C92.4617 126.235 97.2271 114.73 105.71 106.248C114.192 97.7654 125.697 93 137.693 93H590.001C601.997 93 613.502 97.7654 621.984 106.248C630.467 114.73 635.232 126.235 635.232 138.231V816.694H725.694V364.385H861.386C873.382 364.385 884.887 369.151 893.37 377.633C901.852 386.115 906.617 397.62 906.617 409.616V816.694ZM273.385 454.847V545.309H454.309V454.847H273.385ZM273.385 273.923V364.385H454.309V273.923H273.385Z" fill="#101721"/>
</svg>
