<svg width="1000" height="1000" viewBox="0 0 1000 1000" fill="none" xmlns="http://www.w3.org/2000/svg">
<path d="M727.273 363.727H818.182V272.818H727.273V363.727ZM727.273 545.545H818.182V454.636H727.273V545.545ZM727.273 727.364H818.182V636.455H727.273V727.364ZM727.273 909.182V818.273H909.091V181.909H500V245.545L409.091 179.636C409.091 155.394 418 134.561 435.818 117.136C453.606 99.7121 475 91 500 91H909.091C934.091 91 955.5 99.8939 973.318 117.682C991.106 135.5 1000 156.909 1000 181.909V818.273C1000 843.273 991.106 864.682 973.318 882.5C955.5 900.288 934.091 909.182 909.091 909.182H727.273ZM-3.05176e-05 863.727V501.227C-3.05176e-05 486.076 3.40906 472.061 10.2272 459.182C17.0454 446.303 26.5151 435.697 38.6363 427.364L265.909 264.864C281.818 253.5 299.242 247.818 318.182 247.818C337.121 247.818 354.545 253.5 370.454 264.864L597.727 427.364C609.848 435.697 619.318 446.303 626.136 459.182C632.954 472.061 636.364 486.076 636.364 501.227V863.727C636.364 876.606 632.015 887.394 623.318 896.091C614.591 904.818 603.788 909.182 590.909 909.182H363.636V681.909H272.727V909.182H45.4545C32.5757 909.182 21.7878 904.818 13.0909 896.091C4.36361 887.394 -3.05176e-05 876.606 -3.05176e-05 863.727ZM90.9091 818.273H181.818V591H454.545V818.273H545.454V500.091L318.182 338.727L90.9091 500.091V818.273Z" fill="black"/>
</svg>
