<svg width="1000" height="1000" viewBox="0 0 1000 1000" fill="none" xmlns="http://www.w3.org/2000/svg">
<path d="M598.182 427.364L370.909 265.091C339.091 242.364 296.818 242.364 265.455 265.091L38.1818 427.364C14.0909 444.636 0 471.909 0 501.455V863.727C0 888.727 20.4545 909.182 45.4545 909.182H227.273V636.455H409.091V909.182H590.909C615.909 909.182 636.364 888.727 636.364 863.727V501.455C636.364 471.909 622.273 444.636 598.182 427.364Z" fill="black"/>
<path d="M910.455 91H498.636C449.091 91 409.091 131 409.091 180.545L413.182 184.636C416.818 186.909 420.455 188.727 424.091 191L651.364 353.273C685.909 377.818 710.455 414.182 721.364 454.636H818.182V545.545H727.273V636.455H818.182V727.364H727.273V909.182H910.455C960 909.182 1000 869.182 1000 819.636V180.545C1000 131 960 91 910.455 91ZM818.182 363.727H727.273V272.818H818.182V363.727Z" fill="black"/>
</svg>
