<svg width="1000" height="1000" viewBox="0 0 1000 1000" fill="none" xmlns="http://www.w3.org/2000/svg">
<g clip-path="url(#clip0)">
<path d="M841.06 319.919H760.588V403.327H841.06V319.919Z" fill="black"/>
<path d="M658.013 625.899H339.772V685.477H658.013V625.899Z" fill="black"/>
<path d="M530.545 773.381H339.772V832.958H530.545V773.381Z" fill="black"/>
<path d="M942.348 178.507H824.966V58.2284C824.966 26.0791 800.073 0 769.386 0H228.828C198.142 0 173.249 26.0791 173.249 58.2284V178.507H55.867C24.5365 178.507 -1 205.261 -1 238.085V696.268C-1 729.092 24.5365 755.845 55.867 755.845H173.249V940.872C173.249 973.471 198.571 1000 229.687 1000H768.313C799.429 1000 824.751 973.471 824.751 940.872V755.845H942.133C973.463 755.845 999 729.092 999 696.268V238.085C999 205.261 973.678 178.507 942.348 178.507ZM252.648 83.1835H745.137V178.507H252.648V83.1835ZM745.352 916.817H252.648V542.266H745.137V916.817H745.352ZM919.601 672.437H824.966V517.986C824.966 485.387 799.644 458.858 768.528 458.858H229.687C198.571 458.858 173.249 485.387 173.249 517.986V672.437H78.6137V261.915H919.601V672.437Z" fill="black"/>
</g>
<defs>
<clipPath id="clip0">
<rect width="1000" height="1000" fill="white"/>
</clipPath>
</defs>
</svg>
