<?xml version="1.0" encoding="utf-8"?>
<!-- Generator: Adobe Illustrator 25.2.0, SVG Export Plug-In . SVG Version: 6.00 Build 0)  -->
<svg version="1.1" id="Layer_1" xmlns="http://www.w3.org/2000/svg" xmlns:xlink="http://www.w3.org/1999/xlink" x="0px" y="0px"
	 viewBox="0 0 1000 1000" style="enable-background:new 0 0 1000 1000;" xml:space="preserve">
<g>
	<rect x="622.4" y="420.4" width="37.5" height="37.1"/>
	<rect x="426.3" y="556.5" width="148.3" height="26.5"/>
	<rect x="426.3" y="622.1" width="88.9" height="26.5"/>
	<path d="M707.1,357.5h-54.7V304c0-14.3-11.6-25.9-25.9-25.9H374.6c-14.3,0-25.9,11.6-25.9,25.9v53.5h-54.7
		c-14.6,0-26.5,11.9-26.5,26.5v203.8c0,14.6,11.9,26.5,26.5,26.5h54.7v82.3c0,14.5,11.8,26.3,26.3,26.3h251
		c14.5,0,26.3-11.8,26.3-26.3v-82.3h54.7c14.6,0,26.5-11.9,26.5-26.5V384C733.5,369.4,721.7,357.5,707.1,357.5z M385.7,315.1h229.5
		v42.4H385.7V315.1z M615.3,685.9H385.7V519.3h229.5V685.9z M696.5,577.2h-44.1v-68.7c0-14.5-11.8-26.3-26.3-26.3H375
		c-14.5,0-26.3,11.8-26.3,26.3v68.7h-44.1V394.6h391.9V577.2z"/>
</g>
</svg>
