<svg width="1000" height="1000" fill="none" xmlns="http://www.w3.org/2000/svg"><g clip-path="url(#clip0)" fill="#000"><path d="M841 320h-80v83h80v-83zM658 626H340v59h318v-59zM531 773H340v60h191v-60z"/><path d="M942 179H825V58c0-32-25-58-56-58H229c-31 0-56 26-56 58v121H56c-31 0-57 26-57 59v458c0 33 26 60 57 60h117v185c0 32 26 59 57 59h538c31 0 57-27 57-59V756h117c31 0 57-27 57-60V238c0-33-25-59-57-59zM253 83h492v96H253V83zm492 834H253V542h492v375zm175-245h-95V518c0-33-25-59-56-59H230c-31 0-57 26-57 59v154H79V262h841v410z"/></g><defs><clipPath id="clip0"><path fill="#fff" d="M0 0h1000v1000H0z"/></clipPath></defs></svg>