<svg width="1000" height="1000" fill="none" xmlns="http://www.w3.org/2000/svg"><path fill-rule="evenodd" clip-rule="evenodd" d="M826 179h117c32 0 57 26 57 59v458c0 33-26 60-57 60H826v185c0 32-26 59-57 59H231c-31 0-57-27-57-59V756H57c-31 0-57-27-57-60V238c0-33 26-59 57-59h117V58c0-32 25-58 56-58h540c31 0 56 26 56 58v121zm-80-96H254v96h492V83zM254 917h492V542H254v375zm572-245h95V262H80v410h94V518c0-33 26-59 57-59h539c31 0 56 26 56 59v154zm-64-352h80v83h-80v-83zM341 626h318v59H341v-59zm191 147H341v60h191v-60z" fill="#000"/></svg>