<svg xmlns="http://www.w3.org/2000/svg" width="1044" height="1000" viewBox="0 0 1044 1000"><path d="M772.998 524.324H682.38L521.739 656.757 361.098 524.324H270.48c-70.518-.001-138.128 27.663-187.862 76.867S5.127 717.081 5.492 786.486L5.488 1000h1032.501l-.004-213.514c.365-69.405-27.392-136.091-77.126-185.295s-117.345-76.868-187.862-76.867zm155.154 367.568H115.325l.006-105.405c-.366-40.732 15.818-79.922 44.954-108.852s68.808-45.204 110.195-45.202h50.801l200.458 164.865 200.458-164.865h50.801c41.387-.002 81.06 16.272 110.195 45.202s45.32 68.119 44.954 108.852l.006 105.405z"/><path d="M521.739 541.892c151.478-.002 274.345-120.732 274.596-269.822S674.127 1.849 522.65 1.353C371.172.857 247.897 121.182 247.139 270.27c-.002 149.486 122.721 270.878 274.6 271.622zm0-433.784c90.994 0 164.76 72.603 164.76 162.162s-73.766 162.162-164.76 162.162c-90.994 0-164.76-72.603-164.76-162.162s73.766-162.162 164.76-162.162z"/></svg>