<svg xmlns="http://www.w3.org/2000/svg" viewBox="0 0 1000 1000"><path d="M852.9 128.9H742.8V67.8h-55v61.1H312.2V67.8h-55v61.1H147.1c-34.5 0-62.5 28-62.5 62.5v705.8c0 34.5 28 62.5 62.5 62.5h705.8c34.5 0 62.5-28 62.5-62.5V191.4c0-34.5-28-62.5-62.5-62.5zm-705.8 55h110.1V245h55v-61.1h375.7V245h55v-61.1H853c4.1 0 7.5 3.4 7.5 7.5v155.2H139.6V191.4c0-4.1 3.4-7.5 7.5-7.5zm705.8 720.8H147.1c-4.1 0-7.5-3.4-7.5-7.5V401.6h720.8v495.6c0 4.1-3.4 7.5-7.5 7.5z"/><path d="M445.5 708L356 618.5l-38.9 38.9 109 109c5.4 5.4 12.4 8.1 19.4 8.1 7 0 14.1-2.7 19.4-8.1l208.6-208.6-38.9-38.9L445.5 708z"/></svg>