<svg width="1000" height="1000" fill="none" xmlns="http://www.w3.org/2000/svg"><g clip-path="url(#clip0)" fill="#000"><path d="M918.482 255.804L669.371 0H139.147C106.936 0 81 26.145 81 58.147v883.706c0 32.211 26.145 58.147 58.147 58.147h720.979c32.211 0 58.146-26.145 58.146-58.147l.21-686.049zm-107.928 5.857H647.618V94.123L810.554 261.66zm26.355 657.184H162.364V81.782h403.681v221.084c0 22.38 18.406 40.786 40.786 40.786h230.078v575.193z"/><path d="M493.467 261.661H266.945v81.364h226.522v-81.364zM732.12 448.024H266.945v81.364H732.12v-81.364zM732.12 633.968H266.945v81.363H732.12v-81.363z"/></g><defs><clipPath id="clip0"><path fill="#fff" d="M0 0h1000v1000H0z"/></clipPath></defs></svg>