<svg xmlns="http://www.w3.org/2000/svg" viewBox="0 0 1000 1000"><path d="M792.4 111.3H644.2V90.8c0-26.2-21.3-47.5-47.5-47.5H403.3c-26.2 0-47.5 21.3-47.5 47.5v20.5H207.6c-34.5 0-62.5 28-62.5 62.5v720.4c0 34.5 28 62.5 62.5 62.5h584.7c34.5 0 62.5-28 62.5-62.5V173.8c.1-34.4-28-62.5-62.4-62.5zm-381.6-13h178.4v81.1H410.8V98.3zm389.1 795.9c0 4.1-3.4 7.5-7.5 7.5H207.6c-4.1 0-7.5-3.4-7.5-7.5V173.8c0-4.1 3.4-7.5 7.5-7.5h148.2v20.5c0 26.2 21.3 47.5 47.5 47.5h193.4c26.2 0 47.5-21.3 47.5-47.5v-20.5h148.2c4.1 0 7.5 3.4 7.5 7.5v720.4z"/><path d="M329.3 416.1l-30.5-30.5-38.9 38.9 49.6 49.6c11 11 28.7 11 39.7 0l88.4-88.4-38.9-38.9-69.4 69.3zM329.3 673.3l-30.5-30.5-38.9 38.9 49.6 49.6c11 11 28.7 11 39.7 0l88.4-88.4-39-38.9-69.3 69.3zM493.1 387h247v55h-247zM493.1 644.2h247v55h-247z"/></svg>