<svg width="1000" height="1000" viewBox="0 0 1000 1000" fill="none" xmlns="http://www.w3.org/2000/svg">
<path d="M500 277.778C377.222 277.778 277.778 377.222 277.778 500C277.778 622.778 377.222 722.222 500 722.222C622.778 722.222 722.222 622.778 722.222 500C722.222 377.222 622.778 277.778 500 277.778ZM111.111 666.667H0V888.889C0 950 50 1000 111.111 1000H333.333V888.889H111.111V666.667ZM111.111 111.111H333.333V0H111.111C50 0 0 50 0 111.111V333.333H111.111V111.111ZM888.889 0H666.667V111.111H888.889V333.333H1000V111.111C1000 50 950 0 888.889 0ZM888.889 888.889H666.667V1000H888.889C950 1000 1000 950 1000 888.889V666.667H888.889V888.889Z" fill="black"/>
</svg>
