<svg xmlns="http://www.w3.org/2000/svg" viewBox="0 0 1000 1000"><path d="M915.7 48.9H779.1V.6h-83.4v48.3h-392V.6h-83.1v48.3H84.1c-32.9 0-59.4 26.7-59.4 59.4v831.8c0 32.9 26.7 59.4 59.4 59.4h831.8c32.9 0 59.4-26.7 59.4-59.4V108.3c-.4-32.7-27.1-59.4-59.6-59.4zm-23.9 867.3H107.4V131.8h112.8v59.4h83.1v-59.4h392v59.4h83.1v-59.4h112.8v784.4h.6z"/><path d="M539.1 240.4c-95.3-11.8-188.7 19.7-256.5 86.3-68 66.7-100.9 159.7-90.8 255C207.2 726.2 323.5 841.6 468.2 856c10.7 1.1 21.4 1.5 32.1 1.5 39.1 0 77.6-7.3 113.9-22l-30.6-77.2c-33.8 13.3-70.1 18.4-107.1 15-105.8-10.7-190.6-94.7-202-200.5-7.3-69.7 16.7-138.1 66.5-186.8 49.6-48.7 118.2-71.8 187.9-63.3 93.8 11.5 172.7 84 192.4 176.3 9.8 46.4 5.3 93.8-12.6 137-5.3 12.4-17.7 20.5-31.8 20.5-19 0-34.4-15.4-34.4-34.4V405.4h-83.6v13c-18-8.3-38.3-13-59.4-13-78.7 0-142.6 63.9-142.6 142.6s63.9 142.6 142.6 142.6c25.6 0 49.6-6.8 70.3-18.8 18.8 40.2 59.4 68.4 106.7 68.4 47.4 0 90-27.8 108.4-71.4 24.8-58.8 31-123.1 17.5-186.2-26.9-128.9-132.9-226.2-263.3-242.2zm-39.3 367c-32.7 0-59.4-26.7-59.4-59.4s26.7-59.4 59.4-59.4 59.4 26.7 59.4 59.4c-.2 32.7-26.9 59.4-59.4 59.4z"/></svg>