<svg xmlns="http://www.w3.org/2000/svg" width="1000pt" height="1000pt" viewBox="0 0 1000 1000"><path d="M915.7 48.898H779.101V.602h-83.403v48.296h-392V.602h-83.097v48.296h-136.5c-32.903 0-59.403 26.704-59.403 59.403v831.8C24.7 973 51.4 999.5 84.102 999.5h831.796c32.903 0 59.403-26.7 59.403-59.398V108.3c-.403-32.7-27.102-59.403-59.602-59.403zM891.8 916.2H107.399V131.801H220.2v59.398h83.102v-59.398h392v59.398h83.097v-59.398H891.2v784.398zm0 0"/><path d="M539.102 240.398c-95.301-11.796-188.704 19.704-256.5 86.301-68 66.7-100.903 159.7-90.801 255C207.199 726.2 323.5 841.602 468.199 856c10.7 1.102 21.403 1.5 32.102 1.5 39.097 0 77.597-7.3 113.898-22l-30.597-77.2c-33.801 13.302-70.102 18.4-107.102 15-105.8-10.698-190.602-94.698-202-200.5-7.3-69.698 16.7-138.1 66.5-186.8 49.602-48.7 118.2-71.8 187.898-63.3 93.801 11.5 172.704 84 192.403 176.3 9.8 46.398 5.3 93.8-12.602 137-5.3 12.398-17.699 20.5-31.8 20.5-19 0-34.399-15.398-34.399-34.398V405.398h-83.602v13c-18-8.296-38.296-13-59.398-13-78.7 0-142.602 63.903-142.602 142.602 0 78.7 63.903 142.602 142.602 142.602 25.602 0 49.602-6.801 70.3-18.801 18.802 40.199 59.4 68.398 106.7 68.398 47.398 0 90-27.8 108.398-71.398 24.801-58.801 31-123.102 17.5-186.2C775.5 353.7 669.5 256.399 539.102 240.399zm-39.301 367c-32.7 0-59.403-26.699-59.403-59.398 0-32.7 26.704-59.398 59.403-59.398S559.199 515.3 559.199 548c-.199 32.7-26.898 59.398-59.398 59.398zm0 0"/></svg>