<svg width="1000" height="1000" fill="none" xmlns="http://www.w3.org/2000/svg"><g clip-path="url(#clip0)" fill="#000"><path d="M915.956 48.353H779.242V0h-83.441v48.353H303.418V0h-83.226v48.353H83.478C50.53 48.353 24 75.096 24 107.83v832.691C24 973.47 50.744 1000 83.478 1000h832.691c32.949 0 59.478-26.744 59.478-59.478V107.831c-.427-32.735-27.171-59.478-59.691-59.478zM891.993 916.56H106.798V131.365h112.966v59.478h83.226v-59.478h392.384v59.478H778.6v-59.478h112.965V916.56h.428z"/><path d="M538.978 240.051c-95.422-11.767-188.918 19.684-256.74 86.436-68.036 66.752-100.984 159.82-90.928 255.242 15.404 144.629 131.792 260.162 276.636 274.497 10.698 1.07 21.395 1.497 32.093 1.497 39.152 0 77.663-7.274 114.035-22.036l-30.595-77.236c-33.804 13.265-70.175 18.4-107.189 14.976-105.905-10.697-190.843-94.779-202.182-200.684-7.274-69.748 16.688-138.212 66.538-186.992 49.637-48.781 118.314-71.887 188.062-63.329 93.924 11.553 172.871 84.082 192.555 176.508 9.841 46.427 5.348 93.924-12.624 137.142-5.348 12.409-17.757 20.539-31.878 20.539-19.041 0-34.446-15.404-34.446-34.446V405.22h-83.654v13.051c-17.972-8.344-38.297-13.051-59.478-13.051-78.733 0-142.704 63.971-142.704 142.705 0 78.733 63.971 142.704 142.704 142.704 25.674 0 49.636-6.846 70.389-18.828 18.828 40.223 59.478 68.464 106.761 68.464 47.497 0 90.073-27.813 108.473-71.459 24.818-58.836 31.022-123.235 17.543-186.35-26.743-129.012-132.862-226.359-263.371-242.405zm-39.367 367.352c-32.734 0-59.478-26.744-59.478-59.478 0-32.735 26.744-59.478 59.478-59.478s59.478 26.743 59.478 59.478c-.214 32.734-26.958 59.478-59.478 59.478z"/></g><defs><clipPath id="clip0"><path fill="#fff" d="M0 0h1000v1000H0z"/></clipPath></defs></svg>