<svg xmlns="http://www.w3.org/2000/svg" viewBox="0 0 1000 1000"><path d="M694.5 289h-63.9v-22.6h-39V289H408.2v-22.6h-38.9V289h-63.9c-15.4 0-27.8 12.5-27.8 27.8V706c0 15.4 12.5 27.8 27.8 27.8h389.2c15.4 0 27.8-12.5 27.8-27.8V316.8c-.2-15.3-12.7-27.8-27.9-27.8zm-11.2 405.8h-367v-367h52.8v27.8H408v-27.8h183.4v27.8h38.9v-27.8h52.8v367h.2z"/><path d="M518.3 378.6c-44.6-5.5-88.3 9.2-120 40.4-31.8 31.2-47.2 74.7-42.5 119.3 7.2 67.6 61.6 121.6 129.3 128.3 5 .5 10 .7 15 .7 18.3 0 36.3-3.4 53.3-10.3l-14.3-36.1c-15.8 6.2-32.8 8.6-50.1 7-49.5-5-89.2-44.3-94.5-93.8-3.4-32.6 7.8-64.6 31.1-87.4 23.2-22.8 55.3-33.6 87.9-29.6 43.9 5.4 80.8 39.3 90 82.5 4.6 21.7 2.5 43.9-5.9 64.1-2.5 5.8-8.3 9.6-14.9 9.6-8.9 0-16.1-7.2-16.1-16.1V455.8h-39.1v6.1c-8.4-3.9-17.9-6.1-27.8-6.1-36.8 0-66.7 29.9-66.7 66.7s29.9 66.7 66.7 66.7c12 0 23.2-3.2 32.9-8.8 8.8 18.8 27.8 32 49.9 32 22.2 0 42.1-13 50.7-33.4 11.6-27.5 14.5-57.6 8.2-87.1-12.5-60.3-62.1-105.8-123.1-113.3zm-18.4 171.7c-15.3 0-27.8-12.5-27.8-27.8s12.5-27.8 27.8-27.8 27.8 12.5 27.8 27.8c-.1 15.3-12.6 27.8-27.8 27.8z"/></svg>