<svg xmlns="http://www.w3.org/2000/svg" viewBox="0 0 1000 1000"><path d="M358.9 80.3c23.3 0 44.5 9.4 60.5 26.4 15.9 17 23.7 39.2 21.9 62.1l-2.2 29.6c-3.3 42.7-39.2 76.4-81.9 76.4s-78.9-33.5-81.9-76.4l-2.2-29.6c-1.6-22.9 5.9-45.2 21.9-62.1s37.2-26.4 60.5-26.4h3.4m0-79.7h-4.5c-94.2 0-168.6 80.1-161.6 173.9l2.2 29.6c6.1 84.6 76.6 149.8 161.6 149.8s155.1-65.4 161.6-149.8l2.2-29.6C527 80.7 452.9.6 358.9.6zM345 729.2c0-12.1 1-23.9 3.5-35.6H95.3V583.7c0-53.5 49.4-97.3 109.9-97.3h303c51.3 0 94.2 31.3 106.4 73.3l71.7-35.6c-26.2-68.2-96-117.5-178.2-117.5H205c-104.6 0-189.2 79.3-189.2 176.9v132.6c0 31.5 25.5 56.8 56.8 56.8h278.3c-3.9-13.9-5.9-28.6-5.9-43.7z"/><path d="M879.3 790.5c-28.2 0-53.5 11-72.5 29.2l-173.1-80.9c.2-3.5.6-6.7.6-10.2v-1.4l175.5-86.6c18.6 16.3 42.7 26.4 69.7 26.4 57.8 0 104.6-46.8 104.6-104.6s-46.8-104.6-104.6-104.6-104.6 46.8-104.6 104.6c0 2.2.2 4.9.2 6.9l-172 84.6c-19-18.8-44.9-30-73.3-30-57.8 0-104.8 46.8-104.8 104.6s46.8 104.6 104.6 104.6c25.5 0 48.8-9.2 67.2-24.5L775 891.8v2.9c0 57.8 46.8 104.6 104.6 104.6s104.6-46.8 104.6-104.6c-.1-57.2-46.9-104.2-104.9-104.2z"/></svg>