<svg xmlns="http://www.w3.org/2000/svg" width="1000pt" height="1000pt" viewBox="0 0 1000 1000"><g fill="#000" stroke-width=".2" stroke="#000"><path d="M701.187 791.621c.004 19.027-15.476 34.523-34.523 34.523-19.043 0-34.523-15.496-34.523-34.523 0-19.02 15.484-34.52 34.523-34.52 19.043 0 34.523 15.5 34.523 34.52zm250 125c.004 19.027-15.48 34.527-34.523 34.527-19.043 0-34.52-15.5-34.52-34.527 0-19.02 15.477-34.52 34.52-34.52 19.043 0 34.523 15.5 34.523 34.52zm-34.523-90.477c-25.207 0-47.758 10.563-64.086 27.157l-96.484-48.23a88.243 88.243 0 0 0 1.05-13.45c0-4.594-.375-9.07-1.042-13.434l96.484-48.246c16.328 16.594 38.871 27.16 64.086 27.16 49.879 0 90.472-40.574 90.472-90.48 0-49.906-40.593-90.477-90.48-90.477-49.879 0-90.477 40.57-90.477 90.477 0 4.59.375 9.074 1.047 13.434L730.75 728.3c-16.328-16.594-38.875-27.157-64.086-27.157-49.883 0-90.477 40.57-90.477 90.477 0 49.906 40.598 90.48 90.477 90.48 25.207 0 47.75-10.558 64.078-27.144l96.492 48.234a88.03 88.03 0 0 0 -1.043 13.43c0 49.906 40.594 90.48 90.48 90.48 49.88 0 90.473-40.574 90.473-90.48 0-49.906-40.593-90.477-90.48-90.477zm0-194.046c19.043 0 34.523 15.496 34.523 34.523s-15.48 34.523-34.523 34.523c-19.043 0-34.52-15.496-34.52-34.523s15.477-34.523 34.52-34.523zm0 0M458.332 507.144c141.805 0 257.148-115.343 257.148-257.144 0-141.8-115.343-257.144-257.148-257.144-141.8 0-257.14 115.343-257.14 257.144 0 141.8 115.335 257.144 257.14 257.144zm0-458.335c110.926 0 201.191 90.265 201.191 201.191s-90.265 201.191-201.191 201.191c-110.922 0-201.188-90.265-201.188-201.191S347.41 48.809 458.332 48.809zm0 0" stroke-width="14.285713999999999"/><path d="M759.687 663.383l.043.02c13.872 6.335 30.582.48 37.122-13.602 6.492-14.004.433-30.637-13.559-37.168l-.008-.004c-76.398-35.52-194.996-78.059-324.95-78.059-144.378 0-275.066 51.621-359.058 94.742C33.68 662.996-7.144 729.52-7.144 802.88v30.5c0 49.906 40.593 90.476 90.48 90.476H562.5c15.46 0 27.977-12.52 27.977-27.976 0-15.457-12.516-27.98-27.977-27.98H83.336c-19.043 0-34.524-15.493-34.524-34.52v-30.5c0-52.266 29.118-99.692 76.036-123.79 78.902-40.523 200.613-88.566 333.488-88.566 119.426 0 229.71 39.528 301.351 72.86zm0 0" stroke-width="14.285713999999999"/></g></svg>