<svg width="1000" height="1000" fill="none" xmlns="http://www.w3.org/2000/svg"><g clip-path="url(#clip0)" fill="#000"><path d="M358.565 79.804c23.327 0 44.608 9.412 60.569 26.396 15.961 16.984 23.737 39.288 21.895 62.206l-2.251 29.671c-3.274 42.766-39.288 76.529-82.054 76.529-42.767 0-78.985-33.558-82.055-76.529l-2.251-29.671c-1.637-22.918 5.934-45.222 21.895-62.206 15.961-16.984 37.242-26.396 60.569-26.396h3.683zm0-79.804h-4.501c-94.332 0-168.816 80.213-161.858 174.135l2.25 29.671c6.139 84.715 76.735 149.99 161.858 149.99 85.124 0 155.31-65.48 161.858-149.99l2.251-29.671C526.971 80.213 452.693 0 358.565 0zM344.65 729.69c0-12.072 1.023-23.941 3.479-35.604H94.599V583.998c0-53.612 49.519-97.401 110.088-97.401h303.458c51.361 0 94.332 31.307 106.609 73.46l71.824-35.605c-26.192-68.345-96.174-117.659-178.433-117.659H204.482C99.715 406.793 15 486.187 15 583.998v132.801c0 31.512 25.578 56.886 56.886 56.886h278.698a165.38 165.38 0 0 1 -5.934-43.995z"/><path d="M879.743 791.079c-28.238 0-53.612 11.05-72.642 29.261l-173.317-81.031c.205-3.479.614-6.753.614-10.231v-1.433l175.773-86.76c18.621 16.37 42.766 26.396 69.777 26.396 57.908 0 104.768-46.859 104.768-104.768 0-57.908-46.86-104.767-104.768-104.767-57.909 0-104.768 46.859-104.768 104.767 0 2.251.205 4.911.205 6.958l-172.294 84.714c-19.03-18.825-45.018-30.08-73.46-30.08-57.909 0-104.973 46.859-104.973 104.768s46.859 104.768 104.768 104.768c25.578 0 48.905-9.208 67.321-24.555l178.433 83.282v2.865c0 57.909 46.859 104.767 104.768 104.767 57.908 0 104.768-46.858 104.768-104.767 0-57.09-46.86-104.154-104.973-104.154z"/></g><defs><clipPath id="clip0"><path fill="#fff" d="M0 0h1000v1000H0z"/></clipPath></defs></svg>