<svg width="1000" height="1000" fill="none" xmlns="http://www.w3.org/2000/svg"><path fill-rule="evenodd" clip-rule="evenodd" d="M666.667 625H750v83.333h-83.333V625zm0-166.667H750v83.334h-83.333v-83.334zm250-166.666H500V125H83.333v750h833.334V291.667zM250 791.667h-83.333v-83.334H250v83.334zM250 625h-83.333v-83.333H250V625zm0-166.667h-83.333V375H250v83.333zm0-166.666h-83.333v-83.334H250v83.334zm166.667 500h-83.334v-83.334h83.334v83.334zm0-166.667h-83.334v-83.333h83.334V625zm0-166.667h-83.334V375h83.334v83.333zm0-166.666h-83.334v-83.334h83.334v83.334zm416.666 500H500v-83.334h83.333V625H500v-83.333h83.333v-83.334H500V375h333.333v416.667z" fill="#000"/></svg>