<svg xmlns="http://www.w3.org/2000/svg" viewBox="0 0 1000 1000"><path fill="none" d="M0 0h1000v1000H0z"/><path d="M699.8 649.85h99.9v99.9h-99.9v-99.9zm0-199.8h99.9v99.9h-99.9v-99.9zm299.7-199.8H500V50.45H.5v899.1h999v-699.3zm-799.2 599.4h-99.9v-99.9h99.9v99.9zm0-199.8h-99.9v-99.9h99.9v99.9zm0-199.8h-99.9v-99.9h99.9v99.9zm0-199.8h-99.9v-99.9h99.9v99.9zm199.8 599.4h-99.9v-99.9h99.9v99.9zm0-199.8h-99.9v-99.9h99.9v99.9zm0-199.8h-99.9v-99.9h99.9v99.9zm0-199.8h-99.9v-99.9h99.9v99.9zm499.5 599.4H500v-99.9h99.9v-99.9H500v-99.9h99.9v-99.9H500v-99.9h399.6v499.5z" fill-rule="evenodd" clip-rule="evenodd"/></svg>