<svg xmlns="http://www.w3.org/2000/svg" width="1000" height="1000" viewBox="0 0 1000 1000"><path d="M500 1000c-133.555 0-259.115-52.01-353.555-146.445C52.009 759.116 0 633.555 0 500c0-94.568 26.545-186.654 76.764-266.301C125.592 156.261 194.6 93.687 276.33 52.742l41.992 83.82c-66.443 33.285-122.551 84.166-162.256 147.139C115.298 348.357 93.75 423.152 93.75 500c0 224.006 182.244 406.25 406.25 406.25S906.25 724.006 906.25 500c0-76.848-21.549-151.643-62.314-216.299-39.707-62.973-95.814-113.852-162.256-147.139l41.992-83.82c81.73 40.945 150.74 103.52 199.566 180.957C973.455 313.345 1000 405.431 1000 500c0 133.555-52.01 259.115-146.445 353.555C759.116 947.991 633.555 1000 500 1000z"/></svg>