<svg xmlns="http://www.w3.org/2000/svg" viewBox="0 0 1000 1000"><path d="M900 475a100 100 0 0 0 -35.1 6.6l-120-98.1c3-10.7 5.1-21.8 5.1-33.5 0-69.3-55.7-125-125-125a124.7 124.7 0 0 0 -111.9 179.9L367.6 576.8A103 103 0 0 0 350 575a98 98 0 0 0 -25.6 3.7L196.3 450.5A95.3 95.3 0 0 0 200 425c0-55.4-44.6-100-100-100A99.8 99.8 0 0 0 0 425c0 55.4 44.6 100 100 100a98 98 0 0 0 25.6-3.7l128.2 128.2A95.3 95.3 0 0 0 250 675c0 55.4 44.6 100 100 100a99.8 99.8 0 0 0 93.9-133.5l145.6-172.1c11.4 3.3 23.1 5.6 35.5 5.6a124 124 0 0 0 56.6-14l120 98.1c-.8 5.2-1.6 10.4-1.6 15.9 0 55.4 44.6 100 100 100s100-44.6 100-100-44.6-100-100-100z"/></svg>