<svg width="1000" height="1000" viewBox="0 0 1000 1000" fill="none" xmlns="http://www.w3.org/2000/svg">
<path d="M40.0455 959.534C28.8954 959.534 19.4316 955.643 11.653 947.866C3.88471 940.079 0 930.613 0 919.474V869.241C0 858.091 3.8893 848.579 11.6673 840.705C19.4552 832.831 28.9241 828.894 40.0742 828.894C51.2243 828.894 60.7318 832.831 68.596 840.705C76.47 848.579 80.407 858.091 80.407 869.241V919.474C80.407 930.613 76.4654 940.079 68.5816 947.866C60.7076 955.643 51.1956 959.534 40.0455 959.534ZM269.944 959.534C258.794 959.534 249.33 955.643 241.552 947.866C233.783 940.079 229.899 930.613 229.899 919.474V610.605C229.899 599.455 233.788 589.943 241.566 582.069C249.354 574.195 258.823 570.258 269.973 570.258C281.123 570.258 290.63 574.195 298.495 582.069C306.369 589.943 310.306 599.455 310.306 610.605V919.474C310.306 930.613 306.364 940.079 298.48 947.866C290.606 955.643 281.094 959.534 269.944 959.534ZM499.844 959.534C488.694 959.534 479.228 955.643 471.451 947.866C463.681 940.079 459.796 930.613 459.796 919.474V725.554C459.796 714.404 463.687 705.013 471.463 697.375C479.251 689.742 488.723 685.926 499.873 685.926C511.023 685.926 520.529 689.742 528.392 697.375C536.266 705.013 540.203 714.404 540.203 725.554V919.474C540.203 930.613 536.266 940.079 528.38 947.866C520.506 955.643 510.994 959.534 499.844 959.534ZM729.743 959.534C718.593 959.534 709.126 955.643 701.35 947.866C693.58 940.079 689.694 930.613 689.694 919.474V639.342C689.694 628.192 693.585 618.68 701.362 610.806C709.149 602.932 718.621 598.995 729.771 598.995C740.921 598.995 750.428 602.932 758.29 610.806C766.164 618.68 770.101 628.192 770.101 639.342V919.474C770.101 930.613 766.164 940.079 758.279 947.866C750.405 955.643 740.893 959.534 729.743 959.534ZM959.641 959.534C948.491 959.534 939.025 955.643 931.249 947.866C923.478 940.079 919.593 930.613 919.593 919.474V409.444C919.593 398.294 923.484 388.782 931.26 380.908C939.048 373.034 948.52 369.097 959.67 369.097C970.82 369.097 980.326 373.034 988.189 380.908C996.063 388.782 1000 398.294 1000 409.444V919.474C1000 930.613 996.063 940.079 988.177 947.866C980.303 955.643 970.791 959.534 959.641 959.534ZM614.805 441.601C602.097 441.601 589.907 439.21 578.239 434.428C566.572 429.64 555.773 422.657 545.835 413.478L397.625 265.254C394.309 261.94 390.073 260.283 384.908 260.283C379.745 260.283 375.506 261.94 372.192 265.254L68.7397 568.993C60.4921 577.057 50.8605 581.034 39.8443 580.919C28.8287 580.816 19.2827 576.54 11.2076 568.103C3.73585 560.039 0.0574759 550.642 0.172425 539.911C0.287375 529.175 4.11461 520.111 11.653 512.726L315.938 208.167C325.872 198.311 336.672 191.203 348.34 186.844C360.007 182.495 372.197 180.321 384.908 180.321C397.62 180.321 409.977 182.495 421.977 186.844C433.989 191.203 444.622 198.311 453.876 208.167L602.091 356.395C605.408 359.889 609.644 361.636 614.805 361.636C619.972 361.636 624.208 359.889 627.524 356.395L931.249 52.9284C939.313 44.8624 948.853 40.8875 959.871 41.0024C970.889 41.1076 980.43 45.3797 988.505 53.8193C995.977 61.8847 999.655 71.2818 999.54 82.0106C999.425 92.7486 995.689 101.811 988.333 109.196L683.774 413.478C674.521 422.657 663.888 429.64 651.876 434.428C639.875 439.21 627.518 441.601 614.805 441.601Z" fill="black"/>
</svg>
