<svg xmlns="http://www.w3.org/2000/svg" viewBox="0 0 1000 1000"><path d="M333.3 619h142.9v-47.6H333.3V619zM333.3 523.8h333.4v-47.6H333.3v47.6zM333.3 428.6h333.4V381H333.3v47.6z"/><path fill-rule="evenodd" d="M285.7 0A285.7 285.7 0 0 0 0 285.7v428.6C0 872 128 1000 285.7 1000h428.6C872 1000 1000 872 1000 714.3V285.7C1000 128 872 0 714.3 0H285.7zm23.8 285.7h381a47.6 47.6 0 0 1 47.6 47.6v333.4a47.6 47.6 0 0 1-47.6 47.6h-381a47.6 47.6 0 0 1-47.6-47.6V333.3a47.6 47.6 0 0 1 47.6-47.6z" clip-rule="evenodd"/></svg>