<svg width="1000" height="1000" fill="none" xmlns="http://www.w3.org/2000/svg"><path d="M916.626 333.333a41.56 41.56 0 0 0 -5.958-21.458L797.792 123.75c-14.958-24.917-42.333-40.417-71.416-40.417H273.542c-29.083 0-56.458 15.5-71.416 40.459L89.251 311.875a41.554 41.554 0 0 0 -5.959 21.458c0 41.875 16.084 79.75 41.667 109.084v390.916c0 23.042 18.625 41.667 41.667 41.667h333.333c23.042 0 41.667-18.625 41.667-41.667V625h166.667v208.333c0 23.042 18.625 41.667 41.666 41.667h83.334c23.041 0 41.666-18.625 41.666-41.667V442.417c25.584-29.334 41.667-67.209 41.667-109.084zm-84 10.459c-5.167 41.041-40.25 72.875-82.667 72.875-45.958 0-83.333-37.375-83.333-83.334 0-2.833-1.042-5.333-1.625-8l.833-.166-31.708-158.5h92.25l106.25 177.125zm-415.709-7.75l33.834-169.375h98.375l33.875 169.375c-1.459 44.708-38.042 80.625-83.042 80.625s-81.583-35.917-83.042-80.625zM273.542 166.667h92.25l-31.666 158.5.833.166c-.625 2.667-1.667 5.167-1.667 8 0 45.959-37.375 83.334-83.333 83.334-42.417 0-77.5-31.834-82.667-72.875l106.25-177.125zm143.084 500H249.959v-125h166.667v125z" fill="#000"/></svg>