<svg xmlns="http://www.w3.org/2000/svg" width="1000pt" height="1000pt" viewBox="0 0 1000 1000"><path d="M941.41 44.66H58.594c-34.61 0-62.762 28.152-62.762 62.762v582.031c0 34.61 28.152 62.762 62.762 62.762h282.941V888.41H187.5c-18.48 0-33.465 14.98-33.465 33.465 0 18.484 14.984 33.465 33.465 33.465h625c18.48 0 33.465-14.98 33.465-33.465 0-18.484-14.985-33.465-33.465-33.465H658.465V752.215H941.41c34.606 0 62.758-28.153 62.758-62.762V107.422c0-34.61-28.152-62.762-62.758-62.762zM591.535 888.41h-183.07V752.215h183.07zm345.781-203.125H62.762V111.59h874.48c.016 266.941.059 410.629.074 487.945l.008 21.906c.008 35.59.016 52.586 0 60.688 0 1.258 0 2.297-.008 3.156zm0 0" fill="#000" stroke-width="8.333333000000001" stroke="#000"/></svg>