<svg width="1000" height="1000" viewBox="0 0 1000 1000" fill="none" xmlns="http://www.w3.org/2000/svg">
<path d="M970.5 479L520.5 29C502.5 11 477.5 0 450 0H100C45 0 0 45 0 100V450C0 477.5 11 502.5 29.5 521L479.5 971C497.5 989 522.5 1000 550 1000C577.5 1000 602.5 989 620.5 970.5L970.5 620.5C989 602.5 1000 577.5 1000 550C1000 522.5 988.5 497 970.5 479ZM550 900.5L100 450V100H450V99.5L900 549.5L550 900.5Z" fill="black"/>
<path d="M225 300C266.421 300 300 266.421 300 225C300 183.579 266.421 150 225 150C183.579 150 150 183.579 150 225C150 266.421 183.579 300 225 300Z" fill="black"/>
</svg>
