<svg xmlns="http://www.w3.org/2000/svg" viewBox="0 0 1000 1000"><path d="M350 500c96.5 0 175-78.5 175-175s-78.5-175-175-175-175 78.5-175 175 78.5 175 175 175zm0-250c41.5 0 75 33.5 75 75s-33.5 75-75 75-75-33.5-75-75 33.5-75 75-75zm0 337.5c-117 0-350 58.5-350 175V850h700v-87.5c0-116.5-233-175-350-175zM117 750c42-29 143.5-62.5 233-62.5S541 721 583 750zm585-159.5c58 42 98 98 98 172V850h200v-87.5c0-101-175-158.5-298-172zM650 500c96.5 0 175-78.5 175-175s-78.5-175-175-175c-27 0-52 6.5-75 17.5 31.5 44.5 50 99 50 157.5s-18.5 113-50 157.5c23 11 48 17.5 75 17.5zm0 0" fill-rule="evenodd" fill="#000"/></svg>