<svg width="1000" height="1000" viewBox="0 0 1000 1000" xmlns="http://www.w3.org/2000/svg"><path d="M943.333 612.903h-31.666V161.29H88.333v451.613H56.667c-17.49 0-31.667 14.443-31.667 32.258 0 17.816 14.178 32.258 31.667 32.258H428.75L222.917 914.516c-11.805 13.362-10.742 33.942 2.375 45.968 13.116 12.025 33.32 10.942 45.125-2.42l197.916-227.419v237.097c0 17.816 14.178 32.258 31.667 32.258s31.667-14.442 31.667-32.258V730.645l197.916 225.807c11.805 13.361 32.009 14.445 45.125 2.419 13.117-12.026 14.18-32.606 2.375-45.968L571.25 677.42h372.083c17.49 0 31.667-14.442 31.667-32.258 0-17.815-14.178-32.258-31.667-32.258zM88.333 0h823.334v96.774H88.333z" fill-rule="evenodd"/></svg>