<svg xmlns="http://www.w3.org/2000/svg" viewBox="0 0 1000 1000"><path d="M480.5 639.9v38h38.9v-38c14.2-7.1 23.9-21.8 23.9-38.8 0-24.1-19.5-43.4-43.4-43.4s-43.4 19.5-43.4 43.4c.1 17.1 9.9 31.7 24 38.8z"/><path d="M653.2 466.7h-42.1V366.6c0-61.4-49.7-111.3-111.2-111.3-61.4 0-111.2 49.7-111.2 111.3V411h37v-44.5c0-40.9 33.3-74.3 74.3-74.3s74.3 33.3 74.3 74.3v100.1H346.8c-15.4 0-27.8 12.5-27.8 27.8v222.4c0 15.4 12.5 27.8 27.8 27.8h306.6c15.4 0 27.8-12.5 27.8-27.8V494.5c-.1-15.4-12.6-27.8-28-27.8zm-11.1 239H357.9V505.5h284.3v200.1h-.1v.1z"/></svg>
