<svg xmlns="http://www.w3.org/2000/svg" width="1000pt" height="1600" viewBox="0 0 1000 1200"><path d="M837.5 425H340.54V232.273c0-85 71.495-154.148 159.374-154.148 87.879 0 159.375 69.148 159.375 154.148v2.102h93.75v-2.102c0-136.691-113.555-247.898-253.125-247.898-139.574 0-253.125 111.207-253.125 247.898V425H162.5c-77.54 0-140.625 63.086-140.625 140.625v478.125c0 77.54 63.086 140.629 140.625 140.629h675c77.54 0 140.625-63.09 140.625-140.629V565.625C978.125 488.085 915.039 425 837.5 425zm46.875 618.75c0 25.852-21.027 46.871-46.875 46.871h-675c-25.848 0-46.875-21.02-46.875-46.871V565.625c0-25.848 21.027-46.875 46.875-46.875h675c25.848 0 46.875 21.027 46.875 46.875zm0 0" fill="#000"/></svg>