<svg xmlns="http://www.w3.org/2000/svg" width="1000pt" height="1000pt" viewBox="0 0 1000 1000"><path d="M460.102 785.7v77.6H539.5v-77.6c29-14.5 48.8-44.5 48.8-79.2 0-49.2-39.8-88.602-88.6-88.602-48.802 0-88.598 39.801-88.598 88.602.199 34.898 20.199 64.7 49 79.2zm0 0"/><path d="M812.7 432.102h-86V227.699C726.7 102.301 625.2.5 499.7.5c-125.4 0-227 101.5-227 227.2v90.6h75.5v-90.902c0-83.5 68-151.699 151.698-151.699 83.704 0 151.704 68 151.704 151.7V431.8h-464.5c-31.403 0-56.801 25.5-56.801 56.8V942.7c0 31.403 25.5 56.801 56.8 56.801h626c31.399 0 56.797-25.5 56.797-56.8V488.8c-.296-31.402-25.796-56.698-57.199-56.698zM790 920H209.8V511.3h580.4v408.5h-.2zm0 0"/></svg>