<svg xmlns="http://www.w3.org/2000/svg" viewBox="0 0 1000 1000"><path d="M460.1 785.7v77.6h79.4v-77.6c29-14.5 48.8-44.5 48.8-79.2 0-49.2-39.8-88.6-88.6-88.6s-88.6 39.8-88.6 88.6c.2 34.9 20.2 64.7 49 79.2z"/><path d="M812.7 432.1h-86V227.7C726.7 102.3 625.2.5 499.7.5c-125.4 0-227 101.5-227 227.2v90.6h75.5v-90.9c0-83.5 68-151.7 151.7-151.7s151.7 68 151.7 151.7v204.4H187.1c-31.4 0-56.8 25.5-56.8 56.8v454.1c0 31.4 25.5 56.8 56.8 56.8h626c31.4 0 56.8-25.5 56.8-56.8V488.8c-.3-31.4-25.8-56.7-57.2-56.7zM790 920H209.8V511.3h580.4v408.5h-.2v.2z"/></svg>