<svg xmlns="http://www.w3.org/2000/svg" width="1000pt" height="1351pt" viewBox="0 0 1000 1351"><path d="M922.57 583.766H806.352V307.62C806.352 138.207 669.192.676 499.598.676 330.137.676 192.84 137.8 192.84 307.62v122.402h102.027V307.22c0-112.809 91.89-204.95 205-204.95 113.106 0 205 91.872 205 204.95v276.144H77.164c-42.434 0-76.758 34.45-76.758 76.735v613.488c0 42.422 34.461 76.738 76.758 76.738H923.11c42.434 0 76.758-34.449 76.758-76.738V660.367c-.406-42.418-34.867-76.601-77.297-76.601zm-30.675 659.156H107.84V690.766h784.324v551.882h-.27zm0 0"/></svg>