<svg width="1000" height="1000" fill="none" xmlns="http://www.w3.org/2000/svg"><g clip-path="url(#clip0)" fill="#000"><path d="M460.063 786.021v77.661h79.502v-77.661a88.464 88.464 0 0 0 48.845-79.298c0-49.254-39.853-88.698-88.698-88.698-48.845 0-88.698 39.853-88.698 88.698.204 34.948 20.233 64.787 49.049 79.298z"/><path d="M813.017 432.046h-86.042V227.468C726.975 101.982 625.402 0 499.712 0 374.226 0 272.448 101.574 272.448 227.468v90.742h75.619v-90.947c0-83.588 68.056-151.85 151.849-151.85 83.793 0 151.85 68.057 151.85 151.85v204.578h-464.95c-31.474 0-56.816 25.547-56.816 56.816v454.527c0 31.474 25.547 56.816 56.816 56.816h626.609c31.474 0 56.816-25.547 56.816-56.816V488.862c-.204-31.474-25.751-56.816-57.224-56.816zm-22.686 488.453h-580.83V511.343h581.034v408.951h-.204v.205z"/></g><defs><clipPath id="clip0"><path fill="#fff" d="M0 0h1000v1000H0z"/></clipPath></defs></svg>