<svg width="1000" height="1000" viewBox="0 0 18 14" fill="none" xmlns="http://www.w3.org/2000/svg">
<path d="M5.92281 11.0118V10.5726C5.92281 10.0097 6.20566 9.55753 6.77135 9.21614C7.33705 8.87475 8.07983 8.70406 8.99969 8.70406C9.91955 8.70406 10.6623 8.87475 11.228 9.21614C11.7937 9.55753 12.0766 10.0097 12.0766 10.5726V11.0118H5.92281ZM8.99969 7.93489C8.57872 7.93489 8.21705 7.78371 7.91469 7.48135C7.61233 7.17899 7.46115 6.81732 7.46115 6.39635C7.46115 5.97551 7.61233 5.61392 7.91469 5.31156C8.21705 5.00919 8.57872 4.85801 8.99969 4.85801C9.42066 4.85801 9.78233 5.00919 10.0847 5.31156C10.387 5.61392 10.5382 5.97551 10.5382 6.39635C10.5382 6.81732 10.387 7.17899 10.0847 7.48135C9.78233 7.78371 9.42066 7.93489 8.99969 7.93489ZM4.75281 13.6368C3.32656 13.4584 2.22483 13.1627 1.4476 12.7497C0.670382 12.3368 0.273785 11.8403 0.257812 11.2603V3.10322C0.257812 2.37558 1.00059 1.82058 2.48615 1.43822C3.9717 1.05572 6.14288 0.864471 8.99969 0.864471C11.8565 0.864471 14.0277 1.05572 15.5132 1.43822C16.9988 1.82058 17.7416 2.37558 17.7416 3.10322V11.2603C17.7256 11.8403 17.329 12.3368 16.5518 12.7497C15.7745 13.1627 14.6728 13.4584 13.2466 13.6368V4.2378C14.003 4.11072 14.6501 3.9526 15.188 3.76343C15.7259 3.57426 16.105 3.37128 16.3251 3.15447C15.808 2.83822 14.874 2.58364 13.523 2.39072C12.172 2.19794 10.6643 2.10155 8.99969 2.10155C7.31371 2.10155 5.78191 2.20197 4.40427 2.40281C3.02663 2.60364 2.11663 2.85419 1.67427 3.15447C1.87844 3.37989 2.24948 3.58503 2.7874 3.76989C3.32531 3.95475 3.98045 4.11072 4.75281 4.2378V13.6368Z" fill="#C0C0FF"/>
</svg>
