<svg width="1000" height="1000" viewBox="0 0 1000 1000" fill="none" xmlns="http://www.w3.org/2000/svg">
<path d="M0 750V684.375C0 654.514 15.2778 630.208 45.8333 611.458C76.3889 592.708 116.667 583.333 166.667 583.333C175.694 583.333 184.375 583.507 192.708 583.854C201.042 584.201 209.028 585.069 216.667 586.458C206.944 601.042 199.653 616.319 194.792 632.292C189.931 648.264 187.5 664.931 187.5 682.292V750H0ZM250 750V682.292C250 660.069 256.076 639.757 268.229 621.354C280.382 602.951 297.569 586.806 319.792 572.917C342.014 559.028 368.576 548.611 399.479 541.667C430.382 534.722 463.889 531.25 500 531.25C536.806 531.25 570.66 534.722 601.562 541.667C632.465 548.611 659.028 559.028 681.25 572.917C703.472 586.806 720.486 602.951 732.292 621.354C744.097 639.757 750 660.069 750 682.292V750H250ZM812.5 750V682.292C812.5 664.236 810.243 647.222 805.729 631.25C801.215 615.278 794.444 600.347 785.417 586.458C793.056 585.069 800.868 584.201 808.854 583.854C816.84 583.507 825 583.333 833.333 583.333C883.333 583.333 923.611 592.535 954.167 610.937C984.722 629.34 1000 653.819 1000 684.375V750H812.5ZM166.667 541.667C143.75 541.667 124.132 533.507 107.812 517.187C91.4931 500.868 83.3333 481.25 83.3333 458.333C83.3333 434.722 91.4931 414.931 107.812 398.958C124.132 382.986 143.75 375 166.667 375C190.278 375 210.069 382.986 226.042 398.958C242.014 414.931 250 434.722 250 458.333C250 481.25 242.014 500.868 226.042 517.187C210.069 533.507 190.278 541.667 166.667 541.667ZM833.333 541.667C810.417 541.667 790.799 533.507 774.479 517.187C758.16 500.868 750 481.25 750 458.333C750 434.722 758.16 414.931 774.479 398.958C790.799 382.986 810.417 375 833.333 375C856.944 375 876.736 382.986 892.708 398.958C908.681 414.931 916.667 434.722 916.667 458.333C916.667 481.25 908.681 500.868 892.708 517.187C876.736 533.507 856.944 541.667 833.333 541.667ZM500 500C465.278 500 435.764 487.847 411.458 463.542C387.153 439.236 375 409.722 375 375C375 339.583 387.153 309.896 411.458 285.937C435.764 261.979 465.278 250 500 250C535.417 250 565.104 261.979 589.062 285.937C613.021 309.896 625 339.583 625 375C625 409.722 613.021 439.236 589.062 463.542C565.104 487.847 535.417 500 500 500Z" fill="white"/>
</svg>
