<svg width="1000" height="1000" xmlns="http://www.w3.org/2000/svg" viewBox="0 0 1000 1000"><path fill="none" d="M0 0h1000v1000H0z"/><path d="M500 .5C355.04.5 237.11 118.44 237.11 263.4S355.04 526.29 500 526.29 762.89 408.36 762.89 263.4 644.96.5 500 .5zm0 420.63c-86.97 0-157.74-70.77-157.74-157.74 0-86.97 70.77-157.74 157.74-157.74s157.74 70.77 157.74 157.74c0 86.97-70.77 157.74-157.74 157.74zM973.21 999.5v-52.58c0-202.9-165.15-368.05-368.05-368.05H394.84c-202.96 0-368.05 165.15-368.05 368.05v52.58h105.16v-52.58c0-144.96 117.94-262.89 262.9-262.89h210.31c144.96 0 262.9 117.93 262.9 262.89v52.58h105.15z"/></svg>