<svg width="1000" height="1000" fill="none" xmlns="http://www.w3.org/2000/svg"><path d="M500 83.333c-114.875 0-208.333 93.459-208.333 208.334S385.125 500 500 500s208.333-93.458 208.333-208.333S614.875 83.333 500 83.333zm0 333.334c-68.917 0-125-56.084-125-125 0-68.917 56.083-125 125-125s125 56.083 125 125c0 68.916-56.083 125-125 125zM875 875v-41.667c0-160.791-130.875-291.666-291.667-291.666H416.667C255.833 541.667 125 672.542 125 833.333V875h83.333v-41.667C208.333 718.458 301.792 625 416.667 625h166.666c114.875 0 208.334 93.458 208.334 208.333V875H875z" fill="#000"/></svg>