<?xml version="1.0" encoding="utf-8"?>
<!-- Generator: Adobe Illustrator 24.0.1, SVG Export Plug-In . SVG Version: 6.00 Build 0)  -->
<svg version="1.1" id="Layer_1" xmlns="http://www.w3.org/2000/svg" xmlns:xlink="http://www.w3.org/1999/xlink" x="0px" y="0px"
	 viewBox="0 0 1000 1000" style="enable-background:new 0 0 1000 1000;" xml:space="preserve">
<g>
	<rect x="300.9" y="230.5" width="649.1" height="55"/>
</g>
<g>
	<rect x="300.9" y="472.6" width="649.1" height="55"/>
</g>
<g>
	<rect x="300.9" y="714.7" width="649.1" height="55"/>
</g>
<path d="M158.8,320.5h-55c-19.3,0-35-15.7-35-35v-55c0-19.3,15.7-35,35-35h55c19.3,0,35,15.7,35,35v55
	C193.8,304.9,178.1,320.5,158.8,320.5z"/>
<path d="M158.8,562.5h-55c-19.3,0-35-15.7-35-35v-55c0-19.3,15.7-35,35-35h55c19.3,0,35,15.7,35,35v55
	C193.8,546.8,178.1,562.5,158.8,562.5z"/>
<path d="M158.8,804.7h-55c-19.3,0-35-15.7-35-35v-55c0-19.3,15.7-35,35-35h55c19.3,0,35,15.7,35,35v55
	C193.8,789,178.1,804.7,158.8,804.7z"/>
</svg>
