<svg xmlns="http://www.w3.org/2000/svg" viewBox="0 0 1000 1000"><path fill-rule="evenodd" d="M291.7 208A292 292 0 0 0 0 499.7a292 292 0 0 0 291.7 291.6A291.9 291.9 0 0 0 555 624.7h111.7v166.6h250V624.7h83.3v-250H555A291.9 291.9 0 0 0 291.7 208zm625 333.3h-83.4V708H750V541.3H497.5l-9.6 28a208.4 208.4 0 1 1-196.3-278c88 0 167.2 55.9 196.3 138.8l9.6 27.9h419.2v83.3zm-625-166.6c-68.8 0-125 56.2-125 125 0 68.7 56.2 125 125 125 68.7 0 125-56.3 125-125 0-68.8-56.3-125-125-125zm0 166.6c-23 0-41.7-18.7-41.7-41.6 0-23 18.8-41.7 41.7-41.7 22.9 0 41.6 18.8 41.6 41.7 0 22.9-18.7 41.6-41.6 41.6z" clip-rule="evenodd"/></svg>