<svg width="1000" height="1000" viewBox="0 0 1000 1000" xmlns="http://www.w3.org/2000/svg"><path d="M721.719 52.27c118.858 57.675 209.644 160.472 252.09 285.442s33.019 261.71-26.235 379.807c-123.011 242.202-416.548 341.753-661.285 226.04L55.957 999.131c-6.018 1.172-12.206 1.172-18.631-.082a44.726 44.726 0 0 1-28.238-19.34c-6.471-9.932-8.725-22.025-6.287-33.51l48.38-232.705C-22.237 565.054-16.442 389.49 67.113 246.01 152.242 99.83 306.275 7.236 475.476.523c85.223-3.889 170.036 13.953 246.243 51.747zm-29.67 517.25c-3.89-2.749-8.612-4.932-13.594-6.205l-71.568-22.04c-16.775-5.084-34.706.035-46.862 13.33l-17.517 19.047c-1.443 1.583-3.465 2.192-5.354 1.704-44.925-26.845-84.04-63.628-114.759-107.921-.695-1.934-.415-4.144.786-5.819l15.658-22.435c10.43-14.486 12.683-34.3 5.68-51.364l-30.662-72.592c-6.633-14.507-18.436-24.6-32.447-28.139-14.011-3.538-28.761-.152-40.204 9.231-27.527 21.614-46.976 53.71-54.335 89.954l-.374 2.543c-6.399 69.345 26.262 143.123 104.838 221.39 87.65 87.21 169.957 116.842 238.429 99.217l2.354-.768c32.212-12.804 59.011-37.73 75.426-70.154 6.055-9.991 8.345-23.864 5.578-37.097-2.766-13.233-10.359-24.719-21.074-31.883z"/></svg>