<svg xmlns="http://www.w3.org/2000/svg" width="1000" height="1000" viewBox="0 0 1000 1000"><path d="M404.76 904.76h190.477V714.283H404.76V904.76zm190.475-285.714V428.569H404.758v190.477h190.477zm95.239 95.238v190.477h143.092c26.159 0 47.385-21.283 47.385-47.624V714.285H690.474zM880.949 428.57H690.472v190.477h190.477V428.57zM119.046 714.284v142.852c0 26.313 21.252 47.624 47.385 47.624h143.092V714.283H119.046zm190.475-95.238V428.569H119.044v190.477h190.477zM880.949 238.1c0-26.313-21.252-47.624-47.385-47.624-.234 26.304-21.37 47.619-47.853 47.619-26.299 0-47.619-21.13-47.619-47.609l-95.237-.009c0 26.304-21.136 47.619-47.619 47.619-26.299 0-47.619-21.13-47.619-47.609l-95.237-.009c0 26.304-21.136 47.619-47.619 47.619-26.299 0-47.619-21.13-47.619-47.609l-95.237-.009c0 26.304-21.136 47.619-47.619 47.619-26.299 0-47.619-21.13-47.619-47.609-26.394-.009-47.619 21.273-47.619 47.615v95.233h761.904v-95.233zm95.239 0v619.037c0 78.882-63.807 142.862-142.623 142.862H166.432c-78.789 0-142.623-64.007-142.623-142.862V238.1c0-78.882 63.807-142.862 142.623-142.862l.234-47.628c0-26.295 21.136-47.609 47.619-47.609 26.299 0 47.619 21.13 47.619 47.609v47.628h95.237V47.61c0-26.295 21.136-47.609 47.619-47.609 26.299 0 47.619 21.13 47.619 47.609v47.628h95.237V47.61c0-26.295 21.136-47.609 47.619-47.609 26.299 0 47.619 21.13 47.619 47.609v47.628h95.237V47.61c0-26.295 21.136-47.609 47.619-47.609 26.299 0 47.619 21.13 47.619 47.609v47.628c79.022 0 142.857 64.007 142.857 142.862z"/></svg>