<svg xmlns="http://www.w3.org/2000/svg" width="1000" height="1000" viewBox="0 0 1000 1000"><path d="M100.631 749.7v67.767c17.486 10.672 157.198 82.456 399.72 82.456s382.251-71.708 399.72-82.373v-67.849c0-85.746-190.219-152.432-203.778-157.536-42.548 76.361-105.451 133.029-195.941 133.029-90.442 0-153.327-56.607-195.874-132.907-13.422 5.044-203.846 71.494-203.846 157.414zm124.913-490.248C225.544 116.548 348.579.701 500.352.701S775.16 116.548 775.16 259.452c0 60.642-10.592 153.685-39.291 240.71 100.075 38.231 264.134 100.155 264.134 249.538v100.287c0 55.214-215.602 150.013-499.649 150.013S.705 905.013.705 849.987V749.7c0-149.898 164.15-211.253 264.176-249.409-28.731-87.062-39.334-180.167-39.334-240.838zm274.807 365.811c98.41 0 174.877-180.741 174.877-365.811 0-86.324-76.995-158.821-174.877-158.821s-174.877 72.496-174.877 158.821c0 185.069 76.468 365.811 174.877 365.811z"/></svg>