<svg width="1000" height="1000" viewBox="0 0 1000 1000" xmlns="http://www.w3.org/2000/svg"><path d="M938 440.344V1000H556.366V793.372H444.614V1000H63V261.346c-.01-28.854 9.817-52.25 38.86-52.239h794.913c29.043 0 41.227 23.385 41.227 52.239v178.998zm-257.99 221.54V538.889H556.207v122.995H680.01zm0-212.929V325.94H556.207v123.015H680.01zM444.791 661.884V538.889H320.96v122.995h123.832zm0-212.929V325.94H320.96v123.015h123.832zm309.434-416.02v176.172H246.774V32.935C246.764 4.08 270.312-.01 299.354 0h402.291c29.043 0 52.581 4.081 52.581 32.935z"/></svg>