<svg width="1000" height="1000" viewBox="0 0 1000 1000" xmlns="http://www.w3.org/2000/svg"><path d="M967.239 44H31.2C13.97 44 0 58.095 0 75.483c0 17.387 13.97 31.483 31.201 31.483h93.604V957l93.604-62.966L313.573 957l93.603-62.966L500.78 957l93.604-62.966L687.988 957l93.603-62.966L875.195 957V106.966h93.604c17.232 0 31.201-14.096 31.201-31.483C1000 58.095 986.03 44 968.799 44h-1.56zm-499.22 629.655H280.81c-17.232 0-31.201-14.095-31.201-31.483 0-17.387 13.97-31.482 31.201-31.482h187.21c17.232 0 31.201 14.095 31.201 31.482 0 17.388-13.97 31.483-31.201 31.483zm62.402-125.93h-249.61c-17.232 0-31.201-14.096-31.201-31.484 0-17.387 13.97-31.482 31.201-31.482h249.61c17.232 0 31.201 14.095 31.201 31.482 0 17.388-13.969 31.483-31.2 31.483zM249.61 327.344c0-17.388 13.97-31.483 31.201-31.483H468.02c17.232 0 31.201 14.095 31.201 31.483 0 17.387-13.97 31.483-31.201 31.483H280.81c-17.232 0-31.201-14.096-31.201-31.483zm280.811-94.448h-249.61c-17.232 0-31.201-14.096-31.201-31.483 0-17.388 13.97-31.483 31.201-31.483h249.61c17.232 0 31.201 14.095 31.201 31.483 0 17.387-13.969 31.483-31.2 31.483zM717.63 673.655h-62.403c-17.232 0-31.201-14.095-31.201-31.483 0-17.387 13.97-31.482 31.201-31.482h62.403c17.232 0 31.201 14.095 31.201 31.482 0 17.388-13.97 31.483-31.201 31.483zm0-125.93h-62.403c-17.232 0-31.201-14.096-31.201-31.484 0-17.387 13.97-31.482 31.201-31.482h62.403c17.232 0 31.201 14.095 31.201 31.482 0 17.388-13.97 31.483-31.201 31.483zm0-188.897h-62.403c-17.232 0-31.201-14.096-31.201-31.483 0-17.388 13.97-31.483 31.201-31.483h62.403c17.232 0 31.201 14.095 31.201 31.483 0 17.387-13.97 31.483-31.201 31.483zm0-125.931h-62.403c-17.232 0-31.201-14.096-31.201-31.483 0-17.388 13.97-31.483 31.201-31.483h62.403c17.232 0 31.201 14.095 31.201 31.483 0 17.387-13.97 31.483-31.201 31.483z"/></svg>