<svg xmlns="http://www.w3.org/2000/svg" width="1000" height="1000" viewBox="0 0 1000 1000"><path d="M722.459 388.89c-30.738 0-55.793-24.874-55.793-55.556 0-30.896 24.979-55.556 55.793-55.556h93.399c-84.804-112.952-186.225-166.666-315.857-166.666-214.777 0-388.889 174.111-388.889 388.889S285.223 888.89 500.001 888.89c196.685 0 361.786-146.848 385.883-340.247 3.793-30.446 31.551-52.055 61.997-48.261s52.055 31.551 48.261 61.997c-31.005 248.856-243.234 437.62-496.14 437.62C223.86 999.999.003 776.142.003 500S223.86.001 500.002.001c158.943 0 286.416 64.5 388.889 190.922v-79.574c0-30.738 24.874-55.793 55.556-55.793 30.896 0 55.556 24.979 55.556 55.793v221.985c0 15.409-6.212 29.266-16.349 39.265-10.047 10.06-23.905 16.292-39.442 16.292H722.464z"/></svg>