<svg width="1000" height="1000" viewBox="0 0 1000 1000" xmlns="http://www.w3.org/2000/svg"><path d="M707.125 0H292.906L0 292.89v414.22L292.906 1000h414.219L1000 707.094V292.89L707.125 0zm-209.5 198.953a47.61 47.61 0 0 1 49.844 45.313 55.781 55.781 0 0 1 0 4.515L531.125 592.47c-.748 16.716-14.517 29.883-31.25 29.883s-30.502-13.167-31.25-29.883l-16.328-343.69a47.61 47.61 0 0 1 45.312-49.828h.016zm46.438 562.719c-21.103 21.161-54.218 24.463-79.083 7.885-24.866-16.578-34.553-48.415-23.135-76.033 11.418-27.618 40.76-43.32 70.072-37.499 29.313 5.821 50.428 31.543 50.427 61.428a63.016 63.016 0 0 1-18.282 44.219z" fill="#202020"/></svg>