<svg xmlns="http://www.w3.org/2000/svg" width="1000" height="1000" viewBox="0 0 1000 1000"><path d="M522.729 90.882H363.628V727.23l454.575.058V386.356h-204.48c-50.136 0-90.993-40.578-90.993-90.734V90.882zm90.993 204.559h188.255L613.649 104.234c.009 73.363.073 191.207.073 191.207zm113.565 658.37c0 25.032-20.454 45.353-45.259 45.388l-545.889.771c-24.995.035-45.259-20.162-45.259-45.387V227.249c0-25.103 20.229-45.45 45.581-45.45h136.248V45.42c0-25.103 20.167-45.45 45.542-45.45H615.27c12.624 0 30.106 7.295 38.998 16.244L892.974 256.47c8.914 8.972 16.14 26.638 16.14 38.951v476.39c0 25.127-20.454 45.524-45.259 45.56l-136.572.192v136.25zM317.972 818.139c-24.995.035-45.259-20.162-45.259-45.387v-500.04h-90.46l-.425 636.405h454.545v-91.428l-318.401.449z"/></svg>