<svg xmlns="http://www.w3.org/2000/svg" width="1000" height="1000" viewBox="0 0 1000 1000"><path d="M563.67 609.986c-23.085 9.891-49.818-.8-59.712-23.877s.8-49.802 23.885-59.692l135.409-58.014a73405.272 73405.272 0 0 0-16.192-37.02l-151.604 64.951c-23.085 9.891-49.818-.8-59.712-23.877s.8-49.802 23.885-59.692l150.94-64.667c-19.384-44.206-34.147-77.827-34.147-77.827s-104.643 43.868-128.863 48.492c-32.354 6.177-62.773 3.768-91.147-9.69-72.153-34.223-91.914-77.64-102.063-167.698 0 0-126.366 126.847-150.052 155.54-22.265 26.973-16.93 78.058 18.209 120.237 18.583 22.307 423.616 448.657 424.474 449.55 8.891 9.271 31.598 20.097 44.397 20.097h273.091c28.469 0 54.776-39.409 40.966-72.972-4.41-10.717-142.94-152.415-144.466-153.736-14.385-12.722-30.106-34.639-37.643-52.359a56428.23 56428.23 0 0 0-23.824-55.94l-135.833 58.195zM52.861 476.123c-61.285-73.565-71.708-173.367-18.473-237.859 25.8-31.255 175.265-180.617 194.551-194.281 13.379-9.479 24.996-15.879 36.94-19.109 27.342-7.395 57 3.645 66.431 35.53 3.692 12.484 10.641 54.933 12.408 70.622 6.94 61.585 14.414 78.006 50.412 95.08 9.476 4.494 20.742 5.387 35.507 2.568 15.283-2.918 112.142-45.437 132.283-49.331 38.733-7.49 73.045 5.823 91.887 43.62 14.132 29.688 150.915 345.818 152.13 348.683 2.193 5.156 9.865 15.854 13.601 19.16 1.379 1.19 152.565 170.519 164.223 192.042 49.022 90.509-28.018 194.485-120.409 194.485H591.261c-37.464 0-83.649-19.766-109.648-46.878-.849-.884-408.204-429.669-428.751-454.333zM.053 931.873c0-25.107 20.339-45.46 45.34-45.46h273.122c25.041 0 45.34 20.179 45.34 45.46 0 25.107-20.339 45.46-45.34 45.46H45.393c-25.041 0-45.34-20.179-45.34-45.46zm0-181.841c0-25.107 20.162-45.46 45.433-45.46h91.037c25.092 0 45.433 20.179 45.433 45.46 0 25.107-20.162 45.46-45.433 45.46H45.486c-25.092 0-45.433-20.179-45.433-45.46z"/></svg>