<svg width="1000" height="1000" viewBox="0 0 1000 1000" xmlns="http://www.w3.org/2000/svg"><path d="M473.785 626.449c-18.405 2.688-35.506-10.035-38.197-28.417-2.692-18.381 10.047-35.462 28.451-38.15 29.775-4.348 59.131-11.19 86.875-20.152 12.812-4.54 19.68-9.053 22.603-12.848 1.37-1.78 1.638-3.081 1.616-9.933-.003-.675-.003-.675-.003-1.408v-31.05c0-18.576 15.078-33.636 33.678-33.636 18.6 0 33.679 15.06 33.679 33.637v31.05c0 .547 0 .547.003 1.19.066 20.497-2.828 34.604-15.58 51.164-11.587 15.046-29.256 26.654-54.355 35.535a604.774 604.774 0 0 1-98.77 23.018zm439.536 27.88c-15.027-18.686-35.653-31.838-63.967-37.494-48.871-9.762-80.831-24.467-99.523-45.71-15.63-17.765-19.292-33.402-19.262-56.268v-30.365a33.62 33.62 0 0 1 11.819-25.588c31.716-27.03 50.096-66.498 50.358-107.926v-90.044c0-63.791-45.983-99.876-106.885-99.883a104.745 104.745 0 0 0-68.208 23.49c-14.417 11.739-35.631 9.582-47.384-4.817-11.753-14.399-9.593-35.587 4.824-47.326 31.605-25.733 71.335-39.416 111.435-38.615 94.359 0 173.576 62.165 173.576 167.151l-.001 90.257c-.353 55.81-22.855 108.965-62.176 148.014v15.74c-.01 7.97.291 9.26 2.5 11.77 7.188 8.169 26.42 17.017 62.136 24.152 44.367 8.862 78.663 30.731 103.272 61.332 19.835 24.662 29.8 49.327 33.487 67.402l.678 6.714v62.1c0 18.576-15.078 33.636-33.679 33.636h-155.44c-18.6 0-33.679-15.06-33.679-33.637 0-18.577 15.079-33.637 33.679-33.637h121.761v-24.578c-2.375-8.751-8.415-22.31-19.32-35.87zm-410.73-48.743v.887c-.01 9.436.548 12.444 2.875 15.8 7.819 11.28 32.536 22.437 82.923 29.147l.583.083c62.097 9.375 106.335 36.174 133.658 75.204 21.51 30.727 28.665 61.388 28.665 83.806v62.1c0 18.577-15.078 33.637-33.678 33.637H33.679C15.079 906.25 0 891.19 0 872.613l.397-67.25c3.206-20.67 12.963-49.295 33.5-78.128 28.917-40.6 71.71-68.184 129.01-75.815 53.88-7.175 78.067-18.214 84.067-28.298 1.349-2.266 1.739-4.78 1.731-13.489v-24.049c-41.064-43.633-62.177-109.788-62.177-184.926V291.984c0-125.028 81.344-198.2 189.12-198.2 107.775 0 189.119 73.172 189.119 198.2v108.674c0 74.814-21.016 139.86-62.176 183.4v21.528zm-52.506 54.98c-12.183-17.575-14.872-32.088-14.852-54.154v-36.534a33.619 33.619 0 0 1 11.304-25.14c32.533-28.883 50.872-80.377 50.872-144.08V291.984c0-86.213-49.706-130.926-121.761-130.926-72.056 0-121.762 44.713-121.762 130.926v108.674c0 64.124 18.564 116.95 50.872 145.632a33.619 33.619 0 0 1 11.304 25.14v38.146c.018 20.05-1.88 32.278-11.184 47.916-18.99 31.912-60.783 50.986-133.07 60.612-38 5.061-64.53 22.162-83.025 48.128-13.535 19.002-20.082 38.212-21.425 44.281v28.463h616.58v-28.463c0-9.847-4.14-27.585-16.51-45.257-16.57-23.67-44.319-40.508-88.247-47.193-67.175-8.985-108.385-27.617-129.096-57.496z" fill="#101010"/></svg>