<svg xmlns="http://www.w3.org/2000/svg" width="1000" height="1000" viewBox="0 0 1000 1000"><path d="M544.49 999.999c-92.665 0-152.963-22.705-152.963-22.705-27.716-8-71.09-24.505-96.303-38.777 0 0-199.069-75.772-199.069-332.223 0-222.734 193.199-319.634 245.188-393.139s84.202-187.561 84.202-187.561c8.542-26.686 34.55-33.779 55.964-15.211 0 0 204.729 131.959 173.447 444.595 74.2-53.77 124.029-169.772 124.029-169.772 12.639-25.748 36.279-27.401 51.733-3.074 0 0 280.596 365.635-48.115 634.221-45.725 34.445-145.448 83.645-238.113 83.645z"/></svg>