<svg width="1000" height="1000" viewBox="0 0 1000 1000" xmlns="http://www.w3.org/2000/svg"><path d="M631.645 716.774c-14.078-8.832-33.04-5.233-43.767 9.559-.718.868-7.61 9.33-9.892 12.052-59.233 70.65-131.417 65.373-253.449-51.31-122.142-116.79-127.994-189.614-54.074-247.865 3.11-2.451 12.798-9.83 14.974-11.419 13.081-8.78 16.447-25.342 8.151-37.693l-89.32-131.039c-12.118-16.102-27.556-27.23-33.13-26.279-11.181 1.907-37.947 16.385-58.723 36.071-29.024 27.5-45.784 62.03-45.784 103.949 0 97.166 79.789 228.33 212.278 356.376 131.51 127.097 268.035 204.128 368.874 204.128 44.744 0 81.355-15.28 109.299-41.393 20.87-19.503 34.853-44.158 36.557-57.331 1.167-9.023-1.72-13.833-13-22.169-2.288-1.691-10.111-7.046-12.71-8.826l-136.284-86.81zm172.474 30.81l1.26.842c-.628-.44 10.906 7.424 14.838 10.33 28.783 21.272 44.318 47.147 39.502 84.387-9.66 74.692-97.59 156.857-211.936 156.857-121.968 0-272.401-84.879-415.155-222.844C88.338 637.707 0 492.488 0 372.8c0-109.994 88.159-193.525 159.947-205.768 38.34-6.54 71.613 17.442 98.448 53.162l90.356 132.495c29.09 43.305 17.305 101.291-24.393 129.19-.752.582-10.084 7.69-12.679 9.735-38.522 30.357-36.456 56.072 58.883 147.233 96.61 92.375 124.72 94.43 156.384 56.663 1.91-2.278 8.618-10.514 8.234-9.927 29.968-41.702 88.143-52.745 132.045-25.199l136.894 87.2zM468.888 97.945c-18.4 0-33.316-14.93-33.316-33.348s14.916-33.348 33.316-33.348C761.956 31.25 1000 261.307 1000 545.693c0 18.418-14.916 33.348-33.316 33.348-18.4 0-33.315-14.93-33.315-33.348 0-247.017-207.699-447.747-464.481-447.747zm0 150.342c-18.4 0-33.316-14.93-33.316-33.348 0-18.417 14.916-33.348 33.316-33.348 207.154 0 375.55 162.747 375.55 364.101 0 18.418-14.915 33.348-33.315 33.348s-33.316-14.93-33.316-33.348c0-163.985-138.051-297.405-308.92-297.405zm0 165.377c-18.4 0-33.316-14.93-33.316-33.348s14.916-33.348 33.316-33.348c112.649 0 204.433 88.705 204.433 198.724 0 18.418-14.916 33.348-33.316 33.348-18.4 0-33.315-14.93-33.315-33.348 0-72.65-61.44-132.028-137.802-132.028z" fill="#101010"/></svg>