<svg xmlns="http://www.w3.org/2000/svg" width="1000" height="1000" viewBox="0 0 1000 1000"><path d="M722.967 819.718C642.068 915.732 540.112 1000 500.001 1000s-142.066-84.269-222.966-180.282C167.243 689.412 100 546.072 100 400 100 179.086 279.086 0 500 0s400 179.086 400 400c0 146.072-67.242 289.411-177.035 419.718zm-256.744 47.993c14.834 12.26 33.778 26.009 33.778 26.009s21.069-15.504 33.778-26.009c36.883-30.482 76.517-69.468 112.713-112.428C742.465 641.378 800.001 518.733 800.001 400c0-165.686-134.314-300-300-300s-300 134.314-300 300c0 118.732 57.534 241.377 153.509 355.283 36.197 42.96 75.832 81.943 112.713 112.428zm-116.222-467.71c0-82.842 67.158-150 150-150s150 67.158 150 150-67.158 150-150 150-150-67.158-150-150zm200 0c0-27.614-22.387-50-50-50s-50 22.387-50 50c0 27.614 22.387 50 50 50s50-22.387 50-50z"/></svg>