<svg xmlns="http://www.w3.org/2000/svg" width="1000" height="1000" viewBox="0 0 1000 1000"><path d="M863.191 886.547l-62.094-220.782-604.629.111L135.174 886.5l254.27.017 18.854-56.562c4.829-14.488 21.188-26.232 36.082-26.232h110.879c15.099 0 31.307 11.906 36.082 26.232l18.858 56.575 252.991.017zM670.475 444.94h-341.31c19.536 42.618 50.903 75.023 90.543 93.387 7.127-22.117 27.765-38.104 52.462-38.104h55.301a55.013 55.013 0 0 1 52.464 38.103c39.639-18.363 71.005-50.769 90.541-93.386zm60.85 110.449h98.85c30.345 0 61.554 23.736 69.774 53.254l93.289 334.98c8.19 29.411-9.822 53.274-40.608 53.3l-906.825.747c-30.618.025-48.871-23.735-40.703-53.31L97.79 608.743c8.138-29.467 39.565-53.354 69.679-53.354h100.845c-25.347-32.232-44.603-70.149-56.797-111.864-24.526-5.648-42.809-27.534-42.809-53.596v-165.69c0-121.89 98.783-220.701 220.511-220.701H610.42c121.784 0 220.511 99.06 220.511 220.701v165.69c0 26.105-18.273 47.963-42.811 53.6-12.194 41.713-31.449 79.629-56.795 111.86zM279.079 279.414c0 30.685 24.634 55.176 55.021 55.176h331.438c30.339 0 55.021-24.703 55.021-55.176 0-30.685-24.634-55.176-55.021-55.176H334.1c-30.339 0-55.021 24.703-55.021 55.176z"/></svg>