<svg xmlns="http://www.w3.org/2000/svg" width="1000" height="1000" viewBox="0 0 1000 1000"><path d="M722.459 388.889c-30.738 0-55.793-24.873-55.793-55.556 0-30.896 24.979-55.556 55.793-55.556h93.399C731.055 164.826 629.633 111.11 500 111.11c-214.777 0-388.889 174.111-388.889 388.889S285.222 888.888 500 888.888c196.685 0 361.786-146.848 385.882-340.248 3.794-30.447 31.551-52.054 61.998-48.261s52.054 31.551 48.261 61.998C965.135 811.233 752.907 999.998 500 999.998c-276.143 0-500-223.857-500-500s223.857-500 500-500c158.944 0 286.417 64.5 388.889 190.923v-79.574c0-30.738 24.873-55.793 55.556-55.793 30.896 0 55.556 24.979 55.556 55.793v221.985c0 15.408-6.213 29.266-16.35 39.264-10.048 10.061-23.904 16.292-39.443 16.292H722.46z"/><path d="M409.091 325.983c0-29.413 20.176-53.257 45.454-53.257 25.104 0 45.454 23.915 45.454 53.257v211.669c0 29.413-20.176 53.257-45.454 53.257-25.104 0-45.454-23.915-45.454-53.257V325.983zM674.017 500c29.413 0 53.257 20.176 53.257 45.454 0 25.104-23.915 45.454-53.257 45.454H462.348c-29.413 0-53.257-20.176-53.257-45.454 0-25.104 23.915-45.454 53.257-45.454h211.669z"/></svg>