<svg xmlns="http://www.w3.org/2000/svg" width="1000" height="1000" viewBox="0 0 1000 1000"><path d="M570.142.001c237.403 0 429.857 193.332 429.857 431.817 0 66.415-14.926 129.329-41.592 185.541l39.341 175.682c10.944 48.871-19.729 79.521-68.453 68.472l-174.588-39.594c-43.062 20.597-90.071 34.209-139.578 39.382-62.099 83.866-161.805 138.238-274.22 138.238-57.617 0-111.895-14.284-159.482-39.501L65.515 995.904c-48.087 14.879-75.204-12.04-60.539-60.224l35.313-116.02C14.581 771.764.001 717.014.001 658.859c0-114.494 56.519-215.797 143.195-277.564C168.1 166.614 349.753 0 570.143 0zm173.941 726.312l153.914 35.499-34.749-155.178 13.465-28.385c21.491-45.304 32.79-94.971 32.79-146.432 0-188.278-151.937-340.909-339.361-340.909-152.725 0-281.887 101.348-324.478 240.747 30.227-8.772 62.187-13.474 95.244-13.474 188.278 0 340.909 152.527 340.909 340.679 0 34.733-5.201 68.252-14.868 99.821 16.743-4.994 77.133-32.369 77.133-32.369zm-605.777 84.04l-23.313 75.367 75.469-23.329 33.707 17.845c35.639 18.866 75.371 28.854 116.74 28.854 137.978 0 250-111.836 250-250s-112.022-250-250-250-250 111.836-250 250c0 41.903 10.247 82.121 29.573 118.09l17.822 33.173zm202.603-105.808c-25.104 0-45.455-20.352-45.455-45.455s20.352-45.455 45.455-45.455c25.104 0 45.455 20.352 45.455 45.455s-20.352 45.455-45.455 45.455zm136.364 0c-25.104 0-45.455-20.352-45.455-45.455s20.352-45.455 45.455-45.455c25.104 0 45.455 20.352 45.455 45.455s-20.352 45.455-45.455 45.455zm-272.727 0c-25.104 0-45.455-20.352-45.455-45.455s20.352-45.455 45.455-45.455c25.104 0 45.455 20.352 45.455 45.455s-20.352 45.455-45.455 45.455z"/></svg>