<svg width="1000" height="1000" viewBox="0 0 1000 1000" xmlns="http://www.w3.org/2000/svg"><path d="M314.113 948.787h371.805l262.87-262.899V314.096L685.917 51.213H314.113l-262.9 262.884v371.79l262.9 262.9zM285.76 991.95L8.051 714.239A25.284 25.284 0 0 1 .644 696.36V303.624a25.284 25.284 0 0 1 7.406-17.879L285.761 8.05A25.284 25.284 0 0 1 303.64.645h392.752a25.284 25.284 0 0 1 17.879 7.406l277.68 277.695a25.284 25.284 0 0 1 7.404 17.878V696.36a25.284 25.284 0 0 1-7.404 17.878l-277.68 277.71a25.284 25.284 0 0 1-17.88 7.407H303.64a25.284 25.284 0 0 1-17.879-7.405zm188.955-792.195c0-13.964 11.32-25.284 25.284-25.284 13.964 0 25.284 11.32 25.284 25.284v379.257c0 13.964-11.32 25.284-25.284 25.284-13.964 0-25.284-11.32-25.284-25.284V199.755zM500 762.319c-31.419 0-56.889-25.47-56.889-56.888 0-31.419 25.47-56.889 56.889-56.889 31.419 0 56.889 25.47 56.889 56.889 0 31.419-25.47 56.888-56.889 56.888z"/></svg>