<?xml version="1.0" standalone="no"?> 
<!DOCTYPE svg PUBLIC "-//W3C//DTD SVG 1.1//EN" "http://www.w3.org/Graphics/SVG/1.1/DTD/svg11.dtd" >
<svg xmlns="http://www.w3.org/2000/svg">
<defs>
  <font id="anarock-icons" horiz-adv-x="33">
    <font-face font-family="anarock-icons"
      units-per-em="32" ascent="32"
      descent="0" />
    <missing-glyph horiz-adv-x="0" />
    <glyph glyph-name="add"
      unicode="&#xF101;"
      horiz-adv-x="32" d=" M4.661 28.667H11.334V20.667C11.334 19.931 11.931 19.334 12.667 19.334H15.008A9.997 9.997 0 0 1 10 10.667C10 9.499 10.2 8.377 10.569 7.335L4.667 7.334L4.661 28.667zM20.667 22H14.001V28.666L20.667 22zM21.333 13.996V12H23.329C24.068 12 24.666 11.408 24.666 10.667C24.666 9.931 24.068 9.334 23.329 9.334H21.333V7.338C21.333 6.599 20.741 6.001 20 6.001A1.335 1.335 0 0 0 18.667 7.338V9.334H16.671A1.332 1.332 0 0 0 15.334 10.667C15.334 11.403 15.932 12 16.671 12H18.667V13.996C18.667 14.735 19.259 15.333 20 15.333C20.736 15.333 21.333 14.735 21.333 13.996zM23.333 22.401C23.333 22.763 23.124 23.276 22.865 23.535L15.537 30.865C15.282 31.12 14.771 31.333 14.403 31.333H4.66A2.666 2.666 0 0 1 1.999 28.666V7.333A2.67 2.67 0 0 1 4.668 4.666H11.998A9.984 9.984 0 0 1 19.999 0.666C25.522 0.666 29.999 5.143 29.999 10.666C29.999 15.02 27.216 18.724 23.332 20.097V22.4zM27.333 10.667A7.333 7.333 0 1 0 12.667 10.667A7.333 7.333 0 0 0 27.333 10.667z" />
    <glyph glyph-name="arrow-down"
      unicode="&#xF102;"
      horiz-adv-x="32" d=" M24.391 21.609A1.333 1.333 0 1 0 26.277 19.723L16.944 10.39A1.333 1.333 0 0 0 15.058 10.39L5.725 19.723A1.333 1.333 0 1 0 7.611 21.609L16.002 13.218L24.393 21.609z" />
    <glyph glyph-name="arrow-right"
      unicode="&#xF103;"
      horiz-adv-x="32" d=" M10.391 24.391A1.333 1.333 0 1 0 12.277 26.277L21.61 16.944A1.333 1.333 0 0 0 21.61 15.058L12.277 5.725A1.333 1.333 0 1 0 10.391 7.611L18.782 16.002L10.391 24.393z" />
    <glyph glyph-name="back"
      unicode="&#xF104;"
      horiz-adv-x="32" d=" M6.07 17.778H30.322C31.249 17.778 32.001 16.989 32.001 16C32.001 15.018 31.254 14.222 30.322 14.222H6.07L10.146 10.146A1.778 1.778 0 0 0 7.632 7.632L0.521 14.743A1.778 1.778 0 0 0 0.521 17.257L7.632 24.368A1.778 1.778 0 0 0 10.146 21.854L6.07 17.778z" />
    <glyph glyph-name="calendar"
      unicode="&#xF105;"
      horiz-adv-x="32" d=" M13.333 5.333H18.666V10.666H13.333V5.333zM18.667 13.333V18.666H13.334V13.333H18.667zM21.333 10.667V5.334H25.34A1.33 1.33 0 0 1 26.667 6.667V10.667H21.334zM26.667 18.667H21.334V13.334H26.667V18.667zM5.333 10.667V6.667A1.33 1.33 0 0 1 6.66 5.334H10.667V10.667H5.334zM10.667 13.333V18.666H5.334V13.333H10.667zM26.667 24A1.33 1.33 0 0 1 25.34 25.333A1.34 1.34 0 0 0 24 24A1.33 1.33 0 0 0 22.667 25.333H20A1.33 1.33 0 0 0 18.667 24A1.33 1.33 0 0 0 17.334 25.333H14.667A1.33 1.33 0 0 0 13.334 24A1.33 1.33 0 0 0 12.001 25.333H9.334A1.33 1.33 0 0 0 8.001 24A1.33 1.33 0 0 0 6.668 25.333A1.33 1.33 0 0 1 5.335 24V21.333H26.668V24zM29.333 24V6.667C29.333 4.458 27.546 2.667 25.34 2.667H6.66A3.9969999999999994 3.9969999999999994 0 0 0 2.667 6.667V24C2.667 26.209 4.454 28 6.66 28L6.667 29.334A1.33 1.33 0 0 0 8 30.667A1.33 1.33 0 0 0 9.333 29.334V28H12V29.334A1.33 1.33 0 0 0 13.333 30.667A1.33 1.33 0 0 0 14.666 29.334V28H17.333V29.334A1.33 1.33 0 0 0 18.666 30.667A1.33 1.33 0 0 0 19.999 29.334V28H22.666V29.334A1.33 1.33 0 0 0 23.999 30.667A1.33 1.33 0 0 0 25.332 29.334V28C27.545 28 29.332 26.208 29.332 24z" />
    <glyph glyph-name="call"
      unicode="&#xF106;"
      horiz-adv-x="32" d=" M18.182 32C25.814 32 32 25.813 32 18.182C32 16.057 31.52 14.043 30.663 12.245L31.928 6.623C32.28 5.059 31.294 4.078 29.727 4.432L24.115 5.699A13.739999999999998 13.739999999999998 0 0 0 19.699 4.446A10.894 10.894 0 0 0 10.91 0C4.885 0 0.001 4.884 0.001 10.909C0.001 14.515 1.75 17.712 4.447 19.698C5.202 26.616 11.064 32 18.183 32zM23.773 8.758L28.721 7.622L27.604 12.588L28.037 13.496A10.852999999999998 10.852999999999998 0 0 1 29.091 18.182C29.091 24.207 24.207 29.091 18.182 29.091C13.259 29.091 9.098 25.83 7.74 21.351A10.909 10.909 0 0 0 10.909 21.818C16.934 21.818 21.818 16.934 21.818 10.909C21.818 9.807 21.654 8.742 21.35 7.739C21.868 7.896 23.773 8.758 23.773 8.758zM10.909 2.909A8 8 0 1 1 10.909 18.909A8 8 0 0 1 10.909 2.909z M10.153 13.058L9.611 12.516A0.77 0.77 0 0 1 9.613 11.428L11.42 9.621A0.767 0.767 0 0 1 12.508 9.619L13.05 10.161C13.25 10.361 13.575 10.362 13.776 10.161L15.767 8.17C16.067 7.87 16.069 7.384 15.766 7.082L14.68 5.996C13.981 5.297 12.711 5.113 11.862 5.621C11.862 5.621 10.502 6.193 8.357 8.338S5.619 11.868 5.619 11.868C5.124 12.725 5.292 13.989 5.99 14.686L7.076 15.772A0.767 0.767 0 0 0 8.164 15.773L10.155 13.782C10.355 13.582 10.356 13.258 10.154 13.056z" />
    <glyph glyph-name="car"
      unicode="&#xF107;"
      horiz-adv-x="32" d=" M10.182 16V20.363L9.451 20.364C6.555 20.37 4.217 18.905 3.313 16H10.182zM2.909 8.727H3.884A4.365 4.365 0 0 0 12.114 8.727H19.883A4.365 4.365 0 0 0 28.113 8.727H29.089V10.182C29.089 11.484 28.407 12.419 26.841 13.091H2.907V8.727zM19.791 17.464L19.622 17.727C18.313 19.762 17.587 20.364 16 20.364L13.091 20.363V16H20.812C20.487 16.415 20.153 16.9 19.791 17.464zM32 10.182V7.273A1.45 1.45 0 0 0 30.547 5.818H28.116A4.365 4.365 0 0 0 19.886 5.818H12.117A4.365 4.365 0 0 0 3.887 5.818H1.461A1.453 1.453 0 0 0 0.002 7.273V13.089C-0.008 19.629 4.191 23.285 9.46 23.273C10.94 23.27 14.581 23.273 16.002 23.273C18.848 23.273 20.278 22.088 22.071 19.301L22.24 19.037C23.289 17.405 23.817 16.878 24.697 16.712C29.402 15.821 32.002 13.803 32.002 10.183zM25.455 7.273A1.4550000000000003 1.4550000000000003 0 1 1 22.545 7.273A1.4550000000000003 1.4550000000000003 0 0 1 25.455 7.273zM9.455 7.273A1.4550000000000003 1.4550000000000003 0 1 1 6.545 7.273A1.4550000000000003 1.4550000000000003 0 0 1 9.455 7.273z" />
    <glyph glyph-name="check"
      unicode="&#xF108;"
      horiz-adv-x="32" d=" M4.276 16.276A1.333 1.333 0 1 1 2.39 14.39L10.39 6.39A1.333 1.333 0 0 1 12.276 6.39L29.609 23.723A1.333 1.333 0 1 1 27.723 25.609L11.332 9.218L4.275 16.275z" />
    <glyph glyph-name="checkbox-selected"
      unicode="&#xF109;"
      horiz-adv-x="32" d=" M12.416 7.084L28.416 23.084L25.916 25.668L12.416 12.168L6.0826666666667 18.5013333333333L3.5826666666667 16.0013333333333zM28.416 32C30.416 32 32 30.3333333333333 32 28.416V3.5826666666667C32 1.6666666666667 30.416 -0.0013333333333 28.416 -0.0013333333333H3.5826666666667C1.5826666666667 -0.0013333333333 -0.0013333333333 1.6653333333333 -0.0013333333333 3.5826666666667V28.416C-0.0013333333333 30.332 1.5826666666667 32 3.5826666666667 32H28.416z" />
    <glyph glyph-name="checkbox-unfilled"
      unicode="&#xF10A;"
      horiz-adv-x="32" d=" M2.667 5.333V26.667A2.664 2.664 0 0 0 5.333 29.333H26.667A2.664 2.664 0 0 0 29.333 26.667V5.333A2.664 2.664 0 0 0 26.667 2.667H5.333A2.664 2.664 0 0 0 2.667 5.333zM26.667 26.667H5.333V5.333H26.667V26.667zM13.057 11.057L9.057 15.057A1.333 1.333 0 1 0 10.943 16.943L14 13.867L20.391 20.276A1.333 1.333 0 1 0 22.277 18.39L14.944 11.057A1.333 1.333 0 0 0 13.058 11.057z" />
    <glyph glyph-name="checkbox-unselected"
      unicode="&#xF10B;"
      horiz-adv-x="32" d=" M28.416 32C30.332 32 32 30.3333333333333 32 28.416V3.5826666666667C32 1.6666666666667 30.3333333333333 -0.0013333333333 28.416 -0.0013333333333H3.5826666666667C1.6666666666667 -0.0013333333333 -0.0013333333333 1.6653333333333 -0.0013333333333 3.5826666666667V28.416C-0.0013333333333 30.332 1.6653333333333 32 3.5826666666667 32H28.416zM28.416 28.416H3.5826666666667V3.5826666666667H28.416V28.416z" />
    <glyph glyph-name="chevron-left"
      unicode="&#xF10C;"
      horiz-adv-x="32" d=" M21.609 7.609A1.333 1.333 0 1 0 19.723 5.723L10.39 15.056A1.333 1.333 0 0 0 10.39 16.942L19.723 26.275A1.333 1.333 0 1 0 21.609 24.389L13.218 15.998L21.609 7.607z" />
    <glyph glyph-name="clock"
      unicode="&#xF10D;"
      horiz-adv-x="32" d=" M16 0C7.163 0 0 7.163 0 16S7.163 32 16 32S32 24.837 32 16S24.837 0 16 0zM16 3.2C23.069 3.2 28.8 8.931 28.8 16S23.069 28.8 16 28.8C8.931 28.8 3.2 23.069 3.2 16S8.931 3.2 16 3.2z M17.024 21.777V21.781C17.024 22.712 16.269 23.466 15.339 23.466H15.328C14.397 23.466 13.643 22.711 13.643 21.781V15.018C13.643 14.087 14.398 13.333 15.328 13.333H21.25C22.181 13.333 22.935 14.088 22.935 15.018V15.023V15.025C22.935 15.956 22.18 16.71 21.25 16.71H17.024V21.777z" />
    <glyph glyph-name="close-circle-filled"
      unicode="&#xF10E;"
      horiz-adv-x="32" d=" M16 0C7.163 0 0 7.163 0 16S7.163 32 16 32S32 24.837 32 16S24.837 0 16 0zM21.395 20.405A0.6999999999999998 0.6999999999999998 0 0 1 20.405 21.395L16 16.99L11.595 21.395A0.6999999999999998 0.6999999999999998 0 0 1 10.605 20.405L15.01 16L10.605 11.595A0.6999999999999998 0.6999999999999998 0 0 1 11.595 10.605L16 15.01L20.405 10.605A0.6999999999999998 0.6999999999999998 0 0 1 21.395 11.595L16.99 16L21.395 20.405z" />
    <glyph glyph-name="close-circle"
      unicode="&#xF10F;"
      horiz-adv-x="32" d=" M16 18.263L19.965 22.228A1.596 1.596 0 0 0 22.223 22.223C22.852 21.594 22.85 20.587 22.228 19.965L18.263 16L22.228 12.035A1.593 1.593 0 0 0 22.223 9.777A1.596 1.596 0 0 0 19.965 9.772L16 13.737L12.035 9.772A1.596 1.596 0 0 0 9.777 9.777A1.593 1.593 0 0 0 9.772 12.035L13.737 16L9.772 19.965A1.593 1.593 0 0 0 9.777 22.223A1.596 1.596 0 0 0 12.035 22.228L16 18.263zM16 0C7.163 0 0 7.163 0 16S7.163 32 16 32S32 24.837 32 16S24.837 0 16 0zM16 3.2C23.069 3.2 28.8 8.931 28.8 16S23.069 28.8 16 28.8C8.931 28.8 3.2 23.069 3.2 16S8.931 3.2 16 3.2z" />
    <glyph glyph-name="close"
      unicode="&#xF110;"
      horiz-adv-x="32" d=" M26.276 24.391A1.333 1.333 0 1 1 24.39 26.277L15.999 17.887L7.608 26.277A1.333 1.333 0 1 1 5.722 24.391L14.112 16.001L5.722 7.611A1.333 1.333 0 1 1 7.608 5.725L15.999 14.115L24.39 5.725A1.333 1.333 0 1 1 26.276 7.611L17.886 16.001L26.276 24.391z" />
    <glyph glyph-name="copy"
      unicode="&#xF111;"
      horiz-adv-x="32" d=" M16.667 28H12V9.335L25.333 9.333V19.333H19.335A2.666 2.666 0 0 0 16.666 21.994V27.999zM19.336 22H24.858L19.334 27.608L19.336 22zM22.667 2.689C22.667 1.955 22.067 1.359 21.339 1.358L5.327 1.335A1.325 1.325 0 0 0 4 2.666V24C4 24.736 4.593 25.333 5.337 25.333H9.333V29.333A1.33 1.33 0 0 0 10.669 30.666H19.381C19.751 30.666 20.264 30.452 20.525 30.19L27.527 23.143C27.788 22.88 28 22.362 28 22V8.027C28 7.29 27.4 6.692 26.672 6.691L22.666 6.685V2.689zM10.661 6.669A1.326 1.326 0 0 0 9.333 8V22.667H6.68L6.668 4H20V6.682L10.661 6.669z" />
    <glyph glyph-name="direction"
      unicode="&#xF112;"
      horiz-adv-x="32" d=" M17.724 16.943A1.333 1.333 0 1 1 19.61 15.057L24.943 20.39A1.333 1.333 0 0 1 24.943 22.276L19.61 27.609A1.333 1.333 0 1 1 17.724 25.723L20.781 22.666H9.333C8.597 22.666 8 22.069 8 21.333V5.333A1.333 1.333 0 0 1 10.666 5.333V20H20.78L17.723 16.943z" />
    <glyph glyph-name="document-uploaded"
      unicode="&#xF113;"
      horiz-adv-x="32" d=" M14.667 26.667H7.994L8 5.334H23.997S24 13.105 24 17.334H16A1.333 1.333 0 0 0 14.667 18.667V26.667zM17.333 20H24L17.333 26.667V20zM7.994 29.333H17.737C18.105 29.333 18.616 29.12 18.871 28.865L26.199 21.535C26.457 21.276 26.667 20.763 26.667 20.401V5.332A2.667 2.667 0 0 0 23.998 2.666H8.004A2.671 2.671 0 0 0 5.334 5.333V26.666A2.666 2.666 0 0 0 7.995 29.333zM9.333 9.333C9.333 10.069 9.932 10.666 10.66 10.666H21.339A1.333 1.333 0 0 0 21.339 8H10.66A1.327 1.327 0 0 0 9.333 9.333zM9.333 13.333C9.333 14.069 9.934 14.666 10.672 14.666H15.994A1.333 1.333 0 1 0 15.994 12H10.672C9.932 12 9.333 12.592 9.333 13.333z" />
    <glyph glyph-name="document"
      unicode="&#xF114;"
      horiz-adv-x="32" d=" M16 17.333A1.333 1.333 0 0 0 14.667 18.666V26.666H7.994L7.999 15.999H11.996C12.735 15.999 13.333 15.398 13.333 14.66V9.338C13.333 8.598 12.735 7.999 11.996 7.999H8V5.332H23.997L24 17.332H16zM24 20L17.333 26.667V20H24zM5.333 8A1.339 1.339 0 0 0 4 9.339V14.661C4 15.399 4.596 15.998 5.333 16V26.667A2.666 2.666 0 0 0 7.994 29.334H17.737C18.105 29.334 18.616 29.121 18.871 28.866L26.199 21.536C26.457 21.277 26.667 20.764 26.667 20.402V5.333A2.667 2.667 0 0 0 23.998 2.667H8.004A2.671 2.671 0 0 0 5.334 5.334V8.001z" />
    <glyph glyph-name="download"
      unicode="&#xF115;"
      horiz-adv-x="32" d=" M13.181 14.056L14.672 12.564V27.998A1.333 1.333 0 0 0 17.338 27.998V12.564L18.829 14.056A1.333 1.333 0 1 0 20.715 12.17L16.952 8.405A1.33 1.33 0 0 0 16.006 8.012A1.3170000000000002 1.3170000000000002 0 0 0 15.062 8.401L11.295 12.17A1.334 1.334 0 1 0 13.181 14.056zM24 5.334V9.336A1.333 1.333 0 1 0 26.666 9.336V5.334A2.668 2.668 0 0 0 24.005 2.667H7.993A2.66 2.66 0 0 0 5.332 5.334V9.336A1.333 1.333 0 1 0 7.998 9.336L7.992 5.334H23.998z" />
    <glyph glyph-name="edit-2"
      unicode="&#xF116;"
      horiz-adv-x="32" d=" M3.2 7.758L3.202 6.258A2.4 2.4 0 0 0 6.248 3.197L7.733 3.193L10.214 5.674L5.667 10.221L3.2 7.758zM21.068 25.594L7.931 12.481L12.476 7.936L25.603 21.063L21.068 25.594zM26.529 31.056L31.062 26.523A3.197 3.197 0 0 0 31.064 22.001L9.633 0.57C9.322 0.259 8.714 0.006 8.264 0.006H1.6A1.598 1.598 0 0 0 -0.001 1.606V8.269C-0.001 8.713 0.255 9.33 0.563 9.637L22.005 31.058A3.2 3.2 0 0 0 26.528 31.055z" />
    <glyph glyph-name="edit"
      unicode="&#xF117;"
      horiz-adv-x="32" d=" M24 5.521V14.849A1.333 1.333 0 0 0 26.666 14.849V5.521A2.667 2.667 0 0 0 23.998 2.85H5.334A2.6649999999999996 2.6649999999999996 0 0 0 2.666 5.518V24.182A2.668 2.668 0 0 0 5.339 26.85H14.686A1.333 1.333 0 0 0 14.686 24.184L5.333 24.183L5.334 5.517L24 5.521zM28.374 26.666A2.6649999999999996 2.6649999999999996 0 0 0 28.37 22.895L15.173 9.698L10.21 8.453C8.78 8.094 7.914 8.967 8.271 10.392L9.516 15.355L22.713 28.552A2.67 2.67 0 0 0 26.484 28.556L28.374 26.666zM13.798 12.093L14.702 12.997L12.817 14.882L11.925 13.99L11.299 11.48L13.798 12.094zM23.656 21.952L21.77 23.842L14.702 16.768L16.587 14.883L23.656 21.952z" />
    <glyph glyph-name="filter"
      unicode="&#xF118;"
      horiz-adv-x="32" d=" M20 10.667A4 4 0 0 0 17.333 6.895V5.334A1.33 1.33 0 0 0 16 4.001A1.33 1.33 0 0 0 14.667 5.334V6.895A4.001 4.001 0 0 0 14.667 14.439V26.667A1.33 1.33 0 0 0 16 28A1.33 1.33 0 0 0 17.333 26.667V14.439A4.001 4.001 0 0 0 20 10.667zM29.333 18.667A4 4 0 0 0 26.666 14.895V5.334A1.33 1.33 0 0 0 25.333 4.001A1.33 1.33 0 0 0 24 5.334V14.895A4.001 4.001 0 0 0 24 22.439V26.667A1.33 1.33 0 0 0 25.333 28A1.33 1.33 0 0 0 26.666 26.667V22.439A4.001 4.001 0 0 0 29.333 18.667zM10.667 21.333A4 4 0 0 0 8 17.561V5.333A1.33 1.33 0 0 0 6.667 4A1.33 1.33 0 0 0 5.334 5.333V17.561A4.001 4.001 0 0 0 5.334 25.105V26.666A1.33 1.33 0 0 0 6.667 27.999A1.33 1.33 0 0 0 8 26.666V25.105A4.001 4.001 0 0 0 10.667 21.333zM6.667 20A1.333 1.333 0 1 1 6.667 22.667A1.333 1.333 0 0 1 6.667 20zM16 9.333A1.333 1.333 0 1 1 16 12A1.333 1.333 0 0 1 16 9.333zM25.333 17.333A1.333 1.333 0 1 1 25.333 20A1.333 1.333 0 0 1 25.333 17.333z" />
    <glyph glyph-name="fire"
      unicode="&#xF119;"
      horiz-adv-x="32" d=" M17.424 0C14.459 0 12.529 0.727 12.529 0.727C11.642 0.983 10.254 1.511 9.447 1.968C9.447 1.968 3.077 4.393 3.077 12.599C3.077 19.727 9.259 22.827 10.923 25.179S13.617 31.181 13.617 31.181C13.89 32.035 14.723 32.262 15.408 31.668C15.408 31.668 21.959 27.445 20.958 17.441C23.332 19.162 24.927 22.874 24.927 22.874C25.331 23.698 26.088 23.751 26.582 22.972C26.582 22.972 35.561 11.272 25.042 2.677C23.579 1.575 20.388 0 17.422 0z" />
    <glyph glyph-name="history"
      unicode="&#xF11A;"
      horiz-adv-x="32" d=" M8.881 19.556A1.778 1.778 0 1 1 8.881 23.112H5.894C8.605 26.726 11.85 28.445 16 28.445C22.872 28.444 28.442 22.873 28.442 16.001S22.871 3.557 15.998 3.557C9.675 3.557 4.454 8.273 3.659 14.379L3.652 14.442A1.778 1.778 0 1 1 0.125 13.993L0.124 14.002C1.15 6.064 7.867 -0.005 16.001 -0.005C24.839 -0.005 32.003 7.159 32.003 15.997S24.839 31.999 16.001 31.999H16C10.914 31.999 6.835 29.934 3.556 25.889V28.436A1.778 1.778 0 1 1 0 28.436V21.332C0 20.839 0.198 20.395 0.523 20.075C0.844 19.753 1.287 19.554 1.777 19.554H8.881z M17.109 19.91V19.914C17.109 20.698 16.474 21.333 15.69 21.333H15.686C14.902 21.333 14.267 20.698 14.267 19.914V14.222C14.267 13.435 14.898 12.799 15.69 12.799H20.671C21.455 12.799 22.09 13.434 22.09 14.218V14.223V14.225C22.09 15.009 21.455 15.644 20.671 15.644H17.111V19.911z" />
    <glyph glyph-name="home"
      unicode="&#xF11B;"
      horiz-adv-x="32" d=" M6.668 5.333L10.667 5.332V13.336C10.667 14.071 11.263 14.666 11.996 14.666H20.004A1.33 1.33 0 0 0 21.333 13.336V5.329L25.333 5.327V18.111L16 27.436L6.667 18.111L6.668 5.333zM3.609 15.057A1.333 1.333 0 1 0 1.723 16.943L15.056 30.276A1.333 1.333 0 0 0 16.942 30.276L30.275 16.943A1.333 1.333 0 1 0 28.389 15.057L27.998 15.447V5.327A2.661 2.661 0 0 0 25.33 2.666H6.666A2.664 2.664 0 0 0 3.998 5.327V15.447L3.607 15.057zM18.667 5.331V12.002L13.334 12V5.332L18.667 5.331z" />
    <glyph glyph-name="info"
      unicode="&#xF11C;"
      horiz-adv-x="32" d=" M17.333 11.333H18A1.33 1.33 0 0 0 19.333 10A1.33 1.33 0 0 0 18 8.667H14A1.33 1.33 0 0 0 12.667 10A1.33 1.33 0 0 0 14 11.333H14.667V15.333H14.004A1.332 1.332 0 0 0 12.667 16.666A1.33 1.33 0 0 0 14.004 17.999H15.996C16.367 17.999 16.7 17.85 16.941 17.609C17.184 17.369 17.333 17.036 17.333 16.666V11.333zM16 2.667C8.636 2.667 2.667 8.637 2.667 16S8.637 29.333 16 29.333C23.364 29.333 29.333 23.363 29.333 16S23.363 2.667 16 2.667zM16 5.333C21.891 5.333 26.667 10.109 26.667 16S21.891 26.667 16 26.667S5.333 21.891 5.333 16S10.109 5.333 16 5.333zM16 19.333A2 2 0 1 0 15.999 23.332A2 2 0 0 0 16 19.333z" />
    <glyph glyph-name="invoice"
      unicode="&#xF11D;"
      horiz-adv-x="32" d=" M4 4V26.667A2.664 2.664 0 0 0 6.668 29.333H25.332A2.6649999999999996 2.6649999999999996 0 0 0 28 26.667V4A1.334 1.334 0 0 0 26.07 2.807L24.015 3.835L21.93 2.807A1.332 1.332 0 0 0 20.737 2.807L18.67 3.84L16.596 2.807A1.332 1.332 0 0 0 15.403 2.807L13.337 3.84L11.264 2.807A1.332 1.332 0 0 0 10.071 2.807L8.002 3.841L5.928 2.808A1.334 1.334 0 0 0 3.998 4.001zM25.332 26.667H6.666V6.159L7.403 6.526A1.33 1.33 0 0 0 8.595 6.526L10.679 5.486L12.736 6.526A1.332 1.332 0 0 0 13.929 6.526L15.999 5.488L18.069 6.526A1.332 1.332 0 0 0 19.262 6.526L21.352 5.482L23.402 6.526A1.332 1.332 0 0 0 24.595 6.526L25.339 6.154L25.331 26.667zM16 12A1.33 1.33 0 0 0 17.333 13.333H21.333A1.33 1.33 0 0 0 22.666 12A1.33 1.33 0 0 0 21.333 10.667H17.333A1.33 1.33 0 0 0 16 12zM9.333 17.333C9.333 18.069 9.932 18.666 10.66 18.666H21.339A1.333 1.333 0 0 0 21.339 16H10.66A1.327 1.327 0 0 0 9.333 17.333zM9.333 22.667C9.333 23.403 9.932 24 10.66 24H21.339A1.333 1.333 0 0 0 21.339 21.334H10.66A1.327 1.327 0 0 0 9.333 22.667z" />
    <glyph glyph-name="junk"
      unicode="&#xF11E;"
      horiz-adv-x="32" d=" M23.849 26.112L5.888 8.151A12.745 12.745 0 0 0 3.2 16C3.2 23.069 8.931 28.8 16 28.8C18.958 28.8 21.682 27.797 23.849 26.112zM26.112 23.849A12.745 12.745 0 0 0 28.8 16C28.8 8.931 23.069 3.2 16 3.2A12.742999999999999 12.742999999999999 0 0 0 8.151 5.888L26.112 23.849zM32 16C32 24.837 24.837 32 16 32S0 24.837 0 16S7.163 0 16 0S32 7.163 32 16z" />
    <glyph glyph-name="location"
      unicode="&#xF11F;"
      horiz-adv-x="32" d=" M21.946 7.474C19.789 4.914 17.07 2.666 16 2.666S12.212 4.913 10.054 7.474C7.126 10.949 5.333 14.771 5.333 18.666C5.333 24.557 10.109 29.333 16 29.333S26.667 24.557 26.667 18.666C26.667 14.771 24.874 10.948 21.946 7.474zM15.099 6.194C15.495 5.867 16 5.5 16 5.5S16.562 5.913 16.901 6.194A24.187000000000005 24.187000000000005 0 0 1 19.907 9.192C22.466 12.229 24.001 15.5 24.001 18.666A8 8 0 0 1 8.001 18.666C8.001 15.5 9.535 12.229 12.095 9.192A24.12 24.12 0 0 1 15.101 6.194zM12 18.667A4 4 0 1 0 20 18.667A4 4 0 0 0 12 18.667zM17.333 18.667A1.333 1.333 0 1 1 14.666 18.667A1.333 1.333 0 0 1 17.333 18.667z" />
    <glyph glyph-name="logout-door"
      unicode="&#xF120;"
      horiz-adv-x="29" d=" M23.76 20.516C23.171 21.095 23.168 22.037 23.754 22.619S25.292 23.204 25.881 22.625L28.89 19.668C29.479 19.089 29.482 18.147 28.896 17.565L25.887 14.573C25.301 13.99 24.349 13.988 23.76 14.567S23.168 16.088 23.754 16.67L24.21 17.127H16.543C15.715 17.127 15.043 17.787 15.043 18.614C15.043 19.435 15.716 20.101 16.543 20.101H24.182L23.76 20.516zM12.034 5.228V1.935C12.034 0.364 10.463 -0.511 9.104 0.32L1.348 5.062C0.555 5.547 0 6.535 0 7.453V29.774C0 30.25 0.144 30.661 0.383 30.981A0.565 0.565 0 0 0 0.471 31.134A2.264 2.264 0 0 0 2.258 31.999H18.804C20.048 31.999 21.061 31 21.061 29.773V26.049C21.061 25.228 20.387 24.562 19.557 24.562S18.053 25.228 18.053 26.049V29.024L6.788 29.03L10.688 26.646C11.481 26.161 12.036 25.173 12.036 24.255V8.202H18.053V11.177C18.053 11.998 18.727 12.664 19.557 12.664S21.061 11.998 21.061 11.177V7.453C21.061 6.221 20.048 5.227 18.804 5.227H12.035zM9.033 24.119L3.008 27.819V7.472L9.033 3.845V24.119z" />
    <glyph glyph-name="logout"
      unicode="&#xF121;"
      horiz-adv-x="32" d=" M1.778 14.222C1.778 18.965 4.119 23.316 7.955 25.951A1.778 1.778 0 0 0 9.969 23.021A10.651999999999997 10.651999999999997 0 0 1 5.334 14.222C5.334 8.331 10.11 3.555 16.001 3.555S26.668 8.331 26.668 14.222C26.668 17.721 24.974 20.932 22.174 22.922A1.778 1.778 0 0 0 24.234 25.82A14.205 14.205 0 0 0 30.223 14.222C30.223 6.367 23.856 0 16.001 0S1.779 6.367 1.779 14.222zM14.222 30.23C14.222 31.207 15.011 32 16 32C16.982 32 17.778 31.202 17.778 30.23V15.991A1.77 1.77 0 0 0 16 14.221A1.778 1.778 0 0 0 14.222 15.991V30.23z" />
    <glyph glyph-name="mail"
      unicode="&#xF122;"
      horiz-adv-x="32" d=" M18.667 14.114L16.943 12.39A1.333 1.333 0 0 0 15.057 12.39L13.333 14.114L5.881 6.662L26.114 6.666L18.666 14.114zM28 23.448L20.552 16L27.999 8.553V23.448zM11.448 16L4.001 23.447V8.552L11.449 16zM16 15.175L26.125 25.338L5.88 25.334L16.001 15.175zM4.001 28H27.999A2.664 2.664 0 0 0 30.667 25.34V6.66A2.664 2.664 0 0 0 27.999 4H4.001A2.664 2.664 0 0 0 1.333 6.66V25.34A2.664 2.664 0 0 0 4.001 28z" />
    <glyph glyph-name="mic"
      unicode="&#xF123;"
      horiz-adv-x="23" d=" M11.692 11.79C14.465 11.79 16.686 14.047 16.686 16.842L16.702 26.947C16.702 29.745 14.464 32.001 11.692 32.001S6.682 29.744 6.682 26.949V16.844C6.682 14.048 8.92 11.79 11.692 11.79zM20.545 16.842C20.545 11.79 16.303 8.252 11.692 8.252S2.839 11.789 2.839 16.843H0C0 11.099 4.543 6.349 10.022 5.524V0H13.362V5.524C18.843 6.333 23.384 11.082 23.384 16.842H20.545z" />
    <glyph glyph-name="more"
      unicode="&#xF124;"
      horiz-adv-x="10" d=" M9.37 16.378C9.37 14.033 7.585 12.132 5.385 12.132S1.4 14.033 1.4 16.378S3.185 20.624 5.385 20.624C7.586 20.624 9.37 18.723 9.37 16.378zM9.37 5.057C9.37 2.712 7.585 0.811 5.385 0.811S1.4 2.712 1.4 5.057S3.185 9.303 5.385 9.303C7.586 9.303 9.37 7.402 9.37 5.056zM9.37 27.699C9.37 25.354 7.585 23.453 5.385 23.453S1.4 25.354 1.4 27.7C1.4 30.043 3.185 31.944 5.385 31.944S9.37 30.043 9.37 27.698z" />
    <glyph glyph-name="note"
      unicode="&#xF125;"
      horiz-adv-x="32" d=" M23.997 5.333L24 17.333H16A1.333 1.333 0 0 0 14.667 18.666V26.666H7.994L8 5.333H23.997zM17.333 26.667V20H24L17.333 26.667zM7.994 29.333H17.737C18.105 29.333 18.616 29.12 18.871 28.865L26.199 21.535C26.457 21.276 26.667 20.763 26.667 20.401V5.332A2.667 2.667 0 0 0 23.998 2.666H8.004A2.671 2.671 0 0 0 5.334 5.333V26.666A2.666 2.666 0 0 0 7.995 29.333z" />
    <glyph glyph-name="notification"
      unicode="&#xF126;"
      horiz-adv-x="32" d=" M8.003 5.333A4.003 4.003 0 0 0 4 9.333C4 10.798 4.793 12.104 6.006 12.801L6 18.001A9.982000000000001 9.982000000000001 0 0 0 13.333 27.646V27.999A2.667 2.667 0 1 0 18.667 27.999V27.646A9.983 9.983 0 0 0 26 17.994V12.789C27.214 12.088 28 10.788 28 9.332A4 4 0 0 0 23.997 5.332H20A4.005 4.005 0 0 0 16 1.332C13.791 1.332 12 3.121 12 5.329L8.003 5.332zM14.667 5.333C14.667 4.595 15.263 4 16 4C16.732 4 17.331 4.598 17.333 5.333H14.666zM23.333 11.552V17.995A7.331 7.331 0 0 1 16 25.333A7.331 7.331 0 0 1 8.667 18.002V11.552C8.667 11.179 8.381 10.808 8.027 10.718L7.666 10.625A1.332 1.332 0 0 1 8.003 8.001H23.997A1.333 1.333 0 0 1 24.333 10.625L23.983 10.715C23.628 10.807 23.333 11.183 23.333 11.552z" />
    <glyph glyph-name="open-external"
      unicode="&#xF127;"
      horiz-adv-x="32" d=" M28.444 25.93L11.923 9.409A1.778 1.778 0 0 0 9.409 11.923L25.93 28.444H21.333A1.778 1.778 0 1 0 21.333 32H30.222C31.204 32 32 31.204 32 30.222V21.333A1.778 1.778 0 1 0 28.444 21.333V25.93zM28.444 14.222A1.778 1.778 0 1 0 32 14.222V3.551A3.55 3.55 0 0 0 28.445 0H3.556A3.552 3.552 0 0 0 0.001 3.555V28.444A3.5529999999999995 3.5529999999999995 0 0 0 3.552 31.999H14.223A1.778 1.778 0 1 0 14.223 28.443H3.556V3.554H28.445V14.221z" />
    <glyph glyph-name="pause"
      unicode="&#xF128;"
      horiz-adv-x="32" d=" M12.093 4.457A4.457 4.457 0 0 0 3.179 4.457V27.543A4.457 4.457 0 0 0 12.093 27.543V4.457zM28.821 4.457A4.457 4.457 0 0 0 19.907 4.457V27.543A4.457 4.457 0 0 0 28.821 27.543V4.457z" />
    <glyph glyph-name="phone"
      unicode="&#xF129;"
      horiz-adv-x="32" d=" M14.548 22.341L13.136 20.929C12.356 20.149 12.357 18.88 13.141 18.096L17.846 13.391A1.9979999999999998 1.9979999999999998 0 0 1 20.679 13.386L22.091 14.798A1.334 1.334 0 0 0 23.98 14.799L29.163 9.616A2 2 0 0 0 29.16 6.782L26.333 3.955C24.512 2.134 21.206 1.655 18.995 2.978C18.995 2.978 15.454 4.468 9.869 10.052S2.74 19.243 2.74 19.243C1.452 21.475 1.889 24.765 3.705 26.581L6.532 29.408A1.9990000000000003 1.9990000000000003 0 0 0 9.366 29.411L14.549 24.228A1.335 1.335 0 0 0 14.548 22.339zM5.591 24.697C4.626 23.732 4.463 21.802 5.05 20.577C5.05 20.577 5.992 18.868 6.418 18.239C7.678 16.38 9.431 14.263 11.755 11.939S16.183 7.873 18.02 6.631C18.64 6.212 20.364 5.267 20.364 5.267C21.48 4.683 23.465 4.86 24.447 5.841L26.807 8.201L23.036 11.972L22.564 11.5A4.665 4.665 0 0 0 15.96 11.505L11.255 16.21A4.67 4.67 0 0 0 11.25 22.814L11.722 23.286L7.951 27.057L5.591 24.697z" />
    <glyph glyph-name="play"
      unicode="&#xF12A;"
      horiz-adv-x="32" d=" M28.091 18.267L6.797 31.684C6.167 32.059 5.386 31.996 4.795 31.996C2.434 31.996 2.444 30.173 2.444 29.711V2.289C2.444 1.899 2.434 0.004 4.795 0.004C5.385 0.004 6.167 -0.058 6.797 0.316L28.091 13.732C29.839 14.772 29.537 15.999 29.537 15.999S29.839 17.226 28.091 18.266z" />
    <glyph glyph-name="plus"
      unicode="&#xF12B;"
      horiz-adv-x="32" d=" M17.333 26.667A1.33 1.33 0 0 1 16 28A1.33 1.33 0 0 1 14.667 26.667V17.333H5.333A1.33 1.33 0 0 1 4 16A1.33 1.33 0 0 1 5.333 14.667H14.667V5.333C14.667 4.593 15.264 4 16 4A1.33 1.33 0 0 1 17.333 5.333V14.667H26.667A1.33 1.33 0 0 1 28 16A1.33 1.33 0 0 1 26.667 17.333H17.333V26.667z" />
    <glyph glyph-name="profile-1"
      unicode="&#xF12C;"
      horiz-adv-x="33" d=" M24.736 15.222H21.836L16.696 10.984L11.556 15.222H8.656C6.399 15.222 4.236 14.337 2.644 12.762S0.164 9.054 0.176 6.833V0.001H33.216V6.833C33.228 9.054 32.339 11.188 30.748 12.762S26.993 15.222 24.736 15.222zM29.701 3.459H3.691V6.832C3.679 8.135 4.197 9.39 5.13 10.315S7.332 11.762 8.656 11.761H10.282L16.697 6.485L23.112 11.761H24.738C26.062 11.761 27.332 11.24 28.264 10.315S29.714 8.135 29.703 6.832V3.459z M16.696 14.659C21.543 14.659 25.475 18.522 25.483 23.293S21.572 31.94 16.725 31.956C11.878 31.972 7.933 28.121 7.909 23.351C7.909 18.567 11.836 14.683 16.696 14.659zM16.696 28.541C19.608 28.541 21.968 26.218 21.968 23.352S19.607 18.163 16.696 18.163C13.784 18.163 11.424 20.486 11.424 23.352S13.785 28.541 16.696 28.541z" />
    <glyph glyph-name="profile"
      unicode="&#xF12D;"
      horiz-adv-x="32" d=" M3.2 8.015V5.845C3.76 5.503 8.234 3.205 16 3.205S28.241 5.501 28.8 5.843V8.016C28.8 10.762 22.709 12.897 22.275 13.061C20.912 10.616 18.898 8.801 16 8.801C13.104 8.801 11.09 10.614 9.728 13.057C9.298 12.895 3.2 10.768 3.2 8.016zM7.2 23.714C7.2 28.29 11.14 32 16 32S24.8 28.29 24.8 23.714C24.8 21.772 24.461 18.793 23.542 16.006C26.747 14.782 32 12.799 32 8.015V4.804C32 3.036 25.096 0 16 0S0 3.042 0 4.804V8.015C0 12.815 5.256 14.78 8.46 16.002C7.54 18.79 7.2 21.771 7.2 23.714zM16 12C19.151 12 21.6 17.788 21.6 23.714C21.6 26.478 19.134 28.8 16 28.8S10.4 26.479 10.4 23.714C10.4 17.788 12.849 12 16 12z" />
    <glyph glyph-name="radio-check-filled"
      unicode="&#xF12E;"
      horiz-adv-x="32" d=" M16 32C24.837 32 32 24.837 32 16S24.837 0 16 0S0 7.163 0 16S7.163 32 16 32zM13.539 12.659L10.532 15.5A1.092 1.092 0 0 1 9.036 15.503A0.966 0.966 0 0 1 9.035 14.095L12.913 10.436A0.9650000000000001 0.9650000000000001 0 0 1 14.23 10.44L22.96 18.631A0.9829999999999999 0.9829999999999999 0 0 1 22.96 20.064A1.115 1.115 0 0 1 21.433 20.064L13.54 12.658z" />
    <glyph glyph-name="radio-check"
      unicode="&#xF12F;"
      horiz-adv-x="32" d=" M16 29.818C8.368 29.818 2.182 23.631 2.182 16S8.369 2.182 16 2.182C23.632 2.182 29.818 8.369 29.818 16S23.631 29.818 16 29.818zM16 32C24.837 32 32 24.837 32 16S24.837 0 16 0S0 7.163 0 16S7.163 32 16 32z M21.178 21.768A1.4570000000000003 1.4570000000000003 0 0 0 23.213 21.768C23.779 21.188 23.768 20.299 23.213 19.758L14.483 11.245A1.31 1.31 0 0 0 12.658 11.242L8.78 15.045C8.223 15.615 8.234 16.493 8.783 17.028A1.433 1.433 0 0 0 10.787 17.024L13.54 14.32L21.178 21.768z" />
    <glyph glyph-name="radio-selected"
      unicode="&#xF130;"
      horiz-adv-x="32" d=" M16 3.1546666666667C23.0613333333333 3.1546666666667 28.8453333333333 8.9386666666667 28.8453333333333 16S23.0613333333333 28.8453333333333 16 28.8453333333333S3.1546666666667 23.0613333333333 3.1546666666667 16S8.9386666666667 3.1546666666667 16 3.1546666666667zM16 32C24.864 32 32 24.864 32 16S24.864 0 16 0S0 7.136 0 16S7.136 32 16 32zM16 24.0373333333333C20.432 24.0373333333333 24.0373333333333 20.432 24.0373333333333 16S20.432 7.9626666666667 16 7.9626666666667S7.9626666666667 11.568 7.9626666666667 16S11.568 24.0373333333333 16 24.0373333333333z" />
    <glyph glyph-name="radio"
      unicode="&#xF131;"
      horiz-adv-x="32" d=" M16 3.1546666666667C23.0613333333333 3.1546666666667 28.8453333333333 8.9386666666667 28.8453333333333 16S23.0613333333333 28.8453333333333 16 28.8453333333333S3.1546666666667 23.0613333333333 3.1546666666667 16S8.9386666666667 3.1546666666667 16 3.1546666666667zM16 32C24.864 32 32 24.864 32 16S24.864 0 16 0S0 7.136 0 16S7.136 32 16 32z" />
    <glyph glyph-name="reschedule"
      unicode="&#xF132;"
      horiz-adv-x="32" d=" M23.119 19.556A1.777 1.777 0 1 0 23.119 23.112H26.108C23.394 26.726 20.149 28.445 16.001 28.445C9.128 28.445 3.557 22.873 3.557 16.001S9.129 3.557 16.001 3.557C22.295 3.557 27.578 8.256 28.349 14.445A1.777 1.777 0 1 0 31.877 14.005C30.885 6.042 24.093 0.001 16 0.001C7.163 0.001 0 7.164 0 16.001S7.163 32.001 16 32.001C21.086 32.001 25.165 29.937 28.444 25.891V28.437A1.777 1.777 0 1 0 32 28.437V21.333C32 20.84 31.801 20.396 31.477 20.077A1.7729999999999997 1.7729999999999997 0 0 0 30.215 19.556H23.119z M13.091 21.569C13.091 22.51 13.737 23.273 14.546 23.273C15.349 23.273 16.001 22.508 16.001 21.569V14.796C16.001 13.855 15.355 13.092 14.546 13.092C13.743 13.092 13.091 13.857 13.091 14.796V21.569zM21.569 16C22.51 16 23.273 15.354 23.273 14.545C23.273 13.742 22.508 13.09 21.569 13.09H14.796C13.855 13.09 13.092 13.736 13.092 14.545C13.092 15.348 13.857 16 14.796 16H21.569z" />
    <glyph glyph-name="reset"
      unicode="&#xF133;"
      horiz-adv-x="32" d=" M21.339 18.667A1.332 1.332 0 1 0 21.339 21.333H23.581C21.546 24.044 19.112 25.333 16 25.333A9.333 9.333 0 1 1 16 6.667C20.72 6.667 24.683 10.191 25.261 14.833A1.333 1.333 0 1 0 27.907 14.503C27.163 8.53 22.069 4 16 4C9.373 4 4 9.373 4 16S9.373 28 16 28C19.815 28 22.874 26.452 25.333 23.418V25.328A1.333 1.333 0 1 0 27.999 25.328V20C27.999 19.63 27.85 19.298 27.607 19.058A1.332 1.332 0 0 0 26.66 18.667H21.338z" />
    <glyph glyph-name="search"
      unicode="&#xF134;"
      horiz-adv-x="32" d=" M28.523 5.363C29.041 4.845 29.043 4.006 28.519 3.482A1.329 1.329 0 0 0 26.638 3.478L19.399 10.716A9.959 9.959 0 0 0 13.333 8.667C7.81 8.667 3.333 13.144 3.333 18.667S7.81 28.667 13.333 28.667S23.333 24.19 23.333 18.667A9.96 9.96 0 0 0 21.284 12.601L28.522 5.363zM13.333 11.333A7.333 7.333 0 1 1 13.333 25.999A7.333 7.333 0 0 1 13.333 11.333z" />
    <glyph glyph-name="share"
      unicode="&#xF135;"
      horiz-adv-x="32" d=" M10.667 16C10.667 15.735 10.641 15.476 10.592 15.225L22.545 9.534A4 4 0 1 0 21.361 7.144L9.223 12.923A4 4 0 1 0 9.225 19.076L21.362 24.854A4 4 0 1 0 22.547 22.464L10.593 16.773C10.642 16.523 10.668 16.264 10.668 16zM6.667 14.667A1.333 1.333 0 1 1 6.667 17.334A1.333 1.333 0 0 1 6.667 14.667zM25.333 24A1.333 1.333 0 1 1 25.333 26.667A1.333 1.333 0 0 1 25.333 24zM25.333 5.333A1.333 1.333 0 1 1 25.333 8A1.333 1.333 0 0 1 25.333 5.333z" />
    <glyph glyph-name="sms"
      unicode="&#xF136;"
      horiz-adv-x="32" d=" M18.058 30.667C25.022 30.667 30.667 24.996 30.667 18C30.667 16.052 30.229 14.206 29.447 12.557L30.601 7.404C30.922 5.97 30.022 5.071 28.593 5.395L23.472 6.556A12.492 12.492 0 0 0 19.378 5.401A9.988 9.988 0 0 0 11.334 1.346A9.958 9.958 0 0 0 6.656 2.505L3.256 1.453C1.845 1.017 1.05 1.806 1.48 3.22L2.516 6.623A9.945 9.945 0 0 0 1.334 11.34A9.98 9.98 0 0 0 5.534 19.482C6.265 25.779 11.593 30.667 18.058 30.667zM23.16 9.361L27.675 8.32L26.656 12.872L27.051 13.705A9.994 9.994 0 0 1 28.013 18C28.013 23.523 23.556 28 18.058 28C13.578 28 9.789 25.027 8.54 20.938A10.023 10.023 0 0 0 11.334 21.333C16.857 21.333 21.334 16.859 21.334 11.34C21.334 10.321 21.181 9.338 20.898 8.412C21.389 8.558 23.161 9.362 23.161 9.362zM5.39 6.896L4.706 4.685L6.92 5.369L7.909 4.846A7.292000000000001 7.292000000000001 0 0 1 11.333 4A7.3340000000000005 7.3340000000000005 0 1 1 4.867 7.869L5.39 6.896zM11.333 10A1.333 1.333 0 1 0 11.333 12.667A1.333 1.333 0 0 0 11.333 10zM15.333 10A1.333 1.333 0 1 0 15.333 12.667A1.333 1.333 0 0 0 15.333 10zM7.333 10A1.333 1.333 0 1 0 7.333 12.667A1.333 1.333 0 0 0 7.333 10z" />
    <glyph glyph-name="unchecked-radio"
      unicode="&#xF137;"
      horiz-adv-x="32" d=" M16 29.818C8.368 29.818 2.182 23.631 2.182 16S8.369 2.182 16 2.182C23.632 2.182 29.818 8.369 29.818 16S23.631 29.818 16 29.818zM16 32C24.837 32 32 24.837 32 16S24.837 0 16 0S0 7.163 0 16S7.163 32 16 32z" />
    <glyph glyph-name="undo"
      unicode="&#xF138;"
      horiz-adv-x="32" d=" M21.338 18.667A5.329999999999999 5.329999999999999 0 0 0 26.667 13.334A5.335 5.335 0 0 0 21.338 8.001H5.334A1.333 1.333 0 0 1 5.334 5.335H21.338C25.75 5.335 29.334 8.919 29.334 13.335C29.334 17.754 25.755 21.335 21.338 21.335H8.553L11.61 24.392A1.333 1.333 0 1 1 9.724 26.278L4.391 20.945A1.333 1.333 0 0 1 4.391 19.059L9.724 13.726A1.333 1.333 0 1 1 11.61 15.612L8.553 18.669H21.338z" />
    <glyph glyph-name="update"
      unicode="&#xF139;"
      horiz-adv-x="32" d=" M25.93 14.222H1.678C0.751 14.222 -0.001 15.011 -0.001 16C-0.001 16.982 0.746 17.778 1.678 17.778H25.93L21.854 21.854A1.778 1.778 0 0 0 24.368 24.368L31.479 17.257C32.173 16.563 32.173 15.437 31.479 14.743L24.368 7.632A1.778 1.778 0 0 0 21.854 10.146L25.93 14.222z" />
    <glyph glyph-name="updating"
      unicode="&#xF13A;"
      horiz-adv-x="32" d=" M16 32C20.907 32 25.444 29.799 28.444 26.228V28.445A1.778 1.778 0 1 0 32 28.445V21.334C32 20.352 31.204 19.556 30.222 19.556H29.427A1.821 1.821 0 0 0 29.246 19.556H23.111A1.778 1.778 0 1 0 23.111 23.112H26.36C24.064 26.375 20.207 28.445 15.999 28.445C9.704 28.445 4.419 23.744 3.65 17.553A1.778 1.778 0 0 0 0.122 17.991C1.112 25.957 7.904 32 15.999 32zM8.889 8.889H5.642C7.934 5.624 11.787 3.556 16.001 3.556C22.287 3.556 27.566 8.244 28.347 14.423A1.778 1.778 0 1 0 31.875 13.977C30.871 6.026 24.085 0 16.002 0C11.09 0 6.554 2.2 3.558 5.773V3.556A1.778 1.778 0 1 0 0.002 3.556V10.667C0.002 11.649 0.798 12.445 1.78 12.445H8.891A1.778 1.778 0 1 0 8.891 8.889z" />
    <glyph glyph-name="upload"
      unicode="&#xF13B;"
      horiz-adv-x="32" d=" M13.181 15.281A1.334 1.334 0 1 0 11.295 17.167L15.062 20.934A1.32 1.32 0 0 0 16.006 21.323C16.347 21.323 16.688 21.194 16.952 20.93L20.715 17.167A1.334 1.334 0 1 0 18.829 15.281L17.338 16.772V4.01A1.333 1.333 0 1 0 14.672 4.01V16.772L13.181 15.281zM24.673 10.667H21.333A1.333 1.333 0 0 0 21.333 13.333H24.673A3.3339999999999996 3.3339999999999996 0 0 1 24.673 19.999H22.761L22.574 21.112A6.669 6.669 0 0 1 9.426 21.112L9.239 19.999H7.327A3.3339999999999996 3.3339999999999996 0 0 1 7.327 13.333H10.667A1.333 1.333 0 0 0 10.667 10.667H7.327A6 6 0 0 0 7.075 22.662C7.683 25.771 11.424 29.334 15.999 29.334A9.339 9.339 0 0 0 24.959 22.623C27.899 22.623 30.666 19.977 30.666 16.668A6 6 0 0 0 24.672 10.668z" />
    <glyph glyph-name="warning"
      unicode="&#xF13C;"
      horiz-adv-x="32" d=" M19.741 28.651L31.243 8.212C33.145 4.832 31.28 1.636 27.405 1.636H4.587C0.708 1.636 -1.157 4.825 0.747 8.212L12.237 28.651C14.151 32.055 17.823 32.059 19.741 28.652zM16.952 27.081C16.259 28.312 15.564 28.073 15.028 27.082L3.538 6.643C2.992 5.572 3.158 4.837 4.588 4.837H27.406C28.454 4.837 29.156 5.395 28.454 6.642L16.952 27.081zM15.989 6.437A1.6009999999999998 1.6009999999999998 0 1 0 15.989 9.64A1.6009999999999998 1.6009999999999998 0 0 0 15.989 6.437zM14.388 20.837C14.388 21.724 15.098 22.442 15.989 22.442C16.873 22.442 17.59 21.724 17.59 20.837V12.844C17.59 11.957 16.88 11.239 15.989 11.239A1.603 1.603 0 0 0 14.388 12.844V20.837z" />
    <glyph glyph-name="whatsapp"
      unicode="&#xF13D;"
      horiz-adv-x="32" d=" M6.667 2.667L6.66 7.818A13.297 13.297 0 0 0 2.667 17.333C2.667 24.697 8.637 30.666 16 30.666S29.333 24.696 29.333 17.333C29.333 9.969 23.363 4 16 4C14.955 4 13.925 4.121 12.925 4.357C12.693 4.215 8.74 1.558 8.74 1.558A1.333 1.333 0 0 0 6.667 2.667zM5.333 17.333C5.333 14.257 6.641 11.394 8.889 9.382C9.172 9.129 9.333 8.768 9.333 8.388V5.12L11.953 6.904C12.279 7.121 12.683 7.184 13.059 7.076C14.006 6.805 14.993 6.666 16 6.666C21.891 6.666 26.667 11.442 26.667 17.333S21.891 28 16 28S5.333 23.224 5.333 17.333zM12.198 22.485A0.632 0.632 0 0 0 13.085 22.485L14.879 20.692A0.6330000000000001 0.6330000000000001 0 0 0 14.88 19.796C14.631 19.547 14.539 19.088 14.671 18.766C14.671 18.766 14.879 18.006 15.774 17.112S17.43 16.008 17.43 16.008C17.748 15.869 18.214 15.969 18.461 16.216A0.632 0.632 0 0 0 19.357 16.215L21.151 14.422A0.63 0.63 0 0 0 21.151 13.535L20.252 12.636C19.51 11.895 18.212 11.783 17.374 12.404C17.374 12.404 16.197 13.11 13.966 15.34S11.066 18.705 11.066 18.705C10.453 19.555 10.559 20.846 11.299 21.586L12.198 22.485z" />
  </font>
</defs>
</svg>
